<!DOCTYPE svg PUBLIC "-//W3C//DTD SVG 20010904//EN" "http://www.w3.org/TR/2001/REC-SVG-20010904/DTD/svg10.dtd">
<svg version="1.0" xmlns="http://www.w3.org/2000/svg" width="904px" height="294px" viewBox="0 0 9040 2940" preserveAspectRatio="xMidYMid meet">
<g id="layer1" fill="#3f3f3f" stroke="none">
 <path d="M6390 2832 c-152 -57 -239 -138 -273 -254 -16 -55 -17 -72 -7 -133 27 -168 73 -338 135 -506 151 -406 197 -544 193 -573 -3 -18 -15 -23 -76 -35 -58 -11 -80 -21 -113 -50 -36 -32 -41 -41 -41 -82 -1 -51 43 -140 90 -184 24 -22 27 -35 33 -117 12 -152 88 -350 193 -499 47 -68 164 -192 238 -252 36 -29 54 -37 86 -37 50 0 72 26 72 83 0 43 -13 58 -110 127 -99 70 -201 187 -247 283 -22 45 -48 105 -57 133 -15 49 -22 144 -11 144 3 0 22 -7 43 -16 121 -50 231 -52 285 -4 28 24 31 34 31 81 0 58 -14 89 -68 147 -41 45 -90 69 -168 82 -64 11 -84 9 -187 -21 -7 -2 -15 1 -18 7 -2 7 13 14 38 18 51 8 86 26 121 61 62 62 45 142 -93 435 -22 47 -47 99 -56 115 -23 46 -107 244 -127 300 -53 149 -66 217 -66 349 l0 130 49 46 c49 48 76 59 188 75 63 10 93 38 93 86 0 34 -5 42 -32 59 -39 24 -77 24 -138 2z"/>
 <path d="M7792 2597 c-13 -13 -22 -36 -22 -54 0 -18 48 -126 126 -282 69 -138 131 -268 139 -289 7 -20 30 -75 50 -122 80 -186 197 -509 189 -521 -3 -5 -13 -9 -22 -9 -9 0 -51 -10 -92 -22 -66 -19 -82 -29 -132 -80 -36 -36 -61 -71 -67 -95 -17 -59 -13 -231 5 -294 62 -207 231 -403 474 -549 103 -62 150 -67 203 -20 41 35 48 64 31 117 -7 21 -24 81 -39 133 -15 52 -35 118 -45 145 -11 28 -22 64 -25 80 -9 41 -43 144 -60 180 -8 17 -18 51 -24 75 -5 25 -17 59 -25 75 -8 17 -18 49 -22 73 -6 40 -5 42 18 42 38 0 175 -38 216 -60 74 -40 155 -15 164 52 10 62 -33 170 -140 363 -25 44 -60 107 -77 140 -63 120 -97 180 -106 190 -5 5 -9 17 -9 26 0 15 7 17 38 13 84 -12 181 -39 247 -71 116 -55 185 -41 185 39 0 64 -46 86 -325 158 -157 41 -231 48 -272 26 -40 -20 -63 -53 -63 -89 0 -35 6 -46 95 -182 97 -148 216 -388 232 -467 6 -29 5 -30 -23 -24 -16 3 -76 12 -133 20 -57 8 -107 18 -111 23 -5 4 -18 35 -30 68 -55 156 -102 294 -114 335 -16 54 -44 135 -86 250 -18 47 -38 108 -46 135 -7 28 -18 59 -23 70 -5 11 -20 52 -34 90 -73 201 -122 317 -138 325 -33 18 -84 12 -107 -13z m568 -1489 c12 -40 31 -99 41 -130 18 -51 28 -88 74 -258 18 -65 55 -256 55 -282 0 -27 -16 -23 -94 24 -100 59 -233 195 -273 278 -59 124 -66 145 -71 210 -6 88 10 143 52 175 39 30 106 53 157 54 l37 1 22 -72z"/>
 <path d="M2603 2388 c-11 -13 -23 -34 -26 -47 -3 -13 5 -132 18 -265 52 -529 75 -969 75 -1444 l0 -324 29 -29 c32 -31 45 -34 86 -19 53 20 55 40 48 487 -6 423 -2 523 22 523 8 0 57 -40 110 -90 104 -98 121 -106 209 -102 39 3 99 66 120 127 15 47 39 196 51 328 4 37 10 67 14 67 5 0 33 -38 64 -84 69 -103 155 -205 264 -311 l82 -80 10 -140 c6 -77 11 -203 11 -281 0 -172 13 -247 48 -274 14 -11 34 -20 44 -20 32 0 77 32 92 65 14 30 40 171 51 278 l7 58 44 -40 c51 -48 84 -52 119 -16 48 47 31 89 -72 170 -40 31 -74 62 -74 68 -3 24 1 88 22 343 20 245 21 266 6 339 -28 136 -99 223 -212 262 -25 8 -48 20 -52 26 -4 7 -10 96 -13 199 -5 180 -6 187 -29 212 -47 50 -127 26 -144 -41 -3 -13 6 -92 19 -175 13 -84 24 -159 24 -167 0 -10 -13 -12 -55 -9 -61 5 -75 12 -57 30 19 19 14 76 -8 98 -42 42 -106 19 -167 -62 -119 -156 -149 -241 -198 -557 -13 -89 -31 -177 -40 -197 l-15 -36 -60 53 c-154 136 -190 156 -271 145 l-49 -7 -2 138 c-1 76 -3 280 -3 455 l0 316 -24 26 c-32 34 -89 36 -118 4z m1087 -578 c7 -11 44 -307 55 -445 l6 -70 -45 50 c-116 126 -222 312 -233 408 -9 71 6 80 121 74 53 -3 91 -9 96 -17z m185 -63 c64 -64 70 -94 68 -357 -1 -124 -6 -238 -10 -253 l-8 -28 -37 38 -36 38 -16 240 c-9 132 -18 268 -21 303 -7 75 2 78 60 19z m23 -769 c13 -13 14 -78 3 -118 l-8 -25 -6 30 c-13 67 -18 125 -10 125 5 0 14 -5 21 -12z"/>
 <path d="M629 2350 c-70 -20 -99 -59 -125 -166 -15 -60 -18 -139 -19 -579 -2 -542 -14 -726 -54 -869 -34 -121 -71 -145 -172 -112 -100 33 -159 9 -159 -65 0 -47 31 -75 111 -101 176 -55 293 -3 339 152 40 134 43 188 45 770 2 521 8 656 31 726 18 55 28 74 39 74 26 0 80 -78 141 -205 143 -296 217 -587 359 -1410 41 -240 49 -271 75 -285 34 -18 87 -12 104 12 25 35 19 65 -28 162 -52 106 -86 240 -146 566 -54 296 -142 691 -186 838 -114 375 -225 529 -355 492z"/>
 <path d="M1431 2206 c-26 -28 -60 -145 -85 -296 -36 -218 -50 -809 -21 -944 25 -120 81 -181 166 -181 39 0 53 5 78 29 38 37 54 85 86 261 14 77 35 183 46 235 24 105 61 191 74 170 4 -7 11 -218 15 -469 9 -473 12 -510 61 -740 21 -98 33 -130 53 -143 21 -14 63 -8 81 12 18 20 18 24 1 118 -49 273 -48 258 -56 837 -4 393 -10 571 -19 597 -23 72 -100 100 -167 59 -64 -39 -129 -207 -203 -526 -43 -185 -56 -225 -70 -225 -13 0 -20 34 -32 165 -26 284 21 678 106 887 32 79 33 127 2 156 -32 31 -87 29 -116 -2z"/>
 <path d="M6895 2163 c-32 -8 -74 -54 -85 -92 -5 -20 -10 -93 -10 -163 0 -123 8 -182 54 -388 19 -85 97 -302 129 -360 14 -25 28 -56 32 -70 12 -40 102 -165 161 -223 64 -64 129 -101 203 -116 70 -15 116 -2 163 46 32 33 39 48 47 105 10 73 -1 282 -18 337 -6 19 -13 66 -17 106 -6 66 -5 74 15 92 28 26 63 33 162 33 93 0 164 -14 233 -46 28 -13 63 -24 77 -24 37 0 69 38 69 82 0 70 -56 93 -309 129 -220 31 -371 -26 -401 -151 -12 -50 -10 -83 16 -260 17 -119 18 -272 2 -288 -7 -7 -17 -12 -23 -12 -17 0 -43 93 -56 200 -6 52 -22 140 -35 195 -13 55 -35 150 -49 210 -60 270 -111 424 -178 537 -31 51 -99 118 -121 118 -8 0 -20 2 -28 4 -7 2 -22 1 -33 -1z m88 -255 c46 -63 81 -152 140 -353 8 -27 22 -104 31 -170 9 -66 21 -142 26 -168 13 -61 13 -177 1 -177 -12 0 -72 96 -106 170 -55 121 -74 169 -81 208 -3 20 -15 71 -26 112 -23 89 -39 410 -20 410 6 0 22 -15 35 -32z"/>
 <path d="M5885 2080 c-12 -13 -23 -59 -36 -157 -30 -214 -66 -423 -126 -723 -30 -151 -55 -294 -55 -318 -1 -56 30 -92 82 -92 60 0 79 30 91 141 53 530 73 675 141 1050 10 59 10 70 -5 93 -21 32 -66 35 -92 6z"/>
 <path d="M4347 1962 c-17 -19 -22 -67 -11 -96 3 -9 67 -69 143 -134 186 -162 309 -293 351 -374 19 -37 31 -72 27 -81 -11 -29 -82 -55 -233 -87 -197 -40 -233 -53 -281 -100 -88 -84 -63 -179 96 -351 90 -99 143 -111 187 -45 25 39 12 66 -76 166 -44 50 -80 97 -80 105 0 15 49 34 165 65 44 12 127 38 185 58 85 30 113 44 147 78 114 115 45 264 -243 527 -71 65 -157 150 -191 189 -34 38 -70 76 -80 84 -26 20 -87 18 -106 -4z"/>
 <path d="M5322 1467 c-50 -53 -13 -137 59 -137 47 0 79 34 79 81 0 71 -90 107 -138 56z"/>
 <path d="M2272 1187 c-31 -33 -30 -96 1 -125 55 -52 137 -13 137 64 0 76 -88 115 -138 61z"/>
 <path d="M5267 822 c-22 -25 -22 -85 1 -105 9 -9 94 -37 187 -62 293 -79 403 -122 518 -201 61 -42 100 -44 139 -7 34 33 36 62 3 93 -32 30 -747 299 -796 300 -22 0 -42 -7 -52 -18z"/>
 </g>

</svg>