<?xml version="1.0" standalone="no"?>
<!DOCTYPE svg PUBLIC "-//W3C//DTD SVG 20010904//EN"
 "http://www.w3.org/TR/2001/REC-SVG-20010904/DTD/svg10.dtd">
<svg version="1.0" xmlns="http://www.w3.org/2000/svg"
 width="1500.000000pt" height="1500.000000pt" viewBox="0 0 1500.000000 1500.000000"
 preserveAspectRatio="xMidYMid meet">
<metadata>
Created by potrace 1.15, written by Peter Selinger 2001-2017
</metadata>
<g transform="translate(0.000000,1500.000000) scale(0.100000,-0.100000)"
fill="#3f3f3f" stroke="none">
<path d="M3810 9570 c-63 -16 -171 -63 -198 -84 -7 -6 -18 -16 -25 -21 -7 -6
-31 -25 -54 -43 -52 -40 -130 -148 -158 -219 -12 -30 -25 -56 -29 -60 -3 -3
-6 -21 -6 -38 0 -18 -7 -49 -15 -68 -10 -25 -15 -72 -15 -152 0 -80 5 -127 15
-152 8 -19 15 -45 15 -57 0 -35 61 -147 103 -186 21 -21 54 -46 73 -56 19 -10
34 -22 34 -26 0 -5 11 -8 24 -8 13 0 29 -7 36 -15 7 -8 20 -15 30 -15 10 0 23
-7 30 -15 7 -8 21 -15 31 -15 10 0 33 -6 51 -14 51 -21 99 -37 138 -46 19 -4
51 -14 70 -21 19 -6 44 -15 55 -19 50 -17 132 -61 155 -83 14 -13 34 -42 44
-64 17 -39 17 -44 2 -74 -9 -18 -16 -37 -16 -44 0 -16 -48 -59 -94 -83 -52
-28 -148 -37 -237 -22 -40 7 -80 16 -89 20 -107 49 -166 82 -219 122 -63 47
-84 55 -108 40 -6 -4 -37 -60 -68 -124 -31 -65 -60 -120 -65 -123 -6 -4 -10
-12 -10 -19 0 -8 -18 -41 -40 -74 -44 -65 -49 -91 -22 -114 37 -32 279 -148
308 -148 12 0 27 -7 34 -15 7 -8 27 -15 44 -15 18 0 37 -5 43 -11 24 -24 293
-50 391 -38 131 15 194 27 205 38 6 6 21 11 33 11 20 0 54 14 104 42 8 4 22
11 30 14 8 3 22 10 30 15 8 5 22 12 30 16 31 14 130 94 167 137 46 52 94 148
118 232 22 77 32 333 16 413 -36 184 -185 331 -406 401 -38 12 -78 26 -87 31
-10 5 -26 9 -35 9 -10 0 -31 7 -47 15 -15 8 -36 15 -45 15 -9 0 -29 7 -45 15
-15 8 -34 15 -42 15 -28 0 -135 64 -159 96 -33 43 -34 109 -3 149 76 97 296
101 472 8 28 -15 59 -34 68 -41 23 -19 40 -5 75 62 41 80 82 157 110 206 43
77 73 137 73 149 0 6 -10 16 -22 21 -13 6 -30 14 -38 19 -14 7 -27 13 -120 53
-35 15 -158 47 -258 67 -86 18 -405 12 -482 -9z"/>
<path d="M5673 9508 c-21 -43 -27 -56 -58 -133 -9 -22 -23 -53 -31 -68 -8 -16
-14 -36 -14 -46 0 -9 -4 -21 -9 -26 -5 -6 -16 -28 -24 -50 -8 -22 -29 -78 -47
-125 -17 -47 -36 -101 -42 -120 -5 -19 -14 -39 -19 -44 -5 -6 -9 -19 -9 -29 0
-10 -6 -31 -13 -45 -8 -15 -22 -45 -31 -67 -10 -22 -24 -53 -32 -68 -8 -16
-14 -35 -14 -42 0 -7 -6 -26 -14 -42 -18 -36 -40 -86 -61 -143 -10 -25 -21
-54 -26 -65 -24 -54 -79 -212 -79 -226 0 -8 -7 -24 -15 -35 -8 -10 -15 -28
-15 -39 0 -11 -7 -29 -15 -39 -8 -11 -15 -30 -15 -42 0 -12 -7 -27 -15 -34 -8
-7 -15 -20 -15 -29 0 -10 -7 -26 -15 -37 -8 -10 -15 -27 -15 -36 0 -9 -6 -29
-14 -45 -8 -15 -22 -46 -31 -68 -9 -22 -21 -49 -26 -60 -10 -22 -65 -171 -82
-222 -20 -62 -17 -63 288 -63 151 0 281 3 290 6 16 7 65 104 65 130 0 8 5 14
10 14 6 0 10 7 10 16 0 16 20 67 46 116 8 14 14 32 14 40 0 8 6 22 13 32 12
16 40 17 376 17 201 -1 366 -2 367 -4 4 -4 63 -164 75 -204 5 -18 14 -35 19
-38 6 -4 10 -13 10 -22 0 -30 35 -92 55 -97 11 -3 142 -6 291 -6 309 0 319 2
292 61 -9 19 -24 58 -33 87 -10 29 -21 55 -26 58 -5 3 -9 14 -9 24 0 10 -6 31
-14 47 -7 15 -21 46 -31 68 -9 22 -23 53 -31 68 -8 16 -14 36 -14 45 0 9 -7
26 -15 36 -8 11 -15 30 -15 42 0 13 -4 25 -9 28 -5 3 -12 18 -15 33 -10 42
-94 274 -111 306 -8 16 -15 37 -15 47 0 9 -7 23 -15 30 -8 7 -15 20 -15 30 0
10 -7 31 -15 46 -8 16 -15 36 -15 45 0 9 -7 22 -15 29 -8 7 -15 21 -15 31 0
11 -4 27 -10 37 -17 32 -39 87 -74 187 -42 121 -99 279 -116 320 -28 66 -38
92 -55 138 -10 26 -22 50 -26 53 -5 3 -9 14 -9 26 0 11 -6 32 -13 46 -8 15
-21 42 -30 60 -9 19 -17 42 -17 52 0 10 -7 26 -16 34 -13 14 -56 16 -312 16
l-297 0 -22 -42z m337 -693 c0 -13 6 -39 14 -57 8 -18 24 -67 36 -108 23 -80
75 -242 89 -275 18 -45 34 -92 38 -117 l5 -28 -201 0 c-220 0 -231 3 -197 55
9 13 16 29 16 36 0 6 6 25 14 42 8 18 16 41 19 52 7 26 27 82 43 120 7 17 31
89 54 160 22 72 43 136 45 143 7 20 25 4 25 -23z"/>
<path d="M7316 9532 c-15 -17 -16 -99 -14 -1051 3 -1009 3 -1033 22 -1047 17
-12 114 -14 597 -14 354 0 588 4 604 10 l25 10 -2 232 -3 233 -325 5 -325 5
-5 815 c-3 448 -6 816 -8 818 -1 1 -125 2 -275 2 -253 0 -275 -1 -291 -18z"/>
<path d="M8767 9533 c-14 -16 -15 -122 -14 -1049 2 -857 4 -1034 16 -1047 12
-16 67 -17 603 -17 387 0 596 4 609 10 18 10 19 23 19 233 0 122 -4 228 -8
235 -6 9 -85 13 -328 15 l-319 2 -3 809 c-2 633 -5 812 -15 818 -6 4 -132 8
-278 8 -241 0 -267 -2 -282 -17z"/>
<path d="M9627 9543 c-17 -16 0 -48 106 -191 61 -84 137 -188 167 -232 30 -44
110 -155 178 -246 68 -91 144 -198 169 -237 25 -40 65 -97 89 -128 l43 -57 3
-502 c3 -483 4 -502 22 -516 16 -11 70 -14 274 -14 155 0 261 4 273 10 18 10
19 27 19 510 l0 499 65 96 c36 53 70 102 76 108 5 7 26 35 46 62 21 28 41 55
46 60 4 6 30 42 57 80 28 39 54 75 60 82 5 7 10 16 11 20 0 4 15 27 32 50 18
23 64 84 103 135 60 80 123 169 159 225 6 9 16 23 23 32 7 9 28 36 45 60 18
24 36 49 41 56 5 7 6 20 3 29 -6 14 -40 16 -334 16 l-328 0 -80 -107 c-44 -60
-130 -183 -190 -275 -61 -92 -115 -167 -122 -167 -6 -1 -24 17 -40 40 -15 23
-68 96 -117 162 -50 67 -97 136 -105 152 -20 41 -110 167 -129 183 -12 9 -95
12 -337 12 -177 0 -325 -3 -328 -7z"/>
<path d="M3317 7033 c-10 -10 -8 -1586 2 -1602 7 -11 61 -12 297 -9 285 5 290
5 358 31 118 46 189 115 248 237 32 67 45 192 28 270 -17 78 -65 172 -113 220
-43 42 -131 90 -166 90 -27 0 -37 19 -14 27 34 12 99 71 115 104 43 89 48 108
48 201 0 90 -17 167 -52 233 -19 33 -136 143 -170 158 -94 42 -132 47 -356 47
-120 0 -222 -3 -225 -7z m466 -132 c6 -6 21 -11 33 -11 12 0 27 -7 34 -15 7
-8 18 -15 24 -15 35 0 100 -116 110 -197 9 -71 -10 -181 -37 -220 -33 -46
-107 -102 -145 -109 -18 -3 -35 -10 -38 -15 -3 -5 -77 -9 -165 -9 l-159 0 0
306 0 307 166 -5 c104 -3 169 -9 177 -17z m-8 -721 c133 -8 193 -26 249 -72
50 -41 79 -90 100 -171 18 -65 18 -71 1 -130 -31 -112 -71 -165 -157 -212 -70
-38 -180 -55 -370 -55 l-158 0 0 325 0 325 108 -1 c59 0 161 -4 227 -9z"/>
<path d="M4796 7024 c-9 -24 -7 -1577 2 -1592 7 -9 91 -12 388 -10 l379 3 3
49 c2 32 -1 52 -10 57 -7 5 -154 9 -325 9 l-313 0 0 350 0 350 310 0 c296 0
310 1 320 19 11 22 13 61 4 85 -5 14 -43 16 -314 16 -187 0 -311 4 -315 10 -4
7 -8 385 -5 540 0 6 115 10 325 10 l326 0 -3 58 -3 57 -381 3 c-342 2 -382 1
-388 -14z"/>
<path d="M6592 6996 c-12 -24 -22 -51 -22 -60 0 -9 -4 -16 -10 -16 -5 0 -10
-5 -10 -11 0 -6 -6 -25 -14 -42 -7 -18 -28 -68 -46 -112 -17 -44 -37 -93 -45
-110 -15 -36 -36 -90 -63 -165 -11 -30 -32 -87 -46 -125 -14 -39 -26 -78 -26
-86 0 -9 -7 -22 -15 -29 -8 -7 -15 -20 -15 -29 0 -10 -7 -26 -15 -37 -8 -10
-15 -29 -15 -40 0 -12 -7 -27 -15 -34 -8 -7 -15 -21 -15 -30 0 -10 -6 -31 -14
-47 -18 -35 -39 -85 -61 -143 -10 -25 -23 -58 -30 -75 -7 -16 -20 -50 -28 -75
-9 -25 -28 -76 -42 -115 -15 -38 -29 -81 -32 -95 -3 -14 -12 -33 -20 -42 -9
-10 -12 -25 -8 -37 5 -18 15 -21 55 -21 46 0 51 3 75 37 14 21 25 43 25 50 0
6 6 24 14 40 8 15 22 46 31 68 9 22 20 49 25 60 25 58 80 207 80 217 0 7 7 21
14 31 12 16 41 17 349 17 l336 0 16 -37 c9 -21 23 -51 31 -66 8 -16 14 -33 14
-38 0 -9 49 -121 75 -172 8 -16 15 -37 15 -47 0 -9 7 -23 15 -30 8 -7 15 -18
15 -26 0 -18 32 -87 45 -96 6 -4 29 -8 52 -8 53 0 72 25 50 68 -8 15 -22 47
-32 72 -9 25 -23 58 -31 73 -8 16 -14 34 -14 42 0 7 -7 18 -15 25 -8 7 -15 24
-15 37 0 14 -6 37 -14 51 -8 15 -26 61 -40 102 -13 42 -30 89 -37 105 -6 17
-18 46 -26 65 -8 19 -18 43 -23 52 -6 10 -10 23 -10 29 0 6 -7 27 -16 47 -8
21 -22 53 -31 72 -8 19 -21 48 -29 63 -8 16 -14 36 -14 45 0 9 -7 26 -15 36
-8 11 -15 27 -15 37 0 9 -7 22 -15 29 -8 7 -15 24 -15 39 0 15 -4 31 -9 37 -5
5 -20 43 -35 84 -14 41 -35 100 -46 130 -12 30 -25 66 -29 80 -5 14 -20 51
-35 81 -14 31 -26 63 -26 71 0 26 -35 48 -77 48 -37 0 -41 -3 -61 -44z m78
-184 c0 -23 60 -192 77 -217 7 -11 13 -29 13 -40 0 -12 4 -25 9 -30 5 -6 18
-38 30 -73 21 -64 25 -71 54 -130 9 -19 17 -41 17 -50 0 -9 7 -26 15 -36 8
-11 15 -27 15 -37 0 -9 9 -36 20 -60 11 -24 20 -50 20 -56 0 -10 -64 -13 -285
-13 -222 0 -285 3 -285 13 1 6 9 30 20 52 11 22 19 46 20 53 0 7 4 20 9 30 27
56 44 95 66 157 47 128 86 239 111 315 13 41 28 84 33 95 5 11 12 28 15 38 7
22 26 13 26 -11z"/>
<path d="M7764 7027 c-2 -7 -3 -288 -2 -624 2 -473 6 -615 16 -625 6 -6 12
-22 12 -35 0 -38 62 -145 113 -194 56 -55 138 -100 222 -124 70 -19 308 -17
387 4 49 13 145 68 196 112 52 45 124 161 135 219 3 14 10 43 16 65 14 55 15
1169 1 1196 -8 15 -22 19 -61 19 -44 0 -51 -3 -59 -26 -6 -15 -10 -245 -10
-584 0 -352 -4 -579 -11 -612 -25 -127 -73 -185 -206 -249 -80 -38 -84 -39
-195 -39 -118 0 -165 11 -253 57 -46 24 -105 84 -127 128 -43 86 -43 76 -48
700 -3 330 -9 606 -13 613 -11 17 -106 16 -113 -1z"/>
<path d="M9292 7016 c-11 -24 -7 -74 6 -88 4 -4 94 -9 200 -10 l193 -3 -1
-728 c0 -495 3 -734 10 -747 8 -16 21 -20 59 -20 28 0 53 6 60 13 8 10 12 226
13 748 l3 734 200 5 200 5 3 34 c2 19 1 44 -2 57 l-6 24 -464 0 -463 0 -11
-24z"/>
<path d="M10524 7027 c-6 -17 3 -38 46 -110 19 -33 43 -73 53 -90 11 -18 42
-69 70 -115 68 -109 74 -120 136 -237 29 -55 65 -118 80 -140 15 -22 30 -47
34 -55 4 -8 16 -28 27 -45 11 -16 24 -39 30 -50 6 -11 19 -33 29 -50 18 -28
20 -53 20 -360 1 -243 4 -334 13 -343 14 -14 77 -16 98 -2 13 8 16 63 20 358
l5 349 25 34 c14 19 34 52 45 74 10 22 24 47 31 55 6 8 33 56 59 105 25 50 53
97 61 106 8 8 14 21 14 27 0 6 6 17 14 25 8 7 23 29 33 48 10 19 30 52 44 74
14 22 49 84 78 138 29 54 61 113 72 130 44 74 39 87 -33 87 -53 0 -54 -1 -84
-47 -17 -27 -40 -64 -51 -83 -10 -19 -30 -53 -43 -75 -14 -22 -36 -63 -50 -90
-14 -28 -27 -52 -30 -55 -3 -3 -16 -25 -29 -50 -13 -25 -41 -71 -62 -102 -22
-32 -39 -61 -39 -65 0 -3 -6 -14 -14 -22 -7 -9 -35 -56 -61 -106 -26 -49 -49
-92 -51 -94 -8 -9 -40 36 -74 103 -50 101 -131 240 -141 244 -5 2 -9 9 -9 15
0 7 -19 41 -42 77 -48 73 -47 72 -113 195 -26 50 -59 105 -72 123 -22 29 -29
32 -79 32 -36 0 -56 -4 -60 -13z"/>
</g>
</svg>
