<?xml version="1.0" standalone="no"?>
<!DOCTYPE svg PUBLIC "-//W3C//DTD SVG 20010904//EN"
 "http://www.w3.org/TR/2001/REC-SVG-20010904/DTD/svg10.dtd">
<svg version="1.0" xmlns="http://www.w3.org/2000/svg"
 width="960.000000pt" height="960.000000pt" viewBox="0 0 960.000000 960.000000"
 preserveAspectRatio="xMidYMid meet">
<metadata>
Created by potrace 1.15, written by Peter Selinger 2001-2017
</metadata>
<g transform="translate(0.000000,960.000000) scale(0.100000,-0.100000)"
fill="#3f3f3f" stroke="none">
<path d="M3251 5392 c-11 -20 -36 -162 -47 -259 -5 -45 -3 -67 6 -78 19 -23
34 -5 66 81 50 132 118 185 215 169 l39 -7 0 -508 c0 -553 1 -540 -55 -540
-41 0 -77 -18 -73 -37 3 -16 21 -18 196 -18 106 -1 196 3 199 8 9 15 -16 32
-65 42 -34 7 -50 17 -59 35 -10 19 -13 141 -13 521 l0 497 43 6 c54 8 121 -6
149 -31 27 -23 53 -84 68 -155 12 -62 30 -87 48 -65 15 17 32 162 32 265 0 95
-14 112 -55 68 l-24 -26 -304 0 -305 0 -16 25 c-20 30 -32 32 -45 7z"/>
<path d="M7120 5370 c-47 -20 -86 -44 -88 -53 -2 -10 11 -19 40 -28 l43 -14 2
-500 c2 -275 -1 -506 -6 -513 -5 -8 -24 -17 -42 -21 -25 -5 -34 -12 -34 -26 0
-18 9 -19 155 -20 127 0 155 3 155 14 0 8 -21 21 -50 30 l-50 16 -3 154 c-2
151 -2 154 23 187 30 40 45 42 64 12 60 -96 181 -319 183 -337 2 -18 -4 -25
-32 -34 -19 -7 -35 -19 -35 -27 0 -12 24 -15 150 -15 133 0 150 2 153 17 2 12
-6 20 -30 26 -22 5 -45 24 -68 55 -35 46 -252 419 -258 442 -2 7 43 60 100
117 74 75 119 112 161 131 103 49 75 63 -122 59 -141 -3 -151 -4 -151 -22 0
-13 9 -22 28 -26 46 -9 72 -23 72 -37 0 -25 -110 -169 -212 -277 l-23 -25 -5
375 c-4 323 -7 375 -20 376 -8 1 -53 -15 -100 -36z"/>
<path d="M1850 5215 c0 -102 2 -185 4 -185 2 0 43 24 90 54 213 134 490 216
725 216 132 0 225 -19 317 -65 40 -19 73 -35 75 -35 2 0 3 45 1 100 l-3 100
-605 0 -604 0 0 -185z"/>
<path d="M4593 5359 c-30 -11 -43 -39 -43 -94 0 -59 36 -101 78 -90 39 9 53
27 59 73 10 77 -37 132 -94 111z"/>
<path d="M4806 5362 c-28 -6 -19 -41 12 -48 64 -14 76 -21 83 -47 7 -28 -5
-655 -16 -842 -9 -141 -17 -162 -67 -176 -23 -6 -56 -8 -74 -4 -66 12 -64 -3
-64 420 0 259 -3 386 -11 390 -5 4 -27 -4 -47 -17 -20 -14 -63 -36 -94 -51
-63 -28 -75 -53 -30 -63 64 -15 62 -7 62 -339 0 -226 -3 -305 -12 -317 -7 -9
-32 -22 -56 -28 -32 -8 -42 -15 -40 -28 3 -16 30 -17 313 -17 302 0 310 1 310
20 0 15 -9 21 -45 27 -68 11 -77 29 -85 160 -8 138 10 752 23 775 8 13 16 -3
35 -68 23 -76 208 -726 243 -857 25 -89 42 -69 84 98 20 80 44 168 53 195 9
28 53 178 98 335 85 298 98 337 99 285 0 -16 7 -178 15 -360 17 -375 18 -514
7 -533 -5 -7 -31 -18 -58 -25 -38 -9 -49 -16 -49 -32 0 -19 7 -20 175 -20 158
0 175 2 178 17 3 13 -7 21 -41 30 -24 6 -50 20 -56 30 -16 25 -56 926 -45 988
8 41 11 45 49 52 48 10 64 23 47 40 -13 13 -221 12 -235 -1 -4 -5 -60 -190
-123 -412 -64 -222 -118 -412 -121 -421 -9 -30 -22 -20 -34 25 -29 109 -230
784 -238 797 -6 11 -35 16 -118 20 -61 3 -118 4 -127 2z"/>
<path d="M2380 5194 c-152 -32 -304 -97 -447 -190 -81 -52 -83 -54 -83 -94 0
-22 2 -40 5 -40 2 0 28 15 57 34 87 55 175 96 282 131 134 43 245 59 365 52
128 -7 197 -33 267 -101 98 -96 109 -225 33 -394 -54 -121 -185 -272 -313
-363 l-48 -34 62 -3 c77 -4 102 12 222 137 201 209 285 432 232 611 -38 128
-137 214 -291 254 -76 20 -252 20 -343 0z"/>
<path d="M4075 5030 c-16 -17 -53 -42 -82 -57 -61 -29 -74 -63 -24 -63 55 0
56 -6 56 -336 0 -216 -3 -306 -12 -315 -6 -6 -26 -14 -45 -18 -24 -5 -33 -12
-33 -26 0 -19 8 -20 165 -20 148 0 165 2 168 17 3 14 -6 19 -38 24 -23 4 -51
15 -63 24 -22 18 -22 23 -22 282 0 253 1 265 24 322 42 106 92 128 101 45 7
-59 24 -79 65 -79 51 0 70 30 70 107 0 60 -2 67 -33 94 -64 57 -141 28 -202
-76 l-35 -59 -3 59 c-3 71 -9 105 -20 105 -5 0 -21 -14 -37 -30z"/>
<path d="M6157 5050 c-103 -26 -209 -107 -252 -193 -32 -65 -33 -105 -3 -116
55 -20 119 27 138 102 15 56 53 120 84 140 42 28 98 32 126 9 23 -18 25 -28
28 -125 3 -67 0 -112 -8 -126 -6 -12 -71 -66 -144 -120 -203 -151 -236 -190
-236 -287 0 -98 55 -157 146 -156 67 0 126 27 194 89 28 25 52 44 53 42 2 -2
12 -26 23 -54 24 -60 56 -80 115 -70 49 8 102 57 119 110 20 62 -14 95 -37 35
-6 -16 -23 -35 -37 -41 -22 -10 -29 -9 -45 6 -19 16 -20 35 -23 361 l-3 344
-27 26 c-23 23 -36 27 -100 30 -40 2 -90 -1 -111 -6z m118 -533 c0 -155 -5
-167 -89 -224 -158 -108 -233 85 -92 236 41 44 158 132 171 127 6 -1 10 -57
10 -139z"/>
<path d="M6701 5026 c-19 -19 -56 -44 -82 -56 -60 -25 -68 -57 -17 -62 57 -5
59 -19 56 -345 -2 -205 -6 -295 -15 -304 -6 -6 -26 -14 -45 -18 -24 -5 -33
-12 -33 -26 0 -19 8 -20 165 -20 139 0 165 2 165 15 0 8 -13 18 -30 23 -60 18
-79 32 -88 67 -5 19 -7 141 -5 270 4 217 6 240 27 294 42 106 92 128 101 45 7
-59 24 -79 65 -79 51 0 70 30 70 107 0 60 -2 67 -33 94 -64 57 -141 28 -202
-76 l-35 -59 -5 79 c-3 43 -10 80 -15 82 -6 2 -26 -12 -44 -31z"/>
<path d="M2321 5009 c-131 -17 -276 -73 -400 -153 l-71 -46 0 -55 0 -55 68 47
c141 97 291 146 447 147 92 1 105 -1 160 -29 83 -41 107 -84 103 -180 -3 -56
-11 -84 -38 -140 -65 -131 -231 -277 -375 -331 l-50 -19 113 -3 113 -3 61 47
c201 156 316 347 306 513 -10 186 -189 293 -437 260z"/>
<path d="M2150 4814 c-74 -20 -184 -75 -245 -122 l-50 -38 -3 -232 -2 -232
112 0 c106 0 118 2 188 33 99 43 161 86 240 166 89 91 125 164 125 257 0 61
-4 75 -27 106 -41 54 -88 72 -193 75 -57 2 -110 -3 -145 -13z"/>
<path d="M3010 4429 c-45 -60 -130 -146 -205 -207 l-40 -32 148 0 147 0 0 150
c0 83 -1 150 -2 150 -2 -1 -23 -28 -48 -61z"/>
</g>
</svg>
