<?xml version="1.0" standalone="no"?>
<!DOCTYPE svg PUBLIC "-//W3C//DTD SVG 20010904//EN"
 "http://www.w3.org/TR/2001/REC-SVG-20010904/DTD/svg10.dtd">
<svg version="1.0" xmlns="http://www.w3.org/2000/svg"
 width="960.000000pt" height="960.000000pt" viewBox="0 0 960.000000 960.000000"
 preserveAspectRatio="xMidYMid meet">
<metadata>
Created by potrace 1.15, written by Peter Selinger 2001-2017
</metadata>
<g transform="translate(0.000000,960.000000) scale(0.100000,-0.100000)"
fill="#3f3f3f" stroke="none">
<path d="M2845 5087 c-159 -53 -233 -157 -223 -311 6 -88 31 -139 94 -195 69
-60 155 -85 282 -79 151 6 246 58 297 162 75 154 20 321 -130 395 -63 32 -77
35 -174 38 -69 2 -120 -2 -146 -10z m252 -128 c55 -27 85 -69 91 -130 10 -107
-29 -175 -120 -205 -60 -19 -168 -15 -216 10 -49 25 -90 80 -98 132 -15 104
42 187 151 215 46 12 144 1 192 -22z"/>
<path d="M4917 5090 c-128 -33 -197 -142 -151 -237 35 -71 87 -91 297 -117 58
-7 113 -19 122 -26 27 -22 15 -63 -25 -83 -76 -39 -340 -3 -340 46 0 8 -6 17
-14 20 -9 4 -21 -11 -35 -45 -12 -28 -21 -57 -21 -65 0 -19 93 -60 166 -74 32
-6 103 -9 157 -7 122 6 198 39 234 103 47 83 20 180 -60 215 -23 10 -107 28
-186 39 -180 25 -216 50 -155 106 66 61 314 24 314 -47 0 -13 6 -18 18 -16 20
4 76 103 68 123 -3 8 -42 26 -88 40 -91 30 -235 41 -301 25z"/>
<path d="M1760 5075 c0 -9 7 -18 15 -21 13 -5 15 -43 15 -254 0 -211 -2 -249
-15 -254 -21 -8 -19 -33 3 -38 9 -2 53 -4 97 -3 64 0 80 4 83 16 1 9 -8 21
-23 27 l-25 12 0 172 c1 141 3 169 13 153 7 -11 55 -101 107 -200 52 -99 100
-180 105 -179 6 0 56 85 112 188 55 104 105 192 110 197 4 4 7 -9 6 -29 -1
-20 -2 -98 -2 -173 -1 -130 -2 -137 -22 -142 -13 -4 -19 -12 -17 -23 3 -16 16
-18 102 -18 77 -1 100 2 104 13 3 8 -4 21 -16 29 -22 14 -22 19 -22 253 0 228
1 239 20 251 11 7 20 18 20 25 0 16 -162 18 -190 3 -11 -6 -59 -87 -107 -180
-48 -93 -90 -170 -93 -170 -3 0 -39 68 -80 151 -41 84 -87 165 -102 180 -25
28 -30 29 -112 29 -71 0 -86 -3 -86 -15z"/>
<path d="M3420 5075 c0 -9 7 -18 15 -21 13 -5 15 -43 15 -255 0 -215 -2 -249
-15 -249 -18 0 -20 -40 -2 -41 6 0 134 0 282 0 l270 1 3 75 c2 64 0 75 -13 75
-9 0 -25 -10 -35 -22 -17 -22 -26 -23 -184 -26 l-166 -3 0 221 c0 133 -4 229
-10 241 -9 16 -22 19 -85 19 -61 0 -75 -3 -75 -15z"/>
<path d="M4060 5074 c0 -9 9 -18 20 -21 19 -5 20 -14 20 -249 0 -235 -1 -244
-21 -254 -11 -6 -19 -18 -17 -26 3 -13 42 -15 296 -15 160 0 292 3 292 6 0 3
0 34 0 70 0 50 -3 65 -15 65 -7 0 -18 -8 -24 -17 -8 -16 -31 -18 -195 -21
l-186 -4 0 76 0 76 145 0 145 0 0 50 0 50 -145 0 -145 0 0 65 0 65 174 0 c183
0 206 -3 206 -27 0 -8 7 -13 18 -11 14 3 18 16 20 71 l3 67 -296 0 c-263 0
-295 -2 -295 -16z"/>
<path d="M5420 5076 c0 -8 9 -18 20 -21 19 -6 20 -15 20 -249 0 -239 0 -244
-22 -258 -12 -8 -19 -21 -16 -29 4 -11 29 -14 109 -14 91 0 104 2 107 17 2 12
-6 21 -22 28 -23 8 -26 15 -26 58 0 47 2 51 61 102 57 49 61 51 74 34 7 -11
49 -65 94 -121 87 -111 99 -118 194 -118 46 0 52 2 55 23 2 13 -2 22 -10 22
-18 0 -56 41 -166 182 l-91 117 112 100 c61 56 121 109 132 119 19 16 17 17
-63 20 l-84 3 -124 -118 c-69 -65 -138 -129 -154 -142 l-30 -24 0 130 c0 87
-4 133 -12 141 -18 18 -158 16 -158 -2z"/>
<path d="M6150 5070 c0 -11 7 -20 15 -20 13 0 15 -34 15 -250 0 -216 -2 -250
-15 -250 -16 0 -21 -40 -5 -40 6 -1 44 -1 85 -1 41 0 82 0 90 1 22 0 18 27 -5
40 -19 10 -20 21 -20 263 0 184 -3 256 -12 265 -7 7 -40 12 -80 12 -61 0 -68
-2 -68 -20z"/>
<path d="M6450 5075 c0 -8 9 -19 20 -25 19 -10 20 -21 20 -249 0 -234 0 -239
-22 -253 -12 -8 -19 -21 -16 -29 4 -11 28 -14 104 -14 85 0 99 3 102 18 2 11
-6 20 -22 27 l-26 10 0 172 0 173 87 -90 c319 -330 297 -312 393 -311 39 1 45
4 48 24 2 15 -2 22 -12 22 -14 0 -16 29 -16 249 0 212 2 250 15 255 8 3 15 12
15 21 0 12 -17 15 -106 15 -95 0 -105 -2 -102 -17 2 -10 9 -19 16 -19 6 -1 17
-2 22 -3 6 -1 10 -64 9 -168 l0 -168 -172 177 c-95 97 -182 181 -194 187 -12
6 -53 11 -92 11 -56 0 -71 -3 -71 -15z"/>
<path d="M7250 5075 c0 -8 9 -19 20 -25 19 -10 20 -21 20 -250 0 -231 -1 -240
-21 -250 -11 -6 -19 -18 -17 -27 3 -17 -17 -16 346 -14 l242 1 0 70 c0 58 -3
70 -16 70 -9 0 -23 -8 -30 -17 -11 -16 -35 -18 -193 -21 l-181 -3 0 75 0 76
145 0 145 0 0 50 0 50 -145 0 -145 0 0 65 0 65 179 0 c172 0 181 -1 195 -21
27 -39 44 -17 45 55 l1 66 -295 0 c-252 0 -295 -2 -295 -15z"/>
</g>
</svg>
