<?xml version="1.0" standalone="no"?>
<!DOCTYPE svg PUBLIC "-//W3C//DTD SVG 20010904//EN"
 "http://www.w3.org/TR/2001/REC-SVG-20010904/DTD/svg10.dtd">
<svg version="1.0" xmlns="http://www.w3.org/2000/svg"
 width="960.000000pt" height="960.000000pt" viewBox="0 0 960.000000 960.000000"
 preserveAspectRatio="xMidYMid meet">
<metadata>
Created by potrace 1.15, written by Peter Selinger 2001-2017
</metadata>
<g transform="translate(0.000000,960.000000) scale(0.100000,-0.100000)"
fill="#3f3f3f" stroke="none">
<path d="M4624 7560 c-801 -53 -1528 -446 -2010 -1086 -315 -419 -500 -918
-539 -1461 l-7 -93 84 0 c117 0 179 19 363 109 215 106 309 132 428 117 l54
-7 -49 -99 c-26 -55 -48 -104 -48 -110 0 -6 -27 -10 -63 -10 -93 0 -160 -21
-324 -104 -188 -94 -227 -107 -343 -115 -87 -5 -95 -8 -93 -26 1 -11 5 -55 8
-97 l7 -78 79 0 c97 0 157 20 289 93 129 73 223 109 298 115 66 5 67 5 53 -48
-5 -19 -15 -60 -21 -91 l-11 -56 -56 -6 c-56 -6 -109 -29 -310 -136 -96 -51
-207 -80 -258 -67 -31 8 -32 -2 -5 -109 31 -123 26 -115 73 -115 62 1 131 28
233 93 103 65 168 93 243 103 l51 7 0 -84 0 -84 -71 -17 c-45 -11 -94 -32
-133 -57 -123 -80 -185 -112 -243 -123 -32 -7 -59 -13 -61 -14 -8 -5 82 -206
94 -211 21 -8 98 32 166 86 85 66 160 101 220 101 l47 0 11 -57 c6 -32 13 -63
15 -69 2 -7 -16 -14 -45 -17 -64 -8 -110 -32 -197 -105 -39 -33 -87 -65 -107
-72 -20 -6 -36 -16 -36 -21 0 -15 111 -189 120 -189 5 0 46 32 91 71 92 78
116 93 182 110 26 6 47 16 47 23 0 6 -9 41 -19 79 l-20 67 37 0 c97 1 250 58
352 132 56 41 59 45 60 86 0 100 56 206 213 407 131 167 142 191 141 300 -2
73 -10 117 -44 235 -88 308 -60 550 91 774 26 39 76 98 110 131 35 33 55 49
46 35 -163 -244 -215 -399 -204 -610 4 -84 15 -136 51 -260 103 -355 95 -405
-108 -675 -133 -176 -168 -244 -174 -340 -5 -88 11 -151 78 -292 l48 -103 -46
-40 c-144 -127 -395 -226 -481 -190 -21 8 -36 28 -56 71 -26 59 -27 60 -58 53
-57 -12 -108 -44 -184 -117 l-75 -72 66 -83 c37 -45 69 -82 73 -82 3 0 32 28
63 63 49 53 155 127 164 115 2 -1 15 -24 30 -50 l27 -47 -39 -20 c-41 -21
-152 -135 -152 -156 0 -13 145 -155 158 -155 4 0 15 12 24 28 9 15 40 50 68
77 l51 50 34 -39 33 -40 -46 -51 c-26 -28 -53 -64 -61 -78 -16 -31 -27 -19
100 -112 42 -30 81 -55 86 -55 6 0 13 17 17 39 8 55 52 134 151 271 47 65 102
154 123 197 34 71 37 86 37 161 l0 84 25 -54 c20 -43 25 -67 24 -133 -1 -97
-21 -152 -99 -280 -96 -156 -165 -306 -165 -356 0 -9 143 -89 159 -89 6 0 11
13 11 29 0 56 43 169 141 366 55 110 106 229 115 264 29 116 4 192 -137 423
-143 233 -177 343 -145 468 22 86 51 136 172 296 146 192 159 222 159 354 0
101 -2 111 -52 255 -29 83 -60 182 -69 220 -22 96 -22 260 0 355 37 152 134
321 237 414 83 75 95 73 36 -6 -65 -87 -117 -187 -149 -288 -20 -66 -23 -95
-23 -230 1 -171 -1 -162 99 -445 106 -300 87 -408 -115 -665 -49 -63 -106
-148 -126 -188 -33 -66 -37 -81 -36 -150 1 -114 31 -182 193 -437 87 -136 112
-201 118 -301 5 -99 -13 -162 -88 -304 -142 -268 -190 -387 -190 -473 0 -36
-5 -34 176 -104 7 -3 13 23 17 74 8 108 33 179 139 388 50 99 102 209 115 245
32 83 33 180 4 264 -23 65 -31 79 -143 254 -220 341 -220 465 -1 739 143 179
180 268 170 407 -6 94 -32 183 -94 319 -63 142 -91 232 -105 338 -28 227 71
485 249 648 36 33 69 58 74 56 4 -3 -12 -34 -35 -68 -57 -82 -99 -166 -128
-257 -20 -65 -23 -95 -23 -230 0 -179 1 -184 120 -465 85 -200 105 -273 105
-382 0 -142 -39 -231 -183 -412 -111 -142 -146 -237 -127 -354 13 -82 55 -166
169 -342 106 -163 143 -239 161 -329 22 -108 3 -178 -120 -436 -126 -263 -165
-394 -146 -493 6 -33 7 -34 89 -51 45 -9 89 -19 98 -22 15 -4 17 11 21 123 5
155 27 226 141 464 117 244 136 330 101 450 -22 74 -49 125 -141 264 -174 265
-198 320 -191 447 6 101 34 162 133 288 98 124 125 177 149 292 4 15 16 34 29
42 20 13 33 12 122 -10 115 -29 194 -28 308 5 81 24 113 17 122 -26 24 -117
48 -165 154 -307 97 -129 115 -162 131 -242 24 -121 -14 -222 -172 -460 -176
-264 -206 -369 -152 -533 9 -25 51 -121 94 -212 119 -250 160 -401 146 -531
l-7 -58 33 7 c18 3 65 13 103 22 l70 16 3 69 c5 107 -25 201 -137 434 -115
240 -131 288 -131 392 0 125 27 188 179 419 128 195 155 258 155 371 0 112
-20 156 -145 322 -146 196 -176 271 -166 423 6 103 33 191 113 372 99 224 117
292 116 443 -1 192 -49 342 -156 488 -26 35 -41 64 -35 67 17 11 173 -155 217
-230 22 -38 56 -113 73 -165 31 -89 33 -103 33 -230 -1 -153 -14 -208 -104
-415 -74 -171 -94 -244 -95 -356 0 -93 1 -98 42 -180 23 -46 65 -112 93 -146
104 -129 160 -214 180 -280 47 -151 15 -259 -151 -513 -113 -172 -151 -256
-157 -347 -6 -98 17 -170 124 -378 113 -220 145 -307 151 -412 3 -46 9 -83 12
-83 3 1 46 17 96 38 l90 37 -4 45 c-5 70 -46 185 -106 300 -177 334 -200 414
-159 551 22 74 48 124 159 299 120 192 138 239 139 350 1 77 -3 91 -32 151
-19 37 -70 113 -114 170 -163 208 -192 271 -190 406 1 99 19 176 84 351 66
182 81 247 81 372 0 122 -13 195 -55 302 -28 74 -107 208 -151 255 -11 13 -18
26 -14 29 13 14 175 -163 220 -241 141 -241 150 -474 33 -792 -76 -204 -84
-328 -29 -438 17 -33 70 -111 117 -173 114 -148 151 -207 175 -280 48 -141 14
-264 -140 -507 -99 -158 -133 -238 -137 -321 -5 -99 10 -145 126 -374 87 -172
114 -242 137 -353 7 -33 9 -33 103 20 64 35 64 35 57 72 -12 64 -50 145 -132
282 -101 170 -126 232 -127 324 0 56 5 81 26 125 l26 55 -5 -46 c-12 -99 37
-214 167 -392 83 -115 134 -204 150 -265 9 -34 15 -42 27 -38 30 12 183 130
183 142 0 14 -31 56 -81 109 l-38 40 34 39 33 39 29 -21 c17 -12 49 -46 73
-77 23 -30 45 -55 49 -55 4 0 41 35 84 78 l78 78 -62 68 c-34 37 -79 76 -100
86 l-38 20 26 47 c15 27 28 50 29 52 10 13 102 -50 158 -109 38 -39 72 -68 77
-65 15 10 129 153 128 162 0 4 -36 40 -78 79 -78 71 -120 96 -177 108 -30 7
-32 5 -57 -52 -35 -81 -59 -91 -169 -69 -126 25 -287 109 -390 205 l-27 25 44
87 c72 143 88 201 83 300 -6 108 -30 157 -162 332 -123 164 -151 209 -172 286
-15 55 -16 74 -6 150 6 48 25 130 41 182 77 245 90 394 51 560 -24 99 -88 238
-154 333 -43 63 -44 66 -16 46 58 -44 145 -160 197 -264 104 -209 113 -394 33
-684 -21 -78 -42 -173 -46 -211 -6 -63 -4 -74 24 -132 16 -35 47 -86 69 -114
21 -28 73 -96 115 -152 99 -131 137 -209 146 -298 7 -67 8 -69 57 -107 99 -75
259 -136 358 -137 42 0 41 3 11 -100 -18 -60 -19 -57 24 -65 53 -9 125 -52
206 -125 37 -33 73 -59 80 -57 6 2 37 46 69 98 l57 94 -37 12 c-21 7 -71 40
-112 74 -89 72 -135 97 -196 106 -50 6 -50 6 -34 86 l12 57 42 0 c66 0 123
-25 223 -100 96 -71 156 -100 173 -83 11 11 89 188 89 202 0 5 -21 12 -47 16
-64 9 -116 33 -207 94 -90 61 -147 87 -210 96 l-46 7 0 85 0 86 51 -7 c75 -10
144 -39 244 -102 104 -67 181 -96 238 -92 l42 3 22 90 c35 139 39 127 -42 130
-90 4 -161 29 -288 103 -116 67 -171 90 -242 100 l-50 7 -22 90 c-12 50 -22
94 -23 99 0 14 119 -1 183 -23 33 -11 111 -50 175 -85 138 -76 200 -96 298
-96 l73 0 6 58 c3 31 8 76 11 100 l5 42 -73 0 c-107 0 -174 21 -353 110 -173
86 -247 110 -336 110 l-57 0 -51 107 c-28 58 -49 109 -45 112 3 3 49 6 102 5
120 -1 196 -25 385 -122 152 -78 232 -102 347 -102 l80 0 0 39 c0 59 -19 234
-36 341 -110 664 -495 1300 -1038 1711 -518 392 -1179 591 -1822 549z m244
-335 l69 -160 84 -7 c46 -4 126 -11 177 -15 l93 -8 -130 -114 c-72 -63 -131
-117 -131 -119 0 -18 117 -312 123 -312 5 0 33 21 62 48 104 92 284 174 456
207 45 8 84 13 86 11 2 -2 -17 -37 -42 -79 -63 -105 -185 -367 -170 -367 2 0
37 21 77 47 108 70 237 116 385 137 l43 6 -64 -87 c-79 -108 -188 -288 -217
-359 -12 -29 -28 -55 -36 -58 -7 -3 -42 8 -78 24 -482 216 -1003 246 -1499 85
-59 -19 -146 -53 -194 -75 -47 -22 -92 -38 -98 -36 -7 3 -36 51 -65 107 -52
101 -163 277 -220 350 -16 20 -29 39 -29 42 0 8 59 -1 157 -24 98 -22 193 -63
275 -120 33 -22 62 -38 64 -36 9 9 -94 236 -153 337 -34 57 -60 106 -59 108 2
1 49 -6 105 -18 176 -36 301 -93 428 -195 38 -30 70 -55 73 -55 9 0 122 308
117 317 -3 4 -61 58 -130 118 l-125 110 92 8 c50 4 129 11 176 15 l85 7 70
162 c38 89 70 161 72 160 1 -2 33 -74 71 -162z m-2052 -1113 c60 -73 114 -178
140 -272 9 -36 18 -66 20 -68 1 -2 40 14 86 36 115 56 214 76 342 70 55 -3
127 -13 159 -22 l58 -18 -63 -47 c-157 -120 -385 -359 -447 -469 -7 -13 -15
-13 -54 -4 -65 17 -202 15 -272 -3 -33 -9 -112 -39 -175 -66 -236 -104 -332
-130 -415 -115 l-36 7 28 33 c15 19 64 76 107 127 153 181 269 384 320 562 30
103 50 254 42 313 -3 24 -1 45 6 52 16 16 90 -40 154 -116z m4127 -15 c6 -147
21 -215 78 -355 65 -160 174 -326 333 -506 76 -87 77 -90 55 -99 -33 -12 -143
-2 -204 18 -27 10 -99 40 -160 67 -181 83 -238 99 -352 105 -65 4 -120 1 -150
-7 -47 -11 -48 -11 -68 16 -116 158 -273 323 -413 433 -56 44 -78 67 -70 73
39 24 165 40 267 35 116 -6 190 -26 290 -76 34 -18 64 -31 66 -29 1 2 12 37
25 78 35 117 86 209 162 290 51 55 109 99 123 94 9 -4 14 -45 18 -137z m-1948
-51 c135 -45 243 -133 299 -243 28 -57 23 -63 -35 -46 -73 22 -210 14 -265
-15 -80 -41 -101 -66 -114 -138 -21 -111 2 -269 39 -262 9 2 29 27 44 56 31
57 39 60 102 37 56 -20 112 -18 163 5 74 34 98 3 96 -120 -7 -277 -249 -603
-477 -640 -138 -22 -285 53 -404 204 -109 140 -173 306 -173 450 0 114 27 137
116 100 41 -17 91 -15 167 6 45 14 50 13 93 -10 37 -21 46 -23 54 -11 16 26
22 127 11 186 -13 68 -35 96 -106 133 -64 33 -205 43 -275 18 -24 -8 -46 -13
-49 -11 -13 13 39 105 91 161 69 74 180 135 288 159 96 22 235 14 335 -19z
m-490 -395 c41 -19 93 -66 83 -77 -3 -3 -25 0 -49 6 -62 17 -152 15 -190 -4
-42 -21 -61 -6 -57 43 3 31 8 38 38 48 43 16 120 8 175 -16z m747 19 c48 -14
64 -41 48 -81 -14 -33 -14 -33 -43 -17 -51 27 -138 28 -219 2 -16 -5 -19 -2
-16 17 4 29 45 59 105 75 60 16 79 16 125 4z"/>
<path d="M4648 6514 c-76 -58 -138 -111 -138 -118 0 -10 12 -11 49 -5 111 17
261 21 381 9 69 -6 128 -12 131 -13 4 -1 9 2 11 8 3 10 -270 224 -287 224 -5
0 -72 -47 -147 -105z"/>
<path d="M4693 5215 c-18 -8 -33 -20 -33 -28 0 -15 68 -45 122 -53 46 -7 143
28 143 53 0 28 -51 48 -92 35 -22 -7 -45 -7 -66 -1 -39 11 -35 11 -74 -6z"/>
<path d="M4585 5041 c-8 -14 59 -94 108 -128 51 -35 120 -42 178 -16 50 22
148 128 133 143 -5 4 -35 4 -69 -2 -60 -10 -296 -5 -326 7 -10 3 -20 2 -24 -4z"/>
</g>
</svg>
