<?xml version="1.0" standalone="no"?>
<!DOCTYPE svg PUBLIC "-//W3C//DTD SVG 20010904//EN"
 "http://www.w3.org/TR/2001/REC-SVG-20010904/DTD/svg10.dtd">
<svg version="1.0" xmlns="http://www.w3.org/2000/svg"
 width="960.000000pt" height="960.000000pt" viewBox="0 0 960.000000 960.000000"
 preserveAspectRatio="xMidYMid meet">
<metadata>
Created by potrace 1.15, written by Peter Selinger 2001-2017
</metadata>
<g transform="translate(0.000000,960.000000) scale(0.100000,-0.100000)"
fill="#3f3f3f" stroke="none">
<path d="M2285 5325 c-81 -15 -130 -32 -206 -70 -274 -139 -389 -471 -251
-729 35 -67 135 -167 197 -199 176 -88 448 -109 733 -56 l124 23 45 59 c25 32
43 60 40 63 -2 2 -27 -11 -55 -30 -111 -74 -273 -112 -447 -103 -172 8 -289
59 -402 173 -72 73 -133 188 -159 299 -70 302 158 545 510 545 148 0 255 -35
369 -117 26 -20 50 -33 53 -31 2 3 -5 30 -17 61 -21 55 -23 57 -83 77 -151 50
-306 62 -451 35z"/>
<path d="M5144 5331 c-189 -46 -293 -231 -218 -391 48 -105 82 -127 304 -202
159 -54 194 -72 238 -122 79 -90 30 -229 -101 -287 -45 -20 -68 -23 -172 -24
-116 0 -123 2 -186 32 -73 36 -104 77 -114 154 -10 74 -15 90 -25 84 -6 -4
-10 -72 -10 -161 l0 -154 203 0 c206 0 297 10 352 37 43 22 113 92 136 136 42
81 37 197 -13 271 -51 78 -119 118 -298 176 -87 28 -173 61 -191 73 -94 63
-106 172 -28 261 50 57 104 78 199 79 99 1 166 -22 229 -79 27 -24 54 -44 60
-44 13 0 -42 130 -60 140 -42 24 -238 36 -305 21z"/>
<path d="M3083 5317 c-4 -8 9 -14 42 -19 43 -7 45 -28 45 -515 0 -450 -1 -464
-20 -483 -11 -11 -29 -20 -39 -20 -11 0 -23 -4 -26 -10 -4 -7 50 -10 154 -10
101 0 161 4 161 10 0 6 -10 10 -23 10 -13 0 -32 6 -43 14 -18 13 -19 30 -22
240 l-3 226 78 0 c43 0 87 3 98 6 17 4 33 -12 90 -93 170 -240 294 -374 373
-403 96 -36 274 -18 350 36 35 24 13 40 -27 20 -88 -46 -199 -24 -287 57 -64
58 -334 398 -334 421 0 2 18 15 40 30 95 63 149 144 157 237 5 49 2 67 -21
112 -41 85 -117 127 -241 133 -150 8 -497 9 -502 1z m467 -52 c55 -19 104 -65
134 -125 64 -127 24 -261 -94 -313 -33 -15 -75 -21 -162 -25 l-118 -5 0 248 0
248 98 -6 c53 -3 117 -13 142 -22z"/>
<path d="M4414 5321 c-12 -12 -1 -21 26 -21 19 0 33 -7 40 -19 6 -13 10 -186
10 -495 0 -517 1 -506 -56 -506 -13 0 -24 -4 -24 -10 0 -6 60 -10 160 -10 100
0 160 4 160 10 0 6 -13 10 -28 10 -64 0 -62 -13 -62 518 0 466 1 482 19 492
11 5 32 10 46 10 15 0 25 5 23 11 -3 10 -304 20 -314 10z"/>
<path d="M5664 5321 c-11 -12 -1 -20 28 -23 58 -5 58 -6 58 -513 0 -509 0
-505 -61 -505 -16 0 -29 -4 -29 -10 0 -7 143 -10 410 -10 l410 0 0 130 c0 80
-4 130 -10 130 -5 0 -10 -11 -10 -23 0 -44 -29 -120 -56 -148 -38 -40 -110
-53 -265 -47 -139 5 -186 20 -223 71 -20 28 -21 40 -21 468 0 480 -3 459 58
459 15 0 27 6 27 13 0 9 -38 12 -156 12 -86 0 -158 -2 -160 -4z"/>
<path d="M6554 5321 c-11 -12 -1 -21 24 -21 15 0 33 -5 40 -12 9 -9 12 -106
12 -373 0 -395 5 -443 58 -519 15 -22 47 -54 72 -72 157 -114 443 -90 617 52
l43 35 0 -75 0 -76 115 0 c70 0 115 4 115 10 0 6 -9 10 -21 10 -11 0 -29 5
-40 10 -18 10 -19 26 -19 498 0 366 3 491 12 500 7 7 25 12 40 12 27 0 42 20
16 20 -158 5 -298 3 -298 -5 0 -6 11 -11 25 -13 54 -7 55 -12 55 -443 l0 -397
-42 -37 c-24 -20 -72 -50 -107 -68 -56 -27 -77 -32 -161 -35 -90 -4 -103 -2
-159 24 -70 31 -133 95 -153 153 -15 45 -24 769 -9 784 5 5 23 12 41 16 69 14
22 23 -121 25 -83 0 -153 -1 -155 -3z"/>
</g>
</svg>
