<?xml version="1.0" encoding="iso-8859-1"?>
<!-- Generator: Adobe Illustrator 22.0.1, SVG Export Plug-In . SVG Version: 6.00 Build 0)  -->
<svg version="1.1" id="Layer_1" xmlns="http://www.w3.org/2000/svg" xmlns:xlink="http://www.w3.org/1999/xlink" x="0px" y="0px"
	 width="720px" height="720px" viewBox="0 0 720 720" style="enable-background:new 0 0 720 720;" xml:space="preserve">
<g>
	<path style="fill:#FEFEFE;" d="M360.75,720.75c-118.875,0-237.75-0.012-356.625,0.07c-2.812,0.002-3.446-0.634-3.445-3.445
		c0.076-237.75,0.076-475.5,0-713.25C0.679,1.313,1.313,0.679,4.125,0.68c237.75,0.076,475.5,0.076,713.25,0
		c2.812-0.001,3.446,0.633,3.445,3.445c-0.076,237.75-0.076,475.5,0,713.25c0.001,2.812-0.633,3.447-3.445,3.445
		C598.5,720.738,479.625,720.75,360.75,720.75z"/>
	<path style="fill:#4A4A4A;" d="M236.686,356.147c-0.406,0.276-0.812,0.551-1.218,0.827c-0.563,0.473-1.202,0.847-1.693,1.416
		c-1.576,1.828-1.309,2.957,1.207,3.279c3.701,2.162,7.976,3.225,10.633,7.215c2.922,4.387,3.634,8.954,2.705,13.892
		c-0.715,3.805-2.387,7.34-3.661,10.983c-0.552,1.579-1.512,2.718-3.576,2.648c-4.243-0.144-8.495,0.025-12.741-0.067
		c-2.955-0.064-3.435-0.813-2.404-3.779c1.042-3,1.366-6.061,1.322-9.203c-0.038-2.741-0.83-5.137-2.912-7.014l0.042,0.047
		c-4.568-2.023-9.016-1.609-13.459,0.499c-1.315,0.624-2.571,1.45-4.05,1.71l0.047-0.016c-5.335,4.235-9.627,9.525-14.447,14.281
		c-0.874,0.863-1.635,1.886-2.895,2.261l0.08-0.061c-1.268,1.028-2.154,2.529-3.811,3.075l0.074-0.055
		c-5.662,4.605-11.931,8.129-18.816,10.554l0.083-0.054c-4.374,2.125-8.964,3.554-13.774,4.28c-3.161,0.675-6.359,1.187-9.545,1.647
		c-2.048,0.296-4.468,1.206-6.204-1.031c0.42-2.551,3.087-3.414,4.138-5.494c0.48-0.499,0.959-0.997,1.439-1.496
		c2.64-2.625,4.299-6.168,7.628-8.147l-0.069,0.055c0.762-0.862,1.7-1.322,2.866-1.264c1.559-0.209,3.09-0.587,4.643-0.821
		c0.312-0.109,0.632-0.194,0.935-0.272c-0.049,0.493-0.021-0.453,0.342-0.144c0.188,0.16,0.443-0.316,0.214-0.366
		c-1.358-0.295-2.814,0.007-4.121-0.673c-2.929-1.023-6.401-0.701-8.601-3.501l0.041,0.045c-8.951-4.807-12.94-13.733-10.759-23.531
		c0.785-3.529,1.649-6.987,3.143-10.287c0.383-0.846,0.854-1.496,1.652-1.928l-0.033,0.007c0.439-1.271,1.396-2.158,2.291-3.091
		l-0.056,0.078c2.81-4.012,6.201-7.403,10.497-9.828l-0.037,0.04c1.622-2.274,4.337-2.793,6.59-4.017
		c9.991-5.424,21.005-6.412,32.045-6.893c5.704-0.249,11.438-0.193,17.17,0.201c3.15,0.216,3.948,1.445,3.287,4.221
		c-0.656,2.686-2.256,4.986-3.125,7.592c-0.804,2.41-2.936,1.982-4.735,1.993c-7.781,0.045-15.455,0.982-22.925,3.114
		c-7.531,2.15-14.631,5.195-19.305,11.986c-1.482,2.154-2.807,4.405-2.831,7.201c-0.038,4.512,2.236,6.948,6.712,7.25
		c5.914,0.399,11.072-1.331,15.548-5.172c3.242-1.809,5.132-4.855,7.117-7.813c2.492-3.474,3.673-7.577,5.452-11.392
		c1.687-3.617,8.633-5.488,11.929-3.22c1.529,1.053,1.528,2.393,1.005,3.927c-0.679,1.991-0.975,4.086-1.672,6.077
		c-0.638,1.824-1.36,3.639-1.753,5.7c1.792-0.269,2.451-1.649,3.581-2.337c2.145-1.21,3.667-3.167,5.565-4.674
		c2.507-1.599,4.416-3.829,6.359-6.024c0.372-0.38,0.826-0.608,1.342-0.716c3.315-1.738,4.901-5.584,8.5-6.975l-0.043,0.05
		c1.655-1.644,3.088-3.544,5.29-4.551l-0.079,0.064c1.214-1.095,2.213-2.454,3.796-3.096l-0.078,0.054
		c1.696-1.679,3.644-2.194,6.095-2.11c7.61,0.26,15.233-0.052,22.849,0.315c1.035,0.05,2.129-0.252,2.438,1.003
		c0.281,1.141-0.967,1.389-1.626,1.697c-4.637,2.167-8.881,5.081-13.594,7.092c-0.659,0.514-1.317,1.027-1.976,1.541
		c-1.986,1.32-3.996,2.602-6.091,3.744l0.05-0.036c-1.03,0.755-1.861,1.789-3.118,2.227l0.076-0.057
		c-0.929,0.898-1.831,1.833-3.08,2.305l0.013-0.033C239.766,354.714,238.254,355.467,236.686,356.147z"/>
	<path style="fill:#4C4C4C;" d="M397.412,382.75c-0.071,0.196-0.059,0.386,0.036,0.572c1.033,1.529,2.069,1.414,3.106,0.005
		c2.012-2.69,4.023-5.38,6.035-8.07c1.65-1.855,6.079-2.884,8.047-1.893c0.745,0.375,1.061,0.985,1.191,1.767
		c1.109,6.684,0.83,13.372,0.18,20.076c-0.292,3.01-2.508,1.693-3.982,1.869c-1.829,0.218-3.623,0.07-3.634-2.504
		c-0.009-2.121,0.028-4.243-0.021-6.364c-0.02-0.858,0.005-1.898-0.995-2.202c-0.788-0.24-1.234,0.672-1.84,1.053
		c-1.179,0.742-2.01,1.854-2.902,2.896l0.044-0.061c-3.341,4.676-4.029,4.675-7.35-0.006l0.048,0.059
		c-1.261-1.523-2.93-2.695-3.807-4.558c-0.249-0.529-0.752-1.047-1.491-0.817c-0.728,0.227-0.785,0.886-0.801,1.511
		c-0.072,2.741-0.016,5.483-0.038,8.225c-0.015,1.853-0.474,3.24-2.763,2.984c-1.995-0.224-4.43,0.432-4.38-3.005
		c0.088-6.1,0.126-12.204-0.017-18.305c-0.047-1.996,1.122-2.439,2.722-2.837c4.698-1.166,7.177,2.011,9.498,5.023
		C395.402,379.597,396.736,380.982,397.412,382.75z"/>
	<path style="fill:#4C4C4C;" d="M507.628,352.465c-4.132,7.12-10.988,8.644-18.427,8.972c-4.758-0.366-9.14-1.451-12.608-5.173
		c-4.308-4.624-4.786-10.537-0.946-15.705l-0.05,0.074c2.594-3.814,6.362-5.765,10.79-6.28c5.906-0.686,11.807-0.869,16.813,3.277
		l-0.068-0.047C508.543,341.237,510.474,347.627,507.628,352.465z"/>
	<path style="fill:#4C4C4C;" d="M513.002,386.241c-0.488-0.495-0.976-0.99-1.464-1.485c-1.246-1.471-1.861-0.989-1.905,0.685
		c-0.075,2.865-0.045,5.734,0.109,8.597c0.109,2.039-0.436,3.601-2.803,3.354c-1.92-0.2-4.452,0.378-4.454-3.033
		c-0.004-5.985,0.16-11.971-0.109-17.957c-0.091-2.024,0.997-3.046,3.182-3.318c4.806-0.599,7.299,2.387,9.67,5.726
		c0.55,1.347,1.543,2.287,2.767,3.015c1.133,0.981,2.017,2.207,3.154,3.185c1.496,1.287,2.26,0.746,2.309-1.026
		c0.069-2.492,0.004-4.987,0.044-7.481c0.041-2.592,1.382-3.404,3.826-3.411c2.517-0.007,3.871,1.067,3.773,3.509
		c-0.224,5.615-0.136,11.23-0.045,16.84c0.048,2.992-1.046,4.136-3.945,3.676c-1.437-0.228-2.979,0.479-4.337-0.481l0.079,0.042
		C518.81,393.916,516.401,389.611,513.002,386.241z"/>
	<path style="fill:#4C4C4C;" d="M537.252,389.324c2.318-1.102,3.81,1.01,5.727,1.471c3.203,0.842,6.465,1.496,9.759,1.025
		c1.686-0.241,4.075,0.22,4.452-2.534l0.015,0.017c-1.855-2.147-4.59-0.51-6.7-1.56c-4.729-0.296-9.548-0.274-13.352-3.812
		c-2.426-2.264-1.38-4.539,0.213-6.562c2.325-2.951,5.69-3.635,9.271-3.96c4.912-0.446,9.643,0.141,14.22,1.871
		c1.48,0.56,3.27,1.325,1.316,3.375c-0.167,0.21-0.333,0.421-0.5,0.631c-0.671,1.776-1.801,2.167-3.527,1.339
		c-2.995-1.437-6.284-1.264-9.481-1.464c-1.175-0.074-2.901,0.096-2.86,1.617c0.031,1.148,1.659,1.3,2.756,1.329
		c3.365,0.087,6.713,0.361,9.98,1.145c2.599,0.624,5.117,1.702,5.745,4.65c0.619,2.909-0.307,5.534-2.877,7.161
		c-1.318,0.835-2.854,1.478-4.49,1.69c-6.128,0.794-12.182,0.634-18.04-1.552C534.711,393.649,534.43,392.503,537.252,389.324z"/>
	<path style="fill:#4C4C4C;" d="M306.69,373.701c0.133,0.206,0.286,0.403,0.397,0.621c0.583,1.143,3.444,1.586,1.841,3.16
		c-1.251,1.229-3.515,2.638-5.708,0.84c-3.818-3.132-8.205-4.118-12.989-3.23c-4.749,0.881-7.7,4.156-7.703,8.293
		c-0.003,4.027,2.704,6.972,7.4,8.142c4.202,1.047,8.128,0.698,11.627-2.092c3.245-2.818,4.21-2.855,6.872-0.62
		c1.629,1.368,1.447,2.378-0.303,3.343l0.067-0.052c-5.398,6.824-21.076,6.619-28.156,0.724c-4.138-3.445-5.585-9.462-3.172-14.039
		l-0.039,0.057c0.727-1.7,1.012-3.704,3.081-4.482l-0.077,0.056C286.599,367.819,299.491,367.6,306.69,373.701z"/>
	<path style="fill:#4D4D4D;" d="M440.161,344.263c-0.673,2.538,0.106,3.787,2.92,3.536c1.732-0.154,3.488-0.025,5.233-0.041
		c1.786-0.016,3.495-0.243,3.451,2.544c-0.045,2.927-2.002,2.269-3.626,2.318c-1.993,0.06-3.989,0.065-5.982,0.014
		c-2.235-0.057-2.524,1.078-1.88,2.866c4.823,0.683,9.674,0.347,14.512,0.353c2.276,0.003,3.889,0.271,3.919,3.138
		c0.029,2.821-1.694,2.887-3.706,2.88c-6.122-0.02-12.244-0.046-18.365,0.015c-2.002,0.02-3.633-0.381-3.555-2.733
		c0.204-6.096-0.119-12.189,0.012-18.284c0.05-2.321,1.136-3.112,3.228-3.072c6.492,0.126,12.986,0.179,19.477,0.008
		c2.001-0.053,2.188,1.089,2.218,2.617c0.03,1.535-0.125,2.702-2.124,2.713c-3.871,0.023-7.743-0.13-11.611,0.005
		C442.854,343.19,441.223,342.764,440.161,344.263z"/>
	<path style="fill:#4C4C4C;" d="M284.786,342.646c-3.392,3.873-3.072,7.638,0.965,11.353c3.973,2.952,8.373,2.389,12.805,1.558
		c1.731-0.609,3.463-1.218,4.502-2.901c1.533-1.141,4.834-0.61,5.907,1.029c1.214,1.855-0.389,2.732-1.483,3.638
		c-7.928,6.573-22.481,5.652-28.384-1.275l0.104,0.103c-5.494-6.27-4.549-14.334,2.175-18.553l-0.04,0.038
		c6.418-5.752,22.747-4.78,28.312,3.006l-0.059-0.047c-0.384,2.796-3.895,4.303-6.397,2.656c-2.623-1.726-5.257-2.992-8.552-3.275
		C290.885,339.656,287.846,340.942,284.786,342.646z"/>
	<path style="fill:#4C4C4C;" d="M354.748,358.658c-0.228-0.107-0.469-0.163-0.72-0.168c-6.454-4.86-6.07-13.12,0.832-17.869
		l-0.053,0.024c6.056-4.913,19.278-3.262,23.105,2.223l-0.037-0.041c5.58,5.657,2.603,13.381-2.91,16.209
		C368.192,362.51,361.402,363.293,354.748,358.658z"/>
	<path style="fill:#4D4D4D;" d="M344.908,374.548c-0.364,7.07-0.384,14.14,0.013,21.209c-1.43,2.291-3.614,1.956-5.604,1.303
		c-2.015-0.661-1.468-2.602-1.467-4.19c0.004-4.317-0.003-4.322-4.327-4.37c-1.499-0.017-2.999-0.004-4.499-0.003
		c-5.636,0.004-5.636,0.004-6.051,5.598c-0.202,2.72-1.345,3.344-5.096,3.241c-2.722-0.075-2.364-1.668-2.256-3.537
		c0.322-5.615,0.135-11.243,0.109-16.865c-0.012-2.651,0.936-3.81,3.729-3.864c3.011-0.057,3.652,1.486,3.519,3.966
		c-0.02,0.374-0.029,0.749-0.038,1.123c-0.099,4.424-0.097,4.421,4.385,4.349c2.746-0.044,5.457,0.504,8.218,0.418
		c1.752-0.054,2.55-0.486,2.195-2.402c-0.201-1.084,0.164-2.223,0.17-3.35c0.007-1.427-0.577-3.457,1.375-3.79
		C341.138,373.067,343.503,372.006,344.908,374.548z"/>
	<path style="fill:#4D4D4D;" d="M344.895,342.769c-0.027,5.97-0.053,11.94-0.08,17.91c-1.616,2.174-3.851,1.328-5.724,0.831
		c-1.599-0.424-1.165-2.252-1.202-3.592c-0.028-0.997-0.045-1.995-0.053-2.99c-0.013-1.568-0.663-2.142-2.264-2.095
		c-3.489,0.103-6.983,0.07-10.474,0.014c-1.539-0.025-2.364,0.446-2.246,2.128c0.078,1.116-0.085,2.254,0.032,3.364
		c0.305,2.887-1.334,3.748-3.799,3.793c-2.547,0.047-3.414-1.259-3.364-3.744c0.114-5.734,0.153-11.476-0.01-17.207
		c-0.087-3.06,1.429-3.304,3.92-3.38c2.721-0.083,3.354,0.893,3.286,3.436c-0.197,7.41,0.36,5.839,6.063,6.012
		c0.997,0.03,1.996,0.029,2.993,0c5.449-0.16,5.925,1.345,5.952-5.843c0.005-1.216-0.787-2.987,1.169-3.468
		c1.807-0.444,3.833-0.689,5.4,0.477C345.991,339.529,345.829,341.212,344.895,342.769z"/>
	<path style="fill:#4C4C4C;" d="M466.681,381.8c1.328-2.284,3.101-4.179,5.127-5.852c5.818-4.22,17.02-3.697,22.749,2.211
		c4.178,4.308,3.331,13.731-3.381,16.757c-6.921,3.12-13.693,3.25-20.369-0.594c-2.289-1.318-3.524-3.436-4.256-5.897l0.026,0.049
		C465.31,386.229,465.459,384.006,466.681,381.8z"/>
	<path style="fill:#4C4C4C;" d="M351.152,389.316c2.868-4.078,4.887-8.631,7.079-13.067c1.211-2.449,2.995-2.475,5.191-2.526
		c2.196-0.051,3.603,0.459,4.735,2.616c2.937,5.594,5.447,11.427,9.01,16.683c0.758,1.192,2.49,2.807,0.598,3.697
		c-1.805,0.848-4.725,1.476-6.109-0.824c-3.765-6.262-9.536-2.167-14.311-3.045c-1.02-0.188-1.381,1.261-1.875,2.098
		c-0.566,0.957-1.003,2.13-2.349,2.112c-1.709-0.023-3.833,0.8-5.027-0.428c-1.389-1.429,0.603-2.836,1.097-4.268
		C349.603,391.175,349.987,390.005,351.152,389.316z"/>
	<path style="fill:#4D4D4D;" d="M425.808,346.411c-1.668,0.392-3.046,0.032-4.472-1.057c-3.186-2.433-6.874-2.857-10.67-1.796
		c-2.959,0.827-5.263,2.516-5.36,5.916c-0.103,3.587,2.245,5.49,5.313,6.36c3.878,1.099,7.771,0.864,10.964-1.912
		c1.669-1.451,2.882-1.101,4.633-0.229c2.365,1.178,2.376,2.11,0.387,3.613c-4.2,3.172-8.955,4.205-14.098,3.838
		c-1.239-0.089-2.472-0.271-3.708-0.41c-4.112-0.71-7.209-2.81-9.211-6.536c-1.359-2.528-1.875-5.045-0.496-7.717
		c0.435-1.42,1.163-2.672,2.163-3.768c6.851-5.939,15.969-6.766,23.21-2.105l-0.059-0.043c0.853,0.455,1.746,0.865,2.52,1.427
		c0.966,0.703,2.056,1.488,1.813,2.905C428.446,346.584,426.832,345.988,425.808,346.411z"/>
	<path style="fill:#FDFDFD;" d="M208.695,361.578c-1.497,1.845-3.455,3.074-6.046,3.993c1.438-4.384,2.881-8.767,4.313-13.154
		c1.055-3.232,0.339-4.267-3.068-4.466c-5.552-0.325-6.824,0.538-9.109,5.754c-1.438,3.283-2.692,6.676-4.925,9.555
		c-1.238-1.066-0.753-2.302-0.184-3.397c2.006-3.86,3.3-8.022,5.086-11.757c-5.484-0.481-10.663,1.481-15.702,3.188
		c-5.995,2.032-11.875,4.916-15.379,10.736c-1.007,1.673-1.624,3.574-2.571,5.328c-1.498,2.775,1.933,7.402,5.475,7.283
		c4.95-0.168,10.176-0.026,13.467-5.242c1.196-1.895,2.451-0.201,3.154,1.203c-4.727,4.688-10.457,6.616-17.024,6
		c-5.4-0.507-8.659-5.318-6.994-10.498c1.658-5.156,4.904-9.229,9.474-12.162c10.478-6.725,22.284-8.408,34.376-8.845
		c5.836-0.211,5.829-0.104,7.833-5.782c0.327-0.928,0.81-1.801,1.221-2.699c0.154,0.126,0.309,0.253,0.464,0.378
		c0.629,1.876,0.189,3.526-1.056,5.007c-0.75,1.5-1.5,2.999-2.25,4.499c-0.929,0.998-2.03,0.476-3.083,0.351
		c-0.583-0.398-1.242-0.58-1.921-0.623c0.362,0.33,0.908-0.003,1.31,0.302c1.561,0.59,3.355,0.876,3.694,2.969
		c-0.604,1.956-1.82,3.835-0.75,6c0.289,1.218-0.281,2.108-1.055,2.967C205.779,360.316,206.985,361.06,208.695,361.578z"/>
	<path style="fill:#FDFDFD;" d="M344.908,374.548c-5.429-2.07-6.802-1.296-6.495,4.336c0.195,3.579-0.851,4.948-4.508,4.574
		c-2.837-0.291-5.734-0.186-8.591-0.025c-2.348,0.132-3.174-0.802-2.936-3.049c0.118-1.109-0.084-2.253,0.043-3.36
		c0.27-2.359-0.504-3.347-3.063-3.335c-2.52,0.012-3.195,0.936-3.136,3.325c0.142,5.729,0.184,11.469-0.024,17.194
		c-0.082,2.265,0.909,2.527,2.631,2.392c1.6-0.126,3.494,0.669,3.651-2.28c0.332-6.241,0.475-6.233,6.708-6.233
		c0.997,0,1.994,0,2.991,0c5.956,0.001,5.956,0.001,6.153,5.782c0.106,3.103,2.24,3.716,6.588,1.89
		c-1.193,3.241-3.667,2.452-6.127,2.048c-2.895-0.475-1.845-2.554-1.568-4.009c0.659-3.451-0.213-5.129-4.047-4.587
		c-1.714,0.242-3.491,0.05-5.24,0.039c-3.038-0.018-5.841-0.173-4.054,4.522c0.921,2.42-1.542,4.048-5.587,4.241
		c-2.809,0.134-4.5-1.874-3.996-3.91c1.404-5.682,0.227-11.347,0.697-16.987c0.128-1.539-0.583-3.637,1.53-4.139
		c2.012-0.478,4.527-0.997,6.146,0.315c1.164,0.943,2.007,3.087,1.014,4.965c-0.719,1.36,0.171,2.572-0.172,4.272
		c3.64-1.645,6.894-0.189,10.198-0.022c2.094,0.106,4.088,0.293,3.441-2.935c-0.208-1.04,0.35-2.214,0.266-3.304
		c-0.106-1.371-0.655-3.27,1.174-3.298C340.702,372.935,343.594,371.07,344.908,374.548z"/>
	<path style="fill:#FDFDFD;" d="M529.925,346.226c0.645,0.152,0.889,0.189,1.12,0.267c1.303,0.44,3.312-1.09,3.76,0.133
		c0.582,1.589,0.005,3.625-0.174,5.459c-0.089,0.914-0.877,1.116-1.672,1.141c-0.749,0.024-1.499,0.009-2.248,0.029
		c-2.367,0.063-5.162-0.628-6.99,0.399c-2.23,1.253-0.389,4.403-1.068,6.579c-0.251,0.806,0.379,3.037-1.307,2.299
		c-2.248-0.984-6.452,1.711-6.717-2.671c-0.414-6.846-0.159-13.736-0.091-20.607c0.021-2.187,1.796-1.994,3.279-1.983
		c6.907,0.055,13.823,0.382,20.715,0.097c3.802-0.157,1.927,2.302,2.157,3.659c0.328,1.935-0.728,3.459-2.737,2.786
		c-1.916-0.642-3.604,0.555-5.499-0.081C530.979,343.239,530.637,344.989,529.925,346.226z"/>
	<path style="fill:#FDFDFD;" d="M344.895,342.769c-0.914-1.413,1.092-3.974-1.846-4.605c-3.568-0.765-4.684,0.121-4.705,3.826
		c-0.006,1.121-0.077,2.25,0.021,3.363c0.163,1.833-0.715,2.435-2.417,2.415c-3.614-0.043-7.231-0.089-10.841,0.024
		c-2.146,0.067-2.947-0.788-2.733-2.875c0.114-1.11-0.036-2.245,0.041-3.362c0.146-2.113-0.092-3.51-2.894-3.505
		c-2.752,0.005-3.361,1.061-3.296,3.556c0.146,5.604,0.143,11.218-0.005,16.822c-0.064,2.407,0.918,2.94,3.094,2.925
		c2.098-0.015,3.138-0.378,3.159-2.85c0.051-5.877,0.185-5.876,6.278-5.876c1.246,0,2.493,0,3.739,0c5.691,0,5.691,0,5.846,5.627
		c0.093,3.39,1.469,3.905,6.479,2.424c0.867,0.544,0.4,1.118-0.114,1.421c-3.189,1.874-7.315-0.298-7.15-3.918
		c0.166-3.629-0.689-5.79-4.883-4.948c-0.72,0.145-1.493,0.02-2.242,0.02c-6.522,0-6.627-0.008-7.136,6.279
		c-0.251,3.099-2.577,3.114-4.529,3.264c-1.891,0.146-3.918,0.035-3.822-3.077c0.206-6.607,0.075-13.225,0.055-19.838
		c-0.006-1.804,0.678-3.237,2.591-2.502c1.923,0.739,5.439-1.883,5.694,2.661c0.362,6.462,0.449,6.458,6.789,6.458
		c0.374,0,0.749,0,1.123,0c6.093,0,6.116,0.001,6.292-6.066c0.041-1.421-0.07-2.827,1.811-3.115c2.033-0.31,4.274-0.991,5.825,0.832
		c1.07,1.257,2.409,2.618,2.133,4.599C346.455,341.552,345.673,341.919,344.895,342.769z"/>
	<path style="fill:#FDFDFD;" d="M440.161,344.263c0.263-2.065,1.896-1.193,2.922-1.22c3.985-0.104,7.976-0.086,11.963-0.011
		c1.737,0.033,2.473-0.589,2.465-2.38c-0.007-1.693-0.53-2.535-2.35-2.521c-6.356,0.046-12.713,0.034-19.069,0.002
		c-1.711-0.008-2.473,0.667-2.456,2.446c0.059,6.107,0.066,12.215,0.007,18.321c-0.017,1.786,0.708,2.423,2.44,2.411
		c6.605-0.046,13.212-0.055,19.817,0.01c1.817,0.018,2.387-0.728,2.36-2.457c-0.026-1.676-0.525-2.538-2.361-2.508
		c-4.112,0.067-8.227,0.07-12.338-0.027c-1.105-0.026-2.539,0.779-3.286-0.829c1.696-1.815,3.393,0.043,5.092,0.015
		c3.621-0.061,7.258,0.189,10.861-0.073c3.613-0.263,2.853,2.617,3.159,4.306c0.378,2.091-1.34,2.538-3.201,2.523
		c-6.619-0.053-13.24-0.122-19.856,0.025c-3.065,0.068-3.937-1.381-3.835-4.096c0.135-3.599,0.243-7.201,0.228-10.801
		c-0.011-2.514-1.615-4.75-0.202-7.651c0.778-1.597,0.89-2.457,2.81-2.472c7.062-0.056,14.127,0.818,21.195-0.214
		c1.465-0.214,2.365,1.346,3.24,2.456c-2.049,0.649-0.067,4.24-3.399,4.256C450.968,343.8,445.516,342.745,440.161,344.263z"/>
	<path style="fill:#FDFDFD;" d="M450.587,389.436c-1.237,0.199-1.249-1.811-2.29-0.999c-4.894,3.821-10.577,2.05-15.929,2.216
		c-2.827,0.088-3.44,1.589-3.235,3.593c0.314,3.065-0.448,3.988-3.668,3.374c-4.319-0.824-5.775-2.192-5.029-6.612
		c0.916-5.424-0.428-10.888,0.577-16.307c0.287-1.547,0.701-2.018,2.285-1.993c6.24,0.099,12.484-0.062,18.722,0.074
		c5.585,0.122,7.943,3.384,8.011,8.347C450.069,383.831,450.384,386.531,450.587,389.436z"/>
	<path style="fill:#FDFDFD;" d="M224.348,376.344c2.994,1.358,3.33,4.158,3.538,6.884c0.26,3.404-0.47,6.72-1.694,9.882
		c-0.799,2.064-0.149,2.709,1.913,2.679c4.24-0.062,8.482-0.059,12.722-0.005c1.544,0.02,2.613-0.389,3.166-1.972
		c1.07-3.058,2.466-6.017,3.344-9.125c3.053-10.812-1.661-18.659-13.313-22.462c-0.573-0.526-1.803-0.273-1.843-1.377
		c-0.04-1.106,0.647-1.702,1.741-1.818c1.106,1.966,2.607,3.495,5.029,2.905c1.631-0.398,1.217-0.057,0.91,1.092
		c-0.267,0.998,0.717,0.98,1.488,0.823c2.917-0.591,4.032,1.184,4.391,3.597c0.097,0.652,0.264,1.131,0.607,1.622
		c3.954,5.651,3.36,11.622,1.326,17.737c-0.789,2.373-1.408,4.783-1.821,7.287c-0.262,1.586-2.208,2.6-4.03,2.626
		c-5.353,0.077-10.709-0.037-16.061,0.063c-2.156,0.04-1.843-1.12-1.372-2.348c0.885-2.309,2.051-4.489,2.141-7.077
		C226.663,383.493,226.564,379.722,224.348,376.344z"/>
	<path style="fill:#FDFDFD;" d="M537.252,389.324c-2.286,2.657-1.281,4.061,1.681,5.198c6.138,2.357,12.372,2.68,18.729,1.356
		c1.191-0.248,2.368-0.817,3.411-1.463c2.052-1.272,3.198-3.183,2.965-5.642c-0.227-2.403-1.911-3.723-4.019-4.454
		c-3.928-1.363-8.055-1.511-12.154-1.824c-1.661-0.127-4.339,0.316-4.435-1.606c-0.114-2.294,2.646-2.056,4.387-2.243
		c3.521-0.377,6.999,0.111,10.252,1.482c1.587,0.669,2.593,0.251,3.604-0.84c-0.132,2.554-1.737,3.076-3.55,1.974
		c-2.736-1.664-5.864-0.606-8.646-1.696c-0.73-0.286-2.048-0.151-2.114,0.927c-0.089,1.441,1.286,1.211,2.21,1.237
		c3.136,0.088,6.288-0.264,9.347,0.893c2.346,0.887,4.947,1.713,5.686,4.255c0.928,3.194,0.193,6.595-2.16,8.877
		c-1.283,1.244-3.797,1.608-5.778,1.669c-6.151,0.189-12.359,0.475-18.402-0.979c-1.886-0.454-3.001-2.326-3.563-4.212
		C534.055,390.056,536.167,390.095,537.252,389.324z"/>
	<path style="fill:#FDFDFD;" d="M466.551,388.425c4.51,10.125,19.721,10.015,26.572,4.548c4.983-3.977,4.747-11.908-0.659-15.793
		c-4.862-3.494-10.33-4.05-16.042-2.694c-1.565,0.372-3.077,0.968-4.613,1.462c0.406-1.601,1.831-1.929,3.09-2.39
		c7.565-2.769,17.506-0.175,22.369,6.516c1.172,1.612,0.106,4.786,0.238,7.232c0.208,3.852-3.113,5.904-4.896,8.497
		c-0.771,1.122-4.911,1.49-7.553,1.615c-4.651,0.219-9.371,0.693-13.666-2.109C468.773,393.602,466.544,391.865,466.551,388.425z"/>
	<path style="fill:#FDFDFD;" d="M402.633,389.954c1.453-2.744,3.593-4.937,5.964-7.703c0.763,4.136,0.476,7.806,0.326,11.409
		c-0.114,2.754,1.131,2.946,3.31,3.009c2.363,0.067,3.317-0.494,3.208-3.091c-0.214-5.092-0.067-10.198-0.064-15.299
		c0.002-4.676,0.006-4.603-4.744-4.545c-1.612,0.02-2.884,0.514-4.043,1.523c-0.087-1.749,0.847-2.485,2.494-2.495
		c1.741-0.01,3.493,0.113,5.219-0.044c1.942-0.177,1.749,0.753,2.093,2.309c1.152,5.21,1.891,10.372,1.078,15.685
		c-0.008,0.049-0.664,6.589-0.688,6.603c-2.371,1.354-4.761-0.111-7.153-0.03c-1.521,0.052-1.631-1.585-1.629-2.878
		c0.003-2.114,0.001-4.227,0.001-6.332C405.667,387.182,404.337,389.099,402.633,389.954z"/>
	<path style="fill:#FDFDFD;" d="M397.412,382.75c-2.015-2.365-4.111-4.669-6.014-7.121c-1.025-1.321-2.185-1.823-3.81-1.886
		c-4.835-0.188-4.933-0.141-4.931,4.812c0.002,4.618,0.023,9.235-0.009,13.852c-0.016,2.253-0.541,4.365,3.187,4.312
		c3.534-0.05,2.945-2.083,2.948-4.137c0.004-3.298,0.001-6.596,0.001-10.876c2.941,3.061,5.021,5.435,6.591,8.24
		c-2.777-0.27-3.719-2.429-4.786-5.514c-0.988,3.858-0.516,6.887-0.546,9.859c-0.021,2.122-0.533,4.361-2.82,3.653
		c-1.912-0.591-6.228,2.511-5.724-3.36c0.546-6.362,0.1-12.813-0.013-19.224c-0.02-1.123,0.11-1.968,1.149-2.465
		c2.414-1.156,7.742,0.52,9.871,2.399C394.885,377.394,396.701,379.652,397.412,382.75z"/>
	<path style="fill:#FDFDFD;" d="M212.092,336.616c1.02-2.818,0.066-3.774-2.948-3.933c-11.753-0.618-23.442-0.337-35.025,1.867
		c-7.31,1.391-13.907,4.62-20.293,8.316c-0.184-1.637-1.534-4.074,2.225-2.678c1.079,0.401,2.219-0.93,3.232-1.643
		c3.708-2.612,8.772-2.309,12.15-5.734c0.748-0.759,1.657,0.825,2.996,0.495c11.894-2.934,24.086-1.191,36.115-2.132
		c1.555-0.122,2.868,2.132,4.443-0.069c0.444,2.111-1.325,3.249-1.237,4.897c-0.331,0.534-0.653,1.083-1.438,0.793L212.092,336.616z
		"/>
	<path style="fill:#FDFDFD;" d="M522.774,396.636c7.63-0.125,7.63-0.125,7.628-7.974c-0.001-3.741-0.073-7.485,0.031-11.223
		c0.063-2.234-0.02-3.805-3.047-3.767c-2.778,0.035-3.388,1.115-3.21,3.609c0.204,2.854,0.071,5.733,0.06,8.602
		c-0.002,0.589,0.226,1.324-0.444,1.68c-0.918,0.487-1.32-0.346-1.772-0.88c-1.359-1.605-2.686-3.236-4.026-4.857
		c1.964,0.336,2.519,2.722,4.707,3.19c-0.218-3.428-0.332-6.748,0.167-10.034c0.325-2.138,3.961-3.405,7.366-2.08
		c1.535,0.597,3.137,1.707,2.078,4.538c-1.486,3.973-0.359,8.383-0.536,12.601c-0.01,0.245,0.068,0.493,0.088,0.741
		C532.403,397.606,529.425,399.524,522.774,396.636z"/>
	<path style="fill:#FDFDFD;" d="M515.229,378.81c-2.896-2.255-4.827-6.136-9.608-5.124c-1.741,0.369-2.634,0.648-2.594,2.668
		c0.116,5.962,0.147,11.93-0.012,17.89c-0.07,2.614,1.498,2.391,3.135,2.361c1.561-0.028,3.342,0.414,3.2-2.269
		c-0.164-3.098-0.07-6.211-0.026-9.316c0.011-0.792-0.529-2.06,0.576-2.247c1.119-0.19,1.561,0.916,1.638,1.984
		c-1.648-0.683-1.578,0.415-1.535,1.482c0.119,2.966,0.106,5.945,0.404,8.892c0.201,1.987-0.852,2.585-2.4,2.92
		c-3.942,0.851-6.058-1.013-6.303-4.995c-0.341-5.544,0.992-11.141-0.808-16.679c-0.41-1.262,0.894-3.038,2.657-3.554
		C509.043,371.215,513.063,373.291,515.229,378.81z"/>
	<path style="fill:#FDFDFD;" d="M460.472,395.955c0.068,0.358,0.301,0.954,0.18,1.038c-3.082,2.133-7.432,0.113-7.977-3.421
		c-0.95-6.158-0.15-12.299-0.119-18.444c0.009-1.786,1.576-2.473,3.214-2.346c2.141,0.166,5.045-1.152,5.642,2.503
		c0.987,6.039,0.858,12.095-0.048,18.118c-0.121,0.802,1.215,2.405-0.902,2.576c-1.294-1.317-1.009-3.013-1.036-4.598
		c-0.074-4.364,0.05-8.731-0.067-13.094c-0.044-1.638-0.131-3.493-2.505-3.331c-2.167,0.148-1.934,1.975-1.973,3.409
		c-0.095,3.49-0.034,6.984-0.033,10.476C454.849,394.956,454.852,394.956,460.472,395.955z"/>
	<path style="fill:#FDFDFD;" d="M254.733,343.412c4.655-3.377,9.878-5.755,15.977-8.944c-3.643-0.194-6.257-0.425-8.873-0.452
		c-5.986-0.062-11.974,0.051-17.958-0.069c-1.986-0.04-3.604,0.753-5.308,1.469c1.433-3.033,3.19-3.316,6.763-2.719
		c6.043,1.01,12.387,0.13,18.6,0.261c2.177,0.046,4.307-1.058,6.495-0.159c0.796,0.327,1.723,0.433,1.749,1.604
		c0.025,1.131-0.74,1.273-1.599,1.652C265.25,338.4,260.455,341.898,254.733,343.412z"/>
	<path style="fill:#FDFDFD;" d="M562.174,378.658c0.984-1.797-0.194-2.45-1.587-2.952c-6.117-2.202-12.373-2.643-18.622-0.865
		c-4.734,1.347-6.157,4.354-4.812,9.091c-2.57-0.352-3.058-3.488-0.951-6.223c2.613-3.392,6.236-4.747,10.355-4.947
		c5.105-0.247,10.18,0.004,14.916,2.159c1.25,0.569,1.795-0.046,2.526-0.672c0.665,0.424,0.944,1.176,1.474,1.717
		c0.206,0.233,0.376,0.489,0.519,0.763c0.342,0.625,0.406,1.44,1.211,1.74c0.425,0.099,0.852,0.138,1.286,0.115
		c1.091-0.054,2.012-0.712,3.078-0.855c0.819,0.117,1.088,0.619,0.974,1.389c-0.099,0.134-0.198,0.267-0.297,0.401
		c-0.224,0.104-0.514,0.151-0.662,0.321c-2.749,3.145-4.987,1.19-7.048-0.828C563.688,378.185,562.979,378.604,562.174,378.658z"/>
	<path style="fill:#FDFDFD;" d="M385.47,349.27c0-2.74,0.386-5.551-0.102-8.201c-0.56-3.041,0.94-3.907,3.282-4.077
		c3.859-0.281,6.154,1.221,5.661,3.969c-1.069,5.955-0.376,11.912-0.509,17.86c-0.071,3.195-1.821,4.771-4.53,4.772
		c-2.555,0.002-3.798-1.991-3.779-4.607c0.023-3.238,0.006-6.477,0.006-9.715C385.489,349.27,385.48,349.27,385.47,349.27z"/>
	<path style="fill:#FDFDFD;" d="M351.152,389.316c-1.003,2.221-2.007,4.443-3.171,7.02c3.14,0.205,6.284,1.536,7.66-2.741
		c0.275-0.855,0.983-1.438,1.978-1.439c3.72-0.003,7.439,0.016,11.159,0.004c1.456-0.005,1.795,1.183,2.254,2.143
		c0.697,1.456,1.55,2.307,3.363,2.35c3.928,0.093,4.066,0.024,2.774-3.63c1.184,0.67,2.817,1.41,2.486,2.85
		c-0.391,1.702-2.229,1.599-3.77,1.65c-2.956,0.098-5.915,0.441-6.477-3.715c-0.161-1.19-1.403-0.8-2.19-0.782
		c-3.066,0.073-6.139,0.437-9.192,0.297c-2.132-0.098-1.037,1.904-2.161,2.788c-2.901,2.283-5.709,0.934-8.509,1.257
		c-0.285,0.033-0.731-0.275-0.911-0.55C345.604,395.53,349.362,389.578,351.152,389.316z"/>
	<path style="fill:#FDFDFD;" d="M141.164,355.659c-2.075,4.008-3.585,8.191-4.298,12.678c-1.581,9.942,1.871,17.591,10.263,23.069
		c-0.483-0.073-1.056-0.002-1.437-0.239c-4.18-2.609-8.008-5.226-9.304-10.703c-1.763-7.456-1.302-14.431,1.916-21.317
		c0.35-0.75,0.341-1.67,0.484-2.513C139.061,355.03,139.933,354.911,141.164,355.659z"/>
	<path style="fill:#FDFDFD;" d="M354.748,358.658c4.869,2.197,9.821,3.307,15.202,1.936c9.459-2.411,12.479-9.037,7.925-17.766
		c3.936,1.506,4.029,5.033,3.395,8.089c-0.97,4.677-2.825,9.124-8.651,9.798c-2.016,0.234-3.108,1.336-2.689,3.894
		c-1.007-2.233-2.519-2.617-4.369-2.366c-3.15,0.427-6.085-0.399-8.998-1.51C355.497,360.326,354.863,359.781,354.748,358.658z"/>
	<path style="fill:#FDFDFD;" d="M279.098,356.05c6.447,4.846,13.545,6.359,21.395,4.289c2.074-0.547,4.043-1.296,5.667-2.665
		c1.126-0.949,3.683-1.728,2.632-3.344c-1.036-1.595-3.209-3.257-5.734-1.673c0.065-1.222,0.198-2.421,1.927-1.746
		c1.507,0.589,3.088,1.099,4.434,1.959c1.525,0.975,1.681,2.761,0.402,3.826c-7.076,5.894-19.848,8.284-28.886,2.032
		C279.923,358.028,279.369,357.177,279.098,356.05z"/>
	<path style="fill:#FDFDFD;" d="M276.863,378.792c-1.853,9.564,2.135,15.499,11.898,17.36c6.985,1.331,13.596,0.387,19.43-4.044
		c-2.723,4.781-7.638,5.612-12.231,5.668c-5.485,0.066-11.128-0.447-15.832-4.183c-3.415-2.712-6.179-9.21-5.147-13.128
		C275.208,379.605,275.973,379.056,276.863,378.792z"/>
	<path style="fill:#FEFEFE;" d="M208.695,361.578c-0.586,0.145-1.205,0.216-1.75,0.457c-0.541,0.239-0.991,0.834-1.622,0.233
		c-0.562-0.536-0.415-1.124-0.003-1.656c1.235-1.596,1.241-3.956,3.179-5.112c2-0.5,4-1,6-1.5c2.27,1.603-0.316,2.196-0.676,3.252
		C212.355,358.979,210.764,360.562,208.695,361.578z"/>
	<path style="fill:#FDFDFD;" d="M284.786,342.646c3.305-4.56,12.294-4.585,17.696-0.508c2.814,2.124,5.351,1.473,7.109-1.543
		c1.024-0.009,1.925,0.34,1.374,1.499c-0.822,1.728-6.589,2.737-8.19,1.567c-4.724-3.45-9.809-3.319-15.113-1.644
		C286.751,342.305,286.388,345.607,284.786,342.646z"/>
	<path style="fill:#FDFDFD;" d="M189.587,395.127c4.899-4.557,8.649-10.221,13.896-14.435c1.046-0.84,2.018-1.864,3.445-2.107
		c-1.469,2.884-3.301,5.378-6.482,6.639c-0.593,0.235-2.365,0.858-0.359,1.881c0.374,0.191,0.579,0.746,0.177,0.812
		C195.59,388.695,194.209,394.318,189.587,395.127z"/>
	<path style="fill:#FDFDFD;" d="M306.69,373.701c-9.1-5.217-18.059-5.128-26.862,0.721c3.153-3.952,7.252-5.383,12.293-5.626
		c3.819-0.184,7.278,0.232,10.712,1.736C304.437,371.234,306.108,371.786,306.69,373.701z"/>
	<path style="fill:#FDFDFD;" d="M503.199,337.632c-5.854-2.967-11.944-3.951-18.411-2.407c-3.65,0.871-6.457,3.049-9.192,5.41
		c-0.178-1.314,0.625-2.1,1.555-2.775c4.075-2.96,8.086-5.403,13.706-4.299c3.185,0.626,6.609-0.029,9.73,1.625
		C501.747,335.8,502.749,336.36,503.199,337.632z"/>
	<path style="fill:#FDFDFD;" d="M309.649,340.643c-8.746-7.509-18.26-7.794-28.312-3.006c1.394-3.03,4.302-3.585,7.057-3.824
		c6.623-0.573,13.122-0.146,19.161,3.23C309.165,337.943,309.166,339.327,309.649,340.643z"/>
	<path style="fill:#FDFDFD;" d="M475.647,340.56c-4.422,10.614-0.452,17.887,11.034,20.23c0.848,0.173,1.68,0.429,2.52,0.647
		c-7.583,0.565-12.873-2.757-16.097-9.537C471.314,348.14,472.508,342.905,475.647,340.56z"/>
	<path style="fill:#FDFDFD;" d="M424.461,340.609c-8.144-3.791-15.884-3.118-23.21,2.105c0.133-3.402,2.569-3.772,5.21-4.19
		c3.723-0.589,7.298-1.693,11.225-1.238C420.515,337.615,422.698,338.481,424.461,340.609z"/>
	<path style="fill:#FDFDFD;" d="M377.912,342.868c-7.232-5.614-14.976-5.918-23.105-2.224c1.462-2.764,4.565-3.32,6.859-3.387
		c4.108-0.12,8.565-0.748,12.343,1.966c0.587,0.422,1.415,0.955,2.015,0.838C379.073,339.467,378.247,341.296,377.912,342.868z"/>
	<path style="fill:#FDFDFD;" d="M206.882,378.6c5.922-4.522,12.796-5.389,17.508-2.208c-2.418-0.197-5.034-1.068-7.21-0.432
		c-3.294,0.963-7.487,0.698-9.307,4.784C207.108,380.211,207.989,378.93,206.882,378.6z"/>
	<path style="fill:#FDFDFD;" d="M281.377,337.599c-6.353,6.891-6.759,10.351-2.176,18.553c-5.276-3.296-4.786-8.028-2.876-13.453
		c0.676-1.92,3.554-3.579-0.336-6.527C278.533,336.846,279.955,337.223,281.377,337.599z"/>
	<path style="fill:#FDFDFD;" d="M354.86,340.621c-6.45,6.218-6.628,10.027-0.832,17.869c-0.7-0.127-1.438,0.652-2.095-0.008
		c-3.825-3.843-4.192-11.653-0.4-15.673C352.289,342.007,352.126,338.699,354.86,340.621z"/>
	<path style="fill:#FDFDFD;" d="M167.114,408.641c6.446-3.208,12.772-6.628,18.816-10.553
		C180.653,403.379,174.611,407.307,167.114,408.641z"/>
	<path style="fill:#FDFDFD;" d="M507.628,352.465c1.911-5.99-0.116-10.791-4.496-14.881c2.491-0.168,3.9,0.052,4.567,3.395
		c0.542,2.719,1.718,5.35,2.013,8.317C509.924,351.446,509.067,351.902,507.628,352.465z"/>
	<path style="fill:#FDFDFD;" d="M399.088,346.481c-1.087,7.695,2.958,11.895,9.707,14.253c-2.045-0.129-4.916,0.601-5.911-0.926
		c-1.888-2.896-4.844-5.281-5.307-9.03C397.37,349.098,397.636,347.58,399.088,346.481z"/>
	<path style="fill:#FDFDFD;" d="M513.002,386.241c3.87,2.926,6.668,6.863,9.851,10.437c-2.625-0.469-4.727-1.134-5.331-4.479
		c-0.348-1.927-2.839-3.051-4.66-3.956C510.644,387.141,513.106,386.889,513.002,386.241z"/>
	<path style="fill:#FDFDFD;" d="M186.647,406.149c-2.19,0.682-3.554,2.393-5.176,3.789c-0.049,0.042-0.444-0.191-0.56-0.371
		c-1.243-1.933,0.487-3.302,1.265-4.539c0.825-1.313,2.593-1.098,3.923-0.097C186.343,405.115,186.392,405.558,186.647,406.149z"/>
	<path style="fill:#FEFEFE;" d="M212.312,336.793c0.479-0.264,0.959-0.529,1.438-0.793c2.415,1.264,1.127,3.794,1.597,5.641
		c0.209,0.82-2.35,1.497-3.847,0.36C211.771,340.265,212.041,338.529,212.312,336.793z"/>
	<path style="fill:#FDFDFD;" d="M150.878,398.346c-2.324,2.921-4.565,5.918-7.628,8.147c-0.594-2.233,2.359-2.955,2.142-5.027
		c1.854,0.07,1.733-1.336,2.111-2.57C148.174,396.709,149.716,398.385,150.878,398.346z"/>
	<path style="fill:#BABABA;" d="M138.082,412.572c0.026,2.182,1.652,1.442,2.704,1.343c4.323-0.41,8.634-0.946,12.949-1.435
		c0.261,0.181,0.342,0.352,0.243,0.515c-0.095,0.157-0.189,0.236-0.283,0.236c-1.488,0.271-2.975,0.542-4.463,0.812
		c-1.168,0.787-2.646-0.162-3.804,0.681l-0.34-0.031l-0.337,0.054c-1.956,0.975-4.162-0.22-6.124,0.706l-0.307-0.041l-0.308,0.037
		c-2.286-0.591-2.4-1.019-0.788-2.961l0.019-0.016C137.562,412.184,137.841,412.217,138.082,412.572z"/>
	<path style="fill:#FDFDFD;" d="M153.863,342.826c-3.499,3.275-6.998,6.551-10.497,9.827
		C145.24,347.643,148.874,344.511,153.863,342.826z"/>
	<path style="fill:#FDFDFD;" d="M229.684,342.895c-2.505,2.819-5.114,5.52-8.432,7.414c-0.259-0.176-0.347-0.354-0.265-0.536
		c0.083-0.183,0.166-0.274,0.251-0.274c0.707-0.82,1.714-1.529,2.067-2.481C224.435,343.973,226.769,343.044,229.684,342.895z"/>
	<path style="fill:#FDFDFD;" d="M308.124,392.159c0.251-0.916,1.94-1.844,0.415-2.733c-1.429-0.833-2.767-2.686-4.862-1.339
		c-0.705,0.453-1.414,0.9-2.122,1.35c0.853-1.233,2.088-3.637,2.494-3.505c2.187,0.714,4.622,1.648,6.105,3.289
		C312.06,391.328,310.408,392.251,308.124,392.159z"/>
	<path style="fill:#FDFDFD;" d="M147.088,391.361c2.975,1.04,5.95,2.08,8.924,3.119c0.087,0.143,0.173,0.286,0.26,0.428
		c-0.11,0.126-0.22,0.252-0.33,0.377c-2.586,0.729-4.917-0.629-7.372-0.954C146.975,394.12,146.958,392.672,147.088,391.361z"/>
	<path style="fill:#FDFDFD;" d="M153.695,413.23c0.013-0.25,0.026-0.5,0.04-0.751c4.487-1.297,8.975-2.595,13.462-3.892
		C163.273,411.812,158.551,412.715,153.695,413.23z"/>
	<path style="fill:#FDFDFD;" d="M569.993,374.271c1.484,0.153,3.45-1.48,4.352,0.49c0.718,1.568,1.284,3.592-0.189,5.294
		c-1.002,1.157-1.435,0.218-1.912-0.534c0,0,0.182-0.193,0.182-0.193c0.449-0.42,0.571-0.946,0.485-1.537
		c-0.095-0.435-0.204-0.857-0.649-1.072c-0.48-0.016-0.941,0.077-1.404,0.045c-0.466-0.146-0.824-0.436-1.103-0.831
		c-0.141-0.279-0.207-0.577-0.215-0.889C569.603,374.736,569.751,374.476,569.993,374.271z"/>
	<path style="fill:#969696;" d="M557.19,389.287c1.219,1.771-0.336,2.009-1.385,2.292c-4.349,1.172-8.659,1.25-12.826-0.783
		c2.909,0.211,5.82,0.599,8.726,0.57C553.682,391.347,555.963,391.539,557.19,389.287z"/>
	<path style="fill:#FDFDFD;" d="M347.757,343.007c0,5.624,0,11.248,0,16.872c-0.095,0.005-0.189,0.01-0.284,0.014
		c0-5.715,0-11.429,0-17.144C347.567,342.836,347.662,342.921,347.757,343.007z"/>
	<path style="fill:#BBBBBB;" d="M298.556,355.557c-4.587,2.098-8.873,1.728-12.805-1.558
		C289.826,356.105,294.231,355.504,298.556,355.557z"/>
	<path style="fill:#FDFDFD;" d="M395.327,389.887c3.7,3.437,3.7,3.437,7.35,0.006c-0.022,2.328-2.124,3.148-3.36,4.588
		c-0.521,0.607-1.263,0.381-1.496-0.24C397.22,392.643,395.147,391.906,395.327,389.887z"/>
	<path style="fill:#FDFDFD;" d="M425.808,346.411c2.661-1.071,3.273-2.369,0.522-4.153c-0.71-0.46-1.288-1.123-1.928-1.693
		c1.323-0.044,2.377,0.606,3.354,1.374c1.317,1.034,2.66,2.44,1.85,4.052C428.924,347.351,427.174,346.974,425.808,346.411z"/>
	<path style="fill:#FEFEFE;" d="M221.239,349.499c0.004,0.27,0.009,0.54,0.013,0.81c-0.234,0.23-0.468,0.46-0.702,0.69
		c-1.701,0.378-2.152,3.281-4.55,2.25C215.234,348.491,218.872,349.883,221.239,349.499z"/>
	<path style="fill:#FDFDFD;" d="M141.009,393.008c-0.204,2.005-1.65,2.8-3.311,2.672c-1.288-0.099-2.608-0.895-2.667-2.581
		c-0.06-1.727-0.31-3.6,2.215-3.86c0.063,0.156,0.127,0.313,0.193,0.469c-0.697,3.803-0.697,3.803,3.104,3.101
		C140.698,392.874,140.854,392.941,141.009,393.008z"/>
	<path style="fill:#E4E4E4;" d="M569.993,374.271c-0.009,0.264-0.018,0.528-0.027,0.792c-1.029,1.285-0.068,3.2-1.391,4.392
		c-0.534,0.009-1.067,0.018-1.601,0.026c-0.526-0.517-0.688-1.165-0.673-1.873c-0.025-0.982,0.156-2.226-1.477-1.15
		c-1.025-0.456-0.804-1.377-0.823-2.208c1.747-0.567,3.498-0.565,5.25-0.024C569.498,374.243,569.745,374.258,569.993,374.271z"/>
	<path style="fill:#FDFDFD;" d="M216,353.25c1.945,0.116,2.586-2.405,4.55-2.25c-1.708,2.658-4.164,4.512-6.726,6.252
		c0.09-1.112,1.702-1.908,0.676-3.251C215,353.75,215.5,353.5,216,353.25z"/>
	<path style="fill:#FDFDFD;" d="M137.225,412.488c-0.713,1.247-0.921,2.359,0.788,2.961c-0.724,1.181-1.449,2.363-2.173,3.545
		C137.036,416.943,133.573,413.82,137.225,412.488z"/>
	<path style="fill:#FDFDFD;" d="M234.932,338.394c-1.485,1.841-3.188,3.428-5.291,4.551
		C229.504,339.219,232.387,339.003,234.932,338.394z"/>
	<path style="fill:#FDFDFD;" d="M394.672,353.85c0-3.43,0-6.859,0-10.289c0.125-0.001,0.25-0.002,0.375-0.003
		c0,3.408,0,6.816,0,10.225C394.922,353.806,394.797,353.828,394.672,353.85z"/>
	<path style="fill:#FDFDFD;" d="M246.667,348.697c1.75-1.703,3.648-3.167,6.091-3.744
		C251.634,347.676,249.474,348.712,246.667,348.697z"/>
	<path style="fill:#FDFDFD;" d="M466.681,381.8c-0.035,2.225-0.069,4.45-0.104,6.674C463.815,386.206,464.579,383.992,466.681,381.8
		z"/>
	<path style="fill:#8E8E8E;" d="M233.922,359.031c-2.034,1.131-1.561,2.182,0.102,3.195c-1.031,0.23-2.043,0.17-2.6-0.831
		c-0.659-1.184,0.42-1.802,1.099-2.423c0.875-0.8,1.501-2.024,2.946-1.997C234.953,357.659,234.437,358.345,233.922,359.031z"/>
	<path style="fill:#FEFEFE;" d="M214.098,350.283c-0.16,1.104-0.771,1.437-1.597,1.339c-0.892-0.106-1.252-0.865-1.273-1.594
		c-0.027-0.912,0.706-1.228,1.527-1.158C213.696,348.95,213.735,349.845,214.098,350.283z"/>
	<path style="fill:#FDFDFD;" d="M236.686,356.147c1.116-1.262,2.262-2.486,3.923-3.045
		C241.86,357.412,238.474,355.75,236.686,356.147z"/>
	<path style="fill:#FDFDFD;" d="M279.905,374.367c-1.027,1.494-2.054,2.988-3.081,4.482
		C277.276,376.961,275.894,373.811,279.905,374.367z"/>
	<path style="fill:#FDFDFD;" d="M154.5,396.766c0.481-0.494,0.963-0.988,1.443-1.481c-0.001,0,0.075-0.055,0.075-0.055
		c0.869-0.581,1.873-0.446,2.766-0.283c1.665,0.305,1.107,1.083,0.219,1.809l0.001,0C157.505,397.32,156.003,397.308,154.5,396.766z
		"/>
	<path style="fill:#FDFDFD;" d="M138.082,412.572c-0.279-0.033-0.559-0.066-0.838-0.099c1.256-1.766,2.707-3.333,4.567-4.485
		C141.224,410.05,139.453,411.148,138.082,412.572z"/>
	<path style="fill:#FDFDFD;" d="M137.246,389.239c3.24-0.794,4.154,0.121,3.763,3.769c0,0-0.132-0.077-0.132-0.077
		c-1.39-0.973-2.262-2.462-3.534-3.553L137.246,389.239z"/>
	<path style="fill:#FEFEFE;" d="M209.25,349.5c-1.25-1-2.5-2-3.75-3c1.25,0,2.5,0,3.75,0C209.25,347.5,209.25,348.5,209.25,349.5z"
		/>
	<path style="fill:#969696;" d="M550.505,387.745c2.315,0.169,4.971-1.127,6.7,1.56
		C554.972,388.784,552.738,388.265,550.505,387.745z"/>
	<path style="fill:#FDFDFD;" d="M185.856,398.141c0.976-1.39,2.274-2.381,3.812-3.075
		C188.832,396.63,188.308,398.58,185.856,398.141z"/>
	<path style="fill:#FDFDFD;" d="M138.628,415.452c1.94-1.116,4.078-0.51,6.124-0.706
		C142.856,416.245,140.668,415.208,138.628,415.452z"/>
	<path style="fill:#FDFDFD;" d="M569.25,374.226c-1.75,0.008-3.5,0.016-5.25,0.024C565.746,373.323,567.493,372.7,569.25,374.226z"
		/>
	<path style="fill:#FDFDFD;" d="M238.649,335.361c-0.987,1.373-2.232,2.429-3.796,3.096
		C235.576,336.76,236.55,335.371,238.649,335.361z"/>
	<path style="fill:#FDFDFD;" d="M206.556,383.314c1.402-1.726,2.417-1.496,3.946-0.288
		C209.068,383.131,208.092,383.202,206.556,383.314z"/>
	<path style="fill:#BFBFBF;" d="M154.5,396.766c1.502-0.003,3.003-0.007,4.505-0.01c-1.624,1.036-3.409,1.008-5.223,0.792
		c-0.442-0.304-0.413-0.555,0.086-0.751C154.082,396.83,154.292,396.82,154.5,396.766z"/>
	<path style="fill:#8B8B8B;" d="M400.554,383.326c-0.014,1.178-0.773,1.752-1.788,1.742c-0.983-0.01-1.291-0.848-1.318-1.747
		C398.482,384.067,399.518,384.057,400.554,383.326z"/>
	<path style="fill:#FDFDFD;" d="M203.033,387.251c-0.126,1.715-1.097,2.088-2.57,3.095
		C201.032,388.576,201.828,388.005,203.033,387.251z"/>
	<path style="fill:#FDFDFD;" d="M223.137,393.181c0.314-1.487,0.038-2.541,1.349-2.881
		C225.01,391.44,224.405,392.098,223.137,393.181z"/>
	<path style="fill:#FDFDFD;" d="M243.6,350.887c0.725-1.182,1.79-1.888,3.118-2.227C246.101,349.994,245.278,351.04,243.6,350.887z"
		/>
	<path style="fill:#FDFDFD;" d="M240.596,353.134c0.729-1.166,1.728-1.971,3.08-2.304
		C243.153,352.272,242.294,353.264,240.596,353.134z"/>
	<path style="fill:#FDFDFD;" d="M143.422,352.576c-0.416,1.288-1.207,2.298-2.291,3.09
		C140.972,353.952,141.976,353.1,143.422,352.576z"/>
	<path style="fill:#FDFDFD;" d="M145.428,414.723c1.153-0.869,2.509-0.604,3.804-0.681
		C148.138,415.24,146.712,414.586,145.428,414.723z"/>
	<path style="fill:#FDFDFD;" d="M287.391,363.444c-0.669,0.467-1.209,0.205-1.671-0.26c-0.111-0.112-0.085-0.578-0.051-0.586
		C286.461,362.408,287.008,362.748,287.391,363.444z"/>
	<path style="fill:#FDFDFD;" d="M137.874,419.649c0-0.955-0.081-1.27,0.02-1.505c0.13-0.299,0.363-0.684,0.632-0.764
		c0.48-0.143,0.567,0.259,0.401,0.612C138.745,418.38,138.471,418.724,137.874,419.649z"/>
	<path style="fill:#FDFDFD;" d="M141.39,403.851c-0.178,0.192-0.389,0.421-0.6,0.649c-0.265-0.333-0.563-0.647-0.774-1.011
		c-0.053-0.092,0.152-0.482,0.269-0.498C140.829,402.921,141.142,403.267,141.39,403.851z"/>
	<path style="fill:#FDFDFD;" d="M478.181,333.876c0.26,0.242,0.534,0.475,0.523,0.49c-0.286,0.374-0.541,0.831-0.928,1.055
		c-0.498,0.288-0.689-0.164-0.508-0.524C477.465,334.503,477.867,334.212,478.181,333.876z"/>
	<path style="fill:#FDFDFD;" d="M153.869,396.798c-0.029,0.25-0.058,0.5-0.086,0.751c-0.991,0.284-1.982,0.567-2.973,0.852
		C151.26,396.779,152.513,396.689,153.869,396.798z"/>
	<path style="fill:#FDFDFD;" d="M564.02,381.44c0.224,0.223,0.496,0.454,0.477,0.48c-0.266,0.378-0.51,0.828-0.884,1.058
		c-0.359,0.22-0.785-0.004-0.538-0.496C563.278,382.079,563.696,381.784,564.02,381.44z"/>
	<path style="fill:#FDFDFD;" d="M499.387,394.331c-0.556,0.44-0.804,0.69-0.845,0.66c-0.369-0.272-0.811-0.536-1.014-0.917
		c-0.193-0.361,0.022-0.74,0.543-0.498C498.508,393.78,498.913,394.055,499.387,394.331z"/>
	<path style="fill:#FDFDFD;" d="M250.024,385.566c0.574,0.768,0.643,1.526,0.123,2.28
		C249.44,387.104,249.909,386.319,250.024,385.566z"/>
	<path style="fill:#FDFDFD;" d="M260.778,331.925c1.061-0.64,1.803-0.37,2.792-0.204
		C262.597,332.432,261.833,332.335,260.778,331.925z"/>
	<path style="fill:#FDFDFD;" d="M464.272,393.615c0.062-0.665,0.052-1.886,0.197-1.905c0.925-0.119,0.413,0.698,0.495,1.116
		c0.058,0.294-0.128,0.636-0.205,0.957C464.596,393.726,464.434,393.67,464.272,393.615z"/>
	<path style="fill:#FEFEFE;" d="M183.207,370.603c-0.852,0.114-1.323-2.649-2.757,0.496c-2.622,5.751-16.381,5.625-19.936,0.405
		c-1.47-2.159-1.076-4.53,1.22-5.787c0.79-0.432,0.471-0.751,0.291-1.067c-0.599-1.057-0.262-1.874,0.467-2.688
		c3.382-3.775,6.477-7.229,11.736-9.403c4.752-1.965,9.667-3.021,14.396-4.788c2.557-0.955,5.183-0.374,7.484-0.469
		c-1.86,5.382-5.051,10.258-6.249,15.957C188.291,366.296,186.124,368.789,183.207,370.603z"/>
	<path style="fill:#BFBFBF;" d="M159.004,396.757c0.119-2.688-2.047-0.905-2.985-1.526c-0.002-0.25-0.004-0.501-0.006-0.751
		c1.097,0.034,2.216-0.054,3.285,0.136c1.049,0.186,2.995-0.501,2.826,1.235C161.99,397.233,160.214,396.915,159.004,396.757z"/>
	<path style="fill:#FDFDFD;" d="M491.345,356.389c-3.19-0.052-5.739-0.494-7.954-2.117c-3.063-2.244-4.283-6.79-2.439-10.032
		c2.208-3.882,5.959-5.225,10.152-5.127c4.139,0.097,7.95,1.29,9.986,5.379c1.899,3.814,0.201,8.369-3.758,10.505
		C495.294,356.098,493.078,356.34,491.345,356.389z"/>
	<path style="fill:#FCFCFC;" d="M365.185,356.382c-2.582-0.04-4.64-0.434-6.42-1.744c-3.645-2.684-3.547-7.674,0.335-9.996
		c3.834-2.293,7.882-2.257,11.715-0.014c3.808,2.228,3.88,7.343,0.316,10.042C369.231,356.108,367.011,356.292,365.185,356.382z"/>
	<path style="fill:#FCFCFC;" d="M482.175,392.132c-2.884-0.09-4.941-0.581-6.741-1.811c-3.734-2.552-3.77-7.55,0.028-10.013
		c3.517-2.281,7.317-2.338,11.076-0.586c2.313,1.078,3.749,2.954,3.708,5.597c-0.043,2.776-1.525,4.74-4.064,5.744
		C484.693,391.652,483.07,391.901,482.175,392.132z"/>
	<path style="fill:#EAEAEA;" d="M362.836,379.791c0.98,1.387,1.739,2.204,2.189,3.166c0.558,1.193,2.066,2.406,1.353,3.637
		c-0.723,1.247-2.5,0.428-3.807,0.573c-2.544,0.281-3.657-0.328-1.938-2.951C361.429,382.999,361.948,381.601,362.836,379.791z"/>
	<path style="fill:#FEFEFE;" d="M205.504,346.458c-1.332,0.671-2.161,0.182-3.381-0.407
		C203.568,345.668,204.596,345.471,205.504,346.458z"/>
	<path style="fill:#4E4E4E;" d="M527.408,338.145c3.24,0,6.481,0.035,9.721-0.015c1.734-0.027,2.451,0.676,2.44,2.451
		c-0.011,1.743-0.671,2.467-2.426,2.444c-4.237-0.056-8.475-0.013-12.712-0.018c-1.473-0.002-2.654,0.101-2.696,2.148
		c-0.042,2.028,0.806,2.662,2.652,2.615c2.242-0.057,4.488,0.035,6.729-0.036c1.841-0.059,2.731,0.587,2.761,2.571
		c0.034,2.197-1.221,2.426-2.891,2.339c-0.622-0.032-1.246-0.012-1.869-0.014c-6.68-0.013-6.801-0.022-7.265,6.416
		c-0.186,2.587-1.769,2.222-3.36,2.256c-1.545,0.033-3.049,0.147-3.028-2.168c0.058-6.231,0.041-12.463,0.007-18.695
		c-0.01-1.834,0.948-2.338,2.589-2.31C521.176,338.182,524.292,338.146,527.408,338.145z"/>
	<path style="fill:#4C4C4C;" d="M433.032,373.996c3.116,0,6.261-0.27,9.342,0.063c4.654,0.503,7.212,3.607,7.155,8.051
		c-0.057,4.478-2.67,7.448-7.379,7.851c-3.471,0.297-6.99,0.266-10.475,0.1c-2.53-0.121-3.846,0.534-3.371,3.283
		c0.464,2.684-0.773,3.321-3.325,3.359c-2.856,0.043-2.876-1.427-2.841-3.514c0.089-5.366,0.199-10.742-0.03-16.099
		c-0.118-2.77,0.925-3.508,3.436-3.363c2.488,0.143,4.991,0.031,7.488,0.031C433.032,373.837,433.032,373.917,433.032,373.996z"/>
	<path style="fill:#515151;" d="M460.472,395.955c-1.182,1.007-2.612,0.524-3.941,0.672c-2.159,0.241-2.763-0.734-2.719-2.812
		c0.12-5.721,0.189-11.451-0.02-17.167c-0.103-2.821,1.321-2.926,3.432-2.952c2.118-0.026,3.152,0.429,3.113,2.888
		c-0.104,6.463,0.065,12.93,0.125,19.396C460.462,395.98,460.472,395.955,460.472,395.955z"/>
	<path style="fill:#969696;" d="M568.574,379.455c0.542-1.439-1.362-3.653,1.391-4.392c0.087,0.19,0.135,0.388,0.147,0.596
		c-0.144,0.769,0.006,1.396,0.82,1.707c0.245,0.164,0.433,0.377,0.57,0.635C570.772,378.982,569.823,379.52,568.574,379.455z"/>
	<path style="fill:#969696;" d="M564.823,376.458c0.007-1.386,0.855-1.794,1.97-1.388c1.382,0.503,0.348,1.397,0.149,2.134
		c-0.813,0.523-1.075-0.414-1.616-0.61C565.158,376.551,564.99,376.506,564.823,376.458z"/>
	<path style="fill:#8D8D8D;" d="M571.502,378.001c-0.279-0.032-0.559-0.065-0.838-0.097c-0.378-0.529-0.309-1.022,0.123-1.484
		c0.487-0.225,0.975-0.449,1.462-0.674c1.144,0.674,0.799,2.069,1.444,2.984c-0.106,0.87-0.71,0.686-1.268,0.598
		C572.356,378.72,572.113,378.232,571.502,378.001z"/>
	<path style="fill:#B0B0B0;" d="M565.326,376.594c0.539,0.204,1.078,0.407,1.616,0.611c0.01,0.759,0.02,1.518,0.031,2.277
		C564.793,379.449,565.684,377.666,565.326,376.594z"/>
	<path style="fill:#515151;" d="M386.447,349.512c0.003-2.862,0.126-5.732-0.034-8.585c-0.141-2.519,1.201-2.831,3.229-2.837
		c1.978-0.006,3.324,0.133,3.257,2.734c-0.154,5.97-0.134,11.948-0.013,17.92c0.047,2.316-1.038,2.715-2.972,2.588
		c-1.731-0.114-3.614,0.33-3.499-2.485C386.542,355.739,386.444,352.623,386.447,349.512z"/>
	<path style="fill:#898989;" d="M573.693,378.731c-0.912-0.786-1.341-1.806-1.444-2.984
		C574.009,375.509,574.009,375.509,573.693,378.731z"/>
	<path style="fill:#7A7A7A;" d="M570.787,376.42c-0.04,0.495-0.081,0.991-0.122,1.485c-1.83-0.344-1.769-1.153-0.553-2.245
		C570.337,375.913,570.562,376.166,570.787,376.42z"/>
	<path style="fill:#A6A6A6;" d="M137.343,389.377c2.415-0.046,3.082,1.649,3.535,3.554c-1.303,1.211-2.721,2.616-4.432,0.893
		C134.746,392.112,136.137,390.685,137.343,389.377z"/>
	<path style="fill:#F8F8F8;" d="M435.047,385.32c-0.991,0-1.991-0.09-2.97,0.017c-2.727,0.299-3.965-0.419-3.921-3.601
		c0.043-3.145,1.482-3.369,3.889-3.242c2.593,0.138,5.203-0.044,7.798,0.065c1.941,0.081,3.369,1.058,3.436,3.162
		c0.071,2.232-1.202,3.446-3.404,3.563c-1.605,0.085-3.219,0.017-4.829,0.017C435.047,385.308,435.047,385.314,435.047,385.32z"/>
</g>
</svg>
