<?xml version="1.0" encoding="iso-8859-1"?>
<!-- Generator: Adobe Illustrator 22.0.1, SVG Export Plug-In . SVG Version: 6.00 Build 0)  -->
<svg version="1.1" id="Layer_1" xmlns="http://www.w3.org/2000/svg" xmlns:xlink="http://www.w3.org/1999/xlink" x="0px" y="0px"
	 width="720px" height="720px" viewBox="0 0 720 720" style="enable-background:new 0 0 720 720;" xml:space="preserve">
<g>
	<path style="fill:#FEFEFE;" d="M360.75,720.75c-118.875,0-237.75-0.012-356.625,0.07c-2.812,0.002-3.446-0.634-3.445-3.445
		c0.076-237.75,0.076-475.5,0-713.25C0.679,1.313,1.313,0.679,4.125,0.68c237.75,0.076,475.5,0.076,713.25,0
		c2.812-0.001,3.446,0.633,3.445,3.445c-0.076,237.75-0.076,475.5,0,713.25c0.001,2.812-0.633,3.447-3.445,3.445
		C598.5,720.738,479.625,720.75,360.75,720.75z"/>
	<path style="fill:#363636;" d="M398.34,384.498c-1.064-0.68-0.168-1.935-0.804-2.741c-0.613-0.65-0.365-1.424-0.313-2.169
		c0.58-1.83,0.813-3.721,0.67-5.32c-0.293,0.738,0.242,1.98-0.275,3.04c-0.428,0.268-0.687,0.154-0.779-0.34
		c-0.003-1.156-0.005-2.312-0.008-3.468c-2.738-0.821-5.548-0.138-8.308-0.41c-1.1-0.109-2.5,0.679-3.223-0.874
		c1.606-1.928,3.827-1.037,5.799-1.226c1.446-0.139,2.919,0.092,4.352-0.239c0.831-0.408,1.424-1.102,2.055-1.751
		c0.667-0.911-0.477-2.266,0.744-3.042c0.606-0.932,0.66-2.158,1.559-2.935l-0.013,0.025c0.356-0.463,0.114-1.209,0.733-1.548
		c1.241-1.494,2.481-2.988,3.722-4.481c0.536-0.693,1.443-0.893,2.027-1.524c0.327-0.272,0.654-0.545,0.981-0.817
		c1.976-1.176,3.86-2.512,6.276-3.418c-1.25-1.412-2.843-2.273-3.285-4.001c-1.504-2.097-3.172-4.107-3.624-6.767
		c1.055-2.226,0.237-4.485,0.111-6.734c0.618-1.888,0.778-4.006,2.625-5.283c1.553-2.354,3.576-4.172,6.138-5.374
		c0.895-0.748,1.794-1.487,3.092-1.111c0.473-0.101,0.947-0.203,1.42-0.304c1.541-0.612,3.147-0.167,4.716-0.291
		c1.331,0.05,2.535,0.866,3.911,0.649c0.908,0.147,1.741,0.503,2.545,0.934c-0.057,1.166,3.134,3.158-0.846,3.33l-0.33,0.061
		l-0.274-0.195c-2.008-0.448-4.011-0.645-5.993,0.128c-12.153,4.732-10.368,16.081-5.614,23.548
		c0.945,1.484,2.307,1.291,3.604,1.426c3.864,0.401,7.231,1.816,10.366,4.523c-1.479,0.72-2.673,0.485-3.843,0.461
		c-2.998-0.621-5.992-0.731-8.981,0.055c-15.992,5.552-17.633,28.495-2.683,38.042c-2.375,1.462-0.077,3.938-1.231,5.667
		c-1.842,0.444-3.309-0.09-4.376-1.668c-1.694-0.999-3.636-1.621-4.928-3.233c-2.005-0.524-3.168-1.961-4.03-3.722
		c-0.557-0.96-1.115-1.919-1.672-2.879C398.57,387.737,398.819,385.936,398.34,384.498z"/>
	<path style="fill:#353535;" d="M340.51,351.078c0.691-0.006,1.382-0.012,2.073-0.019c2.286,1.814,1.607,4.482,1.843,6.823
		c0.274,2.715-0.148,5.48,0.257,8.201c0.182,1.219,0.418,2.612,1.98,2.8c1.218,0.147,2.082-0.769,2.852-1.56
		c1.235-1.269-0.155-1.994-0.766-2.79c-2.701-3.522-2.551-7.018-0.026-10.536c0.509-0.532,1.017-1.063,1.526-1.595
		c2.596-2.377,5.57-3.206,8.993-2.198c0.241,0.049,0.482,0.099,0.722,0.148c0.628-0.105,1.109,0.171,1.536,0.59
		c1.27,1.455,2.512,0.869,3.749-0.051c1.323-1.327,2.867-1.265,4.489-0.714c0.702,0.548,1.404,1.095,2.106,1.643
		c1.409,1.213,0.954,2.47-0.108,3.513c-1.576,1.55-2.948,0.026-4.744-0.714c2.63,11.567-5.781,13.191-14.164,15.247
		c1.83,1.922,3.753,1.644,5.454,2.037c3.059,0.706,6.573,0.532,8.34,3.973l-0.018-0.019c1.965,0.972,2.013,2.879,2.28,4.678
		l-0.147,0.221l0.145,0.222c0.278,1.104,0.305,2.158-0.598,3.028c-0.51,0.827-1.021,1.653-1.531,2.48
		c-0.767,1.021-1.744,1.73-3.006,2.014c-1.377,0.943-3.05,0.785-4.562,1.229c-1.961-0.188-3.922-0.177-5.883-0.006
		c-1.143-0.286-2.398-0.258-3.314-1.18c-0.41-0.323-0.743-0.688-0.681-1.267c0.522-1.072,1.449-1.405,2.56-1.411
		c1.031,0.116,2.045,0.327,3.056,0.554c1.676,0.462,3.34,0.574,4.977-0.157c0.445-0.212,0.912-0.379,1.332-0.634
		c1.377-0.837,2.927-1.669,2.624-3.603c-0.299-1.909-2.021-2.328-3.571-2.718c-2.024-0.509-4.147-0.471-6.175-1.017
		c-1.172-0.316-2.477-0.335-3.144-1.617c-1.457-0.27-2.345-1.26-3.087-2.437c-1.441-2.145-3.414-0.792-5.182-0.789l0.031-0.008
		c-0.965,0.671-1.972,0.558-2.995,0.162c-0.581-4.17-2.633-2.827-4.592-1.139c-0.672,0.579-1.262,1.062-2.151,1.103
		c-1.755,0.905-3.504,1.157-5.24-0.049c-0.899-0.666-2.254-0.443-2.948-1.509c-1.318-1.614-2.005-3.48-2.218-5.536
		c0.174-0.863,0.365-1.732-0.755-2.138c-1.32-1.314-0.246-2.82-0.349-4.23c0.02-1.514,0.284-3.043-0.287-4.516
		c-0.41-0.694-1.003-1.208-1.65-1.668c-0.694-0.613-1.894-0.58-2.191-1.7c0.215-0.391,0.43-0.783,0.646-1.174
		c0.759-0.67,1.511-0.621,2.258,0.021c0.997,0.316,1.994,0.322,2.992,0.002c0.751-0.684,1.501-0.686,2.25,0.004
		c0.4,0.006,0.801,0.011,1.201,0.017c1.496,1.844,0.412,3.976,0.626,5.962c0.327,3.038-0.354,6.128,0.358,9.162
		c-0.153,0.212-0.12,0.391,0.098,0.535c0.827,0.658,1.065,1.627,1.358,2.567c0.277,0.173,0.553,0.345,0.83,0.518
		c1.52-0.592,3.065,0.756,4.582-0.062c1.262-1.144,2.524-2.289,3.786-3.433c0.165-4.185,1.152-8.418-0.73-12.482l0.05,0.042
		c-0.33-0.162-0.453-0.414-0.347-0.745c-0.212-0.176,1.14-0.668-0.12-0.643c-1.068,0.021-2.126,0.084-3.132-0.37
		c-0.117-0.121-0.232-0.245-0.348-0.368c0.261-0.243,0.522-0.485,0.783-0.728C336.507,349.888,338.512,349.862,340.51,351.078z"/>
	<path style="fill:#363636;" d="M449.271,368.202c0.245,1.011,0.49,2.022,0.735,3.033c0.55,1.287,0.685,2.702,1.234,3.99
		c-0.245,2.195,0.09,4.489-1.098,6.526c-0.421,2.145-0.739,4.329-2.292,6.045c-1.296,0.157-1.955-0.31-1.668-1.703
		c0.754-1.943,1.507-3.887,2.261-5.831c0.746-2.504,0.699-5.01,0.024-7.518c-0.876-2.294-1.736-4.593-2.632-6.879
		c-0.578-1.475-1.456-1.755-2.892-0.896c-3.523,2.108-7.178,4.001-10.67,6.159c-4.22,2.608-7.264,6.062-7.285,11.417
		c-0.002,0.417-0.406,0.832-0.664,1.326c-2.937-3.945-2.255-11.215,1.358-15.517c2.355-2.804,5.284-4.942,8.447-6.705
		c6.849-3.817,13.789-7.472,20.647-11.272c3.144-1.742,5.832-4.009,6.093-7.935c0.18-2.709-0.364-5.104-3.959-4.882
		c-0.411,0.288-0.983,0.374-1.319,0.669c-2.553,2.247-2.535,2.268-5.518,0.413c-0.464-0.268-0.798-0.637-0.91-1.176
		c-0.184-2.244,1.842-2.199,3.079-2.973c0.175,0.018,0.349,0.036,0.524,0.053c5.142,0.203,10.292,0.244,15.421,0.865
		c0.397,0.156,0.718,0.399,0.985,0.733c0.233,0.385,0.386,0.792,0.475,1.23c0.318,8.918,0.091,17.834,0.125,26.749
		c0.004,1.114-0.029,2.24-0.747,3.197c-0.409,0.379-0.824,0.384-1.244,0.017c-0.545-9.1,0.079-18.208-0.185-27.309
		c-0.032-1.091,0.314-2.224-0.35-3.248c-1.887-0.09-3.774-0.18-6.064-0.289c0.918,1.602,1.607,2.803,2.295,4.004
		c0.549,3.556,0.998,7.104-0.816,10.476l0.019-0.042c-0.244,0.938-0.422,1.921-1.525,2.286c-1.98,1.734-3.959,3.468-5.939,5.202
		c-0.346,0.709-0.938,1.119-1.639,1.443C449.993,361.523,447.831,363.936,449.271,368.202z"/>
	<path style="fill:#FDFDFD;" d="M366.623,375.875c-3.498-2.476-7.574-2.94-11.665-3.454c-1.406-0.177-3.519-0.251-3.539-2.045
		c-0.019-1.723,2.023-1.865,3.448-2.175c1.336-0.291,2.706-0.425,4.044-0.706c6.016-1.263,9.001-6.442,6.907-12.037
		c-0.341-0.912-1.223-1.744,0.158-2.488c1.151-0.62,1.901-0.037,2.459,0.909c0.588,0.997,1.181,2.12,2.562,1.498
		c1.683-0.758,1.23-2.207,0.848-3.556c1.99-3.627,0.385-7.539,0.893-11.283c1.275-0.157,1.365,0.852,1.653,1.67
		c0.278,2.619,0.05,5.252,0.186,7.876c0.064,1.076,0.039,2.153,0.012,3.229c-0.107,2.266-0.035,4.535-0.051,6.797
		c-0.173,8.364-0.194,8.44-3.141,11.559c1.296,0.234,2.517,0.103,3.721,0.094c1.234-0.009,2.483,0.186,3.749-0.139
		c-0.4-0.938-1.399-1.445-1.608-2.466c-0.564-3.6-0.233-7.213-0.242-10.82c0.323-3.234,2.527-4.755,5.269-5.788
		c1.899-0.402,3.707-0.19,5.391,0.831c0.711,0.478,1.235,1.124,1.662,1.858c0.33,0.557,0.566,1.152,0.717,1.783
		c0,4.507,1.151,9.089-0.829,13.477c-1.227,1.141-2.642,1.389-4.214,0.869c-3.053,2.211-6.769,1.538-10.035,2.416
		C372.228,374.521,368.497,371.995,366.623,375.875z"/>
	<path style="fill:#363636;" d="M517.26,352.443c1.188-1.576,3.087-1.656,4.74-2.253c1.74-0.535,3.486-0.401,5.233-0.044
		c0.741,0.069,1.481,0.138,2.222,0.207c1.036,0.443,1.702,1.268,2.263,2.201l-0.021-0.021c1.053,0.342,1.179,1.359,1.58,2.175
		l0.01,0.029c1.042,1.492,1.832,3.464,4.293,2.261c0.696-1.329,1.03-2.889,2.415-3.778c0.308-1.13,1.441-1.044,2.208-1.498
		l0.025-0.014c2.982-2.328,6.275-2.446,9.737-1.372l-0.048-0.025c3.298,0.658,5.587,2.307,5.852,5.953
		c-0.34,1.289-0.361,2.757-1.862,3.415c-4.281-0.632-8.705,0.748-12.915-0.898c-0.397-2.066,1.27-1.716,2.34-1.888
		c1.341-0.216,2.724-0.009,4.079-0.146c0.834-0.085,1.895-0.09,1.833-1.334c-0.051-1.026-0.906-1.42-1.776-1.634
		c-1.437-0.355-2.693,0.121-3.807,1.008c-1.069,0.851-1.86,1.984-2.85,2.911c-0.317,0.745-0.033,1.535-0.158,2.296
		c-0.021,0.314-0.167,0.56-0.417,0.748l0.003-0.007c-0.692,1.064-0.152,2.161-0.088,3.245c-0.175,0.198-0.152,0.37,0.068,0.516
		c0.484,1.099,0.98,2.192,1.426,3.307c-0.155,1.292,1.198,1.241,1.718,1.931c0.626,0.369,1.36,0.099,2.01,0.334
		c2.034-0.02,3.975,1.765,6.08,0.301c1.026-1.125,2.411-1.36,3.818-1.541c1.085,1.235,0.932,1.471-1.538,2.378
		c-0.247,0.255-0.495,0.511-0.742,0.766c-1.248,0.712-2.393,1.692-3.975,1.549c-1.891,0.2-3.754,0.008-5.601-0.4
		c-0.802-0.105-1.697,0.292-2.382-0.442c-1.316-0.909-2.942-1.416-3.792-2.929c-3.193-2.405-2.46-6.08-3.014-9.325
		c-0.712-0.042,0.765-1.392-0.751-1.132c-4.396,0.755-4.406,0.697-5.863-3.665c-0.236,0.08-0.478,0.093-0.737,0.039
		c-2.19-1.582-4.382-3.099-7.072-0.978c-0.393,0.31-0.85,0.661-0.792,1.197c0.086,0.803,0.799,0.844,1.407,0.878
		c1.62,0.089,3.241,0.001,4.861-0.032c0.898-0.018,2.045-0.595,2.561,0.769c-0.283,2.079-1.96,1.836-3.357,1.975
		c-2.407,0.24-4.867-0.332-7.238,0.469c-0.302,0.235-0.57,0.503-0.803,0.807c-1.407,4.497,0.958,7.294,4.34,9.633
		c2.189,1.432,4.474-0.537,6.683,0.187c0.264-0.266,0.528-0.533,0.792-0.799c0.62-1.261,2.076-0.867,3.004-1.518
		c0.297,0.255,0.594,0.509,0.891,0.764c0.056,1.656-1.128,2.002-2.392,2.264c-0.797,0.156-1.2,0.74-1.532,1.404
		c-0.683,0.568-1.491,0.834-2.35,0.982c-2.139-0.201-4.279-0.205-6.422-0.023c-0.669-0.087-1.281-0.29-1.718-0.846
		c-1.819-0.345-2.937-1.611-3.954-3.009c-0.618-0.355-1.154-0.774-1.218-1.561c-0.508-1.249-1.966-2.099-1.569-3.729
		c-0.462-2.357-1.252-4.708-0.143-7.096C513.982,355.452,514.844,353.256,517.26,352.443z"/>
	<path style="fill:#FDFDFD;" d="M181.5,350.25c0.786,0.511,1.166,1.645,2.356,1.536c0.461,1.268-0.893,2.625,0.11,3.916
		c1.56-0.248,1.647-1.796,2.531-2.577c1.632-1.443,3.511-1.84,5.528-1.209c2.024,0.633,2.793,2.329,3.022,4.28
		c0.247,2.103-0.448,3.581-2.719,4.141c-1.433,0.353-2.899,0.647-4.261,1.262c-4.851,1.086-6.235,4.927-7.222,9.087
		c-0.521,0.301-1.074,0.342-1.65,0.218c-1.528-0.901-2.88-0.007-4.274,0.429c-5.531,1.728-10.422-1.145-11.394-6.848
		c-0.629-3.689-0.025-7.271,2.162-10.356c2.345-3.308,5.462-3.162,7.714,0.194c0.48,0.715,0.75,1.659,1.826,1.631
		c0.713-0.018,1.102-0.512,1.182-1.205c0.134-1.157-0.586-1.803-1.418-2.433c-1.855-1.405-4.505-0.432-6.245-2.135
		c3.683-1.82,7.881-0.846,9.824,2.303c0.32,0.518,0.57,1.366,1.285,0.955C181.01,352.774,181.32,351.506,181.5,350.25z"/>
	<path style="fill:#363636;" d="M141.075,336.175c-5.643,2.672-4.559,9.048,1.162,11.19c1.038,0.153,1.908,0.579,2.464,1.515
		c0.822,0.827,1.754,1.423,2.975,1.404c3.419,0.741,6.26,2.372,8.23,5.343l-0.023-0.023c3.684,3.23,4.168,7.119,1.372,11.032
		c-0.767,2.287-2.683,3.619-4.314,5.188c-3.061,3.142-6.806,2.075-10.439,1.695c-0.945-0.548-2.069-0.058-3.094-0.825
		c-2.132-1.596-4.398-1.961-6.657,1.965c0-5.503-0.007-9.632,0.006-13.761c0.003-0.9,0.699-0.809,1.299-0.817
		c1.681,1.35,0.897,3.515,1.704,5.154l0.003,0.007c0.973,0.451,1.144,1.42,1.474,2.286c0.335,0.945,0.94,1.55,1.998,1.582
		c0.989,0.129,1.948,0.317,2.516,1.275c0.405,0.068,0.81,0.136,1.215,0.204c1.602,0.756,3.256-0.778,4.856,0.109
		c2.34-0.48,3.939-1.954,5.206-3.875c0.38-1.532,0.642-3.062-0.028-4.588c-0.81-0.986-1.619-1.972-2.429-2.958
		c-1.371-0.49-2.713-1.024-3.53-2.347l0.021,0.011c-1.124-0.223-2.118-0.734-3.054-1.374c-4.379-2.349-9.059-4.373-10.546-9.826
		c-0.527-1.994-0.513-3.989-0.008-5.985c0.278-0.724-0.11-1.695,0.811-2.18c0.26-0.609,0.62-1.108,1.329-1.223
		c0.752,0.012,1.39-0.191,1.719-0.954l-0.102-0.254c1.103-1.931,3.137-1.624,4.876-2.031c1.486-0.389,2.899-0.29,4.189,0.626
		c0.999,0.223,1.997,0.446,2.996,0.669c0.724,0.103,1.402,0.279,1.693,1.07c-0.097,1.059-0.756,1.587-1.721,1.829
		c-0.965,0.103-1.771-0.193-2.381-0.963c-1.706-1.374-3.534,0.203-5.28-0.213C141.412,336.148,141.244,336.161,141.075,336.175z"/>
	<path style="fill:#373737;" d="M245.964,354.83c0.549,1.714,1.86,3.205,1.517,5.18c0.057,1.429,0.375,2.816,0.706,4.203
		c0.161,1.624,0.051,3.131-1.705,3.917c-0.409,0.625-0.818,1.25-1.227,1.875c-1.009,0.93-1.717,2.229-3.188,2.59l0.064-0.06
		c-2.417,2.758-5.325,1.44-8.129,0.979c-1.553-0.367-3.088-0.766-4.007-2.257c-0.709-0.818-1.462-0.582-2.225-0.093
		c-0.225,0.281-0.449,0.562-0.674,0.844c-1.193,0.571-1.678-0.096-1.668-1.124c0.098-10.166-0.397-20.337,0.266-30.497
		c0.004-0.054,0.217-0.094,0.333-0.14c0.174-0.469-0.042,0.465-0.348,0.07c-0.184-0.239-0.299-0.196-0.3,0.129
		c-0.034,9.727,0.013,19.454-0.041,29.181c-0.007,1.198,0.51,2.495-0.396,3.609c-1.018-2.594-0.118-5.331-0.594-7.965
		c-0.723-1.263-0.723-2.525,0-3.788c0.322-1.998,0.359-3.996,0.001-5.994c-0.745-0.734-0.735-1.476-0.021-2.224
		c-0.212-3.751,0.745-7.504-0.021-11.254c-0.918-1.13-0.395-2.562-0.798-3.801c-0.428-0.51-0.857-1.021-1.285-1.531
		c-0.705-0.829-3.413,0.601-2.418-2.145l-0.034,0.021c0.954-0.955,2.294-0.117,3.325-0.716l0.202,0.137l0.19-0.154
		c1.22-0.997,2.715-0.403,4.055-0.702c0.531,0.247,1.062,0.494,1.593,0.742c1.475,0.849,0.708,1.89,0.249,2.905
		c-1.017,4.97-0.043,10.014-0.525,15.013c-0.095,0.982,0.671,1.722,1.905,0.633c0.934-0.824,2.177-1.297,3.283-1.926
		c1.954,0.198,3.871-0.58,5.832-0.218c1.133,0.343,2.267,0.687,3.062,1.654c0.509,0.447,1.019,0.894,1.528,1.341
		C245.219,353.546,245.742,354.044,245.964,354.83z"/>
	<path style="fill:#363636;" d="M187.518,360.863c0.948-1.226,2.51-0.884,3.743-1.413c1.361-0.583,3.339-0.052,2.94-2.694
		c-0.32-2.121-0.749-3.978-3.215-4.352c-2.02-0.306-3.709,0.219-4.503,2.347c-0.173,0.465-0.242,0.974-0.454,1.418
		c-0.559,1.17-1.487,1.653-2.732,1.158c-1.273-0.506-1.426-1.592-1.258-2.788c0.17-1.205,1.2-1.841,1.815-2.752
		c1.288-1.035,2.929-1.121,4.409-1.642c1.76-0.603,3.501-0.629,5.214,0.173l-0.035-0.011c3.963,0.541,5.768,2.506,6.217,6.984
		c0.31,3.101,0.04,6.224,0.161,9.334c0.066,1.697,0.281,3.396,2.554,3.351c2.076-0.041,2.718-1.496,2.782-3.286
		c0.106-2.987,0.075-5.975,0.008-8.963c-0.042-1.86-1.201-2.846-2.61-3.8c-1.3-0.881-1.648-1.622,0.295-2.545
		c1.858-0.883,3.866-0.687,5.713-1.466c1.425-0.602,1.855,0.744,2.165,1.864l-0.003-0.014c0.821,1.101,1.709,0.295,2.576,0.09
		c0.4-0.331,0.8-0.662,1.2-0.992c1.356-1.123,2.854-1.35,4.49-0.716c1.467,0.397,2.425,1.541,3.561,2.423
		c1.125,1.21,1.171,2.411-0.028,3.603c-0.201,0.212-0.402,0.424-0.603,0.636c-1.48,1.408-2.616,0.78-3.622-0.613l0.021,0.029
		c-1.263-2.325-2.97-3.046-5.313-1.471c-1.286,0.937-1.734,2.206-1.484,3.751c-0.29,2.361-0.803,4.719-0.092,7.094l-0.158,0.188
		l0.137,0.204c1.256,1.057,0.412,2.567,0.822,3.806c0.017,0.492,0.273,0.726,0.763,0.708c0.424,0.29,0.898,0.367,1.405,0.393
		c0.845,0.043,1.927-0.054,1.807,1.235c-0.104,1.12-1.257,1.292-1.995,1.214c-5.806-0.616-11.62,0.081-17.423-0.204
		c-0.389-0.019-0.701-0.23-1.037-0.385c-0.268-0.252-0.536-0.503-0.804-0.755c-0.584-0.728-1.309-1.301-2.053-1.856
		c-0.351-0.368-0.54-0.803-0.547-1.315c0.117-0.881,0.715-1.487,1.212-2.153c0.609-0.846,0.723-1.844,0.767-2.825
		c0.095-2.115-0.841-2.711-2.734-1.703c-0.805,0.426-1.626,0.786-2.572,0.663C188.057,362.52,187.297,362.068,187.518,360.863z"/>
	<path style="fill:#373737;" d="M581.191,373.333c-0.23,0.058-0.461,0.115-0.691,0.173c-1.088,0.761-1.632,0.089-2.099-0.792
		c-0.422-0.618-0.031-2.289-1.692-1.276c-1.332,1.022-2.662,2.029-4.439,2.084c-2.025-0.078-4.085,0.145-5.996-0.781
		c-2.222,0.873-2.291-1.867-3.767-2.245c-0.719-0.295-1.227-0.795-1.492-1.532c-0.717-1.491-1.435-2.983-2.152-4.474
		c0.337-0.354,0.678-0.703,1.057-1.013c1.636-1.237,0.334-2.282-0.23-3.373c-0.183-0.325-0.329-0.661-0.454-1.012
		c-0.146-4.847,3.116-8.242,8.127-8.47c1.915-0.639,3.828-0.359,5.738,0.01c1.555-0.003,2.813,0.675,3.911,1.716
		c0.325,0.23,0.415,0.675,0.785,0.87c0.069-0.353-0.22-0.583-0.316-0.892c-0.26-0.946-0.895-1.9,0.125-2.774l-0.044,0.035
		c0.472-2.237,0.605-4.471-0.055-6.699c-0.02-1.299-0.041-2.598-0.061-3.897c-0.946-1.78-2.515-2.669-4.416-3.081l0.074,0.053
		c-0.252-1.695-0.252-1.695,2.377-2.119c0.191,0.178,0.361,0.161,0.512-0.052c1.25-0.895,2.806-0.021,4.093-0.706
		c1.914-0.301,2.479,0.447,2.451,2.418c-0.119,8.556-0.064,17.115-0.044,25.673c0.003,1.356,0.152,2.711,0.234,4.067
		c1.066,1.055,0.423,2.487,0.814,3.691l0.016,0.035c0.885,0.671,2.224,0.394,2.945,1.408c0.25,0.038,0.501,0.075,0.751,0.113
		c0.886,2.729-1.72,1.409-2.525,2.177l-0.268-0.096l-0.211,0.191C583.334,373.52,582.2,373.09,581.191,373.333z"/>
	<path style="fill:#383838;" d="M492.851,369.738c-1.631,0.536,0.009,5.102-3.736,3.032c-0.658-1.211-1.206-2.463-1.462-3.827
		c-0.317-0.731-0.634-1.462-0.951-2.193c-1.376-1.193-1.882-2.809-2.199-4.517c-0.857-0.533-0.545-1.495-0.824-2.241
		c-0.517-0.975-1.276-1.856-1.2-3.063c-0.341-1.608-1.635-2.525-2.642-3.65c-0.566-0.469-1.699,0.143-1.911-1.002l0.096,0.107
		c-0.365-0.922,0.216-1.605,0.915-1.605c3.577,0.002,7.198-0.825,10.722,0.439l-0.13-0.127c0.885,0.613,0.652,1.309-0.104,1.663
		c-1.253,0.586-1.816,1.562-2.097,2.81c0.184,0.775-0.164,1.736,0.785,2.244c1.395,0.587,1.087,2.016,1.522,3.078l-0.041-0.06
		c0.852,0.771,1.252,1.806,1.662,2.811c0.782,0.76,0.531-0.239,0.729-0.466c0.22-1.167,0.645-2.232,1.358-3.172
		c0.405-0.731,1.127-1.341,0.884-2.319c0.801-0.542-0.005-1.633,0.748-2.191l0.009-0.02c0.603-1.2,0.451-2.718,1.561-3.705
		c0.243-0.003,0.471-0.064,0.684-0.181c2.424,0.219,2.287,2.406,3.018,3.926c0.058,0.496,0.115,0.993,0.173,1.489
		c1.557,0.689,1.222,2.611,2.339,3.585c0.647,0.684,0.88,1.595,1.306,2.384c0.325,0.408,0.606,0.264,0.871-0.098
		c0.112-0.287,0.227-0.552,0.333-0.833c0.766-2.897,2.307-5.561,2.459-8.621c-0.24-0.13-0.48-0.26-0.719-0.39
		c-0.641-1.11,0.083-1.804,0.95-1.828c2.142-0.059,4.378-1.021,6.426,0.409c0.637,1.503-0.729,1.468-1.467,1.917
		c-1.205,0.115-1.674,0.872-1.715,1.997c-0.376,1.243-0.713,2.499-1.25,3.688c-0.183,0.269-0.374,0.533-0.569,0.793
		c-0.043,0.254-0.086,0.508-0.129,0.763c-1.21,1.87-0.822,4.495-2.828,5.989c-0.486,1.567-0.96,3.138-1.463,4.699
		c-0.336,1.043-0.715,2.108-2.105,2.032c-1.549-0.085-0.03-1.945-1.256-2.248c-0.587-0.942-0.844-2.031-1.342-3.012
		c-1.121-2.744-2.241-5.489-3.548-8.689c-1.161,1.523-1.431,2.87-1.713,4.211C494.131,365.689,494.26,367.989,492.851,369.738z"/>
	<path style="fill:#343434;" d="M255.763,372.669c-0.479-0.227-0.958-0.454-1.437-0.681c-0.782-0.221-1.279-0.747-1.58-1.482
		l-0.003-0.002c-0.527-0.439-1.177-0.744-1.513-1.39c-0.242-0.287-0.484-0.575-0.726-0.862c-1.697-2.252-3.291-4.526-1.609-7.502
		c-0.016-3.626,1.968-6.139,4.608-8.288c1.525-1.316,3.416-1.739,5.302-2.175l-0.041,0.013c1.991-0.686,3.987-0.625,5.986-0.04
		c0.758,0.748,1.699,0.908,2.71,0.84c4.546,0.85,6.787,4.141,7.685,8.165c0.784,3.514,0.927,7.276-2.735,9.741
		c-1.078,0.926-2.156,1.853-3.234,2.779c-0.819,1.484-2.514,1.044-3.713,1.694l0.026-0.007
		C262.209,373.671,258.831,375.055,255.763,372.669z"/>
	<path style="fill:#353535;" d="M296.245,369.25c-0.779-1.087-1.558-2.175-2.337-3.262c-0.685-3.119-0.739-6.23,0.33-9.272
		c0.46-1.308,1.387-2.277,2.768-2.714c0.301-0.25,0.602-0.5,0.904-0.75c1.629-0.787,2.579-0.098,3.139,1.44
		c-0.684,3.403-1.621,6.796-0.721,10.31c0.682,2.661,2.423,4.297,5.047,4.969c2.243,0.574,4.253-0.061,5.814-1.684
		c1.743-1.814,2.013-4.193,2.081-6.603c0.049-1.753-0.674-3.427-0.476-5.192c0.338-1.436,1.115-2.454,2.633-2.766
		c1.045,0.128,1.729,0.837,2.439,1.509c1.281,1.307,1.96,2.926,2.413,4.666c0.232,1.849,0.575,3.716-0.744,5.348
		c-2.051,4.191-5.555,6.672-9.778,8.307c-2.247,0.376-4.495,0.691-6.749,0.046c-1.497,0.1-2.531-0.78-3.556-1.679
		C298.007,371.484,297.259,370.208,296.245,369.25z"/>
	<path style="fill:#373737;" d="M168.749,350.178c2.46,0.15,4.986-0.145,7.225,1.32c1.526,0.999,2.229,2.331,1.864,4.111
		c-0.261,1.271-1.255,1.895-2.46,1.886c-1.829-0.014-2.464-1.263-2.787-2.903c-0.589-2.994-2.541-2.654-4.479-1.507
		c-3.599,2.131-5.068,10.118-2.741,14.336c1.991,3.609,6.284,4.48,11.142,2.267c1.092-0.498,2.495-2.01,2.629,0.773
		c0.002,0.556-0.254,0.988-0.644,1.357c-0.67,0.658-1.626,0.453-2.403,0.793l0.064-0.046c-3.048,2.163-6.349,1.412-9.635,0.837
		l0.065,0.029c-1.355-0.542-3.101-0.325-3.874-1.996c-0.755-0.81-1.51-1.619-2.265-2.429c-2.83-3.717-2.824-9.147,0.016-12.773
		l0.008-0.02c0.451-0.388,0.171-1.135,0.725-1.472c1.017-1.003,2.034-2.005,3.051-3.008c1.067-0.964,2.45-1.114,3.757-1.458
		C168.256,350.244,168.502,350.211,168.749,350.178z"/>
	<path style="fill:#373737;" d="M290.989,350.148c1.756-0.031,2.297,1.708,3.538,2.427c1.382,1.29,0.983,2.661,0.093,3.967
		c-0.962,1.413-2.273,1.192-3.605,0.579c-1.659-0.482-1.066-2.465-2.199-3.298c-0.777,0.368-1.622-0.385-2.389,0.145
		c-3.025,0.82-3.204,3.143-2.993,5.671c-0.478,1.902-0.526,3.804,0.001,5.706l-0.044-0.061c0.415,2.155,1.456,3.889,3.388,5.018
		c0.753,0.44,1.714,0.859,1.433,1.906c-0.361,1.346-1.619,0.858-2.536,0.889c-3.235,0.111-6.477-0.135-9.71,0.14
		c-0.894,0.076-1.824,0.13-2.303-0.767c-0.564-1.059,0.445-1.524,1.014-2.125c3.686-3.895,3.595-12.697-0.208-16.393
		c-1.118-1.086-1.647-1.948,0.324-2.621c1.624-0.555,3.135-1.629,4.992-0.976c1.346-0.301,2.17,0.385,2.78,1.474
		c0.875,0.869,1.757,0.253,2.636,0.011c0.438-0.33,0.875-0.66,1.313-0.99C287.919,350.051,289.326,349.283,290.989,350.148z"/>
	<path style="fill:#353535;" d="M378.146,369.706c0.779,1.344,2.554,1.168,4.189,2.617c-5.092,0-9.483,0-13.874,0
		c6.92-1.697,4.111-7.467,5.036-11.572c0.692-2.493,0.845-4.99,0.052-7.494c-0.014-1.003-0.027-2.005-0.041-3.008
		c0.592-2.752,0.626-5.503-0.024-8.251c-0.248-0.487-0.497-0.974-0.745-1.461c-0.003-0.742-0.007-1.485-0.01-2.227
		c-0.579-0.444,0.079-2.131-1.539-1.531l-0.347-0.016l-0.347,0.003c-0.641-0.407-1.244-0.86-0.998-1.747
		c0.261-0.943,0.985-0.933,1.756-0.759c0.498,0.03,0.996,0.06,1.494,0.091c0.463-0.466,0.876-1.051,1.679-0.702
		c0.259,0.21,0.473,0.459,0.648,0.742c0.638,1.116,0.7,2.498,1.616,3.488c0.384,0.533,0.695,1.103,0.885,1.734
		c0.065,0.322,0.068,0.646,0.013,0.971c-0.169,0.618-0.476,1.168-0.847,1.678c-0.729,0.783,0.162,1.255,0.375,1.861
		c0.551,1.622,0.15,3.361,0.656,4.981c0.537,1.232-0.163,2.697,0.735,3.838c0.341-0.148,0.645-0.363,1.019-0.373
		c0.566-0.145,1.342,0.099,1.491-0.811c0.734-0.839,1.712-1.085,2.769-1.147c1.87-0.553,3.709-0.665,5.464,0.389
		c0.593,0.041,1.316-0.21,1.531,0.681c0.276,0.661,0.478,1.384,1.306,1.593c0.128,0.193,0.193,0.405,0.194,0.637
		c0.275,3.246,0.087,3.326-3.693,1.582c-0.301-0.432-0.601-0.864-0.902-1.297c-1.488-1.719-3.276-1.694-5.197-0.893
		c-2.018,0.97-3.927,2.05-4.533,4.456C377.528,361.749,377.13,365.739,378.146,369.706z"/>
	<path style="fill:#FDFDFD;" d="M210.727,351.778c-0.661-1.753-1.891-1.5-3.32-1.072c-1.882,0.563-3.82,0.943-6.284,1.533
		c2.054,1.483,4.98,1.123,5.135,4.039c0.237,4.467,1.004,9.012-0.51,13.327c-0.745,2.122-3.154,1.64-4.978,1.522
		c-1.83-0.119-1.992-1.583-1.996-3.027c-0.01-3.117-0.083-6.236,0.004-9.351c0.112-4.049-1.443-6.963-5.333-8.443
		c1.325-1.294,3.472-2.047,4.612-1.217c3.698,2.694,7.025,0.997,10.601,0.079C210.429,348.713,211.996,349.353,210.727,351.778z"/>
	<path style="fill:#FDFDFD;" d="M279.787,350.353c-1.892,1.156-4.375,0.458-6.593,2.093c8.738,2.589,4.4,9.436,5.081,14.551
		c0.386,2.899-1.605,4.528-5.045,4.251c0.151,0.315,0.301,0.629,0.452,0.944c4.699,0,9.397,0,14.096,0
		c-3.137-1.228-5.434-3.003-4.386-6.908c1.088,0.126,0.469,2.065,1.968,1.808c3.788-0.65,2.558,2.735,3.287,4.376
		c0.518,1.166-0.426,1.974-1.868,2.042c-3.832,0.18-7.669-0.345-11.515,0.416c-1.44,0.285-2.552-0.927-2.147-2.686
		c0.214-0.929,0.998-1.946-0.705-2.235c4.263-7.636,2.863-12.701-4.949-17.907c3.383-1.129,7.359,1.014,10.472-2.02
		C278.586,348.442,279.404,349.541,279.787,350.353z"/>
	<path style="fill:#FCFCFC;" d="M350.968,376.674c2.662,0.464,5.33,0.893,7.984,1.4c2.509,0.479,5.657,0.551,6.135,3.708
		c0.522,3.445-2.631,4.231-5.096,5.278c-1.735,0.511-3.477,0.407-5.221,0.057c-0.931-0.764-2.334,0.261-3.176-0.838
		c-2.503-0.725-2.976-2.629-2.8-4.879c0.095-1.214,0.83-2.31,0.703-3.572C349.987,377.442,350.477,377.058,350.968,376.674z"/>
	<path style="fill:#363636;" d="M446.182,386.093c0.303,0.816,0.855,1.387,1.668,1.703c-0.319,0.677-1.121,1.139-0.908,2.051
		c-0.717,2.051-1.527,4.022-3.984,4.55c-1.357,0.133-1.95,1.282-2.793,2.098c-2.355,2.683-5.549,3.508-8.887,4.015
		c-1.022-0.007-2.044-0.015-3.066-0.022c-3.178,0.903-6.439,0.016-9.64,0.446c-0.973,0.492-1.882,0.595-2.607-0.427
		c-0.156-0.237-0.311-0.475-0.466-0.713c-1.086-2.102-3.048-4.379,1.088-5.434c2.099,1.68,4.574,2.268,7.18,2.476
		c2.745,0.458,5.487,0.526,8.226-0.048C438.099,395.047,442.752,391.382,446.182,386.093z"/>
	<path style="fill:#363636;" d="M468.052,367.5c0.234-0.001,0.468-0.002,0.702-0.003c0.876-4.668,0.346-9.38,0.33-14.065
		c-0.02-5.804,0.544-11.629-0.326-17.419l-0.008-0.015c1.275-2.625,2.643-1.4,4.016-0.099c0.167,0.421,0.225,0.858,0.181,1.307
		c-0.263,9.609-0.245,19.219-0.004,28.825c0.11,0.401,0.279,0.778,0.513,1.124c0.623,0.814,1.312,1.61,0.936,2.765
		c-2.502,3.782-6.059,1.614-9.231,1.63c-0.363-0.316-0.384-0.656-0.065-1.016c0.462-0.296,0.924-0.592,1.387-0.888
		C466.924,368.872,467.103,367.904,468.052,367.5z"/>
	<path style="fill:#FDFDFD;" d="M348.723,353.997c-2.018,5.046-1.419,9.395,3.672,12.542c-1.344,0.926-2.562,1.564-3.513,2.479
		c-0.901,0.867-1.512,1.994-3.053,1.363c-1.485-0.608-2.034-1.925-2.096-3.272c-0.189-4.091-0.145-8.193-0.271-12.288
		c-0.04-1.288,0.57-2.783-0.879-3.762c1.105,0.308,1.116-1.043,2.202-1.412c-0.101,2.566-1.102,5.36,1.895,6.868
		C347.651,355.927,345.78,352.975,348.723,353.997z"/>
	<path style="fill:#383838;" d="M192.679,368.818c0.361,0.362,0.722,0.724,1.083,1.087c0.042,1.084-1.186,0.719-1.54,1.35
		c-0.579,0.481-1.158,0.962-1.737,1.443c-0.601,0.587-1.448,0.43-2.15,0.712c-1.528,0.283-3.03-0.137-4.547-0.17
		c-1.137,0.203-1.373-1.113-2.257-1.337c-0.688-0.227-1.173-0.57-0.8-1.402c-0.124-5.952,1.055-7.626,6.785-9.638
		c0.379,0.751,0.98,1.246,1.765,1.529c-0.125,1.226-1.249,1.737-1.875,2.603c-0.761,1.052-1.212,2.162-0.453,3.368
		c0.793,1.26,2.009,1.16,3.249,0.815C191.013,368.952,191.795,368.533,192.679,368.818z"/>
	<path style="fill:#FDFDFD;" d="M566.586,350.885c-3.17,0.931-5.297,2.985-6.743,5.934c-0.483,0.984-0.331,1.563,0.336,2.22
		c-0.657,1.25-0.132,2.904-1.354,3.961c-3.047-3.68-7.206-1.954-10.93-2.161c-1.872-0.104-3.777,0.814-5.656-0.097
		c-0.115-0.255-0.08-0.488,0.104-0.698c4.136-1.354,8.355-0.697,12.549-0.517c3.032,0.52,1.433-2.253,2.314-3.263
		c-0.318-3.267-3.036-4.402-5.286-5.953c3.818-2.333,4.508,1.952,6.613,3.215c2.647-4.048,5.446-5.11,8.485-3.27
		C567.178,350.675,567.02,350.874,566.586,350.885z"/>
	<path style="fill:#363636;" d="M300.751,354.772c-0.701-0.966-1.717-1.343-2.841-1.52c0.196-0.28,0.392-0.56,0.589-0.839
		c0.992-1.904,2.843-1.791,4.579-1.952c0.478-0.098,0.956-0.196,1.434-0.294c1.497-0.502,2.992-0.633,4.483,0.023
		c1.977,0.831,3.954,1.662,5.931,2.493c0.727,0.175,1.26,0.455,0.712,1.318c-0.982,0.607-1.793,1.368-2.234,2.464
		c-0.808,0.121-1.45-0.268-2.01-0.75c-2.607-2.246-5.399-2.783-8.518-1.09C302.235,354.973,301.488,355.158,300.751,354.772z"/>
	<path style="fill:#353535;" d="M472.498,335.999c-1.249-0.525-2.499-1.424-3.748,0c-0.277-0.027-0.554-0.055-0.831-0.082
		c-0.335-0.724-0.411-1.373,0.505-1.734c7.083-0.561,14.154-0.461,21.213,0.363l0.075,0.02c0.375,2.19,1.137,4.371,0.163,6.593
		c-0.572,0.414-1.092,0.228-1.593-0.142c-0.799-0.669-0.525-1.698-0.838-2.533c-0.577-0.302-1.388-0.2-1.688-0.979
		c-0.426-0.465-0.99-0.626-1.586-0.724C480.328,335.765,476.339,336.993,472.498,335.999z"/>
	<path style="fill:#313131;" d="M388.59,355.492c0.863-1.386,4.011,2.559,3.693-1.582c0.239,0.282,0.477,0.564,0.716,0.845
		c0.859,1.265,0.977,2.737,1.176,4.185c0.027,0.361-0.025,0.714-0.134,1.058c-0.124,0.21-0.414,0.363-0.452,0.543
		c-0.229,1.085-1.965-0.718-1.651,0.756c0.267,1.253,1.285-0.617,1.912,0.11c0.887,1.287-0.455,2.69,0.207,3.989
		c0.282,1.135-0.421,2.456,0.658,3.44c0.252,0.515,0.258,1.031,0.007,1.546c-0.279,0.248-0.601,0.35-0.971,0.286
		c-1.161-0.432-1.704-1.316-1.827-2.566c-0.369,0.987-0.266,2.29-1.961,2.347c-1.111-4.66,0.637-9.525-0.903-14.138
		C388.615,356.203,388.445,355.938,388.59,355.492z"/>
	<path style="fill:#373737;" d="M148.961,336.889c0.596-0.485,1.192-0.97,1.787-1.456c0.263-0.732,0.946-1.127,1.383-1.719
		c0.456-0.617,0.982-1.163,1.825-0.93c1.154,0.32,0.889,1.323,0.902,2.148c0.052,3.091-0.043,6.182,0.058,9.274
		c0.04,1.224-0.137,2.405-1.843,1.327c-0.536-1.678-1.073-3.355-1.609-5.033C150.591,339.323,148.987,338.652,148.961,336.889z"/>
	<path style="fill:#FDFDFD;" d="M512.164,353.238c0.523-0.952,1.644-0.289,2.31-0.855c-0.082-1.68-1.381-0.882-2.154-0.993
		c-2.008-0.288-4.087,0.42-6.07-0.389c0.116-0.796,0.375-1.499,1.376-1.153c1.588,0.55,2.921,0.344,4.497-0.443
		c2.949-1.471,4.051,0.938,5.137,3.038c-1.16,1.526-2.32,3.052-3.48,4.578c-0.159,0.02-0.318,0.04-0.475,0.065
		c-1.506,0.356-1.686,3.114-3.911,2.164c0.452-1.28,0.904-2.561,1.355-3.841C511.366,354.78,511.022,353.524,512.164,353.238z"/>
	<path style="fill:#383838;" d="M450.008,338.251c2.211-1.284,2.377,1.531,3.782,1.944c-0.431-3.053-0.431-3.053,3.122-2.634
		c-0.242,2.294-0.132,4.904-2.95,5.702c-1.918,0.543-3.927,0.431-4.841-1.947C449.393,340.288,448.971,339.058,450.008,338.251z"/>
	<path style="fill:#3F3F3F;" d="M472.498,335.999c4.245,0.351,8.578-0.877,12.755,0.705c-0.988,0.638-1.99,0.557-3.001,0.061
		c-2.752-0.272-5.503-0.338-8.253,0.024c-0.862,8.648-0.172,17.318-0.371,25.976c-0.037,1.591,0.276,3.206-0.412,4.738
		c-0.242-0.001-0.484-0.003-0.727-0.006c-0.781-6.148-0.265-12.323-0.313-18.484c-0.031-4.06-0.421-8.142,0.267-12.191
		C472.462,336.547,472.48,336.273,472.498,335.999z"/>
	<path style="fill:#FDFDFD;" d="M468.052,367.5c-0.559,0.69-0.215,2.039-1.57,2.146c-0.331-0.354-1.018-0.865-0.941-1.04
		c2.056-4.673,0.764-9.575,1.214-14.264c0.566-5.9-0.299-11.745,0.495-17.562c1.626,0.73,0.787,2.172,0.795,3.238
		C468.111,349.178,468.065,358.339,468.052,367.5z"/>
	<path style="fill:#FDFDFD;" d="M319.241,359.325c-0.67-1.259-1.339-2.517-2.009-3.776c-0.496-0.767-0.652-1.533,0.01-2.296
		l0.015-0.011c0.943-0.049,1.888-0.563,2.828,0.01c0.374,0.755,1.601,0.459,1.783,1.45c0.551,1.724-0.165,3.586,0.577,5.289
		c0.785,1.587-0.975,2.814-0.615,4.341c-0.3,0.697-0.893,0.889-1.581,0.917C319.108,363.412,320.88,361.079,319.241,359.325z"/>
	<path style="fill:#383838;" d="M349.496,377.826c0.933,0.11,1.936,0.339,1.016,1.509c-2.171,2.761-1.009,4.9,1.082,6.943
		c-0.697,0.47-1.394,0.94-2.091,1.41c-1.397,0.578-1.755-0.544-2.281-1.393l-0.016-0.024c-1.412-0.727-0.878-2.25-1.374-3.352
		l0.004-0.091c0.744-0.952-0.556-2.493,0.93-3.231C347.677,379.007,348.587,378.417,349.496,377.826z"/>
	<path style="fill:#FDFDFD;" d="M573.188,372.814c1.191-0.807,2.381-1.615,3.572-2.422c2.067-0.754,1.735,1.012,2.124,2.021
		c-0.073,1.27,0.939,0.934,1.616,1.093c0.256,1.388-3.271,1.302-1.037,3.714c-2.68-3.407-6.462-1.631-9.391-2.922
		c-0.723-0.319-1.731,0.04-2.322-0.799C569.475,372.577,571.454,373.665,573.188,372.814z"/>
	<path style="fill:#2D2D2D;" d="M464.76,371.127c3.037-0.791,6.542,1.545,9.26-1.383c0.785-0.466,1.042,0.299,1.482,0.636
		c0.242,0.063,0.484,0.125,0.726,0.188c0.807,0.233,1.706,0.044,2.457,0.382c0.845,0.38,1.429,0.989,0.197,1.704
		c-5.509-0.424-11.018-0.257-16.528-0.023c-0.598-0.111-0.856-0.515-0.542-1.002C462.583,370.434,463.704,370.88,464.76,371.127z"/>
	<path style="fill:#FDFDFD;" d="M153.074,345.533c1.508,1.003,1.701-0.053,1.711-1.158c0.033-3.723,0.013-7.446,0.013-11.274
		c-2.108-0.094-2.02,2.904-4.049,2.332c-0.519-0.302-1.316-0.204-1.478-1.023c0.881-2.516,3.481-2.25,5.248-2.619
		c1.377-0.287,0.77,1.805,0.838,2.99c0.194,3.408-1.085,6.958,0.881,10.209c-1.281,0.598,0.91,2.329-0.676,2.516
		C154.497,347.633,152.922,347.411,153.074,345.533z"/>
	<path style="fill:#FDFDFD;" d="M160.467,356.235c-1.869,4.255-1.65,8.513-0.016,12.773c-0.578,0.163-1.014,1.828-1.781,0.1
		c-0.38-0.856-0.306-2.02-1.415-2.471c1.41-3.91,0.8-7.568-1.372-11.032C157.615,354.333,158.894,356.352,160.467,356.235z"/>
	<path style="fill:#FDFDFD;" d="M475.502,370.38c-0.494-0.212-0.988-0.424-1.482-0.636c-0.267-0.747-0.535-1.494-0.803-2.241
		c-0.008-9.151-0.045-18.302,0.018-27.453c0.007-1.08-0.782-2.49,0.766-3.261c0.04,9.455,0.237,18.914-0.002,28.363
		C473.945,367.268,477.001,368.12,475.502,370.38z"/>
	<path style="fill:#383838;" d="M430.336,326.309c2.819-0.258-0.733-2.43,0.913-3.04c0.208-0.333,0.454-0.365,0.74-0.096
		c2.691,1.178,4.349,3.606,6.532,5.399c0.876,0.866,0.996,1.836,0.258,2.815c-0.458,0.608-1.001,0.455-1.456-0.089
		C435.425,329.033,432.967,327.55,430.336,326.309z"/>
	<path style="fill:#363636;" d="M489.637,334.546c-7.252,0.04-14.503,0.08-21.755,0.12c-5.121,1.216-10.247,0.026-15.371,0.039
		l-0.267-0.21c5.497-1.039,11.05-0.209,16.57-0.487c1.727-0.087,3.457-0.129,5.186-0.191c2-1.239,4.003-1.104,6.007-0.012
		C483.178,334.564,486.506,333.272,489.637,334.546z"/>
	<path style="fill:#FDFDFD;" d="M536.25,360.002c0.74,3.328,1.102,6.772,2.992,9.747c-2.544-1.592-5.16-2.957-3.237-6.882
		c0.909-1.857-0.912-2.117-2.384-2.115c-5.059,0.008-10.117,0.001-15.176,0c-0.056-0.177-0.096-0.358-0.121-0.543
		c4.07-1.993,8.4-0.753,12.593-0.827C532.615,359.353,534.597,358.849,536.25,360.002z"/>
	<path style="fill:#2D2D2D;" d="M224.942,373.234c0-11.083,0-22.166,0-33.248c0.27-0.011,0.539-0.022,0.809-0.033
		c0,2.191,0,4.382,0,6.573c0,7.359-0.029,14.719,0.029,22.078c0.01,1.228-0.694,2.886,1.316,3.403
		C226.762,373.09,226.087,373.575,224.942,373.234z"/>
	<path style="fill:#FDFDFD;" d="M410.249,347.26c1.64,1.278,3.28,2.557,5.271,4.109c-2.968,1.189-5.615,2.249-8.262,3.31
		C410.437,353.085,408.297,349.348,410.249,347.26z"/>
	<path style="fill:#FDFDFD;" d="M195.751,372.755c6.725,0,13.45,0,20.4,0c-0.621-2.334-2.568-1.023-3.158-2.253
		c1.167,0.659,2.919-1.37,3.675,0.661c0.375,1.008,0.132,2.213-1.417,2.341c-0.75,0.607-1.501,0.605-2.253,0.004
		c-3.748,0.014-7.496,0.028-11.244,0.042c-0.499,0.397-1.003,0.399-1.513,0.02C198.651,373.812,196.964,374.586,195.751,372.755z"/>
	<path style="fill:#FDFDFD;" d="M507.728,353.414c1.975,1.587-0.035,3.087-0.254,4.542c-0.261,1.729-1.293,3.342-1.99,5.006
		c-0.75-0.57-1.216-1.234-0.733-2.212c0.11-0.472,0.47-1.095,0.291-1.394C503.048,356.031,506.499,355.232,507.728,353.414z"/>
	<path style="fill:#FDFDFD;" d="M291.015,357.121c3.461,0.254,4.243-1.561,3.512-4.546c0.826,0.476,1.653,0.952,2.479,1.428
		c-3.291,3.411-3.59,7.596-3.098,11.985c-0.876-0.919-1.212-1.847-1.034-3.258C293.13,360.701,293.111,358.493,291.015,357.121z"/>
	<path style="fill:#FDFDFD;" d="M449.271,368.202c-2.046-5.228-2.047-5.231,2.7-7.97c1.074-0.62,2.165-1.21,3.249-1.814
		c-0.039,0.246,0,0.651-0.128,0.714C451.303,360.978,449.958,364.376,449.271,368.202z"/>
	<path style="fill:#FDFDFD;" d="M155.906,355.627c-2.396-2.316-5.52-3.512-8.23-5.343c3.144-1.538,2.964-1.395,5.215,1.422
		C153.919,352.993,156.828,352.774,155.906,355.627z"/>
	<path style="fill:#FDFDFD;" d="M393.84,359.994c-0.006-0.244-0.012-0.489-0.018-0.733c-0.717-1.245-0.614-2.5-0.046-3.761
		c3.006,2.163,3.235,3.092,1.436,6.063c-0.735,1.214-0.705,2.57-0.819,3.905c-0.246,0.156-0.463,0.122-0.65-0.102
		c-0.908-1.316,1.089-2.565,0.091-3.883C393.292,360.984,393.275,360.488,393.84,359.994z"/>
	<path style="fill:#383838;" d="M378.717,353.903c-0.387,0.741-0.956,1.921-1.396,0.208c-0.384-1.494-0.143-3.148-0.179-4.731
		c-0.325-2.922-0.591-5.844-0.013-8.767c0.001-0.324,0.002-0.648,0.003-0.972c-0.569-1.822-0.97-3.675-1.01-5.594
		c0-0.409,0.161-0.742,0.479-0.998c0.344,0.011,0.689,0.022,1.033,0.034c1.403,0.864,0.664,2.235,0.695,3.35
		C378.486,342.254,378.121,348.088,378.717,353.903z"/>
	<path style="fill:#FDFDFD;" d="M431.278,400.51c2.962-1.338,5.925-2.677,8.887-4.015c-0.936,1.611-0.846,4.375-3.995,3.529
		c-0.178-0.048-0.667,0.423-0.74,0.719c-0.683,2.762-1.421,2.67-2.474,0.155C432.826,400.589,431.858,400.631,431.278,400.51z"/>
	<path style="fill:#FDFDFD;" d="M378.717,353.903c-1.716-0.65-0.804-2.112-0.834-3.148c-0.168-5.889-0.182-11.781-0.249-17.673
		c1.743,0.77,1.02,2.339,1.095,3.592c0.319,5.295-0.652,10.654,0.798,15.895C379.257,353.013,378.987,353.458,378.717,353.903z"/>
	<path style="fill:#FDFDFD;" d="M180.732,370.5c0.267,0.467,0.533,0.935,0.8,1.402c0.046,0.607-0.055,1.276,0.168,1.81
		c0.465,1.115,0.323,1.885-0.855,2.337c-1.76,0.677-2.14-0.448-2.345-1.799c-0.589-1.039-0.316-2.097-0.067-3.154
		c0.237-0.211,0.473-0.423,0.71-0.634C179.673,370.475,180.202,370.487,180.732,370.5z"/>
	<path style="fill:#FDFDFD;" d="M409.361,328.476c-0.641,1.778-2.041,3.264-2.038,5.29c0.1,1.801,0.266,3.611-0.799,5.234
		c-1.197-2.167-2.145-4.305-0.158-6.593c0.422-0.486,0.773-1.148,0.54-2.008C406.248,327.97,407.234,327.448,409.361,328.476z"/>
	<path style="fill:#FDFDFD;" d="M368.285,384.006c0.199-1.009,0.399-2.019,0.598-3.028c1.316-0.351,1.836-1.612,2.781-2.479
		c2.034,2.064-0.838,3.776-0.347,5.683C370.297,384.293,369.203,385.662,368.285,384.006z"/>
	<path style="fill:#FDFDFD;" d="M248.897,360.748c-0.222,2.663,0.942,5.029,1.609,7.502c-1.303-1.309-2.745,2.022-4.023-0.121
		c0.405-1.441,1.387-2.731,1.13-4.344c-0.234-1.093-0.889-2.259,0.527-3.068C248.392,360.728,248.644,360.738,248.897,360.748z"/>
	<path style="fill:#FDFDFD;" d="M528.15,372.808c0.693-0.04,1.387-0.081,2.08-0.121c-0.878,1.719-2.001,2.786-4.112,1.816
		c-1.607-0.738-3.13,0.391-4.668,0.357c-0.78-0.017-3.813,0.775-1.709-2.06c0.472-0.004,0.945-0.009,1.417-0.013
		C523.486,373.355,525.818,373.323,528.15,372.808z"/>
	<path style="fill:#FDFDFD;" d="M514.568,368.229c0.406,0.52,0.812,1.041,1.218,1.561c-1.17,0.849-2.313,1.74-3.52,2.532
		c-0.726,0.476-1.435,0.221-1.85-0.514c-0.458-0.813,0.002-1.397,0.694-1.78C512.246,369.4,513.413,368.826,514.568,368.229z"/>
	<path style="fill:#FDFDFD;" d="M327.685,366.211c-1.029-3.536-0.291-7.157-0.512-10.732c-0.091-1.471,0.298-2.994-0.472-4.393
		c0.754,0.263,2.152,0.316,1.798,1.317C326.889,356.959,328.264,361.635,327.685,366.211z"/>
	<path style="fill:#FDFDFD;" d="M234.002,373.513c2.782,0.275,5.512,0.114,8.129-0.978
		C240.082,378.343,236.859,374.41,234.002,373.513z"/>
	<path style="fill:#FDFDFD;" d="M255.763,372.669c3.185,0.969,6.437,1.119,9.727,0.802c-2.797,1.444-5.942,0.776-8.894,1.41
		C254.69,375.29,255.389,373.684,255.763,372.669z"/>
	<path style="fill:#303030;" d="M385.014,371.366c1.174-0.283,2.348-0.566,3.522-0.849c1.972,0.006,3.944-0.225,5.916,0.005
		l0.211-0.192c1.022-0.481,1.668-0.069,2.089,0.878c-3.674,1.702-7.573,0.298-11.333,0.822c-0.373,0.193-0.565,0.08-0.578-0.34
		l0.185-0.11L385.014,371.366z"/>
	<path style="fill:#FDFDFD;" d="M489.66,351.217c-3.168-0.05-6.335-0.081-9.502-0.162c-1.043-0.026-1.99-0.03-2.135,1.328
		c-1.04-0.402-0.955-1.061-0.223-1.609C479.463,349.526,487.559,349.876,489.66,351.217z"/>
	<path style="fill:#FDFDFD;" d="M147.822,370.699c-1.637,0.784-3.254,0.701-4.855-0.109c0.84-0.147,1.956-0.116,2.031-1.205
		c0.079-1.142-1.331-0.873-1.928-1.495C146.58,365.62,146.621,369.139,147.822,370.699z"/>
	<path style="fill:#FDFDFD;" d="M493.342,359.999c-0.21,1.221-0.419,2.441-0.629,3.662c-0.465,0.484-0.172,1.507-1.023,1.652
		c-0.689,0.117-0.94-0.492-1.088-1.073c-0.336-1.138-0.672-2.276-1.009-3.413C491.115,361.78,492.029,359.983,493.342,359.999z"/>
	<path style="fill:#FDFDFD;" d="M551.607,372.854c1.128-0.295,2.257-0.589,3.385-0.884c-2.689,3.449-4.481,3.759-8.992,1.556
		C547.787,372.621,549.797,373.572,551.607,372.854z"/>
	<path style="fill:#FDFDFD;" d="M142.502,373.519c3.619,0.294,7.174,0.191,10.439-1.695c-0.915,2.371-2.322,3.48-5.034,2.485
		c-1.528-0.561-3.105,0.402-4.657,0.691C143.001,374.506,142.751,374.013,142.502,373.519z"/>
	<path style="fill:#FDFDFD;" d="M551.966,350.335c-3.396-0.607-6.637-0.119-9.737,1.372c-0.422-2.582,1.963-1.819,2.917-2.022
		C547.386,349.208,549.946,347.762,551.966,350.335z"/>
	<path style="fill:#FDFDFD;" d="M148.961,336.889c0.806,1.223,2.519,1.818,2.503,3.612c-2.499-0.546-4.453-1.745-5.216-4.365
		c0.174-0.422,0.427-0.454,0.748-0.15C147.512,336.587,148.17,336.883,148.961,336.889z"/>
	<path style="fill:#FDFDFD;" d="M450.142,381.751c-0.568-2.319,1.676-4.387,0.603-6.752c-0.488-0.766-0.549-1.519,0.069-2.25
		C452.42,375.518,452.099,379.818,450.142,381.751z"/>
	<path style="fill:#FDFDFD;" d="M213.005,354.752c3.466-3.027,4.382-2.773,5.313,1.471
		C216.685,355.233,214.826,355.063,213.005,354.752z"/>
	<path style="fill:#FDFDFD;" d="M442.959,394.397c1.328-1.517,2.656-3.033,3.984-4.55
		C447.989,394.168,447.989,394.168,442.959,394.397z"/>
	<path style="fill:#FDFDFD;" d="M371.254,334.258c-2.365,0.196-1.658,1.322-0.758,2.506c-1.272,0.597-2.458,0.136-3.141-0.811
		c-0.653-0.905,0.549-1.448,1.096-1.98C369.422,333.025,370.446,332.924,371.254,334.258z"/>
	<path style="fill:#FDFDFD;" d="M165,374.25c0.313,0.194,0.714,0.321,0.924,0.594c0.716,0.932,2.512,0.838,2.431,2.463
		c-0.029,0.572-0.738,0.788-1.145,0.607c-1.327-0.59-3.19-0.72-2.96-2.914C164.471,374.721,164.547,374.297,165,374.25z"/>
	<path style="fill:#FDFDFD;" d="M303.077,350.461c-1.526,0.651-3.052,1.301-4.579,1.952c0.43-1.004-1.786-1.405-0.631-2.484
		c0.859-0.803,1.929-1.18,2.926-0.096C301.434,350.53,302.576,349.317,303.077,350.461z"/>
	<path style="fill:#FDFDFD;" d="M337.609,353.854c2.346,4.037,1.582,8.256,0.73,12.481
		C337.761,362.195,338.751,357.962,337.609,353.854z"/>
	<path style="fill:#FDFDFD;" d="M402.023,391.403c1.758,0.791,2.678,2.49,4.03,3.722c-1.035,0.214-1.781,1.41-3.032,0.89
		C405.152,393.944,399.129,393.638,402.023,391.403z"/>
	<path style="fill:#FDFDFD;" d="M418.591,321.991c-0.943,0.615-1.936,1.091-3.092,1.111c0.413-1.124-1.392-2.876,0.733-3.421
		C417.859,319.264,417.994,321.006,418.591,321.991z"/>
	<path style="fill:#363636;" d="M418.572,400.933c3.169-1.109,6.414-0.575,9.64-0.446
		C425.085,402.505,421.782,400.718,418.572,400.933z"/>
	<path style="fill:#3A3A3A;" d="M506.25,351c2.829,0.041,5.658,0.07,8.485,0.162c0.119,0.004,0.267,0.582,0.297,0.902
		c0.008,0.088-0.361,0.211-0.557,0.319c-2.562-0.64-5.169-1.805-7.466,0.642C506.237,352.544,505.136,352.187,506.25,351z"/>
	<path style="fill:#FDFDFD;" d="M384.841,371.691c0.179,0.137,0.372,0.25,0.578,0.34c2.52,1.34,5.239,0.183,7.819,0.634
		c1.204,0.21,2.736-0.86,3.593,0.835c-3.171-0.001-6.342-0.003-9.514,0C386.046,373.5,384.773,373.517,384.841,371.691z"/>
	<path style="fill:#FDFDFD;" d="M506.426,366.752c1.315-1.82,0.649-4.577,2.828-5.989
		C509.692,363.412,509.423,365.726,506.426,366.752z"/>
	<path style="fill:#FDFDFD;" d="M577.604,349.554c0.188,0.925,0.375,1.849,0.563,2.774c-0.313,0.486-0.325,1.584-1.334,0.657
		c-1.001-0.671-2.002-1.342-3.004-2.014c-0.281-0.124-0.377-0.333-0.289-0.626C574.895,350.081,576.25,349.818,577.604,349.554z"/>
	<path style="fill:#FDFDFD;" d="M147.041,356.932c1.398,0.449,2.742,0.98,3.53,2.347c-1.4,0.52-2.992,0.121-4.239,1.227
		C145.445,358.837,147.382,358.167,147.041,356.932z"/>
	<path style="fill:#FDFDFD;" d="M141.347,333.647c-1.672-0.307-2.684,1.206-4.138,1.5c0.698-1.26,0.029-2.486-0.356-3.929
		c2.019-0.1,2.827,2.453,4.736,1.693c0.115,0.078,0.23,0.155,0.346,0.233C141.833,333.421,141.637,333.589,141.347,333.647z"/>
	<path style="fill:#FDFDFD;" d="M359.242,350.204c-3.246-0.282-6.199,0.633-8.993,2.198
		C352.66,349.256,355.211,348.633,359.242,350.204z"/>
	<path style="fill:#FDFDFD;" d="M340.51,351.078c-2.007,0.309-4.013,0.409-6.015-0.036
		C337.106,348.403,338.685,348.413,340.51,351.078z"/>
	<path style="fill:#FDFDFD;" d="M488.24,340.533c0.27,0.233,0.54,0.466,0.81,0.699c2.329-0.047,0.209-2.425,1.562-2.982
		c0.955,0.979,0.812,2.311,0.908,3.474c0.078,0.934-0.471,2.077-1.587,2.228c-1.293,0.174-1.57-0.907-1.694-1.949
		C487.798,341.512,487.851,341.022,488.24,340.533z"/>
	<path style="fill:#FDFDFD;" d="M347.222,386.295c0.76,0.464,1.52,0.929,2.281,1.393c0.162,0.285,0.325,0.57,0.487,0.855
		c-0.817,0.656-1.634,1.313-2.599,2.088C346.635,388.988,346.445,387.661,347.222,386.295z"/>
	<path style="fill:#FDFDFD;" d="M487.329,355.563c-0.957-1.272-0.559-2.309,0.752-2.865c0.822-0.349,1.61-0.476,1.45-1.608
		C492.898,354.6,487.725,353.906,487.329,355.563z"/>
	<path style="fill:#FDFDFD;" d="M342.699,373.448c1.791-0.157,3.948-2.712,5.182,0.789c-1.315,0.29-2.64-0.501-4.036,0.893
		C342.915,376.058,343.957,373.467,342.699,373.448z"/>
	<path style="fill:#FDFDFD;" d="M484.503,362.233c1.434,1.165,1.738,2.879,2.199,4.517
		C484.516,365.952,481.939,365.343,484.503,362.233z"/>
	<path style="fill:#FDFDFD;" d="M500.247,355.508c-1.383-1.019-0.757-3.582-3.018-3.926c-0.308-0.346-0.932-0.922-0.874-1.001
		c0.442-0.607,1.381-1.058,1.749-0.396C499.029,351.849,501.323,353.034,500.247,355.508z"/>
	<path style="fill:#FDFDFD;" d="M166.525,373.404c3.27,0.392,6.503,0.361,9.635-0.837
		C174.636,374.624,170.225,375.007,166.525,373.404z"/>
	<path style="fill:#2C2C2C;" d="M406.524,339c0.266-1.745,0.532-3.489,0.799-5.234c0.678,2.337,1.832,4.723-0.698,6.726
		C406.591,339.995,406.557,339.497,406.524,339z"/>
	<path style="fill:#FDFDFD;" d="M555.733,371.204c-0.197-1.252,2.659-0.529,1.538-2.378c1.299-0.941,1.239,0.204,1.577,0.953
		c0.615,1.365-0.553,1.648-1.235,2.206C556.551,372.855,556.149,371.979,555.733,371.204z"/>
	<path style="fill:#FDFDFD;" d="M488.24,340.533c0,0.49,0,0.979,0,1.469c-1.932-0.056-2.338-1.886-3.53-2.918
		c0.885-0.685,2.046,0.426,2.734-0.6C488.574,338.831,488.05,339.82,488.24,340.533z"/>
	<path style="fill:#FDFDFD;" d="M242.943,351.921c-0.937-0.323-1.875-0.646-2.812-0.97c-1.431-0.917-3.24,0.329-4.632-0.813
		C238.231,348.222,240.247,348.704,242.943,351.921z"/>
	<path style="fill:#FDFDFD;" d="M462.664,350.972c0.98-3.437,1.266-6.928,0.816-10.476
		C464.546,344.092,465.288,347.663,462.664,350.972z"/>
	<path style="fill:#FDFDFD;" d="M327.752,373.517c1.747,0.016,3.493,0.033,5.24,0.049
		C331.23,375.241,329.463,377.373,327.752,373.517z"/>
	<path style="fill:#FDFDFD;" d="M480.007,333.805c-2.002,0.333-4.004,0.331-6.007,0.012
		C475.997,331.037,478,331.662,480.007,333.805z"/>
	<path style="fill:#FDFDFD;" d="M504.75,360.749c0.244,0.737,0.489,1.475,0.733,2.212l-0.015,0.028
		c-0.513,0.742-0.981,1.609-2.076,0.759c-0.296-1.004-0.591-2.009-0.887-3.013c-0.234-0.202-0.297-0.379-0.188-0.532
		c0.1-0.14,0.197-0.211,0.293-0.211C503.323,360.245,504.037,360.497,504.75,360.749z"/>
	<path style="fill:#FDFDFD;" d="M396.752,371.209c-0.697-0.293-1.393-0.585-2.089-0.878c-0.092-0.449-0.184-0.898-0.276-1.348
		c-0.232-0.332-0.162-0.576,0.211-0.734c1.636-2.333,1.638,1.669,2.909,0.751C397.659,369.875,397.584,370.671,396.752,371.209z"/>
	<path style="fill:#FDFDFD;" d="M135.76,365.236c-1.298-1.477-1.379-3.356-1.704-5.154c1.163-0.666,1.799-0.264,1.855,1.008
		C135.971,362.472,136.344,363.875,135.76,365.236z"/>
	<path style="fill:#FDFDFD;" d="M513.779,357.021c-0.696,2.448-0.913,4.945-0.781,7.479c-1.911-1.03-0.464-3.178-1.498-4.5
		c0.014-1.501,0.208-2.876,2.126-3.051L513.779,357.021z"/>
	<path style="fill:#FDFDFD;" d="M165,374.25c-0.25,0.25-0.5,0.5-0.75,0.75c-0.202-1.321-2.642-1.679-1.534-3.564
		c1.291,0.666,2.582,1.331,3.873,1.996C165.96,373.511,165.337,373.602,165,374.25z"/>
	<path style="fill:#FDFDFD;" d="M513.626,356.949c-1.402,0.534-1.062,2.282-2.126,3.051c-0.705,0-1.411,0.001-2.116,0.001
		c0.003-0.25,0.006-0.501,0.009-0.751c1.499-0.15,1.83-1.566,2.531-2.493C512.777,355.629,513.178,355.805,513.626,356.949z"/>
	<path style="fill:#FDFDFD;" d="M492.851,369.738c0.651-2.021,0.547-4.312,2.147-5.993c0.521,1.861-0.076,3.564-0.748,5.255
		C493.784,369.246,493.318,369.492,492.851,369.738z"/>
	<path style="fill:#FDFDFD;" d="M415.499,399.793c0.155,0.238,0.311,0.475,0.466,0.713c-1.967-0.008-4.739,1.853-4.985-2.148
		C412.487,398.836,413.993,399.314,415.499,399.793z"/>
	<path style="fill:#292929;" d="M558.824,362.999c0.568-1.281-0.511-3.124,1.354-3.961c0.029,0.323,0.057,0.646,0.085,0.968
		c0.75,1.498,0.751,2.996-0.004,4.493c-0.465-0.003-0.931-0.005-1.396-0.008C558.85,363.994,558.837,363.497,558.824,362.999z"/>
	<path style="fill:#4F4F4F;" d="M490.612,338.249c-0.011,1.221,0.022,2.445-0.051,3.663c-0.033,0.558-0.442,0.826-1.016,0.571
		c-0.557-0.248-0.487-0.771-0.495-1.251c1.51-2.094,0.267-4.461,0.662-6.666C490.938,335.567,490.082,337.078,490.612,338.249z"/>
	<path style="fill:#FDFDFD;" d="M334.553,369.769c-1.514,0.987-3.038,1.279-4.582,0.062
		C331.451,366.28,333.027,369.908,334.553,369.769z"/>
	<path style="fill:#FDFDFD;" d="M456.703,370.009c0.795-1.523,1.665-2.267,2.841-1.79c0.619,0.251,0.889,1.284,0.306,1.944
		C458.641,371.533,457.979,369.605,456.703,370.009z"/>
	<path style="fill:#FDFDFD;" d="M145.5,336.052c-0.598,2.739-0.598,2.739-4.425,0.123l-0.104-0.293
		C142.495,335.567,144.015,335.332,145.5,336.052z"/>
	<path style="fill:#414141;" d="M419.271,356.317c2.985-1.387,5.98-1.283,8.981-0.055
		C425.257,356.015,422.262,355.858,419.271,356.317z"/>
	<path style="fill:#FDFDFD;" d="M398.34,384.498c0.67,1.342,1.341,2.684,2.011,4.026
		C396.086,388.978,398.283,386.204,398.34,384.498z"/>
	<path style="fill:#FDFDFD;" d="M218.297,356.195c1.102,0.825,2.275,1.232,3.622,0.613c0.137,0.726,1.024,2.131-0.338,1.874
		C220.449,358.467,217.758,359.072,218.297,356.195z"/>
	<path style="fill:#FDFDFD;" d="M502.61,359.993c-0.035,0.248-0.07,0.495-0.105,0.743c-0.695-1.246-1.39-2.492-2.085-3.739
		C504.137,355.811,502.695,358.398,502.61,359.993z"/>
	<path style="fill:#FDFDFD;" d="M464.76,371.127c-0.891,0.359-2.963-1.17-2.405,1.505c-1.184,0.296-1.49-0.307-1.466-1.359
		c0.021-0.925,0.471-1.385,1.346-1.284c0.962,0.11,1.908,0.359,2.861,0.547C464.967,370.723,464.855,370.92,464.76,371.127z"/>
	<path style="fill:#FDFDFD;" d="M489.635,360.886c-0.507-1.026-1.014-2.052-1.522-3.078c1.156-0.718,2.023-0.332,2.701,0.72
		C491.741,359.967,488.979,359.574,489.635,360.886z"/>
	<path style="fill:#FDFDFD;" d="M322.587,366.471c0.739,1.845,1.479,3.691,2.218,5.536
		C322.784,370.675,321.432,369.075,322.587,366.471z"/>
	<path style="fill:#FDFDFD;" d="M303.009,373.603c2.25-0.015,4.499-0.031,6.749-0.046c0.058,0.482,0.7,1.484-0.435,1.14
		c-1.368-0.415-2.685-0.426-4.049-0.397c-0.521,0.415-1.027,0.37-1.523-0.045C303.503,374.037,303.256,373.82,303.009,373.603z"/>
	<path style="fill:#FDFDFD;" d="M425.247,321.738c-1.74-0.605-3.492,0.132-5.236-0.051c2.494-0.835,4.989-1.527,7.49-0.02
		C426.77,322.314,426.016,322.253,425.247,321.738z"/>
	<path style="fill:#363636;" d="M431.994,396.787c-2.735,1.178-5.478,1.102-8.226,0.048
		C426.51,396.819,429.252,396.803,431.994,396.787z"/>
	<path style="fill:#FDFDFD;" d="M376.6,333.048c-0.121,0.182-0.222,0.375-0.303,0.578c-0.615,0.765-1.31,0.682-2.044,0.194
		c-0.502,0.176-1.004,0.353-1.505,0.529c-0.371-2.244,2.796-1.421,2.855-3.293C376.504,331.435,375.417,332.811,376.6,333.048z"/>
	<path style="fill:#FDFDFD;" d="M337.563,353.226c0.05,0.221,0.081,0.444,0.096,0.67c-1.866-0.227-3.733-0.455-5.648-0.688
		c0.307-1.013,1.121-1.073,1.701-1.438l0.276,0.093l0.207-0.205C335.042,352.773,337.014,351.47,337.563,353.226z"/>
	<path style="fill:#FDFDFD;" d="M141.59,332.91c0.207-0.523-1.284-1.84,0.527-1.531c1.427,0.244,3.104,0.342,4.042,1.836
		c-1.458,0.16-2.919,0.388-4.352-0.151L141.59,332.91z"/>
	<path style="fill:#FDFDFD;" d="M369.738,350.177c-1.496,0.238-2.993,0.476-4.489,0.714
		C366.213,347.305,368.116,349.622,369.738,350.177z"/>
	<path style="fill:#FDFDFD;" d="M211.429,365.596c-0.576-2.372-0.595-4.738,0.092-7.094
		C211.49,360.867,211.459,363.232,211.429,365.596z"/>
	<path style="fill:#FDFDFD;" d="M303.75,374.255c0.508,0.015,1.015,0.03,1.523,0.045c0.094,0.968,2.234,2.002,0.694,2.631
		C304.09,377.696,304.653,375.078,303.75,374.255z"/>
	<path style="fill:#FDFDFD;" d="M141.75,375.75c-0.031,0.84,0.101,1.762-0.848,2.226c-0.581,0.284-1.335,1.096-1.798,0.094
		c-0.376-0.814,0.521-1.209,1.146-1.57C140.663,376.076,140.901,375.301,141.75,375.75z"/>
	<path style="fill:#FDFDFD;" d="M134.296,331.128c1.535,0.041,0.923,1.324,1.398,1.945c0.558,0.729-0.287,0.604-0.661,0.664
		c-1.504,0.241-0.96-1.455-1.763-1.884C133.657,331.58,134.043,331.307,134.296,331.128z"/>
	<path style="fill:#FDFDFD;" d="M584.727,372.67c0.685-0.907,3.19,0.297,2.525-2.177c0.1-0.345,0.112-0.76,0.321-1.015
		c0.251-0.306,0.668-0.252,0.732,0.211C588.705,372.574,587.017,372.992,584.727,372.67z"/>
	<path style="fill:#FDFDFD;" d="M546.76,370.586c-0.463-0.288-1.313,0.057-1.396-0.853c0.712-0.245,1.424-0.489,2.136-0.734
		c0.75-0.209,1.5,0.611,2.25,0.001c0.61,0.333,0.737,0.903,0.75,1.529C549.261,371.072,548.013,370.985,546.76,370.586z"/>
	<path style="fill:#FDFDFD;" d="M437.325,331.298c2.574,0.047,1.328-1.585,1.198-2.726c1.255,0.936,2.418,1.962,0.646,3.384
		C438.483,332.505,437.312,333.251,437.325,331.298z"/>
	<path style="fill:#FDFDFD;" d="M533.263,368.255c-0.9,0.706-1.768,1.477-3.004,1.518
		C529.316,365.419,531.967,368.177,533.263,368.255z"/>
	<path style="fill:#FDFDFD;" d="M258.806,350.285c-1.767,0.725-3.534,1.45-5.302,2.175
		C254.604,350.108,256.667,350.105,258.806,350.285z"/>
	<path style="fill:#FDFDFD;" d="M573.028,335.912c2.141,0.068,4.224,0.219,4.416,3.081
		C575.972,337.966,574.5,336.939,573.028,335.912z"/>
	<path style="fill:#272727;" d="M450.008,338.251c-0.115,1.074,0.348,2.316-0.888,3.066c-0.847-1.293-0.756-2.575,0.046-3.849
		C449.446,337.729,449.727,337.99,450.008,338.251z"/>
	<path style="fill:#FDFDFD;" d="M218.989,350.145c-1.497,0.239-2.993,0.477-4.49,0.716
		C215.535,347.732,217.304,349.202,218.989,350.145z"/>
	<path style="fill:#FDFDFD;" d="M229.386,336.765c-0.083-0.968-0.166-1.937-0.249-2.905c0.809,0.382,2.246-0.207,2.44,0.907
		C231.817,336.143,230.265,336.234,229.386,336.765z"/>
	<path style="fill:#FDFDFD;" d="M537.581,356.997c-3.305,1.266-3.305,1.266-4.293-2.261
		C534.73,355.468,535.561,357.362,537.581,356.997z"/>
	<path style="fill:#FDFDFD;" d="M135.627,336.694c-0.454,0.295-0.908,0.589-1.363,0.884c-0.237-0.766-0.97-1.486-0.236-2.343
		c0.896-1.046,1.748-0.238,2.61,0.076C136.834,336.161,136.274,336.459,135.627,336.694z"/>
	<path style="fill:#3C3C3C;" d="M448.467,372.745c1.225,2.51,1.265,5.016-0.024,7.518
		C448.451,377.756,448.459,375.251,448.467,372.745z"/>
	<path style="fill:#FDFDFD;" d="M219.806,334.532c-0.696,2.407,1.868,1.14,2.417,2.145c-0.869-0.021-1.791,0.127-2.592-0.118
		c-0.612-0.186-1.791,0.225-1.79-0.771C217.84,334.719,218.894,334.57,219.806,334.532z"/>
	<path style="fill:#FDFDFD;" d="M216.486,358.14c0.722,0.461,1.505,0.814,1.253,1.703c-0.187,0.659-0.812,0.919-1.48,0.603
		c-0.472-0.223-1.3-0.222-0.926-1.179C215.57,358.662,215.861,358.2,216.486,358.14z"/>
	<path style="fill:#FDFDFD;" d="M478.882,372.654c0.986-3.076-2.414-0.571-2.654-2.086c1.397-0.984,2.882-0.54,3.869,0.38
		C480.679,371.491,479.827,372.427,478.882,372.654z"/>
	<path style="fill:#FDFDFD;" d="M193.478,350.317c-1.738-0.058-3.476-0.115-5.214-0.173
		C190.064,348.341,191.787,348.866,193.478,350.317z"/>
	<path style="fill:#FDFDFD;" d="M212.23,369.794c-1.108-1.089-0.944-2.452-0.822-3.806
		C214.249,366.703,212.956,368.31,212.23,369.794z"/>
	<path style="fill:#FDFDFD;" d="M575.479,333.846c-0.701,0.809-2.965-0.136-2.377,2.119c-0.845-0.547-1.75-1.413-0.925-2.239
		C573.036,332.866,574.381,333.339,575.479,333.846z"/>
	<path style="fill:#FDFDFD;" d="M431.99,323.173c-0.246,0.04-0.493,0.072-0.74,0.096c-0.665-0.748-1.863,0.217-2.455-0.764
		c-0.212-0.227-0.394-0.477-0.544-0.749C430.149,320.506,431.002,322.019,431.99,323.173z"/>
	<path style="fill:#FDFDFD;" d="M290.989,350.148c-1.491,0.233-2.982,0.467-4.473,0.7
		C287.753,348.991,289.129,348.026,290.989,350.148z"/>
	<path style="fill:#FDFDFD;" d="M188.647,372.861c0.612-0.054,1.225-0.108,1.837-0.163c-1.785,1.79-3.759,2.217-5.985,0.833
		C185.783,372.691,187.327,373.47,188.647,372.861z"/>
	<path style="fill:#383838;" d="M573.54,350.345c0.072,0.22,0.168,0.429,0.289,0.626c-2.414-0.029-4.828-0.058-7.243-0.086
		c0.143-0.21,0.286-0.419,0.429-0.629c0.251-0.043,0.502-0.085,0.753-0.128c1.486-0.387,2.973-0.495,4.462-0.013
		C572.667,350.191,573.104,350.268,573.54,350.345z"/>
	<path style="fill:#3C3C3C;" d="M546.76,370.586c1.247-0.019,2.493-0.038,3.74-0.057c0.985-0.054,1.969-0.108,2.954-0.162
		C551.271,371.913,549.026,371.568,546.76,370.586z"/>
	<path style="fill:#FDFDFD;" d="M346.767,379.598c-0.31,1.076-0.62,2.152-0.93,3.23C344.71,381.338,343.053,379.695,346.767,379.598
		z"/>
	<path style="fill:#FDFDFD;" d="M317.242,353.253c-0.003,0.765-0.006,1.531-0.01,2.296c-0.532-0.516-1.064-1.031-1.596-1.547
		c-0.237-0.439-0.474-0.879-0.712-1.318C316.193,350.854,316.455,353.122,317.242,353.253z"/>
	<path style="fill:#373737;" d="M573.188,372.814c-1.691,1.197-3.625,0.463-5.438,0.685c-0.492-0.253-0.984-0.505-1.476-0.758
		C568.579,372.766,570.884,372.79,573.188,372.814z"/>
	<path style="fill:#FDFDFD;" d="M531.762,371.283c0.71-0.847,2-1.082,2.392-2.264C534.678,371.332,534.226,371.76,531.762,371.283z"
		/>
	<path style="fill:#3E3E3E;" d="M529.468,370.571c-2.258,1.032-4.496,1.318-6.683-0.187c0.99,0.053,1.981,0.106,2.971,0.159
		c1.215-0.736,2.496-0.516,3.779-0.259L529.468,370.571z"/>
	<path style="fill:#FDFDFD;" d="M577.505,342.89c0.668,2.228,0.541,4.462,0.055,6.699
		C577.542,347.356,577.523,345.123,577.505,342.89z"/>
	<path style="fill:#FDFDFD;" d="M368.886,380.535c-0.76-1.56-1.52-3.119-2.28-4.679
		C369.151,376.546,369.622,378.246,368.886,380.535z"/>
	<path style="fill:#FDFDFD;" d="M383.191,350.978c-0.724,0.26-1.448,0.519-2.172,0.779c0.044-2.821,0.044-2.821,2.537-1.365
		C383.577,350.677,383.456,350.872,383.191,350.978z"/>
	<path style="fill:#FDFDFD;" d="M583.539,368.938c-1.033-1.062-0.978-2.365-0.814-3.691
		C584.63,366.117,584.37,367.465,583.539,368.938z"/>
	<path style="fill:#3C3C3C;" d="M551.607,372.854c-1.748,1.234-3.747,0.368-5.607,0.672l-0.243-0.175l-0.291,0.07
		c-0.339-0.066-0.463-0.266-0.372-0.599C547.264,372.833,549.435,372.844,551.607,372.854z"/>
	<path style="fill:#FDFDFD;" d="M246.539,376.988c-1.308-0.764-2.113-1.41-1.806-3.224
		C246.035,374.579,246.337,375.538,246.539,376.988z"/>
	<path style="fill:#FDFDFD;" d="M212.998,373.509c0.751-0.001,1.502-0.003,2.253-0.004c-0.12,0.761,0.285,1.963-0.975,1.922
		C213.324,375.396,213.052,374.407,212.998,373.509z"/>
	<path style="fill:#FDFDFD;" d="M453.282,379.193c1.009,0.345,1.652,0.829,1.661,1.784c0.002,0.163-0.556,0.528-0.727,0.463
		C453.354,381.113,452.894,380.491,453.282,379.193z"/>
	<path style="fill:#383838;" d="M423.739,326.304c1.971-1.288,3.973-1.137,5.993-0.128
		C427.735,326.218,425.737,326.261,423.739,326.304z"/>
	<path style="fill:#383838;" d="M353.304,389.722c1.962-0.768,3.923-0.774,5.883,0.006
		C357.226,389.726,355.265,389.724,353.304,389.722z"/>
	<path style="fill:#373737;" d="M145.5,336.052c-1.51-0.057-3.02-0.113-4.53-0.17c2.025-0.928,4.036-1.09,6.025,0.102
		c-0.249,0.05-0.499,0.1-0.748,0.15C145.999,336.107,145.75,336.08,145.5,336.052z"/>
	<path style="fill:#FDFDFD;" d="M529.535,370.284c-1.255,0.163-2.485,0.675-3.779,0.259
		C525.993,369.122,527.196,369.04,529.535,370.284z"/>
	<path style="fill:#FDFDFD;" d="M527.233,350.146c-1.744,0.015-3.489,0.03-5.233,0.044
		C523.732,348.715,525.482,349.372,527.233,350.146z"/>
	<path style="fill:#FDFDFD;" d="M384,350.25c1.481-1.791,2.983-1.704,4.501-0.048C387.008,350.87,385.506,350.802,384,350.25z"/>
	<path style="fill:#FDFDFD;" d="M222.522,356.171c0.345-1.198,0.425-2.399,0.028-3.603c0.592,0.231,1.185,0.463,1.777,0.694
		c0.007,0.741,0.014,1.483,0.021,2.224C223.739,355.715,223.13,355.943,222.522,356.171z"/>
	<path style="fill:#FDFDFD;" d="M308.994,350.191c-1.494-0.008-2.989-0.015-4.483-0.023
		C306.011,348.967,307.51,348.214,308.994,350.191z"/>
	<path style="fill:#FDFDFD;" d="M168.009,350.277c-1.2,0.621-2.291,1.524-3.757,1.458C164.9,349.69,166.3,349.584,168.009,350.277z"
		/>
	<path style="fill:#FDFDFD;" d="M264.752,350.258c-1.995,0.013-3.991,0.027-5.986,0.04
		C260.752,349.04,262.748,349.106,264.752,350.258z"/>
	<path style="fill:#FDFDFD;" d="M144.701,348.88c-0.821-0.505-1.642-1.01-2.464-1.515c0.864-0.047,1.035-1.778,1.854-1.119
		C144.643,346.691,144.521,347.973,144.701,348.88z"/>
	<path style="fill:#FDFDFD;" d="M494.975,355.488c-0.033,0.805,0.062,1.652-0.748,2.191c0.409-1.577-2.264-0.587-1.749-1.961
		C492.993,354.34,494.141,355.746,494.975,355.488z"/>
	<path style="fill:#FDFDFD;" d="M482.48,356.928c0.645,0.925,1.266,1.86,1.2,3.063c-0.59-0.602-1.111-1.299-1.782-1.788
		C479.83,356.697,482.167,357.292,482.48,356.928z"/>
	<path style="fill:#FDFDFD;" d="M319.241,359.325c2.036,1.685,0.553,3.97,1.009,5.925c-0.238,0-0.477,0-0.715,0
		C319.437,363.275,319.339,361.3,319.241,359.325z"/>
	<path style="fill:#242424;" d="M248.139,360.718c-0.176,1.023-0.352,2.046-0.527,3.068c-1.276-1.216-1.217-2.479-0.131-3.777
		C247.7,360.245,247.92,360.482,248.139,360.718z"/>
	<path style="fill:#FDFDFD;" d="M133.453,339.758c0.003,1.995,0.005,3.99,0.008,5.985
		C132.354,343.75,132.364,341.755,133.453,339.758z"/>
	<path style="fill:#3B3B3B;" d="M235.499,350.139c1.531,0.344,3.242-0.34,4.632,0.813c-2.028-0.147-4.123,0.577-6.082-0.466
		C234.532,350.37,235.016,350.255,235.499,350.139z"/>
	<path style="fill:#FDFDFD;" d="M531.718,352.554c-0.927-0.556-2.052-0.908-2.263-2.201
		C531.922,349.326,531.211,351.566,531.718,352.554z"/>
	<path style="fill:#383838;" d="M384,350.25c1.5-0.016,3.001-0.032,4.501-0.048c0.25,0.266,0.5,0.532,0.751,0.798
		c-2.02-0.007-4.041-0.014-6.061-0.021c0.156-0.174,0.278-0.369,0.365-0.586C383.758,350.512,383.906,350.465,384,350.25z"/>
	<path style="fill:#FDFDFD;" d="M246.325,350.19c-0.226,0.373-0.268,1.137-0.844,0.899c-0.48-0.199-0.776-0.841-1.153-1.287
		c0.42-0.228,0.833-0.622,1.263-0.641C246.124,349.137,246.429,349.59,246.325,350.19z"/>
	<path style="fill:#FDFDFD;" d="M178.433,371.096c0.746,1.036,0.159,2.1,0.067,3.154c-0.796-0.553-1.235-1.63-2.404-1.637
		C176.875,372.107,177.654,371.602,178.433,371.096z"/>
	<path style="fill:#FDFDFD;" d="M153,362.237c1.483,1.52,0.955,3.053,0.028,4.588C152.403,365.299,153.009,363.766,153,362.237z"/>
	<path style="fill:#FDFDFD;" d="M213.299,351.854c-0.694,0.736-1.027,1.957-2.276,1.885c-0.137-0.008-0.201-1.286-0.299-1.975
		C211.582,351.794,212.44,351.824,213.299,351.854z"/>
	<path style="fill:#FDFDFD;" d="M329.141,369.313c-0.891-0.624-1.474-1.411-1.358-2.567
		C331.336,365.961,328.64,368.483,329.141,369.313z"/>
	<path style="fill:#FDFDFD;" d="M227.544,333.118c-1.272,0.696-2.657,0.735-4.055,0.702
		C224.611,332.26,225.991,332.195,227.544,333.118z"/>
	<path style="fill:#FDFDFD;" d="M542.204,351.721c-0.607,0.69-1.137,1.493-2.208,1.498
		C539.065,350.263,540.714,351.109,542.204,351.721z"/>
	<path style="fill:#FDFDFD;" d="M223.509,338.208c1.23,1.065,0.939,2.448,0.798,3.801
		C222.95,340.971,222.568,339.729,223.509,338.208z"/>
	<path style="fill:#FDFDFD;" d="M242.068,372.594c1.063-0.863,2.125-1.726,3.188-2.59
		C244.831,371.654,243.956,372.748,242.068,372.594z"/>
	<path style="fill:#FDFDFD;" d="M192.222,371.255c0.513-0.45,1.027-0.9,1.54-1.35c0.777,0.482,1.356,1.077,1.184,2.096
		C194.039,371.752,193.13,371.503,192.222,371.255z"/>
	<path style="fill:#FDFDFD;" d="M200.242,373.572c0.504-0.007,1.009-0.014,1.513-0.021c-0.095,0.819,0.2,2.095-1.029,2.022
		C199.125,375.477,200.559,374.223,200.242,373.572z"/>
	<path style="fill:#FDFDFD;" d="M339.735,373.602c0.998-0.054,1.997-0.108,2.995-0.162c-0.473,1.03-1.719,0.712-2.415,1.384
		c-0.279,0.27-0.769,0.829-1.031,0.072C339.168,374.557,339.569,374.039,339.735,373.602z"/>
	<path style="fill:#FDFDFD;" d="M572.231,350.115c-1.487,0.004-2.975,0.009-4.462,0.013
		C569.253,349.161,570.739,348.571,572.231,350.115z"/>
	<path style="fill:#FDFDFD;" d="M586.501,370.381c-1.269,0.131-2.373-0.081-2.945-1.408
		C584.842,368.805,586.405,368.058,586.501,370.381z"/>
	<path style="fill:#383838;" d="M371.189,336.777c0.718-0.212,1.035-1.697,2.05-0.816c1.088,0.944-0.97,1.414-0.511,2.347
		C372.215,337.798,371.702,337.288,371.189,336.777z"/>
	<path style="fill:#FDFDFD;" d="M403.964,342.551c-0.637-1.559-0.081-2.277,0.718-2.968
		C405.279,340.661,404.965,341.475,403.964,342.551z"/>
	<path style="fill:#FDFDFD;" d="M296.245,369.25c1.069,0.891,2.138,1.783,3.207,2.674
		C297.619,371.949,296.645,370.944,296.245,369.25z"/>
	<path style="fill:#FDFDFD;" d="M487.653,368.943c0.834,1.143,1.566,2.326,1.462,3.827
		C488.157,371.674,486.714,370.764,487.653,368.943z"/>
	<path style="fill:#FDFDFD;" d="M363.749,388.5c1.002-0.671,2.004-1.343,3.006-2.014C366.304,387.98,365.807,389.405,363.749,388.5z
		"/>
	<path style="fill:#FDFDFD;" d="M285.203,351.838c-0.578,0.766-1.014,1.96-2.048,1.876c-0.726-0.059-0.389-1.231-0.588-1.887
		C283.448,351.295,284.327,351.311,285.203,351.838z"/>
	<path style="fill:#FDFDFD;" d="M283.435,365.344c-0.569-1.9-0.573-3.8-0.002-5.703
		C283.434,361.541,283.435,363.443,283.435,365.344z"/>
	<path style="fill:#FDFDFD;" d="M223.096,333.837c-1.108,0.239-2.216,0.477-3.325,0.716
		C220.314,331.686,221.946,333.879,223.096,333.837z"/>
	<path style="fill:#FDFDFD;" d="M545.093,372.822c0.139,0.191,0.263,0.39,0.372,0.599c-0.703,0.209-1.399,0.446-2.112,0.617
		c-0.4,0.096-1.031,0.482-1.122-0.22c-0.044-0.34,0.515-0.758,0.801-1.14C543.72,372.726,544.406,372.774,545.093,372.822z"/>
	<path style="fill:#FDFDFD;" d="M487.141,375.881c1.292-0.111,2.202,0.165,2.121,0.894c-0.148,1.34-0.823,0.621-1.308,0.085
		C487.733,376.615,487.532,376.353,487.141,375.881z"/>
	<path style="fill:#373737;" d="M141.805,333.065c1.451,0.05,2.902,0.101,4.352,0.151c0,0.184,0.039,0.359,0.117,0.526
		c-1.642-0.031-3.283-0.063-4.926-0.094C141.5,333.453,141.653,333.259,141.805,333.065z"/>
	<path style="fill:#FDFDFD;" d="M581.191,373.333c0.926-0.692,2.004-0.565,3.057-0.568
		C583.493,374.377,582.402,374.179,581.191,373.333z"/>
	<path style="fill:#404040;" d="M188.647,372.861c-1.242,1.095-2.779,0.361-4.148,0.67c-0.237-0.097-0.474-0.194-0.711-0.291
		C185.344,372.293,187.02,372.884,188.647,372.861z"/>
	<path style="fill:#FDFDFD;" d="M286.427,353.968c0.72-1.304,1.544-0.894,2.389-0.145
		C288.14,355.847,287.267,354.641,286.427,353.968z"/>
	<path style="fill:#FDFDFD;" d="M245.964,354.83c-0.497-0.522-0.995-1.044-1.492-1.567c0.824-0.443,1.694-0.612,2.316,0.2
		C246.905,353.618,246.258,354.359,245.964,354.83z"/>
	<path style="fill:#FDFDFD;" d="M397.521,379.495c0.005,0.754,0.01,1.508,0.015,2.262c-1.431-1.421-0.58-3.175-0.697-4.788
		c0.178,0.169,0.361,0.333,0.548,0.493C398.125,378.093,397.948,378.786,397.521,379.495z"/>
	<path style="fill:#FDFDFD;" d="M549.75,369c-0.75,0.963-1.5,0.963-2.25-0.001C548.251,366.692,549,369.249,549.75,369z"/>
	<path style="fill:#FDFDFD;" d="M325.5,351.07c-0.75-0.001-1.5-0.002-2.25-0.004c0.073-0.72,0.231-1.441,1.127-1.44
		C325.272,349.628,325.428,350.351,325.5,351.07z"/>
	<path style="fill:#FDFDFD;" d="M366.885,389.625c1.246-0.352,2.11-1.064,2.536-0.441c0.636,0.93-0.027,1.228-0.96,0.935
		C368.125,390.013,367.788,389.908,366.885,389.625z"/>
	<path style="fill:#FDFDFD;" d="M285.524,365.131c-0.665-1.651-0.614-2.586-0.301-3.611
		C286.2,362.445,285.643,363.437,285.524,365.131z"/>
	<path style="fill:#373737;" d="M135.627,336.694c0.337-0.461,0.674-0.923,1.011-1.384c0.227,0.013,0.451,0.043,0.674,0.091
		c0.463,0.83,0.475,1.673-0.361,2.182C136.761,337.699,136.081,337.012,135.627,336.694z"/>
	<path style="fill:#FDFDFD;" d="M561.015,368.965c0.497,0.511,0.995,1.021,1.492,1.532c-0.571,0.149-1.347,0.606-1.673,0.388
		C559.977,370.311,560.881,369.618,561.015,368.965z"/>
	<path style="fill:#FDFDFD;" d="M215.292,359.948c-0.45,0.788-0.841,1.562-1.775,1.712c-0.089,0.014-0.429-0.547-0.369-0.763
		C213.459,359.772,214.466,360.12,215.292,359.948z"/>
	<path style="fill:#FDFDFD;" d="M400.528,361.5c0.171,0.713-0.154,1.19-0.733,1.548c-0.346-0.941-1.44-0.408-2.206-0.755
		C398.587,361.167,399.618,361.629,400.528,361.5z"/>
	<path style="fill:#FDFDFD;" d="M345.833,382.919c0.458,1.117,0.916,2.235,1.374,3.352
		C343.963,386.295,346.387,383.997,345.833,382.919z"/>
	<path style="fill:#FDFDFD;" d="M144.007,355.569c1.307-0.184,2.183,0.59,3.054,1.374
		C145.375,357.971,144.732,356.679,144.007,355.569z"/>
	<path style="fill:#383838;" d="M393.777,355.499c0.015,1.254,0.03,2.508,0.046,3.761c-1.47-1.283-0.587-2.997-0.824-4.506
		C393.258,355.003,393.517,355.251,393.777,355.499z"/>
	<path style="fill:#FDFDFD;" d="M496.545,351.763c-0.52,1.235-1.041,2.47-1.561,3.705
		C495.023,354.031,494.744,352.459,496.545,351.763z"/>
	<path style="fill:#FDFDFD;" d="M265.464,373.478c1.238-0.565,2.475-1.129,3.713-1.694
		C268.623,373.848,266.95,373.458,265.464,373.478z"/>
	<path style="fill:#FDFDFD;" d="M182.608,376.799c1.262-0.296,2.008-0.565,2.716,0.135
		C184.511,377.393,183.757,377.372,182.608,376.799z"/>
	<path style="fill:#FDFDFD;" d="M320.258,351.065c-0.753-0.007-1.506-0.014-2.258-0.021c0.101-0.543,0.051-1.256,0.835-1.266
		C319.634,349.768,319.968,350.428,320.258,351.065z"/>
	<path style="fill:#FDFDFD;" d="M526.387,378.177c1.347-1.03,1.964-1.243,2.666-1.033c0.036,0.011,0.008,0.529-0.06,0.547
		C528.455,377.833,527.9,377.91,526.387,378.177z"/>
	<path style="fill:#383838;" d="M392.089,353.273c-0.512,0.221-1.044,0.675-1.541,0.021c-0.447-0.588,0.092-1.084,0.235-1.614
		C391.37,352.086,392.055,352.413,392.089,353.273z"/>
	<path style="fill:#FDFDFD;" d="M441.339,331.616c-0.478-0.796-0.463-1.556,0.007-2.543
		C441.88,330.032,441.941,330.79,441.339,331.616z"/>
	<path style="fill:#FDFDFD;" d="M346.939,349.776c0.65,0.188,0.57,0.536,0.423,0.826c-0.152,0.299-0.342,0.682-0.612,0.793
		c-0.452,0.187-0.655-0.13-0.462-0.555C346.465,350.448,346.737,350.099,346.939,349.776z"/>
	<path style="fill:#FDFDFD;" d="M461.158,353.216c0.508-0.762,1.017-1.524,1.525-2.286
		C463.602,352.644,462.739,353.169,461.158,353.216z"/>
	<path style="fill:#FDFDFD;" d="M173.876,376.226c-0.521,0.334-0.863,0.71-1.244,0.757c-0.43,0.053-0.464-0.409-0.302-0.725
		c0.149-0.289,0.366-0.653,0.629-0.734C173.129,375.472,173.436,375.873,173.876,376.226z"/>
	<path style="fill:#383838;" d="M428.25,321.755c0.182,0.25,0.363,0.5,0.544,0.749c-1.201-0.172-2.579,0.478-3.547-0.767
		c0.751-0.024,1.503-0.048,2.254-0.071C427.751,321.696,428,321.726,428.25,321.755z"/>
	<path style="fill:#FDFDFD;" d="M137.237,367.53c-0.769-0.583-1.359-1.281-1.474-2.286
		C137.262,365.356,138.068,365.915,137.237,367.53z"/>
	<path style="fill:#383838;" d="M394.597,368.249c-0.07,0.245-0.141,0.489-0.211,0.734c-1.087-1.051-0.521-2.395-0.642-3.618
		c0.236-0.087,0.452-0.053,0.65,0.102C394.462,366.395,394.529,367.322,394.597,368.249z"/>
	<path style="fill:#FDFDFD;" d="M543.646,367.802c-1.066-0.848-1.519-1.96-1.426-3.307
		C543.293,365.34,543.734,366.457,543.646,367.802z"/>
	<path style="fill:#FDFDFD;" d="M482.253,336.765c1-0.02,2.001-0.041,3.001-0.061c0.168,0.267,0.335,0.534,0.503,0.8
		C484.572,337.334,483.219,337.969,482.253,336.765z"/>
	<path style="fill:#FDFDFD;" d="M399.809,363.023c-0.283,1.104-0.437,2.277-1.559,2.935
		C398.188,364.671,398.387,363.523,399.809,363.023z"/>
	<path style="fill:#FDFDFD;" d="M224.347,361.481c0.33,1.263,0.339,2.525,0,3.788C223.11,364.006,223.11,362.744,224.347,361.481z"
		/>
	<path style="fill:#FDFDFD;" d="M141.751,370.386c-1.022-0.064-1.873-0.464-2.516-1.275
		C140.678,368.344,141.612,368.58,141.751,370.386z"/>
	<path style="fill:#FDFDFD;" d="M500.26,368.223c0.856,0.822,1.379,1.793,1.342,3.012
		C500.358,370.586,500.168,369.467,500.26,368.223z"/>
	<path style="fill:#FDFDFD;" d="M542.153,363.979c-0.457-1.095-0.696-2.184,0.088-3.245
		C542.37,361.82,542.912,362.918,542.153,363.979z"/>
	<path style="fill:#FDFDFD;" d="M251.231,369.113c0.805,0.136,1.185,0.735,1.513,1.39
		C251.927,370.38,249.728,371.761,251.231,369.113z"/>
	<path style="fill:#FDFDFD;" d="M494.232,368.819c0.625,0.769,1.154,1.421,1.783,2.195
		C494.077,371.312,494.322,370.027,494.232,368.819z"/>
	<path style="fill:#FDFDFD;" d="M227.77,371.163c0.829-2.067,1.543-1.374,2.225,0.093
		C229.254,371.225,228.512,371.194,227.77,371.163z"/>
	<path style="fill:#FDFDFD;" d="M252.746,370.505c0.691,0.319,1.49,0.522,1.58,1.482
		C252.689,372.677,251.898,372.465,252.746,370.505z"/>
	<path style="fill:#FDFDFD;" d="M406.277,355.495c-0.393,0.884-0.948,1.552-2.027,1.524
		C404.266,355.633,405.193,355.461,406.277,355.495z"/>
	<path style="fill:#FDFDFD;" d="M232.799,347.642c-0.296-1.262-0.565-2.008,0.135-2.716
		C233.393,345.739,233.372,346.493,232.799,347.642z"/>
	<path style="fill:#3C3C3C;" d="M450.814,372.749c-0.023,0.75-0.046,1.5-0.069,2.25c-1.232-1.061-0.6-2.488-0.739-3.764
		C450.275,371.74,450.544,372.244,450.814,372.749z"/>
	<path style="fill:#FDFDFD;" d="M180.48,350.638c-0.566-0.105-0.965-0.399-0.757-0.971c0.085-0.236,0.681-0.542,0.81-0.458
		c0.385,0.252,0.654,0.681,0.968,1.041C181.155,350.381,180.809,350.513,180.48,350.638z"/>
	<path style="fill:#FDFDFD;" d="M580.084,333.089c-1.274,0.758-2.687,0.71-4.093,0.706
		C577.163,332.444,578.694,333.172,580.084,333.089z"/>
	<path style="fill:#FDFDFD;" d="M161.201,354.742c0.19,0.703-0.235,1.104-0.725,1.472c-0.229-0.739-1.122-1.503-0.503-2.2
		C160.417,353.516,160.682,354.633,161.201,354.742z"/>
	<path style="fill:#FDFDFD;" d="M135.553,354.14c-0.622,0.12-1.049,0.111-0.865-0.388c0.087-0.235,0.583-0.414,0.908-0.44
		c0.323-0.026,0.664,0.173,0.997,0.273C136.175,353.808,135.756,354.032,135.553,354.14z"/>
	<path style="fill:#FDFDFD;" d="M533.277,354.707c-0.527-0.725-1.054-1.45-1.58-2.175
		C533.149,352.585,534.078,353.017,533.277,354.707z"/>
	<path style="fill:#FDFDFD;" d="M477.927,352.276c0.618,0.37,1.642-0.035,1.911,1.002
		C478.718,353.866,477.688,354.281,477.927,352.276z"/>
	<path style="fill:#FDFDFD;" d="M361.501,350.942c-0.594,0.018-1.159-0.042-1.536-0.59c0.242-0.538,0.54-1.252,1.174-1.009
		C361.422,349.451,361.39,350.384,361.501,350.942z"/>
	<path style="fill:#FDFDFD;" d="M320.086,353.252c-0.943,0.086-1.888,0.705-2.829-0.01c0.032-0.342,0.065-0.683,0.097-1.025
		C318.139,352.896,319.458,352.16,320.086,353.252z"/>
	<path style="fill:#FDFDFD;" d="M194.803,375.662c-0.231,0.212-0.508,0.501-0.532,0.482c-0.251-0.205-0.578-0.428-0.655-0.708
		c-0.102-0.37,0.093-0.803,0.584-0.579C194.466,374.978,194.604,375.381,194.803,375.662z"/>
	<path style="fill:#FDFDFD;" d="M141.75,375.75c-0.5,0.25-1,0.5-1.5,0.75c0.246-2.009,1.821-1.358,3-1.5
		C142.927,375.604,142.368,375.735,141.75,375.75z"/>
	<path style="fill:#2A2A2A;" d="M397.521,379.495c-0.045-0.678-0.09-1.355-0.134-2.033c0.116-1.32,0.233-2.641,0.349-3.961
		C398.005,375.527,398.961,377.588,397.521,379.495z"/>
	<path style="fill:#FBFBFB;" d="M352.479,358.946c-0.007-2.161,0.269-4.276,2.086-5.712c1.966-1.554,3.959-1.256,5.621,0.52
		c2.118,2.262,2.033,8.327-0.142,10.401c-1.767,1.684-3.779,1.814-5.662,0.21C352.744,362.971,352.466,360.981,352.479,358.946z"/>
	<path style="fill:#2C2C2C;" d="M337.563,353.226c-0.884-1.036-2.891,0.343-3.368-1.568c1.582,0.071,3.164,0.141,4.79,0.214
		C339.042,352.901,338.043,352.799,337.563,353.226z"/>
	<path style="fill:#FDFDFD;" d="M322.446,359.991c-1.136-1.66-0.848-3.475-0.577-5.289
		C323.008,356.362,322.519,358.199,322.446,359.991z"/>
	<path style="fill:#383838;" d="M354.769,387.116c1.74-0.019,3.481-0.038,5.221-0.056
		C358.262,388.142,356.52,388.077,354.769,387.116z"/>
	<path style="fill:#2D2D2D;" d="M468.758,336.014c0.81,0.613,0.74,1.503,0.741,2.367c0.001,8.916,0.001,17.832,0,26.748
		c0,0.866,0.059,1.753-0.745,2.368C468.755,357.003,468.757,346.508,468.758,336.014z"/>
	<path style="fill:#272727;" d="M452.511,334.705c5.124-0.014,10.249-0.027,15.372-0.04c0.012,0.419,0.025,0.836,0.037,1.253
		c-4.93-0.125-9.86-0.239-14.788-0.408C452.916,335.503,452.718,334.985,452.511,334.705z"/>
	<path style="fill:#383838;" d="M394.451,370.522c-1.973,0.781-3.945,0.902-5.916-0.005c1.742-4.677,1.155-9.44,0.523-14.204
		c2.05,2.395,0.601,5.225,0.928,7.835c0.228,1.813,0.044,3.677,0.044,5.926c1.733-1.168,0.579-3.08,1.918-4.077
		C392.975,367.287,392.174,369.85,394.451,370.522z"/>
	<path style="fill:#383838;" d="M378.146,369.706c-1.561-3.958-1.278-7.946-0.188-11.946
		C378.021,361.741,378.083,365.724,378.146,369.706z"/>
	<path style="fill:#383838;" d="M373.548,353.257c1.922,2.511,1.003,5.003-0.052,7.494
		C373.199,358.251,373.186,355.752,373.548,353.257z"/>
	<path style="fill:#383838;" d="M373.483,341.997c1.253,2.747,1.215,5.497,0.024,8.251
		C373.161,347.499,373.202,344.748,373.483,341.997z"/>
	<path style="fill:#383838;" d="M382.491,353.303c1.995-1.234,3.843-1.604,5.197,0.893
		C386.104,353.037,384.278,353.283,382.491,353.303z"/>
	<path style="fill:#F3F3F3;" d="M542.261,358.055c1.618-4.647,5.189-6.67,8.616-4.907c1.342,0.69,2.21,1.715,2.061,3.247
		c-0.197,2.02-1.858,1.145-2.93,1.254c-2.577,0.262-5.204-0.357-7.76,0.407c0.123,0.485-0.057-0.192,0.074,0.291
		C542.347,358.445,542.327,358.348,542.261,358.055z"/>
	<path style="fill:#F3F3F3;" d="M529.464,356.912c-3.024,1.722-6.3,0.591-9.45,0.74c-1.806,0.086-1.002-1.233-0.535-2.063
		c2.266-4.027,7.07-3.966,9.924,0.109C529.976,356.076,529.918,356.484,529.464,356.912z"/>
	<path style="fill:#333333;" d="M529.464,356.912c-0.02-0.404-0.04-0.809-0.06-1.213c0.104-0.35,0.106-0.802,0.333-1.03
		c0.588-0.589,0.828-0.255,0.705,0.416c-0.773,4.229,1.724,4.023,4.612,3.534c0.413-0.07,3.392-1.267,1.196,1.382
		c-5.976,0.069-11.951,0.138-17.927,0.207c0.02-1.843,1.358-1.698,2.584-1.703c1.95-0.009,3.9,0.012,5.85-0.011
		C527.943,358.481,529.331,358.752,529.464,356.912z"/>
	<path style="fill:#343434;" d="M542.261,358.055c0,0-0.013,0-0.013,0c4.403,1.539,9.129-0.569,13.512,1.198
		c0.249,0.155,0.331,0.308,0.247,0.461c-0.084,0.152-0.167,0.228-0.252,0.228c-4.471,0.034-8.942,0.067-13.413,0.101
		C541.485,359.414,542.317,358.716,542.261,358.055z"/>
	<path style="fill:#3E3E3E;" d="M528.15,372.808c-2.334,1.083-4.665,1.045-6.993-0.021
		C523.488,372.793,525.819,372.801,528.15,372.808z"/>
	<path style="fill:#292929;" d="M555.754,359.942c-0.001-0.23,0.001-0.459,0.005-0.689c1.208-0.646,0.281-2.324,1.445-2.99
		C557.169,357.666,558.931,359.778,555.754,359.942z"/>
	<path style="fill:#FDFDFD;" d="M229.104,361.511c-0.731-7.589,3.954-9.865,9.219-8.119c3.29,1.091,4.983,5.138,4.451,10.152
		c-0.447,4.215-2.67,6.976-6.067,7.535c-3.561,0.586-7.276-2.347-7.589-6.046C229.025,363.921,229.104,362.795,229.104,361.511z"/>
	<path style="fill:#F8F8F8;" d="M192.679,368.818c-0.663,0.333-1.351,0.625-1.984,1.007c-1.732,1.044-3.41,1.052-4.642-0.629
		c-1.353-1.845-0.624-3.567,0.879-4.991c0.715-0.677,1.563-1.213,2.351-1.813c0.866,0.172,1.339-0.528,1.966-0.885
		c2.492-1.018,3.722-0.25,3.39,2.496c-0.139,1.154,0.417,2.425-0.521,3.458C193.639,367.913,193.159,368.365,192.679,368.818z"/>
	<path style="fill:#383838;" d="M194.119,367.46c0.036-1.096-0.034-2.208,0.129-3.285c0.381-2.508-0.676-3.267-2.999-2.669
		c3.489-1.757,4.34-1.326,3.945,2.325C195.066,365.018,195.609,366.605,194.119,367.46z"/>
	<path style="fill:#FDFDFD;" d="M564.009,359.998c0.322-4.802,3.16-7.649,7.37-7.392c4.013,0.245,6.628,3.304,6.512,7.928
		c-0.075,3.006,0.598,6.072-2.297,8.63c-2.493,2.202-4.766,2.363-7.525,1.21c-0.874-0.053-1.499-0.46-1.834-1.283
		c-0.87-1.715-2.331-3.191-2.163-5.327C563.347,362.52,563.476,361.263,564.009,359.998z"/>
	<ellipse style="fill:#2A2A2A;" cx="581.575" cy="350.703" rx="0.197" ry="22.646"/>
	<path style="fill:#373737;" d="M560.259,364.499c0.001-1.498,0.003-2.995,0.004-4.493
		C562.488,361.506,562.467,363.004,560.259,364.499z"/>
	<path style="fill:#383838;" d="M576.833,352.985c0.603,0.103,0.995-0.224,1.334-0.657c0.067,0.717,1.617,1.051,0.875,1.692
		C578.096,354.837,577.278,353.992,576.833,352.985z"/>
	<path style="fill:#373737;" d="M563.793,367.036c-0.023,0.995-0.596,0.797-1.009,0.752c-0.296-0.032-0.576-0.223-0.862-0.344
		c0.288-0.342,0.529-0.886,0.877-0.965C563.099,366.41,563.521,366.869,563.793,367.036z"/>
	<path style="fill:#373737;" d="M566.235,369.091c0.611,0.428,1.223,0.856,1.834,1.283c-0.874,0.402-1.863,0.87-2.593-0.009
		C564.961,369.745,566.121,369.619,566.235,369.091z"/>
	<path style="fill:#3C3C3C;" d="M578.884,372.413c-0.785-0.593-0.309-2.51-2.124-2.021c0.314-0.52,0.708-1.216,1.353-0.88
		C579.32,370.138,578.945,371.354,578.884,372.413z"/>
	<path style="fill:#373737;" d="M564.009,359.998c0.021,1.255,0.042,2.51,0.063,3.765
		C562.847,362.529,562.891,361.273,564.009,359.998z"/>
	<path style="fill:#424242;" d="M490.603,364.24c1.263,1.846,1.488-0.09,2.11-0.579c-0.028,0.921,0.277,2.126-1.143,2.177
		C490.645,365.87,490.568,364.997,490.603,364.24z"/>
	<path style="fill:#3A3A3A;" d="M512.164,353.238c-0.244,0.872-0.521,1.723-1.416,2.171
		C510.948,354.507,509.036,352.228,512.164,353.238z"/>
	<path style="fill:#FDFDFD;" d="M503.392,363.749c0.692-0.253,1.384-0.506,2.076-0.759c-0.2,0.691,0.433,1.798-0.732,1.978
		C504.105,365.066,503.447,364.593,503.392,363.749z"/>
	<path style="fill:#FDFDFD;" d="M269.629,361.899c0.069,5.451-2.96,9.182-7.546,9.292c-4.711,0.113-7.776-3.341-7.88-8.88
		c-0.11-5.869,2.711-9.531,7.468-9.696C266.4,352.451,269.556,356.133,269.629,361.899z"/>
	<path style="fill:#FDFDFD;" d="M300.751,354.772c5.948-3.283,8.682-2.917,12.652,1.694c1.006,3.285,1.465,6.579,0.192,9.911
		c-1.146,2.998-3.328,4.608-6.512,4.792c-3.36,0.194-5.949-1.253-7.177-4.337C298.285,362.762,298.345,358.643,300.751,354.772z"/>
	<path style="fill:#282828;" d="M279.653,357.258c0,3.079,0,6.157,0,9.236c-0.117,0.004-0.234,0.008-0.351,0.011
		c0-3.134,0-6.268,0-9.402C279.419,357.154,279.536,357.206,279.653,357.258z"/>
	<path style="fill:#2D2D2D;" d="M374.253,333.82c0.681-0.065,1.363-0.129,2.044-0.194c1.744,1.802,0.631,4.001,0.835,6.016
		c-0.575-0.3-0.614-0.844-0.639-1.395c-1.09-1.044-0.45-3.124-2.244-3.748C374.251,334.273,374.252,334.046,374.253,333.82z"/>
	<path style="fill:#2D2D2D;" d="M377.128,340.612c0.005,2.923,0.01,5.847,0.014,8.769c-1.297-1.843-0.342-3.931-0.646-5.882
		c-0.465-0.497-0.434-0.996-0.004-1.496C376.519,341.455,376.556,340.911,377.128,340.612z"/>
	<path style="fill:#383838;" d="M374.25,334.499c2.489,0.207,2.241,2.052,2.244,3.748
		C374.194,337.926,375.372,335.524,374.25,334.499z"/>
	<path style="fill:#383838;" d="M375.83,367.061c0,1.883,0,2.872,0,4.275C374.723,369.916,374.831,368.887,375.83,367.061z"/>
	<path style="fill:#383838;" d="M376.493,342.003c0.001,0.499,0.003,0.997,0.004,1.496c-0.503,0.086-1.215,0.714-1.386-0.258
		C374.947,342.305,375.723,342.078,376.493,342.003z"/>
	<path style="fill:#2C2C2C;" d="M472.445,336.821c0.015,10.225,0.031,20.45,0.046,30.675c-0.232-0.424-0.665-0.847-0.667-1.272
		c-0.043-9.374-0.047-18.748-0.015-28.122C471.81,337.675,472.223,337.249,472.445,336.821z"/>
	<path style="fill:#383838;" d="M393.84,359.994c-0.002,0.496-0.004,0.992-0.006,1.489c-1.107,0.543-1.166,2.191-2.559,2.433
		C390.547,360.449,390.738,360.158,393.84,359.994z"/>
</g>
</svg>
