<?xml version="1.0" standalone="no"?>
<!DOCTYPE svg PUBLIC "-//W3C//DTD SVG 20010904//EN"
 "http://www.w3.org/TR/2001/REC-SVG-20010904/DTD/svg10.dtd">
<svg version="1.0" xmlns="http://www.w3.org/2000/svg"
 width="960.000000pt" height="960.000000pt" viewBox="0 0 960.000000 960.000000"
 preserveAspectRatio="xMidYMid meet">
<metadata>
Created by potrace 1.15, written by Peter Selinger 2001-2017
</metadata>
<g transform="translate(0.000000,960.000000) scale(0.100000,-0.100000)"
fill="#3f3f3f" stroke="none">
<path d="M1978 5599 c-10 -5 -22 -26 -27 -47 -5 -20 -51 -304 -102 -630 -69
-438 -90 -598 -82 -610 8 -14 32 -17 145 -20 117 -2 138 0 156 15 18 15 26 47
51 201 20 131 33 188 46 202 16 18 31 20 149 20 147 0 237 16 319 54 147 70
241 218 266 420 17 140 -11 239 -88 309 -96 87 -150 97 -521 97 -179 -1 -302
-5 -312 -11z m496 -273 c50 -21 66 -51 66 -121 0 -43 -6 -73 -22 -105 -40 -78
-91 -99 -235 -100 -66 0 -83 3 -83 14 0 31 42 282 50 304 9 20 16 22 100 22
55 0 104 -6 124 -14z"/>
<path d="M5340 5590 c-11 -11 -20 -25 -20 -31 0 -10 -39 -261 -166 -1071 -22
-136 -24 -170 -14 -183 19 -22 282 -22 304 1 9 8 16 18 16 22 0 4 14 87 30
185 20 123 34 185 46 198 15 17 32 19 140 19 261 0 407 62 506 214 92 143 120
375 58 495 -24 48 -90 107 -145 131 -78 33 -153 40 -447 40 -275 0 -289 -1
-308 -20z m497 -261 c69 -26 93 -84 73 -174 -25 -114 -75 -147 -232 -153 -100
-4 -108 -3 -108 14 1 33 47 301 54 313 9 14 175 15 213 0z"/>
<path d="M7551 5597 c-11 -14 -32 -142 -141 -847 -33 -212 -62 -395 -65 -407
-10 -43 17 -53 140 -53 160 0 151 -13 192 246 150 945 165 1045 153 1059 -17
21 -262 22 -279 2z"/>
<path d="M3260 5189 c-95 -16 -195 -71 -270 -148 -247 -251 -201 -666 82 -752
131 -40 287 -15 396 63 l48 35 -4 -34 c-7 -57 6 -63 138 -63 129 0 146 3 160
30 14 26 132 776 128 813 l-3 32 -140 3 c-152 3 -165 -1 -165 -56 0 -24 -1
-24 -40 11 -63 58 -209 87 -330 66z m205 -250 c170 -47 157 -313 -20 -395
-102 -48 -235 -22 -279 55 -24 42 -26 140 -4 192 51 119 180 182 303 148z"/>
<path d="M6558 5167 c-174 -60 -300 -208 -344 -403 -30 -138 -3 -273 77 -373
114 -143 377 -161 549 -37 l49 35 -6 -36 c-9 -55 9 -63 149 -63 105 0 120 2
138 20 11 11 20 23 20 28 0 4 29 183 63 399 40 244 60 399 55 412 -7 21 -13
21 -150 19 l-142 -3 -11 -37 -10 -36 -37 33 c-50 46 -120 65 -237 65 -73 0
-112 -6 -163 -23z m306 -238 c118 -58 125 -244 14 -344 -54 -49 -97 -66 -172
-66 -124 -1 -190 61 -189 177 1 115 71 209 183 245 36 12 130 5 164 -12z"/>
<path d="M4059 5154 c-11 -14 6 -71 115 -394 l128 -378 -121 -172 c-81 -114
-121 -180 -119 -194 3 -20 8 -21 158 -21 l155 0 120 175 c66 96 241 349 388
562 147 212 267 393 267 400 0 32 -23 38 -160 38 -94 0 -141 -4 -152 -12 -8
-7 -84 -115 -168 -240 -85 -125 -155 -226 -156 -225 -2 2 -33 101 -69 222 -35
120 -72 226 -81 237 -15 16 -34 18 -154 18 -114 0 -140 -3 -151 -16z"/>
</g>
</svg>
