<?xml version="1.0" encoding="iso-8859-1"?>
<!-- Generator: Adobe Illustrator 22.0.1, SVG Export Plug-In . SVG Version: 6.00 Build 0)  -->
<svg version="1.1" id="Layer_1" xmlns="http://www.w3.org/2000/svg" xmlns:xlink="http://www.w3.org/1999/xlink" x="0px" y="0px"
	 width="720px" height="720px" viewBox="0 0 720 720" style="enable-background:new 0 0 720 720;" xml:space="preserve">
<g>
	<path style="fill:#FEFEFE;" d="M360.75,720.75c-118.875,0-237.75-0.012-356.625,0.07c-2.812,0.002-3.446-0.634-3.445-3.445
		c0.076-237.75,0.076-475.5,0-713.25C0.679,1.313,1.313,0.679,4.125,0.68c237.75,0.076,475.5,0.076,713.25,0
		c2.812-0.001,3.446,0.633,3.445,3.445c-0.076,237.75-0.076,475.5,0,713.25c0.001,2.812-0.633,3.447-3.445,3.445
		C598.5,720.738,479.625,720.75,360.75,720.75z"/>
	<path style="fill:#424242;" d="M152.067,333.806c-0.156,2.671,1.486,4.906,1.81,7.46c0.375,0.841,1.013,1.518,1.434,2.368
		c0.619-0.749,0.874-1.663,1.443-2.385c0.598-0.898-0.185-2.153,0.765-2.959c0.472-0.958-0.358-2.218,0.703-3.04
		c1.951-7.323,3.461-14.769,6.056-21.914c4.529-0.437,9.068-0.1,13.601-0.183c1.416,0.35,1.715,1.31,1.416,2.596
		c0.255,3.134,1.074,6.126,2.292,9.015c0.844,2.543,2.035,4.994,2.073,7.753c0.021,1.225-0.125,2.492,0.859,3.48
		c0.742,0.62,0.752,1.434,0.608,2.289c0.026,2.37,0.626,4.596,1.688,6.706c1.634,1.964,0.631-1.053,1.393-0.737
		c0.262-2.31,0.671-4.584,1.632-6.725c-0.414-1.985,0.022-3.752,1.354-5.289c1.039-5.281,2.066-10.565,3.833-15.667
		c0.841-0.841-0.355-2.274,0.874-3.002l-0.113,0.092c4.486-0.728,8.966-1.166,13.411,0.251c-0.62,0.135-0.731,0.54-0.579,1.086
		c1.017,2.635-0.695,4.924-0.925,7.403c-0.491,1.692-0.944,3.393-1.272,5.128c-3.349,12.988-6.78,25.953-10.095,38.949
		c-0.276,1.08-0.499,2.187-1.26,3.077c-4.519,2.303-9.22,1.372-13.903,0.793c-1.986-1.114-1.942-3.278-2.629-5.066
		c-2.173-9.329-4.77-18.556-7.06-27.602c-2.499,9.05-4.781,18.451-7.161,27.828c-1.177,4.635-1.929,5.273-6.687,5.233
		c-2.555-0.022-5.254,0.704-7.628-0.938c-0.714-0.086-1.427-0.173-2.141-0.259c-1.153-0.649-1.643-1.521-0.943-2.795
		c-0.647-2.526-0.521-5.284-2.239-7.491c-1.976-3.365-2.309-7.203-3.155-10.895c-0.432-1.884,0.207-3.859-0.484-5.723
		c0.105-0.243,0.066-0.461-0.115-0.654c-0.534-1.571-1.28-3.084-1.302-4.794c-0.802-3.146-1.604-6.293-2.406-9.439
		c-0.726-0.64-0.041-1.671-0.649-2.343l0.029,0.058c-0.709-0.885-0.718-1.947-0.76-3.001c-1.093-1.042-0.556-2.484-0.909-3.708
		c-0.686-0.635,0.046-1.676-0.66-2.305c-0.263-0.96-0.525-1.921-0.788-2.881c4.5-0.658,8.998-0.82,13.49,0.071l-0.09-0.068
		c1.099,0.745-0.035,2.143,0.862,2.947c0.405,3.077,1.133,6.073,2.245,8.973c0.379,0.969,1.005,1.876,0.763,3.003
		c0.288,1.254,0.575,2.509,0.863,3.763C151.884,332.742,152.101,333.237,152.067,333.806z"/>
	<path style="fill:#FEFEFE;" d="M521.171,365.032c1.096,3.006,0.767,4.918-3.103,5.256c-2.259,0.197-3.123,3.936-6.164,3.018
		c0.074,1.337-2.193,2.842,0.269,4.003c1.013,0.478,2.025,0.999,3.093,1.31c4.492,1.309,6.75,0.08,7.265-4.521
		c0.214-1.91,0.712-2.191,2.332-2.129c2.141,0.082,3.993,0.196,4.179-3.143c0.125-2.241,2.949-1.985,4.88-2.077
		c0.826,0.689,0.3,2.956,2.461,2.085c3.96,0.041,7.987-1.05,11.816,0.784c0.502,0.854,1.131,0.661,1.899,0.35
		c0.729-0.295,1.515-1.249,2.32-0.349c0.62,0.693,0.424,1.689,0.141,2.497c-0.381,1.087-1.286,1.584-2.381,1.148
		c-2.231-0.888-3.479-0.197-3.362,2.183c0.055,1.13-1.172,2.95,0.335,3.305c2.107,0.496,4.541,1.106,6.616-0.009
		c1.767-0.949,3.27-0.886,4.91-0.015c0.424,0.82-0.157,1.409-0.472,2.058c-2.024,4.164-1.234,6.343,3.08,8.204
		c3.694,1.593,7.815,1.647,11.552,3.098c3.624,1.407,4.47,3.263,3.207,6.905c-1.299,0.766-1.816-0.901-2.798-0.968
		c-0.746,1.36-0.243,3.001-1.22,4.243c-4.341,1.243-8.47,1.396-11.851-2.291c-0.413-0.735,0.167-1.44,0.082-2.167
		c-0.173-1.486-0.715,0.107-1.049-0.119c-0.502-0.1-0.868-0.421-1.255-0.714c-0.821-0.622-1.774-1.079-2.652-0.325
		c-0.963,0.827-0.034,1.796,0.097,2.7c-0.195,1.163,0.721,2.214,0.352,3.395c-2.647-0.789-5.323,1.059-7.933-0.333
		c-0.741,2.074,0.364,4.774-2.03,5.646c-0.851,0.31-3.184,0.779-3.537-1.563c0.317-0.507,1.23-0.388,1.25-1.208
		c0.185-0.964-0.129-1.984,0.365-2.894c0.142-0.279,0.328-0.533,0.541-0.762c0.771-0.57,1.055-1.393,1.167-2.307
		c0.535-1.373,1.531-2.422,2.446-3.526c0.938-0.593,0.5-1.359,0.247-2.103c-0.393-2.529-0.284-5.078-0.387-7.614
		c0.294-1.041,1.041-1.114,1.955-0.905c-0.561-0.522-1.157,0.008-1.719-0.076c-2.201-1.142-3.477-3.188-4.95-5.042
		c-0.255-1.025-0.613-1.823-1.811-0.827c-4-0.781-7.828-2.19-12.116-1.208c-10.141,2.322-14.266,10.553-9.698,19.847
		c0.624,1.269,1.955,2.413,1.047,4.095c-2.792,0.329-5.12,3.165-8.275,1.532c-2.439-1.281-3.924-3.339-4.803-5.893
		c2.723-2.113,0.31-4.217-0.018-6.325c0.027-0.121,0.028-0.262,0.093-0.361c4.179-6.303,3.971-7.735-1.812-12.379
		c-1.48-1.533-3.174-0.894-4.848-0.471c-3.108,0.437-6.232,0.15-9.346,0.253c-1.466,0.049-3.042-0.265-4.17,1.08
		c-0.894,5.795-0.175,11.616-0.395,17.415c-0.061,1.609,0.187,3.252-0.155,4.823c-0.583,2.681,0.956,2.576,2.745,2.279
		c0.194-0.025,0.385-0.043,0.579-0.067c0.409-0.006,0.763,0.128,1.066,0.398c1.737,1.394,0.82,2.89,0.037,4.244
		c-0.887,1.534-2.324,1.043-3.651,0.661c-0.236-0.068-0.524-0.354-0.668-0.286c-5.086,2.384-10.01-1.254-15.117-0.368
		c-3.103,0.538-6.462,1.034-9.342-1.15c-2.013-1.527-4.335-0.587-6.505-0.853c-0.634,1.232-2.077,0.845-3,1.5
		c-1.121,0.621-0.56-0.44-0.75-0.75c-0.317-1.165,0.612-1.837,1.068-2.698c1.333-1.447,3.15-1.248,4.825-1.297
		c4.18-0.124,8.363-0.103,12.538-0.012c1.707-0.052,3.671,1.029,4.906-1.122c1.479-1.856,2.263-4.093,3.388-6.143
		c0.392-0.329,0.839-0.376,1.318-0.247c-0.369-0.154-0.779-0.176-1.137-0.366c-0.529-0.281-0.941-0.703-1.369-1.11
		c-0.617-0.602-1.206-1.23-1.838-1.819c-2.962-2.757-2.928-2.938,0.805-5.059c1.452-0.096,1.777,1.021,2.34,2.019
		c-0.87-2.098-0.162-4.551-1.67-6.485c-1.479-1.549-3.33-2.726-4.547-4.53c-1.462-1.997-3.128-0.145-4.696-0.232
		c-4.687,0.552-9.409-0.19-14.068,0.491c-1.208,0.563-0.889,1.654-0.877,2.612c0.092,7.471-0.002,14.942,0.019,22.413
		c0.039,0.402-0.015,0.791-0.156,1.168c-0.598,0.779-1.109,1.778-2.347,0.915c-1.225-7.707-0.437-15.482-0.837-23.21
		c-0.161-3.117,2.235-5.891,0.837-9.04c0.074-0.158,0.148-0.316,0.22-0.475c2.933-0.918,5.985-1.299,8.993-1.837
		c1.424-0.255,2.653-0.498,3.421-1.825c0.245-0.282,0.499-0.547,0.744-0.822c-0.283-15.049-0.078-30.087-0.178-45.123
		c-0.024-3.606,0.542-7.128,1.049-10.668c0.886-0.967,1.862-1.065,2.795-0.14c1.269,1.259-0.097,2.137-0.545,3.141
		c0.767,0.578-0.132,1.711,0.75,2.25c3.738,1.552,2.165,4.865,2.139,7.384c-0.036,3.46,0.925,5.191,4.594,4.616
		c0.632,1.225,0.098,2.404-0.133,3.597c-0.103,0.356-0.194,0.731-0.401,1.032c-1.133,1.639-1.184,2.144-0.274,3.424
		c0.291,3.818-0.104,7.683,0.815,11.453c0.537,0.972-1.291,2.249,0.409,3.079c1.475,3.211,3.362,6.179,5.252,9.145
		c0.125,0.858,0.484,1.539,1.383,1.81c1.432,1.062,2.957,1.987,4.442,2.976c0.901,0.881,1.299,2.461,3.04,2.155
		c0.335,0.005,0.656,0.076,0.964,0.206c1.241,0.92,2.657,1.1,4.15,0.967c0.35,0.023,0.69,0.082,1.03,0.159
		c1.232,0.367,2.494,0.268,3.753,0.249c6.784,0.104,13.3-0.903,19.215-4.503C519.222,365.234,520.115,364.786,521.171,365.032z"/>
	<path style="fill:#FEFEFE;" d="M194.897,368.702c3.206-13.987,6.95-27.836,10.741-41.673c2.21-1.044,0.875-3.091,1.311-4.637
		c-0.136-2.621,1.001-4.953,1.671-7.392c2.391,0.387,3.453,1.257,1.507,3.563c-1.166,1.382-0.607,2.785,0.46,3.999
		c0.494,0.562,3.794,5.453,3.915,5.938c0.721,1.477,0.15,2.939-0.067,4.399c-0.661,4.435-1.018,8.794-0.594,13.367
		c1.551,16.724,18.153,26.644,33.859,23.359c2.855-0.597,5.546-2.387,8.664-1.431c1.691,1.795,2.052,5.232,6.089,4.23
		c0.649-0.161,3.794,3.378,2.742,5.515c-1.688,3.43-1.039,6.819-1.157,10.227c-0.156,4.49-0.046,8.99-0.031,13.486
		c0.003,0.868-0.221,2.272,0.195,2.517c2.488,1.461,0.861,2.937,0.18,4.374c-0.27,0.569-0.896,0.933-1.576,0.606
		c-1.775-0.854-1.907-2.458-1.805-4.149c-0.323-1.188-1.915-1.216-2.223-2.429c-0.669-6.594-0.09-13.204-0.346-19.798
		c-0.05-1.297,0.712-3.677-1.272-3.532c-1.59,0.116-1.174,2.499-0.929,3.898c0.651,3.717,0.582,7.45,0.518,11.186
		c-0.025,1.457,0.279,3.338-1.334,3.992c-1.764,0.716-2.579-1.108-3.465-2.214c-3.817-4.767-7.854-9.351-11.628-14.154
		c-1.377-1.753-2.773-3.623-5.404-3.422c-1.372,0.928-0.586,2.296-0.648,3.442c-0.374,6.953,0.682,13.95-0.662,20.877
		c-0.187,0.962,0.31,1.676,1.145,2.154c0.861,0.654,1.721,1.307,2.587,1.965c-0.889,1.625-2.11,1.971-3.788,1.565
		c-1.391-0.336-2.499-2.286-4.351,0.567c-1.072,1.651-3.961-1.016-4.948-3.346c-0.45-0.793-0.295-1.674-0.379-2.522
		c-0.066-8.008,0.163-16.028-0.608-24.044c-2.155,1.352-1.533,3.305-1.628,5.02c-0.25,4.56-0.958,5.303-5.674,5.405
		c-2.746,0.06-5.494,0.059-8.24,0c-4.704-0.101-5.359-0.802-5.601-5.45c-0.112-2.152,0.619-4.625-1.919-6.011
		c-0.325-0.201-0.61-0.459-0.855-0.751c-0.932-0.878,1.331-2.144-0.255-2.821c-1.015-0.433-1.354,1.2-1.941,1.244
		c-4.494,0.337-3.47,4.79-5.398,7.001c-0.503,0.245-1.025,0.29-1.563,0.161c-0.328-0.129-0.597-0.337-0.797-0.629
		c0.112-2.322-1.733-2.106-3.171-2.428c-0.321-0.191-0.568-0.447-0.754-0.769c-1.46-5.786-0.612-7.107,5.071-7.306
		C192.849,371.771,194.345,371.003,194.897,368.702z"/>
	<path style="fill:#424242;" d="M312,311.892c3.469,1.051,6.938,2.102,10.407,3.154c0.443,0.375,1.278,0.07,1.484,0.857
		l-0.013-0.012c3.424,0.612,5.128,3.502,7.432,5.601c1.64,2.689,4.171,4.964,3.987,8.508c0.386,2.034,0.772,4.069,1.159,6.103
		c0.66,0.261,0.952,0.809,1.132,1.446c0.31,2.062,0.139,4.138,0.159,6.207c-0.864,8.733-3.996,16.329-11.021,21.983
		c-1.934,1.556-3.783,3.248-6.506,3.162c-0.93-0.15-1.531,0.491-2.219,0.922c-4.358,3.072-9.292,2.614-14.19,2.267
		c-1.341-0.095-2.662-0.441-3.975-0.748c-1.529-0.479-3.1-0.823-4.644-1.257c-1.526-0.355-3.124-0.566-4.133-1.993
		c-0.179-0.485-0.358-0.971-0.537-1.456c-0.803-0.093-1.451-0.421-1.802-1.196c-0.179-0.158-0.387-0.234-0.626-0.23
		c-2.329-0.694-4.055-1.988-4.515-4.541l0.034,0.028c-1.787-1.6-2.556-3.88-3.883-5.791c-1.221-1.572-1.286-3.46-1.458-5.319
		c-0.286-1.304-0.481-2.627-0.829-3.92c-0.141-0.783-0.199-1.573-0.21-2.368c0.01-1.416,0.023-2.83-0.034-4.246
		c0.366-5.547,0.376-11.227,5.475-15.053c3.088-5.382,8.042-8.375,13.586-10.612c1.384-0.882,2.713-1.969,4.532-1.186
		c0.488-0.081,0.975-0.161,1.463-0.242C305.502,311.502,308.746,310.918,312,311.892z"/>
	<path style="fill:#424242;" d="M256.364,368.194c-6.139,2.067-12.337,3.779-18.921,2.818
		c-16.228-2.367-26.341-15.184-24.919-31.656c0.317-3.669,0.841-7.325,1.978-10.856c0.999-1.791,1.998-3.583,2.997-5.374
		c1.871-4.072,4.968-6.729,9.252-8.017c0.224,0.071,0.385-0.001,0.482-0.215c0.662-1.289,2.233-1.311,3.143-2.261
		c1.99-1.046,4.135-1.483,6.354-1.647c2.971-0.024,5.94-0.032,8.909-0.01c2.292,0.357,4.79,0.179,6.375,2.407
		c1.021,0.152,1.784,1.149,2.929,0.893c0.893,0.432,1.975,0.176,2.826,0.77c0.309,0.131,0.603,0.291,0.893,0.459
		c2.226,1.269,3.841,3.231,5.657,4.967c0.585,0.597,1.151,1.212,1.639,1.894c0.795,1.256,1.645,2.48,2.327,3.807
		c0.67,1.023,0.667,2.215,0.848,3.361c0.564,2.405,1.129,4.81,1.693,7.215c1.723,2.691,0.693,5.675,0.915,8.526
		c-0.069,1.592-0.656,2.986-1.64,4.225c-0.016,2.517-2.275,4.252-2.352,6.748c-0.435,0.398-0.179,1.22-0.889,1.449
		c-1.528,1.991-3.056,3.982-4.585,5.973c-0.209,1.684-1.749,1.719-2.849,2.298C258.238,366.478,256.935,366.832,256.364,368.194z"/>
	<path style="fill:#424242;" d="M436.273,341.166c-0.697,0.47-1.393,0.939-2.09,1.409c-0.974,1.861-4.715,1.591-3.786,4.917
		c-0.065,0.232,0.014,0.395,0.237,0.487c3.253,3.519,5.836,7.441,7.243,12.068c0.109,0.234,0.218,0.468,0.327,0.702
		c2.443,2.694,5.523,5.059,4.824,9.374c-0.874,0.546-1.859,0.585-2.843,0.637c-1.616,0.027-3.264-0.219-4.843,0.034
		c-5.813,0.932-9.302-1.75-11.846-6.748c-2.194-4.311-4.91-8.358-7.418-12.508c-2.638-4.365-4.423-4.968-9.551-3.257
		c-1.059,5.328-0.201,10.693-0.483,16.023c-0.098,1.843,0.332,3.763-0.763,5.472c-3.277,1.757-6.671,1.264-10.078,0.521
		c-1.135-1.403-4.162,0.532-4.382-2.485c0.66-2.191,0.286-4.436,0.294-6.651c0.044-12.656,0.029-25.312,0.01-37.969
		c-0.002-1.351,0.247-2.734-0.31-4.047c0.801-1.755,0.446-3.511,0.005-5.267c0.217-0.265,0.23-0.697,0.752-0.695
		c10.721,0.055,21.445-0.354,32.163,0.225c2.009,0.489,4.019,0.979,6.028,1.468c0.453-0.246,0.929-0.378,1.449-0.307
		c1.573,0.57,3.044,1.35,4.487,2.194c0.413,0.34,0.68,0.751,0.637,1.312c0.733,0.752,1.465,1.504,2.198,2.256
		c3.649,1.866,2.387,5.548,3.138,8.485c-0.02,0.383-0.04,0.765-0.061,1.148c0.369,1.351,0.492,2.663-0.587,3.79
		c-0.204,0.114-0.25,0.273-0.138,0.478c-0.204,1.215-0.143,2.555-1.527,3.208c-0.691,0.238-0.72,0.902-0.931,1.449
		C438.523,340.418,437.304,340.703,436.273,341.166z"/>
	<path style="fill:#424242;" d="M548.199,369.619c-4.468,0.008-8.935,0.016-13.403,0.024c-0.597-0.615-0.421-1.373-0.426-2.117
		c-0.115-16.965,0.332-33.934-0.242-50.896c-0.092-2.723,0.83-3.83,3.67-3.545c2.471,0.248,5.004,0.239,7.477,0.005
		c3.222-0.305,3.782,1.29,3.57,4c-0.4,5.101-0.179,10.212-0.133,15.323c0.017,1.931,0.571,2.227,2.237,2.32
		c5.985,0.336,11.97,0.039,17.953,0.152c0.624,0.012,1.248-0.006,1.834,0.263c0.505-0.003,1.01-0.006,1.515-0.009
		c0.703-6.186,0.439-12.399,0.284-18.591c-0.066-2.616,0.499-3.647,3.207-3.452c2.602,0.188,5.242,0.203,7.842-0.005
		c2.623-0.209,3.37,0.712,3.342,3.332c-0.132,12.207-0.076,24.416-0.05,36.624c0.01,4.607-0.12,9.216,0.079,13.823
		c0.042,0.973,0.204,2.013-0.545,2.854c-3.374-0.03-6.757-0.229-10.118-0.035c-2.544,0.147-3.492-0.487-3.389-3.235
		c0.22-5.867-0.031-11.75,0.116-17.621c0.057-2.245-0.511-3.056-2.881-2.998c-6.371,0.156-12.75,0.136-19.122,0.015
		c-2.155-0.041-2.752,0.656-2.727,2.777C548.369,355.623,548.244,362.622,548.199,369.619z"/>
	<path style="fill:#424242;" d="M485.996,366.975c-1.842-0.629-3.418-1.637-4.601-3.21c-0.758-0.307-1.151-0.902-1.326-1.671
		c-2.5-2.796-4.503-5.868-5.332-9.592c-0.755-0.641-0.056-1.704-0.69-2.38c-1.292-4.143-0.553-8.409-0.767-12.617
		c-0.126-1.302,0.432-2.49,0.625-3.739c0.276-1.255,0.552-2.51,0.828-3.765c0.289-0.673,0.579-1.346,0.868-2.018
		c0.152-0.963,0.33-1.912,1.257-2.483c0.204-0.144,0.278-0.337,0.222-0.58c0.103-1.418,0.749-2.491,2.013-3.172
		c1.796-1.789,3.592-3.578,5.387-5.366c0.853-1.472,2.362-1.747,3.828-2.103c2.574-1.33,5.431-1.694,8.191-2.388
		c3.248,0.005,6.502-1.633,9.743,0.042c5.765,1.407,11.326,3.23,15.633,7.625c2.378,0.513,2.464,2.665,3.142,4.393
		c1.487,2.354,1.05,4.067-1.665,5.035c-0.232,0.083-0.438,0.238-0.654,0.364c-2.264,1.322-4.485,3.597-6.804,3.702
		c-2.369,0.107-2.739-3.546-4.334-5.324c-6.452-7.192-17.914-5.533-21.63,3.425c-2.577,6.212-2.605,12.697-0.475,19.07
		c1.682,5.034,5.245,8.143,10.569,8.912c5.872,0.848,10.783-1.205,13.93-6.118c2.024-3.16,3.609-2.888,5.932-0.784
		c0.734,0.665,1.631,1.149,2.453,1.717c5.38,3.718,5.38,3.719,1.062,8.584c-0.741,0.835-1.487,1.666-2.23,2.499
		c-6.531,5.087-14.148,6.255-22.123,6.136c-1.274-0.677-2.785,0.123-4.044-0.647l-0.241-0.172l-0.287,0.073
		c-1.588-0.43-3.353-0.285-4.712-1.455l0.018,0.007C488.153,369.003,486.915,368.292,485.996,366.975z"/>
	<path style="fill:#FEFEFE;" d="M320.219,368.899c10.116-5.131,15.367-13.54,16.612-24.649c0.645-2.252,0.424-4.498-0.042-6.743
		c-0.111-0.468-0.222-0.937-0.333-1.405c2.724-0.56,4.962,0.466,6.998,2.147c1.401,1.277,1.064,2.991,1.072,4.573
		c0.036,7.247,0.023,14.494,0.018,21.741c-0.001,1.303-0.502,2.825,1.147,3.629c6.445,0.822,12.902,0.208,19.344,0.347
		c4.839,0.104,9.682-0.007,14.523,0.038c1.479,0.014,3.001-0.085,4.298,0.871c1.419,2.984-0.72,5.312-1.459,7.898
		c-2.67,1.346-3.357,3.55-3.332,6.444c0.045,5.161-0.709,5.772-5.874,5.831c-3.119,0.035-6.24,0.053-9.36-0.047
		c-2.752-0.088-4.024-1.493-4.175-4.212c-0.113-2.038,0.357-4.201-0.93-6.396c-1.645,1.219-1.301,2.779-1.317,4.135
		c-0.061,5.117-0.003,10.234-0.036,15.352c-0.011,1.612,0.134,3.261-0.72,4.754c-0.303,0.422-0.688,0.518-1.154,0.293
		c-1.386-1.036-2.463-2.624-4.675-1.875c-1.566,0.53-1.506-1.192-2.109-1.976c-0.308-1.681,1.117-2.642,1.633-3.973
		c-1.162-1.601-2.72-2.022-4.576-1.591c-3.136,0.797-0.436,2.4-0.501,3.62c-0.114,1.024-0.782,1.586-1.643,1.99
		c-3.627,0.203-6.82,2.412-10.518,2.303c-0.351-0.067-0.689-0.18-1.012-0.33c-1.385-1.025-2.598-2.013-2.352-4.132
		c0.18-1.548-0.976-2.663-2.402-3.311c-1.099-0.5-2.322-0.799-2.99-1.958c-0.283-0.698-0.297-1.386,0.072-2.06
		c0.09-0.081,0.168-0.206,0.274-0.236c1.399-0.391,2.78,2.235,4.14,0.108c1.018-1.593-0.348-2.724-1.085-3.925
		c-0.868-1.415-0.698-2.775,0.1-4.137c0.65-0.941,1.425-1.647,2.692-1.405c1.066,0.865,2.074,1.05,3.268,0.081
		c1.526-1.239,3.347-1.512,5.269-1.124c0.87,0.227,1.676,0.568,2.263,1.29c0.412,1.343-1.275,1.253-1.549,2.363
		c1.982-0.001,3.818,0.573,5.68,1.026c0.468,0.162,0.876,0.427,1.234,0.753c0.439,0.573,0.901,0.93,1.473,0.112
		c0.408-0.226,0.845-0.333,1.302-0.379c-0.125-0.396,2.044,0.726,0.422-0.647c-0.261-0.221-0.506-0.458-0.753-0.699
		c-5.537-6.111-12.309-6.891-19.809-4.651c-1.246,0.372-2.399,1.491-3.85,0.604c-0.674-0.886-0.31-1.92-0.374-2.883
		c-0.088-1.323-0.871-3.243-1.502-3.172C319.77,373.72,320.431,371.043,320.219,368.899z"/>
	<path style="fill:#424242;" d="M383.857,369.448c-13.156,0.087-26.312,0.175-39.468,0.262c-0.703-0.703-0.557-1.593-0.556-2.46
		c0.018-17.076,0.235-34.152-0.119-51.227c-0.018-0.883,0.1-1.736,0.522-2.528l0.01-0.009c3.946-0.755,7.931-0.184,11.895-0.338
		c2.715-0.105,2.081,2.028,2.055,3.449c-0.209,11.464-0.023,22.929-0.076,34.392c-0.033,7.146-0.006,7.16,6.98,7.142
		c5.233-0.013,10.467,0.053,15.701-0.032c1.064-0.017,2.254-0.384,3.135,0.626C383.91,362.3,383.883,365.874,383.857,369.448z"/>
	<path style="fill:#FEFEFE;" d="M194.897,368.702c0.351,2.965-0.241,4.608-3.945,4.144c-4.879-0.612-5.082-0.111-4.951,6.604
		c-2.236,0.686-4.066-0.742-6.044-1.259c-5.005-1.308-9.548-0.183-13.98,2.085c-2.589,1.325-3.677,3.947-5.37,6.036
		c-1.668,0.477-0.704,1.818-0.89,2.781c-0.031,0.339-0.105,0.672-0.2,0.998c-1.102,2.432,0.053,4.403,1.311,6.35
		c0.352,0.573,0.628,1.176,0.7,1.853c0.089,0.935-1.759,0.968-1.028,2.206c-2-0.621-4,3.2-6,0c-1.587-0.775-2.252-1.761-2.012-3.782
		c0.588-4.958,0.195-9.972,0.219-14.963c0.005-1.122,0.026-2.283-1.105-2.992c-1.119-0.689-2.622-0.398-3.612-1.404
		c-1.836,0.045-2.608-0.787-2.515-2.676c0.078-1.58,0.734-1.501,2.076-1.501c1.937,0,2.485-1.619,2.448-3.377
		c3.114-0.055,6.235-0.251,9.341-0.115c2.158,0.095,2.99-0.643,3.513-2.766c2.65-10.751,5.5-21.453,9.038-32.308
		c2.476,10.142,4.953,20.284,7.429,30.426c0.764,1.437-0.443,3.517,1.489,4.574c3.566,0.007,7.132-0.003,10.697,0.032
		C192.744,369.66,193.957,369.702,194.897,368.702z"/>
	<path style="fill:#FEFEFE;" d="M291.059,368.091c1.48,0.355,2.96,0.711,4.44,1.066c0.901,1.476,2.532,0.866,3.789,1.324
		c6.287,1.197,12.52,0.837,18.712-0.66c-0.255,3.332,1.241,6.956-1.769,9.829c-0.777,0.742-0.47,1.892-0.473,2.871
		c-0.017,5.105-0.014,10.21-0.006,15.315c0.004,2.699-0.459,5.491,2.018,7.592c0.622,0.528,0.889,1.516,0.269,2.394
		c-1.68-1.47-2.826,0.927-4.676,0.557c-2.919-0.584-6.122-1.151-9.095,0.079c-1.675,0.694-2.544-0.241-3.519-1.21
		c-0.454-1.19,0.666-2.15,0.468-3.303c-0.266-3.422-3.159-5.187-4.903-7.65c-2.42-3.419-2.471-3.744,1.273-5.606
		c2.314-1.151,3.769-2.858,3.631-5.518c-0.147-2.825-1.457-4.959-4.221-5.981c-1.274-0.471-2.637-0.69-3.849-1.35
		c-1.921-0.855-3.225-2.231-3.65-4.343C289.656,371.592,291.299,370.113,291.059,368.091z"/>
	<path style="fill:#FEFEFE;" d="M405.758,346.553c5.785-1.319,9.721,0.335,12.321,6.139c2.265,5.056,5.778,9.541,8.505,14.41
		c1.143,2.04,2.507,2.703,4.748,2.593c2.967-0.145,5.951,0.051,8.927,0.101c0.791,0.69,2.733,0.21,2.241,2.204
		c-3.526,1.03-6.998,2.04-10.759,0.808c-3.233-1.059-6.509,0.44-9.805,0.311c-2.229-0.087-0.374,2.748-1.937,3.38
		c-1.419-2.996-3.642-2.982-6.433-2.025c-3.001,1.029-6.15,1.459-9.317,0.525c-0.25-0.75-0.5-1.5-0.75-2.25
		c1.22-0.924,1.801-2.2,2.019-3.682C405.478,361.557,404.993,354.048,405.758,346.553z"/>
	<path style="fill:#434343;" d="M415.447,404.812c-0.915,0.032-1.83,0.064-2.745,0.096c-1.134-0.363-2.211,0.243-3.327,0.203
		c-4.142-0.961-6.043-2.968-6.588-6.944c-0.29-1.464,0.194-2.77,0.823-4.047c0.364-1.298,0.924-2.603,1.911-3.429
		c1.963-1.645,1.21-2.788-0.382-3.967c-0.555-1.093-1.428-2.097-0.99-3.472c0.321-0.638,0.643-1.276,0.964-1.915
		c0.321-1.252,0.947-2.317,1.924-3.175c0.423-0.378,0.893-0.68,1.41-0.914c2.353-1.032,4.833-1.049,7.332-0.935
		c0.566,0.031,1.121,0.135,1.661,0.308c0.748,0.204,1.243,0.777,1.811,1.245c0.44,0.317,0.88,0.634,1.32,0.952
		c3.4,2.854,3.287,6.051-0.28,9.254c-0.643,0.577-2.271,0.839-1.386,2.112c0.894,1.287,2.053,2.616,3.652,3
		c0.94,0.226,0.817-0.946,1.017-1.623c0.391-1.317-0.839-3.383,1.677-3.746c0.245-0.001,0.49-0.002,0.735-0.003
		c2.856-1.113,3.632,0.457,3.743,2.89c-0.188,2.36-1.774,4.413-1.531,6.869c0.477,0.799,1.338,1.365,1.461,2.378
		c1.107,1.63,2.855,2.49,4.365,3.635c-0.804,2.3-2.724,1.445-4.31,1.536c-2.509-0.163-4.035-3.272-6.921-2.306
		c-1.318,0.646-2.558,1.457-3.985,1.867c-0.308,0.113-0.625,0.193-0.947,0.254C417.049,405.084,416.241,405.076,415.447,404.812z"/>
	<path style="fill:#434343;" d="M520.585,401.968c-0.135-0.463-0.153-1.011-0.421-1.375c-3.975-5.388-5.106-11.227-1.533-17.06
		c3.596-5.871,9.647-7.042,16.052-6.738c2.631,0.125,5.097,1.087,7.574,1.917c0.536,0.225,1.091,0.421,1.453,0.92
		c1.49,1.716,2.979,3.432,4.469,5.148c0.281,0.086,0.409,0.221,0.385,0.405c-0.028,0.209-0.078,0.314-0.152,0.314
		c0.919,2.948,0.744,5.955,0.493,8.967c0.106,0.615-0.171,1.093-0.55,1.535c0.017,1.753-2.04,2.223-2.339,3.781
		c-0.399,0.822-0.754,1.678-1.619,2.149l0.037-0.032c-1.223,1.848-2.895,2.877-5.156,2.83c-1.3-0.587-2.496,0.569-3.782,0.23
		c-2.961-0.5-6.055,0.62-8.947-0.732c-1.019-0.454-2.51,0.177-3.07-1.334C522.513,402.585,521.549,402.277,520.585,401.968z"/>
	<path style="fill:#434343;" d="M159.76,386.254c5.121-9.69,14.369-12.088,26.241-6.804c0.085,0.191,0.223,0.245,0.415,0.163
		c1.702,0.344,2.727,1.407,3.219,3.034l-0.037-0.036c1.236,0.738,1.864,1.929,2.397,3.197c1.289,3.284,1.321,6.571,0.024,9.861
		c-0.972,1.848-1.497,4.063-3.864,4.786c-1.472,1.045-2.943,2.09-4.415,3.135c-1.511,1.614-3.677,0.611-5.406,1.354
		c-2.075-0.013-4.151-0.025-6.226-0.038c-1.431-0.6-3.079,0.37-4.46-0.605c-0.313-0.128-0.612-0.284-0.907-0.447
		c-2.27-1.364-4.776-2.492-5.543-5.399c-0.271-0.574-0.543-1.147-0.814-1.721c-1.023-2.137-2.053-4.272-1.297-6.751l0.144-0.214
		l-0.147-0.212C159.712,388.539,158.942,387.234,159.76,386.254z"/>
	<path style="fill:#444444;" d="M234.196,377.323c2.786-0.44,4.555,0.855,6.241,3.024c4.59,5.902,9.42,11.616,14.161,17.4
		c0.071,0.087,0.221,0.109,0.715,0.338c0-5.26-0.207-10.369,0.114-15.446c0.11-1.737-2.056-5.148,1.9-5.156
		c3.96-0.008,1.736,3.411,1.82,5.072c0.353,6.965,0.238,13.954,0.294,20.934c-1.232,1.859-2.681,2.101-4.367,0.589
		c-0.835-0.933-1.671-1.865-2.506-2.798c-0.633-0.35-1.164-0.775-1.176-1.586c-0.4-1.147-1.46-1.619-2.335-2.281l0.021,0.02
		c-2.27-3.881-5.79-6.764-8.325-10.433c-0.523-0.662-0.878-1.82-1.846-1.604c-1.424,0.319-0.656,1.674-0.681,2.518
		c-0.136,4.598-0.081,9.202-0.16,13.801c-0.015,0.884,0.852,2.393-1.056,2.614c-0.753-0.002-1.507-0.004-2.26-0.006
		c-1.019-0.047-1.17-0.799-1.157-1.558c0.134-8.172-0.036-16.345,0.072-24.517C233.67,377.808,233.981,377.609,234.196,377.323z"/>
	<path style="fill:#434343;" d="M293.252,377.263c1.21,0.282,2.461,0.448,3.621,0.867c3.202,1.157,5.24,3.331,5.338,6.885
		c0.094,3.406-1.631,5.625-4.778,6.793c-0.774,0.287-1.56,0.539-2.64,0.91c2.493,3.179,4.862,6.2,7.231,9.219
		c0.781,0.995,1.893,2.061-0.521,2.344c-2.103,1.243-3.568,0.81-4.269-1.626c-0.155-0.217-0.31-0.433-0.465-0.65
		c-0.753-0.673-1.745-1.13-2.024-2.234c-0.314-0.506-0.629-1.012-0.943-1.518c-1.646-1.059-3.182-2.21-3.586-4.304
		c-2.616-1.528-5.416-1.146-8.214-0.792c-1.012,3.643,0.268,7.446-0.777,11.087l0.014-0.01c-1.244,1.149-2.488,0.964-3.731-0.001
		l0.016,0.011c-0.583-8.995-0.765-17.988,0.097-26.977l-0.067,0.076C282.775,375.126,288.012,375.79,293.252,377.263z"/>
	<path style="fill:#444444;" d="M199.5,377.215c2.801-0.259,3.793,0.785,3.708,3.793c-0.219,7.724-0.051,7.729,7.669,7.729
		c0.125,0,0.25,0.007,0.374-0.001c2.963-0.179,6.709,1.217,8.678-0.546c1.847-1.654,0.502-5.422,0.578-8.256
		c0.041-1.536,0.083-2.588,2.113-2.634c2.19-0.05,2.366,1.035,2.352,2.769c-0.065,7.988-0.038,15.978-0.044,23.966
		c-1.183,1.338-2.723,0.936-4.197,0.867c-1.284-0.449-1.355-1.495-1.288-2.608c-0.088-2.571,0.386-5.168-0.331-7.704
		c-3.096-2.574-6.736-0.861-10.099-1.253c-2.109-0.246-4.309-0.182-5.727,1.913c-0.048,2.91-0.096,5.819-0.145,8.729
		c-0.843,1.219-2.042,1.251-3.328,1.001c-1.777-0.57-2.047-2.053-2.068-3.596c-0.096-6.987-0.105-13.976,0.015-20.963
		C197.781,379.162,197.535,377.524,199.5,377.215z"/>
	<path style="fill:#434343;" d="M507.862,397.464c1.483,2.012,2.965,4.024,4.448,6.036c-0.137,0.172-0.177,0.365-0.118,0.577
		c-0.486,0.729-1.28,0.853-2.042,1.043c-1.182,0.091-2.322-0.016-3.318-0.749c-1.289-1.715-2.892-3.24-3.41-5.443
		c-0.189-0.265-0.378-0.53-0.566-0.794c-1.045-0.294-1.466-1.16-1.871-2.04c-1.888-4.311-5.612-3.157-8.994-3.022
		c-1.622,0.795-0.997,2.302-1.126,3.568c-0.257,2.519,0.521,5.096-0.422,7.577l0.037-0.031c-4.059,0.816-4.02,0.812-4.103-3.016
		c-0.162-7.574,0.408-15.158-0.303-22.725c0.647-1.594,2.052-1.023,3.185-1.048c4.163-0.094,8.328-0.112,12.493-0.158
		c1.63-0.577,3.057,0.104,4.492,0.727c6.392,4.115,6.923,8.743,1.555,13.556C504.288,393.539,507.812,395.483,507.862,397.464z"/>
	<path style="fill:#444444;" d="M356.198,403.5c0.045-7.74,0.099-15.479,0.126-23.219c0.005-1.527-0.259-2.951,2.135-2.979
		c2.25-0.027,2.256,1.123,2.323,2.793c0.114,2.825-1.351,6.678,0.654,8.19c1.853,1.397,5.515,0.436,8.38,0.444
		c8.229,0.022,8.459,0.002,8.263-8.258c-0.092-3.875,2.233-3.001,4.318-3.125c0,0-0.032-0.028-0.032-0.028
		c0.61,0.669,1.018,1.492,1.024,2.354c0.064,8.065,0.704,16.14-0.351,24.19c-0.977,1.441-2.39,1.372-3.858,1.117
		c-0.669-0.27-1.301-0.575-1.164-1.482c-0.009-2.5-0.018-4.999-0.027-7.499c-0.796-1.228-0.787-2.933-2.24-3.771
		c-4.75-0.334-9.5-0.311-14.25,0.004c-0.742,3.316-0.28,6.675-0.338,10.014c-0.023,1.335,0.122,2.666-1.913,2.088
		c-0.504,0.002-1.008,0.003-1.512,0.004C356.871,404.709,356.187,404.744,356.198,403.5z"/>
	<path style="fill:#434343;" d="M560.321,398.976c3.402,3.815,7.548,3.74,11.957,2.286c0.819-0.979,1.609-1.996,2.996-2.201
		c1.761-2.992,0.617-5.026-2.354-5.963c-3.17-0.999-6.476-1.561-9.712-2.355c-2.053-0.504-4.051-1.193-5.611-2.699
		c-2.708-2.615-2.356-5.493,1.079-9.314c4.656-2.324,9.506-2.795,14.501-1.382c2.593,0.733,4.817,2.096,6.041,4.621
		c0.417,0.86,1.655,2.13,0.239,2.738c-1.024,0.439-2.601,1.363-3.765-0.752c-2.448-4.446-8.749-5.898-13.275-3.374
		c-1.252,0.698-2.213,1.633-2.207,3.202c0.007,1.803,1.196,2.766,2.7,3.145c3.612,0.912,7.293,1.553,10.905,2.464
		c5.017,1.266,7.648,4.46,6.708,8.296c-0.39,1.593-1.473,3.015-2.241,4.515c-0.374,0.637-0.841,1.111-1.668,0.959
		c-1.008,0.269-2.095,0.346-2.875,1.173c-0.704,0.426-1.45,0.67-2.286,0.544c-2.465-0.013-4.93-0.027-7.395-0.041
		c-1.63,0.003-3.289,0.112-4.56-1.225c-0.823-0.526-1.647-1.051-2.47-1.577c-1.074-0.485-1.715-1.314-1.951-2.463
		c-0.495-1.174-0.99-2.349-1.598-3.791c2.382-0.157,4.871-1.828,6.023,1.707C560.04,397.84,560.268,398.36,560.321,398.976z"/>
	<path style="fill:#434343;" d="M325.495,379.343c5.08-2.616,10.398-3.3,15.984-2.053c3.726,0.832,6.49,3.019,8.759,5.963
		c0.8,1.169,0.028,1.71-0.877,2.198c-0.45,0.044-0.9,0.089-1.35,0.133c-0.484,0.389-0.986,0.309-1.493,0.053
		c-0.271-0.296-0.543-0.591-0.814-0.887c-1.275-1.485-3.126-2.27-4.466-3.676c-0.695-0.292-1.39-0.584-2.086-0.876
		c-2.952-1.466-5.559,1.323-8.444,0.686c-1.029-0.072-1.712,0.497-2.301,1.242c-1.986,2.269-2.049,5.42-3.618,7.88
		c0.015,0.752,0.03,1.503,0.045,2.255c1.692,3.616,3.751,6.927,7.406,8.912c0.173,0.214,0.38,0.255,0.622,0.123
		c3.956,0.861,7.336-1.13,10.901-2.202c0.685-0.313,1.193-0.783,1.375-1.544c-0.075-1.549,0.232-2.888,1.909-3.476
		c1.26,0.854,4.073-1.621,4.087,1.905c-0.805,1.223-1.611,2.447-2.416,3.67c-0.247,0.262-0.494,0.524-0.741,0.785
		c-0.618,1.26-1.578,2.076-2.989,2.309c-1.245,0.514-2.491,1.028-3.736,1.542c-3.816,2.594-7.771,2.58-11.829,0.632
		c-0.911-0.721-1.745-1.605-3.068-1.457c-0.773-0.522-1.791-0.686-2.309-1.58c-0.32-0.452-0.64-0.904-0.96-1.357
		c-0.729-0.311-1.027-0.935-1.199-1.651l0.014,0.019c-1.143-0.66-1.7-1.614-1.482-2.956c-0.076-0.231-0.151-0.463-0.227-0.694
		c-0.469-0.694-0.688-1.451-0.564-2.291c-0.008-1.407-0.016-2.814-0.024-4.221c0.036-2.711-0.062-5.48,2.992-6.879l-0.016,0.013
		c0.504-1.109,1.206-1.999,2.482-2.259C325.288,379.654,325.433,379.567,325.495,379.343z"/>
	<path style="fill:#FEFEFE;" d="M200.238,404.33c0.968-0.117,1.935-0.234,2.903-0.351c0.92,2.356,0.048,3.881-2.324,4.353
		c-2.058,0.409-4.575,1.535-5.113-2.099c-0.361-2.437-3.638-3.06-3.704-5.733c-1.52-1.341-1.269-2.99-0.815-4.675
		c0.851-3.414,0.973-6.831,0.038-10.252c-0.49-1.029-0.516-2.054,0.027-3.073c0.661-2.08,1.304-4.165,1.995-6.235
		c0.187-0.56,0.518-1.072,0.783-1.606c2.744,3.079,2.771-1.114,4.184-1.616c2.317-0.822,2.037,1.301,2.622,2.208
		c1.423,2.205-1.641-0.008-1.335,1.249c-1.142,0.617-1.262,1.543-1.231,2.801c0.185,7.57,0.123,15.145,0.046,22.717
		C198.301,403.425,197.864,404.993,200.238,404.33z"/>
	<path style="fill:#454545;" d="M147.99,377.358c1.37-0.024,2.74-0.047,4.109-0.071c0.922,1.166,0.888,2.566,0.879,3.923
		c-0.042,6.113,0.257,12.232-0.314,18.337c-0.061,0.648-0.084,1.234-0.685,1.617c-0.601,1.678-2.411,2.029-3.49,3.182
		c-1.878,1.2-3.877,1.384-5.978,0.714c-0.742-0.051-1.484-0.102-2.225-0.154c-1.706-1.248-1.494-2.756-0.591-4.358l-0.123,0.149
		c0.879-0.635,1.567-0.259,2.198,0.416c4.471,0.215,6.179-1.243,6.222-5.551C148.05,389.497,147.996,383.427,147.99,377.358z"/>
	<path style="fill:#FEFEFE;" d="M443.154,369.511c-1.65-2.921-3.3-5.842-4.951-8.763c2.829,1.012,6.096,1.474,6.387,5.501
		c0.06,0.832,0.746,1.176,1.684,0.931c0.778-0.204,1.823,0.203,1.893-1.169c0.075-1.481,0.314-2.958,0.318-4.437
		c0.028-11.094-0.018-22.188,0.031-33.281c0.019-4.366,0.649-8.868-3.766-11.792c0.4-1.319-0.584-3.057,1.006-3.977
		c1.131-0.655,2.065-0.021,2.744,0.977c0.496,0,0.993,0.001,1.489,0.001c1.05,0.938,1.041,2.216,1.043,3.452
		c0.035,16.907,0.057,33.814-0.008,50.721c-0.003,0.747-0.081,1.49-0.32,2.205c-1.757,3.007-4.256,2.374-6.827,1.384
		C443.299,370.82,442.809,370.338,443.154,369.511z"/>
	<path style="fill:#FEFEFE;" d="M270.1,349.5c-0.46-1.394,0.393-2.532,0.736-3.769c0.888-2.945-0.331-6.044,0.663-8.981
		c5.932-0.378,4.588-5.608,6-9c0.966-0.534,1.543-1.457,2.25-2.25c0.44-1.544,1.615-1.655,2.926-1.5
		c-3.004,4.555-4.268,9.632-4.507,15.017c-0.486,1.488-0.47,2.977-0.012,4.468c0.031,0.755,0.062,1.51,0.093,2.265
		c-0.456,1.373,0.335,2.516,0.687,3.74c-0.39,2.009,1.164,3.421,1.593,5.178c0.703,1.973,0.883,4.007,0.72,6.082
		c-1.409,0.356-2.592,2.267-4.299,0.555c-1.458-1.461-0.367-2.782,0.262-4.01c1.126-2.198,0.614-4.604,0.34-6.69
		c-0.144-1.099-1.978-3.859-4.717-2.176C272.015,348.935,271.017,349.151,270.1,349.5z"/>
	<path style="fill:#FEFEFE;" d="M252.014,313.383c-2.011-0.501-4.021-1.001-6.032-1.502c-3.246-0.335-6.494-0.919-9.727,0.091
		c-1.981,0.516-3.963,1.033-5.945,1.549c-0.853,0.416-1.607,0.63-1.56-0.772c-1.165-5.392,2.284-5.914,6.306-6.272
		c3.239-0.288,6.175,0.741,9.201,1.389c1.519,0.326,3.125-0.158,4.446-0.208C254.378,307.446,252.387,310.684,252.014,313.383z"/>
	<path style="fill:#FDFDFD;" d="M450,370.5c-0.004-19-0.007-37.999-0.011-56.999c4.93-1.711,10.018-0.285,15.011-0.752
		c1.726,2.267,0.076,4.535,0.06,6.806c-0.105,15.124-0.068,30.249-0.025,45.374c0.003,1.08,0.31,2.197,0.67,3.229
		c0.612,1.754-0.74,1.342-1.56,1.549c-1.407-1.72-1.06-3.789-1.065-5.751c-0.036-14.599,0.01-29.199-0.053-43.798
		c-0.008-1.759,0.757-4.2-1.446-4.985c-2.7-0.962-5.713-0.941-8.452,0.034c-1.496,0.532-1.15,2.35-1.164,3.677
		c-0.064,6.114,0.02,12.229-0.037,18.342c-0.098,10.478,0.281,20.958-0.201,31.435c-0.164,0.699-0.421,1.348-1.025,1.795
		C450.469,370.472,450.234,370.486,450,370.5z"/>
	<path style="fill:#FDFDFD;" d="M570.734,335.148c-6.611,0.048-13.223,0.025-19.831,0.187c-2.093,0.051-2.491-0.809-2.462-2.649
		c0.087-5.49-0.054-10.984,0.073-16.472c0.047-2.017-0.338-2.977-2.612-2.831c-3.589,0.23-8.263-1.144-10.502,0.64
		c-2.377,1.894-0.726,6.767-0.735,10.326c-0.038,15.098,0.075,30.196,0.132,45.294c-3.019-0.141-0.148-2.06-0.874-2.893
		c0.024-15.201,0.049-30.403,0.074-45.604c0-0.125,0.005-0.249-0.002-0.374c-0.439-8.024-0.43-8.232,7.801-7.902
		c2.578,0.103,6.039-2.1,7.823,1.836l0.04,4.181c-1.522,4.717-0.278,9.503-0.372,14.257c-0.028,1.412,0.965,0.701,1.523,0.823
		c5.172,1.131,10.417,0.233,15.619,0.548C567.874,334.603,569.439,334.006,570.734,335.148z"/>
	<path style="fill:#FEFEFE;" d="M203.285,395.25c-0.54-2.243-0.106-3.442,2.651-3.278c3.805,0.227,7.634,0.046,11.453,0.072
		c1.301,0.009,2.857-0.329,3.006,1.728c-0.462,2.987-0.462,5.974,0,8.962c0.441,0.489-0.83,1.101,0.111,1.554
		c0.567,0.417,1.304,0.66,1.494,1.462c-0.984,1.1-1.609,3.425-3.485,2.318c-1.724-1.017-3.124-2.831-1.571-5.277
		c1.254-1.976,0.363-4.346,0.876-6.526c0.306-1.298-1.401-0.983-2.29-0.994C211.449,395.225,207.367,395.25,203.285,395.25z"/>
	<path style="fill:#FEFEFE;" d="M425.251,387.815c-1.995,2.129,0.303,5.202-1.822,7.621c-2.377-1.93-4.747-3.854-7.175-5.826
		c6.564-4.062,7.362-6.127,4.316-10.792c1.442,0.071,3.068-0.253,4.278,0.314c1.469,0.688,2.139,2.259,1.557,4.074
		C425.921,384.713,425.139,386.155,425.251,387.815z"/>
	<path style="fill:#FEFEFE;" d="M422.252,402.183c3.377-2.78,4.523,1.399,6.762,2.168c0.732,0.552,2.044,0.704,1.486,2.149
		c-1.384,3.024-3.907,3.476-6.822,2.994c-2.27-0.375-4.544-0.737-6.794-1.208c-0.845-0.177-2.214-0.2-1.384-1.786
		c0.563-0.91,1.18-1.764,2.239-2.159c0.174-0.195,0.381-0.243,0.623-0.142C419.88,403.956,421.449,403.809,422.252,402.183z"/>
	<path style="fill:#FDFDFD;" d="M586.406,369.725c0.124-1.105,0.355-2.21,0.356-3.315c0.024-16.581-0.046-33.163,0.082-49.744
		c0.021-2.662-0.727-3.492-3.332-3.283c-3.331,0.267-7.687-1.032-9.761,0.634c-2.201,1.768-0.39,6.307-0.742,9.61
		c-0.408,3.829,1.039,7.779-0.761,11.511c-0.747-6.631,1.102-13.349-0.753-19.966c-0.394-1.406,0.984-2.299,2.242-2.34
		c3.987-0.133,7.98-0.085,11.971-0.052c1.359,0.011,1.745,0.634,1.731,2.148c-0.14,15.588-0.157,31.176-0.167,46.765
		c-0.001,1.978-0.208,4.13,0.482,5.886C588.5,369.475,587.226,369.265,586.406,369.725z"/>
	<path style="fill:#FDFDFD;" d="M383.937,358.726c-7.456-0.664-14.928-0.257-22.389-0.222c-2.838,0.013-3.808-0.571-3.761-3.652
		c0.197-12.703,0.017-25.412,0.136-38.117c0.024-2.502-0.467-3.579-3.22-3.371c-3.469,0.262-6.97,0.101-10.458,0.122
		c4.212-1.605,8.578-0.579,12.861-0.603c1.966-0.011,1.795,2.111,1.707,3.531c-0.716,11.575-0.144,23.16-0.262,34.738
		c-0.015,1.473-1.007,3.361,1.467,4.358c0.992,0.399-1.435,0.852-0.608,2.187c6.701,0,13.638,0.06,20.573-0.048
		C381.487,357.625,382.934,357.175,383.937,358.726z"/>
	<path style="fill:#FEFEFE;" d="M419.251,377.866c-0.625,0.168-1.141,0.007-1.538-0.51c-0.336-1.013-0.879-0.706-1.448-0.227
		c-2.782-0.095-5.527,0.09-8.163,1.092c-0.95-0.306-1.796-0.24-2.397,0.683c-0.194,0.25-0.43,0.446-0.704,0.596
		c-2.858-0.273-2.994-1.089-0.75-4.5c3.576-1.29,7.471-0.524,11.123-2.087c2.377-1.017,5.115-0.234,4.627,3.587
		C419.426,376.777,419.272,377.285,419.251,377.866z"/>
	<path style="fill:#FEFEFE;" d="M269.132,329.534c-0.78-0.927-1.396-1.927-1.428-3.188c-0.068-1.74-1.322-2.71-2.442-3.768
		c-0.424-0.519-0.848-1.037-1.273-1.556c-2.489-5.167-2.47-5.355,0.76-7.523c0.722,0.483,0.948,1.281,0.661,1.955
		c-0.917,2.153,0.21,2.795,2.03,3.286c4.558,1.23,5.777,6.04,2.502,9.574C269.616,328.668,269.4,329.125,269.132,329.534z"/>
	<path style="fill:#FEFEFE;" d="M383.279,378.002c1.551,0.589,2.289,1.567,2.26,3.372c-0.102,6.336-0.05,12.674-0.03,19.011
		c0.004,1.311-0.139,2.495-1.508,3.115c-0.197-0.128-0.393-0.256-0.59-0.385c-1.127-2.756-0.495-5.638-0.471-8.445
		C382.986,389.115,382.412,383.541,383.279,378.002z"/>
	<path style="fill:#FEFEFE;" d="M329.421,404.918c3.943-0.213,7.924,0.294,11.829-0.632c0.053,0.611,0.394,1.515,0.115,1.787
		c-3.442,3.365-12.394,3.735-16.204,0.721C326.163,405.205,328.217,405.996,329.421,404.918z"/>
	<path style="fill:#FEFEFE;" d="M428.925,391.235c0.26-2.205-0.491-3.542-2.938-3.423c1.591-0.941,3.727-2.269,5.03-1.014
		c2.145,2.065,1.915,5.359,2.363,8.202c0.123,0.781-0.402,1.664-0.63,2.5c-0.714,0.358-1.552,0.343-2.25,0.75
		c-0.28,0.566-0.56,1.133-0.839,1.699c-0.787-0.474-1.765-0.698-2.178-1.661C427.378,395.817,429.02,393.704,428.925,391.235z"/>
	<path style="fill:#FEFEFE;" d="M142.451,347.994c0.425,3.818,2.702,7.27,2.227,11.266c-4.707,1.689-5.794,1.232-5.825-2.446
		c-0.008-0.942,0.609-1.218,1.396-1.313c0.838-0.5,0.38-1,0-1.5c-2.348-0.36-0.806-1.851-0.734-2.806
		c0.099-1.326,0.476-2.631,0.735-3.944C141.351,346.412,141.929,347.118,142.451,347.994z"/>
	<path style="fill:#FEFEFE;" d="M293.252,377.263c-5.233,0.027-10.466,0.053-15.698,0.08c-0.19-0.96-0.448-1.914-0.552-2.883
		c-0.098-0.918,0.333-1.748,1.101-2.193c0.789-0.458,1.21,0.28,1.807,0.745c3.213,2.506,7.553,2.665,9.59,0.488
		C290.751,374.754,292.002,376.009,293.252,377.263z"/>
	<path style="fill:#FDFDFD;" d="M344.236,313.496c0.051,18.738,0.101,37.476,0.152,56.215c-1.019-0.528-1.177-1.374-1.164-2.47
		c0.114-9.663,0.163-19.327,0.231-28.991c-0.083-7.167-0.075-14.338-0.328-21.5C343.077,315.349,343.267,314.381,344.236,313.496z"
		/>
	<path style="fill:#FEFEFE;" d="M335.297,329.999c-1.538-2.702-3.076-5.405-4.614-8.107c-0.505-1.47,0.587-1.894,1.567-2.392
		c2.989-0.295,4.662,1.189,4.233,4.046C336.162,325.688,338.534,328.414,335.297,329.999z"/>
	<path style="fill:#FEFEFE;" d="M437.876,360.047c-2.766-3.812-5.038-7.92-7.243-12.068c1.151-0.467,3.335-3.515,2.49,1.059
		c-0.115,0.622,1.231,2.213,1.7,2.135c4.347-0.718,3.441,2.413,3.532,4.686C438.412,357.251,439.032,358.771,437.876,360.047z"/>
	<path style="fill:#FEFEFE;" d="M402.786,398.167c1.983,2.327,2.817,5.914,6.721,6.136c0.452,0.378,1.214,0.596,0.742,1.447
		c-0.414,0.418-0.176,1.162-0.75,1.5c-3.427,2.219-4.557,1.773-5.524-1.883C403.348,402.991,401.192,400.904,402.786,398.167z"/>
	<path style="fill:#FDFDFD;" d="M390.815,319.144c0.739,4.807,0.332,9.647,0.294,14.465c-0.088,11.399,0.462,22.805-0.287,34.2
		C390.819,351.589,390.817,335.367,390.815,319.144z"/>
	<path style="fill:#FEFEFE;" d="M405.75,369.751c0.942,2.269,0.312,3.359-2.25,2.999c-2.344-0.002-4.689-0.041-7.032,0.003
		c-2.175,0.041-1.697-1.2-1.265-2.457c3.122-1.46,6.411-0.315,9.607-0.62C405.156,369.296,405.469,369.32,405.75,369.751z"/>
	<path style="fill:#FDFDFD;" d="M151.979,401.165c0.817-7.955,0.652-15.915,0.121-23.877c1.112,0.596,1.577,1.666,1.588,2.788
		c0.052,5.484,0.309,10.996-0.181,16.438c-0.157,1.744,0.405,2.728,0.993,3.987C153.66,400.722,152.819,400.943,151.979,401.165z"/>
	<path style="fill:#FDFDFD;" d="M226.751,315.109c-3.464,2.234-6.427,5.045-9.252,8.017c0.198-1.807,0.639-3.63,0.519-5.415
		c-0.099-1.455,1.221-2.105,1.607-2.039C222.08,316.09,224.305,314.066,226.751,315.109z"/>
	<path style="fill:#FDFDFD;" d="M332.25,319.5c-0.522,0.797-1.044,1.595-1.567,2.392c-2.268-2.001-4.537-4.001-6.805-6.002
		c1.041-0.797,2.081-1.593,3.122-2.39c0.294,0.662,0.905,0.692,1.501,0.75C330.287,315.617,329.887,318.545,332.25,319.5z"/>
	<path style="fill:#FEFEFE;" d="M171,406.5c1.177,0.854,3.071-0.582,3.947,1.233c-4.168,2.296-8.578,1.083-9.947-2.733
		c0.61-0.732,0.496-2.55,2.281-1.519l-0.021-0.009C168.598,404.369,169.7,405.557,171,406.5z"/>
	<path style="fill:#FDFDFD;" d="M264.75,313.5c-3.432,2.186-0.373,5.029-0.76,7.523c-2.024-1.727-4.047-3.453-6.071-5.18
		c-0.072-1.185,2.182-0.8,1.581-2.343C261.25,313.215,263,312.913,264.75,313.5z"/>
	<path style="fill:#FDFDFD;" d="M423.735,313.408c-9.62,0.006-19.239,0.005-28.859,0.026c-1.362,0.003-2.76-0.217-4.055,0.442
		c0.335-1.056,1.202-1.123,2.1-1.123c9.711-0.001,19.422-0.011,29.133,0.028C422.616,312.784,423.175,313.19,423.735,313.408z"/>
	<path style="fill:#FDFDFD;" d="M234.196,377.323c-0.067,8.479-0.135,16.957-0.2,25.436c-0.005,0.639,0.092,1.241,0.753,1.566
		c0.001,0.225,0.001,0.45,0.001,0.675c-2.709,1.675-2.386-1.423-2.27-1.934c1.808-7.979,0.314-16.032,0.68-24.031
		C233.201,378.135,232.763,377.255,234.196,377.323z"/>
	<path style="fill:#FEFEFE;" d="M322.595,381.851c-1.376,2.128-2.217,4.489-2.992,6.878c-1.364-2.304-0.739-4.844-0.83-7.292
		c-0.034-0.925-0.359-2.196,0.969-2.486c1.198-0.261,1.704,0.675,2.044,1.707C321.931,381.097,322.318,381.456,322.595,381.851z"/>
	<path style="fill:#FDFDFD;" d="M237.01,404.331c1.545-0.945,0.819-2.46,0.835-3.715c0.071-5.658,0.031-11.318,0.031-17.558
		c1.319,1.43,2.55,2.306,2.877,3.942c-0.607-0.354-1.214-0.708-2.144-1.25c0,6.377-0.008,12.457,0.017,18.537
		c0.002,0.455,0.357,1.151-0.287,1.142C237.89,405.423,237.452,404.722,237.01,404.331z"/>
	<path style="fill:#FEFEFE;" d="M378.747,404.276c1.207-0.022,2.414-0.044,3.621-0.066c0.512-0.31,0.788-1.164,1.632-0.71
		c0.224,0.817,0.585,1.624,0.644,2.453c0.141,1.984-0.573,3.416-2.689,2.029c-1.046-0.686-2.9,0.537-3.206-1.482
		C377.707,405.76,377.38,405.019,378.747,404.276z"/>
	<path style="fill:#FEFEFE;" d="M506.864,403.523c0.797,1.289,2.173,0.178,3.141,0.757c1.299,0.587,0.914,2.022,1.496,2.97
		c1.19,1.138,1.435,2.458-0.611,2.115c-2.381-0.399-4.472-1.826-5.389-4.365C506.118,404.659,505.576,403.247,506.864,403.523z"/>
	<path style="fill:#FDFDFD;" d="M384,403.5c-0.544,0.237-1.088,0.474-1.632,0.71c0.349-8.964,0.353-17.928-0.002-26.892
		c0.304,0.228,0.608,0.456,0.912,0.684c-0.009,7.183-0.007,14.367-0.036,21.55C383.237,400.929,383.264,402.276,384,403.5z"/>
	<path style="fill:#FDFDFD;" d="M430.5,406.5c-0.495-0.716-0.99-1.432-1.486-2.149c1.607-0.668,3.512,0.603,5.012-0.767
		c1.252-0.445,2.587-1.088,3.641,0.227c0.536,0.669-0.194,1.381-0.481,2.027c-0.139,0.313-0.458,0.546-0.696,0.815
		C434.549,404.431,432.474,407.44,430.5,406.5z"/>
	<path style="fill:#FDFDFD;" d="M277.621,377.267c-0.551,8.991-0.366,17.984-0.097,26.977c-0.693-0.49-0.774-1.217-0.774-1.98
		c0.002-7.694,0.002-15.388,0.003-23.081C276.753,378.413,276.874,377.699,277.621,377.267z"/>
	<path style="fill:#505050;" d="M587.149,404.221c-0.97,0.041-1.94,0.082-2.911,0.123c-0.849,0.337-1.588,0.468-1.569-0.832
		c-0.726-3.908,1.781-3.93,4.478-3.725C587.854,401.265,588.012,402.743,587.149,404.221z"/>
	<path style="fill:#FDFDFD;" d="M297.235,402.655c1.084,1.432,2.698,1.472,4.269,1.626c0.971,1.3-0.371,2.013-0.754,2.969
		c-2.199,0.873-3.39-0.398-4.398-2.064C295.623,403.983,295.851,403.118,297.235,402.655z"/>
	<path style="fill:#FDFDFD;" d="M255.074,404.077c1.477-0.036,3.048,0.621,4.367-0.589c1.773-0.789,1.557,0.473,1.559,1.511
		c-0.638-0.17-1.537-0.925-1.747,0.299c-0.404,2.354-2.681,2.345-3.777,2.117C253.831,407.074,254.652,405.306,255.074,404.077z"/>
	<path style="fill:#FEFEFE;" d="M431.175,315.035c-0.471-0.053-0.941-0.106-1.412-0.159c0.706-0.859-0.138-2.606,1.728-2.84
		c1.397-0.175,1.878,0.812,2.635,1.61c0.832,0.879,1.868,1.563,2.804,2.345c1.354,1.131,0.32,1.593-0.595,2.083
		c-0.224-0.174-0.448-0.347-0.673-0.521C434.52,316.086,432.949,315.38,431.175,315.035z"/>
	<path style="fill:#FDFDFD;" d="M405.743,386.482c1.05,0.81,2.1,1.619,3.351,2.584c-2.299,1.39-4.168,2.94-5.484,5.052
		c0.55-1.851,0.302-3.9,1.389-5.619C404.536,387.565,405.042,386.988,405.743,386.482z"/>
	<path style="fill:#FDFDFD;" d="M191.194,332.241c-0.103,1.852-0.548,3.617-1.354,5.289c-2.86-2.323-2.846-4.59,0.018-6.029
		C190.722,331.066,190.627,332.219,191.194,332.241z"/>
	<path style="fill:#FEFEFE;" d="M441.024,333.754c0.196-1.263,0.391-2.526,0.587-3.79c3.451,0.951,3.013,3.413,2.434,6.987
		C443.158,334.948,442.199,334.207,441.024,333.754z"/>
	<path style="fill:#FDFDFD;" d="M290.217,393.95c1.626,1.076,2.597,2.698,3.586,4.304c-1.672-1.347-1.513,3.359-3.124,1.065
		C289.651,397.855,288.258,395.905,290.217,393.95z"/>
	<path style="fill:#FEFEFE;" d="M441.672,328.816c-0.72-2.949-1.346-5.933-3.138-8.485c3.144-0.432,4.269,0.651,3.864,3.771
		C442.194,325.678,441.916,327.245,441.672,328.816z"/>
	<path style="fill:#FDFDFD;" d="M167.281,403.481c-1.167-0.104-1.501,1.043-2.281,1.519c-0.406-1.499-1.205-2.792-2.894-2.621
		c-1.732,0.175-0.829-1.484-1.606-1.879c-0.787-1.028,0.039-1.508,0.696-2.045C163.037,400.357,165.004,402.107,167.281,403.481z"/>
	<path style="fill:#FDFDFD;" d="M359.249,404.333c2.161-0.28,1.311-1.969,1.49-3.179c0.437-2.959-0.894-6.069,0.761-8.924
		c0.657,3.618-0.638,7.295,0.428,10.934c0.444,1.516-1.295,1.967-2.199,2.582C359.312,406.03,359.353,404.865,359.249,404.333z"/>
	<path style="fill:#FDFDFD;" d="M479.093,321.746c-0.334,1.271-1.107,2.264-2.013,3.172c-1.83-1.723-3.278-3.477-0.411-5.573
		C477.631,319.937,477.526,321.7,479.093,321.746z"/>
	<path style="fill:#FDFDFD;" d="M506.242,311.931c-3.247-0.014-6.495-0.028-9.743-0.042
		C499.747,311.715,503.01,308.114,506.242,311.931z"/>
	<path style="fill:#FDFDFD;" d="M300.794,312.202c-1.457,0.602-2.911,1.214-4.532,1.186c-0.108-2.142,0.982-3.063,3.05-3.324
		C301.425,309.796,301.171,310.89,300.794,312.202z"/>
	<path style="fill:#FEFEFE;" d="M441.75,336.749c3.761,3.005,3.767,3.779,0,5.71c0-1.917,0-3.813,0-5.708V336.749z"/>
	<path style="fill:#FEFEFE;" d="M434.25,343.499c1.294,0.297,2.262-0.677,3.564-0.975c0.106,0.911,0.075,1.787,0.331,2.568
		c0.391,1.194-0.333,1.62-1.169,1.852c-1.02,0.283-1.818-0.123-1.455-1.31c0.401-1.31-1.78-0.888-1.271-2.133V343.499z"/>
	<path style="fill:#FEFEFE;" d="M444,370.5c2,1.058,4,1.058,6,0v0.001c0.967,0.82,1.612,1.721,0.75,2.999
		c-2.263-1.686-5.253,0.265-7.5-1.5C442.825,371.163,443.432,370.841,444,370.5z"/>
	<path style="fill:#FDFDFD;" d="M525.017,323.949c-1.047-1.464-2.095-2.929-3.142-4.393c1.406-0.549,2.791-0.947,3.976,0.459
		C527.261,321.688,524.653,322.502,525.017,323.949z"/>
	<path style="fill:#FEFEFE;" d="M146.917,366.75c0.314,0.932,0.629,1.863,0.943,2.795c-0.788,1.198-1.857,1.138-2.931,0.542
		c-0.708-0.394-1.015-1.145-0.758-1.932C144.604,366.826,145.749,366.729,146.917,366.75z"/>
	<path style="fill:#FDFDFD;" d="M191.186,395.825c0.271,1.558,0.543,3.117,0.814,4.675c-1.297,1.285-2.577,1.072-3.846-0.045
		C189.164,398.911,190.175,397.368,191.186,395.825z"/>
	<path style="fill:#FDFDFD;" d="M312,311.892c-3.248,0.023-6.496,0.046-9.743,0.069C305.796,310.257,310.262,310.225,312,311.892z"
		/>
	<path style="fill:#FEFEFE;" d="M283.58,360.667c1.503,1.515,3.39,2.65,4.515,4.541c-0.879-0.025-1.182,1.658-2.345,0.791
		c-1.059-0.671-1.654-1.962-3-2.25C282.63,362.616,283.018,361.618,283.58,360.667z"/>
	<path style="fill:#FDFDFD;" d="M178.478,313.56c-4.733-0.075-9.466-0.15-14.199-0.225c4.697-1.283,9.488-0.26,14.224-0.58
		c0.165,0.184,0.216,0.365,0.154,0.542C178.595,313.473,178.535,313.56,178.478,313.56z"/>
	<path style="fill:#FDFDFD;" d="M281.25,360.75c-1.165-1.918-1.023-3.99-0.72-6.082c1.17,1.937,2.571,3.755,3.084,6.028
		C282.818,360.371,282.027,360.24,281.25,360.75z"/>
	<path style="fill:#FDFDFD;" d="M506.863,403.523c-0.454,0.492-0.909,0.985-1.363,1.477c0.033-1.241-0.823-1.966-1.603-2.722
		c-1.035-1.002-1.622-2.048-0.474-3.351C504.81,400.279,506.194,401.634,506.863,403.523z"/>
	<path style="fill:#FDFDFD;" d="M146.969,313.646c-4.495-0.421-8.992-0.253-13.49-0.072
		C137.982,312.261,142.48,312.114,146.969,313.646z"/>
	<path style="fill:#FDFDFD;" d="M209.199,313.914c-4.454-0.961-8.934-0.475-13.411-0.252
		C200.284,312.358,204.766,311.841,209.199,313.914z"/>
	<path style="fill:#FEFEFE;" d="M430.397,347.491c-2.105-1.921-1.926-3.189,1.012-3.826c0.958-0.208,1.851-0.718,2.773-1.091
		c0.022,0.308,0.045,0.616,0.067,0.924c0,0,0,0.002,0,0.002C432.654,344.53,431.298,345.791,430.397,347.491z"/>
	<path style="fill:#FDFDFD;" d="M490.443,404.216c0.034-3.109,0.064-6.218,0.106-9.327c0.013-0.963-0.225-2.153,1.442-1.818
		c-1.725,3.629-0.094,7.48-0.745,11.181C490.979,404.24,490.711,404.228,490.443,404.216z"/>
	<path style="fill:#FDFDFD;" d="M559.499,403.613c1.52,0.408,3.04,0.817,4.56,1.225c0.114,0.864-3.366,0.427-0.61,2.304
		C560.652,407.389,560.21,405.353,559.499,403.613z"/>
	<path style="fill:#FEFEFE;" d="M448.5,313.5c-3.944-2.367-2.342,2.198-3.75,3c-1.042-1.833-1.2-3.683,0.865-4.751
		C447.042,311.011,448.17,311.862,448.5,313.5z"/>
	<path style="fill:#FDFDFD;" d="M277.508,404.234c1.244,0,2.487,0.001,3.731,0.001c2.289,2.381-0.613,2.198-1.49,3.015
		c-1.89,0.391-1.509-1.489-2.25-2.248C277.503,404.746,277.506,404.49,277.508,404.234z"/>
	<path style="fill:#FDFDFD;" d="M156.754,341.249c-0.324,1.707-0.648,3.415-0.972,5.122c-0.278,0.01-0.556,0.02-0.833,0.031
		c-0.357-1.712-0.715-3.424-1.072-5.136C154.84,342.028,155.798,341.865,156.754,341.249z"/>
	<path style="fill:#FEFEFE;" d="M405.743,386.482c-0.248,0.673-0.496,1.345-0.744,2.018c-1.937-2.416-2.172-3.866-0.85-5.249
		C404.68,384.328,405.212,385.405,405.743,386.482z"/>
	<path style="fill:#FDFDFD;" d="M281.226,404.245c0.752-3.661-0.755-7.48,0.777-11.087
		C281.792,396.857,282.753,400.638,281.226,404.245z"/>
	<path style="fill:#FEFEFE;" d="M436.273,341.166c0.718-0.759,1.437-1.518,2.155-2.277c1.043,0.229,2.513,0.274,2.145,1.783
		c-0.253,1.037-1.459,1.029-2.497,0.712C437.506,341.209,436.876,341.232,436.273,341.166z"/>
	<path style="fill:#FDFDFD;" d="M183.66,332.517c-1.105-2.474-1.646-5.098-2.073-7.753
		C182.952,327.168,184.931,329.408,183.66,332.517z"/>
	<path style="fill:#FDFDFD;" d="M142.51,405.061c1.993-0.238,3.986-0.476,5.978-0.714c-0.511,0.89-1.022,1.78-1.666,2.902
		C145.769,405.709,143.831,406.085,142.51,405.061z"/>
	<path style="fill:#FEFEFE;" d="M178.478,313.56c0.008-0.268,0.016-0.537,0.025-0.805c1.07-0.65,2.023-0.362,2.407,0.718
		c0.461,1.299-0.284,2.074-1.614,2.275C178.711,315.136,178.386,314.426,178.478,313.56z"/>
	<path style="fill:#FDFDFD;" d="M488.309,314.277c-1.2,0.839-2.329,1.809-3.828,2.103c-0.151-0.588-2.269-1.227-0.072-1.727
		C485.653,314.369,486.877,312.826,488.309,314.277z"/>
	<path style="fill:#FEFEFE;" d="M320.418,395.936c0.494,0.985,0.988,1.971,1.482,2.956c-0.926-0.024-2.013,1.062-2.707-0.521
		C318.579,396.972,319.384,396.431,320.418,395.936z"/>
	<path style="fill:#FDFDFD;" d="M259.427,365.968c0.949-0.766,1.899-1.532,2.849-2.298c1.013,0.125,1.796,0.396,0.674,1.46
		C261.957,366.072,260.861,366.785,259.427,365.968z"/>
	<path style="fill:#FDFDFD;" d="M271.5,336.75c-0.336,2.985,0.725,6.074-0.663,8.981c-0.004-2.994-0.008-5.988-0.012-8.982
		C271.05,336.75,271.275,336.75,271.5,336.75z"/>
	<path style="fill:#FDFDFD;" d="M142.451,347.994c-0.733-0.248-1.467-0.496-2.201-0.744c0.263-1.536,0.526-3.072,0.789-4.608
		C141.879,344.328,142.352,346.111,142.451,347.994z"/>
	<path style="fill:#FDFDFD;" d="M375.75,392.227c3.967-0.656,1.998,2.214,2.24,3.771C376.483,395.193,375.999,393.78,375.75,392.227
		z"/>
	<path style="fill:#FDFDFD;" d="M154.938,331.376c-0.247-1.8-0.667-3.577-2.258-5.774
		C156.038,327.247,154.966,329.467,154.938,331.376z"/>
	<path style="fill:#FEFEFE;" d="M277.5,405.002c1.714-0.216,0.71,2.289,2.25,2.248c-0.437,0.818-0.852,1.562-1.939,0.681
		C276.69,407.022,276.858,406.056,277.5,405.002z"/>
	<path style="fill:#FDFDFD;" d="M171,406.5c-1.907-0.195-2.838-1.594-3.74-3.028c1.615,0.478,3.229,0.957,4.845,1.435
		C170.975,404.908,170.365,405.272,171,406.5z"/>
	<path style="fill:#FDFDFD;" d="M282.75,363.75c2.235-0.896,2.64,0.647,3,2.25C283.341,367.129,283.591,364.712,282.75,363.75z"/>
	<path style="fill:#FDFDFD;" d="M222,405.75c-0.498-0.487-0.996-0.975-1.494-1.462c1.474-0.084,2.948-0.168,4.422-0.252
		c-0.226,0.572-0.452,1.143-0.677,1.715C223.5,405.75,222.75,405.75,222,405.75z"/>
	<path style="fill:#FEFEFE;" d="M328.501,314.25c-0.815,0.379-1.539,0.578-1.501-0.75c0.556-0.223,1.095-0.555,1.671-0.641
		c0.644-0.096,1.704-0.325,1.62,0.725C330.22,314.483,329.163,314.152,328.501,314.25z"/>
	<path style="fill:#FDFDFD;" d="M531.981,315.515c-0.241,1.046,0.518,2.276-0.486,2.953c-0.209,0.141-1.121-0.256-1.244-0.581
		C529.689,316.406,531.402,316.354,531.981,315.515z"/>
	<path style="fill:#FDFDFD;" d="M185.127,338.286c-0.669-0.639-0.668-1.456-0.608-2.289c0.413-0.532,0.826-1.064,1.239-1.596
		C185.28,335.668,187.455,337.375,185.127,338.286z"/>
	<path style="fill:#FEFEFE;" d="M259.5,313.5c0.919,1.757-0.824,1.717-1.581,2.343l0.017,0.009
		c-0.571-0.685-0.875-1.447-0.685-2.353C258.001,311.988,258.751,311.988,259.5,313.5z"/>
	<path style="fill:#FDFDFD;" d="M378.747,404.276c-0.477,0.742-0.45,1.483,0.003,2.224c-0.784,0.181-1.568,0.362-2.793,0.646
		c1.139-1.261,0.336-3.054,2.06-3.648C378.26,403.757,378.504,404.017,378.747,404.276z"/>
	<path style="fill:#FDFDFD;" d="M279.75,325.5c-0.141,1.359,0.257,3.257-2.25,2.25C276.669,325.419,278.687,325.937,279.75,325.5z"
		/>
	<path style="fill:#FDFDFD;" d="M249.057,397.413c-0.119,1.121,0.961,2.432-0.657,3.452c-1.467-1.518-0.862-2.553,0.678-3.432
		C249.077,397.433,249.057,397.413,249.057,397.413z"/>
	<path style="fill:#FDFDFD;" d="M141.769,401.115c-0.733-0.139-1.465-0.278-2.198-0.417c0.36-1.149,1.035-2.038,2.306-1.414
		C142.803,399.739,141.958,400.5,141.769,401.115z"/>
	<path style="fill:#FDFDFD;" d="M523.477,402.893c1.023,0.445,2.047,0.89,3.07,1.334
		C525.211,404.501,523.062,406.647,523.477,402.893z"/>
	<path style="fill:#FDFDFD;" d="M257.25,313.499c0.903,0.588,0.726,1.49,0.685,2.353c-0.997-0.525-1.995-1.05-2.992-1.576
		C255.712,314.017,256.481,313.758,257.25,313.499z"/>
	<path style="fill:#FDFDFD;" d="M178.333,404.944c1.802-0.451,3.604-0.903,5.406-1.354
		C182.527,406.398,180.189,404.709,178.333,404.944z"/>
	<path style="fill:#FDFDFD;" d="M453,408c0.762-0.975,1.811-1.379,3-1.5C456.766,410.531,454.055,407.61,453,408z"/>
	<path style="fill:#FDFDFD;" d="M139.694,400.55c-0.388,1.532-0.945,3.087,0.591,4.358
		C138.33,404.616,138.182,403.528,139.694,400.55z"/>
	<path style="fill:#FDFDFD;" d="M228.75,312.75c0.342,0.617,0.931,0.736,1.56,0.772c-1.026,0.457-2.052,0.915-3.078,1.372
		C224.653,311.995,228.349,313.539,228.75,312.75z"/>
	<path style="fill:#FEFEFE;" d="M439.359,337.439c0.509-1.069,1.018-2.138,1.527-3.208c0.288,0.839,0.576,1.678,0.864,2.517
		c0,0,0,0.002,0,0.002C441.054,337.333,440.463,338.277,439.359,337.439z"/>
	<path style="fill:#FDFDFD;" d="M158.222,335.25c0.167,1.106,0.05,2.147-0.703,3.04C157.232,337.156,154.293,335.408,158.222,335.25
		z"/>
	<path style="fill:#FDFDFD;" d="M555.078,399.574c0.65,0.821,1.301,1.642,1.951,2.463c-0.426,0.238-0.853,0.476-1.279,0.714
		C555.218,401.756,554.081,400.891,555.078,399.574z"/>
	<path style="fill:#FDFDFD;" d="M543.75,405.75c0.123,1.496-1.044,0.411-1.5,0.75c-0.643-1.215-2.358-0.285-3-1.5
		c0.16-0.107,0.32-0.215,0.479-0.323C541.222,404.462,542.85,403.744,543.75,405.75z"/>
	<path style="fill:#FDFDFD;" d="M587.149,404.221c0.339-1.478,0.31-2.956-0.002-4.433
		C588.411,401.265,589.091,402.742,587.149,404.221z"/>
	<path style="fill:#FDFDFD;" d="M511.5,407.25c-1.669-0.401-0.774-2.092-1.496-2.97c0.729-0.068,1.458-0.135,2.188-0.203
		C511.961,405.134,511.731,406.192,511.5,407.25z"/>
	<path style="fill:#FDFDFD;" d="M344.987,402.744c0.996-0.77,1.993-1.539,2.989-2.309
		C347.62,402.034,347.62,404.094,344.987,402.744z"/>
	<path style="fill:#FDFDFD;" d="M444,370.5c-0.25,0.5-0.5,1-0.75,1.5c-0.25,0-0.5,0-0.75,0c-0.318-1.171-1.648-1.313-2.241-2.204
		c0.965-0.095,1.93-0.19,2.895-0.285C443.436,369.841,443.718,370.17,444,370.5z"/>
	<path style="fill:#FDFDFD;" d="M139.622,337.194c0.812,1.495,1.196,3.107,1.302,4.794
		C139.82,340.572,138.576,339.194,139.622,337.194z"/>
	<path style="fill:#FDFDFD;" d="M251.392,399.694c0.659,0.331,1.124,0.805,1.176,1.586c-0.761,0.407-1.642,1.053-2.242-0.027
		C249.816,400.336,250.753,400.031,251.392,399.694z"/>
	<path style="fill:#FDFDFD;" d="M569.213,406.117c-1.557,0.497-2.553,0.814-4.524,1.442
		C566.319,405.86,567.33,405.593,569.213,406.117z"/>
	<path style="fill:#FDFDFD;" d="M500.009,309.452c0.796-0.778,1.502-1.435,2.803-0.814
		C502.131,309.929,501.184,309.844,500.009,309.452z"/>
	<path style="fill:#FDFDFD;" d="M294.746,399.772c1.137,0.326,1.531,1.324,2.024,2.234
		C295.384,401.905,293.767,402.015,294.746,399.772z"/>
	<path style="fill:#FDFDFD;" d="M430.5,398.25c0.431-1.207,1.22-1.34,2.25-0.75C432.378,398.884,432.075,400.475,430.5,398.25z"/>
	<path style="fill:#FDFDFD;" d="M136.567,325.411c0.692,0.649,0.711,1.485,0.649,2.343c-0.68,0.293-1.426,0.716-1.89-0.238
		C134.713,326.259,137.088,326.673,136.567,325.411z"/>
	<path style="fill:#FEFEFE;" d="M442.486,327.151c1.683,0.441,1.978,1.203,1.969,2.316
		C443.261,329.313,442.963,328.523,442.486,327.151z"/>
	<path style="fill:#FDFDFD;" d="M242.598,391.757c-0.174,1.596,0.584,2.78-0.597,2.988c-1.097,0.194-0.954-0.782-0.578-1.501
		C241.583,392.939,241.851,392.691,242.598,391.757z"/>
	<path style="fill:#FDFDFD;" d="M405,379.5c0-0.25,0-0.5,0-0.75c0.751-1.016,1.502-1.475,2.252,0.001
		c-0.713,0.862-1.426,1.724-2.139,2.586C405.075,380.724,405.038,380.112,405,379.5z"/>
	<path style="fill:#FDFDFD;" d="M356.198,403.5c0.513,0.279,1.027,0.558,1.54,0.837c-0.555,0.636-1.248,1.25-2.085,0.932
		c-0.969-0.368-0.349-1.148-0.153-1.77C355.733,403.5,355.965,403.5,356.198,403.5z"/>
	<path style="fill:#FDFDFD;" d="M140.25,354c1.639,0.794,0.383,2.035,0.746,3.232c-0.952-0.529-0.658-1.188-0.746-1.732
		C140.25,355,140.25,354.5,140.25,354z"/>
	<path style="fill:#FDFDFD;" d="M188.208,344.255c-0.043,0.924,0.322,2.248-0.84,2.447c-0.784,0.134-0.538-1.051-0.553-1.709
		C187.279,344.746,187.744,344.5,188.208,344.255z"/>
	<path style="fill:#FDFDFD;" d="M410.25,405.75c-0.247-0.482-0.495-0.965-0.742-1.447c1.108-0.029,2.2,0.028,3.194,0.605
		C411.884,405.189,411.067,405.469,410.25,405.75z"/>
	<path style="fill:#FDFDFD;" d="M417.739,404.341c-0.53,0.944-1.247,1.693-2.239,2.159c-0.018-0.562-0.035-1.125-0.053-1.687
		C416.122,404.225,416.933,404.296,417.739,404.341z"/>
	<path style="fill:#FDFDFD;" d="M535.493,404.959c1.193-0.565,2.427-0.883,3.757-0.622c0.244,0.148,0.326,0.295,0.244,0.442
		c-0.081,0.147-0.162,0.221-0.245,0.221C538.003,404.465,536.73,406.378,535.493,404.959z"/>
	<path style="fill:#FDFDFD;" d="M409.5,407.25c0.015-0.618,0.146-1.177,0.75-1.5c0.597,0.531,1.193,1.063,1.852,1.65
		C411.087,408.249,410.347,406.97,409.5,407.25z"/>
	<path style="fill:#FDFDFD;" d="M135.836,322.468c0.788,0.865,0.74,1.942,0.76,3.001
		C135.733,324.623,134.431,323.888,135.836,322.468z"/>
	<path style="fill:#FDFDFD;" d="M576.614,403.162c0.556-0.32,1.112-0.639,1.668-0.959c0.384,0.685,0.561,1.372-0.348,1.749
		C577.229,404.244,576.86,403.753,576.614,403.162z"/>
	<path style="fill:#FDFDFD;" d="M500.985,396.093c1.095,0.248,1.4,1.22,1.871,2.04C501.466,398.157,500.096,398.161,500.985,396.093
		z"/>
	<path style="fill:#FDFDFD;" d="M468,318c-1.988-0.171-0.47-1.51-0.75-2.25C469.237,315.921,467.72,317.26,468,318z"/>
	<path style="fill:#FDFDFD;" d="M321.885,398.873c0.614,0.395,1.161,0.839,1.199,1.651c-0.525,0.23-1.084,0.689-1.557-0.023
		C321.114,399.878,321.686,399.401,321.885,398.873z"/>
	<path style="fill:#FDFDFD;" d="M150.749,328.5c-0.697-0.888-0.844-1.916-0.763-3.003
		C150.753,326.368,152.018,327.112,150.749,328.5z"/>
	<path style="fill:#FDFDFD;" d="M453.08,404.847c-0.277,0.801-0.553,1.602-0.83,2.403c-0.715-0.285-1.215-0.785-1.5-1.5
		c0.789-0.287,1.579-0.574,2.368-0.862L453.08,404.847z"/>
	<path style="fill:#FDFDFD;" d="M476.858,325.498c-0.419,0.828-0.838,1.655-1.257,2.483
		C474.831,326.552,475.098,325.647,476.858,325.498z"/>
	<path style="fill:#FDFDFD;" d="M571.454,404.879c0.664-0.591,1.465-0.609,2.286-0.544
		C573.124,405.13,572.621,406.399,571.454,404.879z"/>
	<path style="fill:#FEFEFE;" d="M319.628,392.951c0.59,0.665,0.61,1.47,0.564,2.291
		C319.379,394.632,318.095,394.138,319.628,392.951z"/>
	<path style="fill:#FDFDFD;" d="M152.067,333.806c-0.51-0.409-0.539-0.959-0.455-1.543c0.623,0.253,1.699,0.414,1.772,0.777
		C153.528,333.758,152.623,333.698,152.067,333.806z"/>
	<path style="fill:#FDFDFD;" d="M134.266,316.455c0.593,0.661,0.779,1.439,0.66,2.305
		C131.974,318.774,135.26,317.002,134.266,316.455z"/>
	<path style="fill:#FDFDFD;" d="M323.891,315.902c-0.495-0.286-0.99-0.571-1.484-0.857c0.523-0.446,1.045-0.891,1.931-1.646
		C324.133,314.546,324.012,315.224,323.891,315.902z"/>
	<path style="fill:#FDFDFD;" d="M195.901,313.571c-0.164,1.038-0.116,2.137-0.874,3.002
		C195.075,315.502,193.793,314.043,195.901,313.571z"/>
	<path style="fill:#FDFDFD;" d="M147.741,316.525c-0.759-0.845-0.703-1.927-0.862-2.947
		C149.421,313.9,147.063,315.657,147.741,316.525z"/>
	<path style="fill:#FDFDFD;" d="M374.702,405.099c0.09,0.551,0.057,0.968-0.431,0.79c-0.282-0.103-0.553-0.518-0.624-0.837
		c-0.064-0.289,0.151-0.639,0.243-0.962C374.193,404.466,374.496,404.843,374.702,405.099z"/>
	<path style="fill:#FDFDFD;" d="M288.721,365.439c0.802,0.096,1.359,0.56,1.802,1.196c-0.656,0.151-1.337,0.932-1.951,0.118
		C288.379,366.499,288.658,365.887,288.721,365.439z"/>
	<path style="fill:#FDFDFD;" d="M266.86,357.697c0.296-0.483,0.593-0.966,0.889-1.449c0.198,0.669,1.389,0.764,1.06,1.574
		C268.731,358.013,267.539,357.751,266.86,357.697z"/>
	<path style="fill:#FEFEFE;" d="M324.044,401.881c1.152-0.032,2.027,0.341,2.309,1.58
		C325.188,403.511,324.04,403.538,324.044,401.881z"/>
	<path style="fill:#FDFDFD;" d="M582.669,403.512c0.523,0.277,1.046,0.555,1.569,0.832c-0.398,0.627-0.782,1.435-1.675,0.712
		C581.992,404.593,582,403.984,582.669,403.512z"/>
	<path style="fill:#FEFEFE;" d="M325.061,379.605c-0.827,0.753-1.655,1.506-2.482,2.259
		C322.545,380.165,323.439,379.484,325.061,379.605z"/>
	<path style="fill:#FDFDFD;" d="M206.949,322.392c1.101,1.597,0.825,3.236,0.093,4.855c-0.68,1.506-0.917-0.249-1.404-0.218
		C205.903,325.435,206.069,323.813,206.949,322.392z"/>
	<path style="fill:#FDFDFD;" d="M180.81,369.615c-0.428,0.605-1.008,2.013-1.466,0.246c-0.391-1.507-0.044-3.206-0.023-4.82
		C179.817,366.566,180.313,368.091,180.81,369.615z"/>
	<path style="fill:#424242;" d="M450.803,369.619c-0.041-17.958-0.061-35.915-0.155-53.873c-0.009-1.755,0.474-2.589,2.297-2.325
		c0.122,0.018,0.249-0.004,0.374,0.003c3.584,0.202,8.173-1.484,10.473,0.643c2.129,1.969,0.632,6.588,0.647,10.034
		c0.061,13.719,0.035,27.438,0.011,41.157c-0.003,1.483-0.199,2.966-0.306,4.449l-0.334-0.036L463.5,369.8
		C459.245,371.357,455.005,371.801,450.803,369.619z"/>
	<path style="fill:#434343;" d="M471.412,404.162c-6.11,0.248-12.261-0.604-18.332,0.685c0,0,0.038,0.041,0.038,0.041
		c0.01-0.239-0.055-0.455-0.197-0.648c-0.29-8.978-0.854-17.958,0.293-26.92c5.428-0.023,10.857-0.046,16.285-0.069
		c1.319-0.066,2.623-0.07,3.669,0.935c1.868,1.091,3.404,2.537,4.632,4.314c1.174,1.995,0.709,3.7-0.922,5.198
		c-0.718,0.931-1.584,1.642-2.625,1.758c1.364,1.427,2.749,2.877,4.134,4.327c0.694,0.596,0.495,1.502,0.777,2.241
		c-0.312,2.449-1.171,4.638-3.018,6.359C475.158,404.541,472.965,403.501,471.412,404.162z"/>
	<path style="fill:#FEFEFE;" d="M450.803,369.619c4.232,0.06,8.465,0.12,12.697,0.18c0.096,1.518-0.532,2.252-2.136,2.212
		c-3.614-0.091-6.972,1.716-10.614,1.489c-0.25-1-0.5-1.999-0.75-2.999C450.268,370.207,450.535,369.913,450.803,369.619z"/>
	<path style="fill:#FDFDFD;" d="M486.074,378.444c0.779,7.282,0.377,14.59,0.252,21.876c-0.058,3.396,0.956,4.514,4.154,3.865
		c-1.292,1.357-2.69,1.324-4.322,0.554c-2.279-1.076-0.039-2.242-0.063-3.315C485.928,393.767,486.047,386.104,486.074,378.444z"/>
	<path style="fill:#FEFEFE;" d="M507.862,397.464c-1.265-1.479-2.53-2.958-4.053-4.739c1.561-0.471,2.776-0.838,3.991-1.205
		C510.658,394.929,510.673,396.3,507.862,397.464z"/>
	<path style="fill:#FDFDFD;" d="M453.215,377.32c-0.098,8.973-0.196,17.947-0.293,26.92c-0.331-0.346-0.966-0.71-0.948-1.037
		c0.476-8.25,0.454-16.495-0.009-24.744C451.925,377.736,452.593,377.48,453.215,377.32z"/>
	<path style="fill:#FDFDFD;" d="M476.88,387.698c0.933-1.622,1.005-3.396,0.922-5.198c0.864,0.135,2.091,0.281,1.673,1.409
		c-0.531,1.433-0.427,2.484,0.341,3.782c0.417,0.704,1.034,1.803,0.085,2.752c-0.462,0.462-0.889,0.783-1.62,0.53
		c-1.825-0.632,0.252-1.666-0.28-2.365C477.718,388.236,477.259,387.997,476.88,387.698z"/>
	<path style="fill:#FEFEFE;" d="M575.274,399.061c-0.505,1.406-1.574,2.044-2.996,2.201c-1.539-1.788,0.597-3.161,0.128-5.079
		C573.875,397.113,574.728,397.941,575.274,399.061z"/>
	<path style="fill:#FEFEFE;" d="M539.25,405c0-0.221,0-0.442,0-0.663c1.727-0.813,3.454-1.625,5.181-2.438
		c-0.428,1.248,0.661,2.765-0.681,3.851C542.357,404.855,540.794,404.984,539.25,405z"/>
	<path style="fill:#FDFDFD;" d="M473.169,378.185c-1.223-0.312-2.446-0.623-3.669-0.935c0.699-1.41,2.017-0.442,3.013-0.694
		C475.33,375.845,472.866,377.646,473.169,378.185z"/>
	<path style="fill:#FDFDFD;" d="M485.996,366.975c1.262,0.666,2.523,1.332,3.785,1.998
		C487.036,371.117,486.708,368.683,485.996,366.975z"/>
	<path style="fill:#FEFEFE;" d="M560.321,398.976c-0.575-0.329-0.865-0.815-0.818-1.486c0.119-0.565,0.237-1.13,0.356-1.695
		c0.26,0.19,0.769,0.436,0.741,0.561C560.407,397.224,562.274,398.331,560.321,398.976z"/>
	<path style="fill:#FDFDFD;" d="M506.245,377.964c-1.497-0.243-2.995-0.485-4.492-0.727
		C503.487,376.016,505.014,376.077,506.245,377.964z"/>
	<path style="fill:#FDFDFD;" d="M489.763,368.966c1.571,0.485,3.141,0.97,4.712,1.455
		C492.601,370.92,490.801,371.177,489.763,368.966z"/>
	<path style="fill:#FDFDFD;" d="M473.905,333.765c0.087,1.296-0.071,2.55-0.625,3.739
		C469.792,335.64,473.872,335.041,473.905,333.765z"/>
	<path style="fill:#FEFEFE;" d="M548.41,385.499c-0.078-0.24-0.155-0.479-0.233-0.719c1.676-0.681,2.979-0.434,3.979,1.663
		C550.581,386.406,549.673,385.135,548.41,385.499z"/>
	<path style="fill:#FDFDFD;" d="M471.412,404.162c1.579-0.593,3.158-1.186,4.736-1.779
		C475.563,405.62,473.204,404.137,471.412,404.162z"/>
	<path style="fill:#FDFDFD;" d="M544.395,401.93c0.169-0.995,0.838-1.615,1.619-2.149
		C546.831,401.521,545.889,401.934,544.395,401.93z"/>
	<path style="fill:#FDFDFD;" d="M548.352,396.001c-0.062-0.6,0.032-1.143,0.55-1.535c0.535,0.237,1.235,0.533,1.019,1.158
		C549.828,395.898,548.901,395.884,548.352,396.001z"/>
	<path style="fill:#FDFDFD;" d="M479.166,396.023c-0.259-0.747-0.518-1.494-0.777-2.241
		C478.616,394.541,481.083,394.522,479.166,396.023z"/>
	<path style="fill:#FDFDFD;" d="M495.004,370.52c1.383-0.009,2.772-0.054,4.043,0.647
		C497.677,371.093,496.187,371.767,495.004,370.52z"/>
	<path style="fill:#FDFDFD;" d="M480.069,362.094c0.625,0.412,1.34,0.752,1.326,1.671c-0.534,0.2-1.096,0.7-1.598,0.005
		C479.355,363.158,479.929,362.647,480.069,362.094z"/>
	<path style="fill:#FDFDFD;" d="M474.047,350.121c0.654,0.671,0.746,1.504,0.69,2.38
		C471.692,352.524,475.034,350.696,474.047,350.121z"/>
	<path style="fill:#FEFEFE;" d="M543.709,379.632c-0.484-0.307-0.969-0.614-1.453-0.92c-0.054-0.392-0.559-1.122-0.04-1.107
		C543.326,377.637,543.307,378.865,543.709,379.632z"/>
	<path style="fill:#FDFDFD;" d="M200.238,404.33c-1.945,1.23-2.78,0.577-2.607-1.593c0.631-7.932,0.617-15.872-0.006-23.794
		c-0.137-1.74,0.421-2.262,1.875-2.443c0,0.238,0,0.476,0,0.715c-1.094,0.652-0.775,1.741-0.778,2.688
		c-0.022,7.22-0.019,14.441-0.005,21.662C198.718,402.738,198.328,404.182,200.238,404.33z"/>
	<path style="fill:#FDFDFD;" d="M189.634,382.647c-1.073-1.011-2.146-2.023-3.218-3.034
		C189.118,378.895,190.784,379.277,189.634,382.647z"/>
	<path style="fill:#FDFDFD;" d="M191.25,382.5c0.733,1.031,0.014,2.049-0.027,3.073c-0.542-0.988-1.084-1.975-1.626-2.963
		C190.148,382.574,190.699,382.537,191.25,382.5z"/>
	<path style="fill:#FDFDFD;" d="M212.251,330.926c-0.088-0.231-0.338-0.56-0.285-0.829c0.08-0.401,0.168-1.029,0.805-0.863
		c0.149,0.039,0.194,0.655,0.201,1.007C212.979,330.599,212.941,331.009,212.251,330.926z"/>
	<path style="fill:#FEFEFE;" d="M293.042,341.166c0.027-10.383,5.196-16.833,13.767-17.185c7.164-0.294,12.234,3.243,14.308,10.122
		c1.478,4.902,1.448,9.868-0.01,14.764c-2.001,6.714-7.112,10.438-13.881,10.287c-6.596-0.148-11.416-4.011-13.312-10.579
		C293.211,346.142,293.06,343.668,293.042,341.166z"/>
	<path style="fill:#FDFDFD;" d="M336.789,337.507c0.576,2.244,1.947,4.483,0.042,6.743
		C336.818,342.002,336.803,339.755,336.789,337.507z"/>
	<path style="fill:#FDFDFD;" d="M299.289,370.482c-1.598,0.518-3.06,0.644-3.789-1.324
		C296.762,369.599,298.026,370.041,299.289,370.482z"/>
	<path style="fill:#FDFDFD;" d="M278.937,349.49c-0.837-1.135-2.225-2.169-0.687-3.74
		C278.824,346.933,279.024,348.186,278.937,349.49z"/>
	<path style="fill:#FDFDFD;" d="M278.157,343.485c-1.016-1.492-1.031-2.981,0.012-4.468
		C278.165,340.507,278.161,341.996,278.157,343.485z"/>
	<path style="fill:#FEFEFE;" d="M227.159,341.327c0.016-8.878,3.476-14.667,9.961-16.67c8.373-2.587,16.087,1.576,18.356,10.008
		c1.224,4.549,1.208,9.155-0.037,13.708c-1.887,6.897-7.054,10.863-13.928,10.786c-6.886-0.076-11.754-4.101-13.62-11.155
		C227.307,345.8,227.142,343.581,227.159,341.327z"/>
	<path style="fill:#FDFDFD;" d="M236.255,311.973c3.225-1.891,6.475-1.103,9.727-0.091
		C242.74,311.912,239.497,311.942,236.255,311.973z"/>
	<path style="fill:#FDFDFD;" d="M265.262,322.579c1.431,0.856,3.49,1.305,2.442,3.768
		C266.89,325.09,266.076,323.835,265.262,322.579z"/>
	<path style="fill:#FDFDFD;" d="M413.411,323.519c2.738,0.121,5.507-0.274,8.211,0.417c3.079,0.786,5.212,2.478,5.114,5.95
		c-0.095,3.37-2.139,5.606-5.224,5.907c-4.953,0.482-9.974,0.258-14.966,0.334c-1.128,0.017-1.515-0.592-1.474-1.645
		c0.034-0.873-0.01-1.749-0.011-2.623C405.052,323.492,405.052,323.492,413.411,323.519z"/>
	<path style="fill:#FDFDFD;" d="M405.75,369.751c-0.313-0.025-0.627-0.05-0.94-0.074c0.066-6.607,0.091-13.215,0.24-19.819
		c0.025-1.092-0.802-2.489,0.708-3.304c-0.003,5.949,0.203,11.91-0.132,17.841C405.523,366.222,407.809,367.968,405.75,369.751z"/>
	<path style="fill:#FDFDFD;" d="M431.175,315.035c2.632-1.185,3.483,0.806,4.489,2.519
		C434.168,316.714,432.671,315.875,431.175,315.035z"/>
	<path style="fill:#FEFEFE;" d="M324.788,390.006c-0.262-3.3,0.871-5.96,3.618-7.879c-0.502,1.539-0.948,2.977,0.612,4.327
		c1.795,1.553,1.864,3.783,0.215,5.139C327.555,392.972,325.895,391.652,324.788,390.006z"/>
	<path style="fill:#FEFEFE;" d="M332.239,401.173c-4.747-1.077-7.056-4.181-7.406-8.912c3.029,1.2,6.727,1.747,5.655,6.604
		C330.353,399.476,331.621,400.396,332.239,401.173z"/>
	<path style="fill:#FEFEFE;" d="M341.237,381.074c2.397,0.122,3.772,1.486,4.466,3.676c-2.164,1.109-4.116-1.791-6.388-0.31
		c-0.527,0.344-0.548-0.51-0.483-0.982c0.088-0.638-0.497-1.521,0.749-1.715C340.154,381.653,340.686,381.305,341.237,381.074z"/>
	<path style="fill:#FEFEFE;" d="M343.762,399.094c-3.206,2.85-6.861,3.478-10.901,2.202
		C336.646,401.31,339.853,398.462,343.762,399.094z"/>
	<path style="fill:#FEFEFE;" d="M330.708,380.885c2.722-1.368,5.516-1.846,8.444-0.686c-2.239-0.286-4.283,0.339-5.859,1.85
		C331.196,384.06,331.17,382.14,330.708,380.885z"/>
	<path style="fill:#FEFEFE;" d="M346.5,394.5c-0.048,1.198-0.446,2.24-1.363,3.051c-1.097-0.698-2.498-1.195-2.032-2.956
		c0.435-1.648,1.655-0.9,2.645-0.844C346.469,393.531,346.719,393.781,346.5,394.5z"/>
	<path style="fill:#FDFDFD;" d="M346.5,394.5c-0.25-0.25-0.5-0.5-0.75-0.75c0.381-0.566,1.132-1.708,1.201-1.514
		c0.761,2.148,2.362,1.051,3.69,1.283c1.298,0.227,2.366,1.23,0.491,2.459C350.34,393.132,348.212,394.468,346.5,394.5z"/>
	<path style="fill:#FEFEFE;" d="M343.527,391.148c0.253-1.977,1.561-2.62,2.368-3.713
		C346.67,389.608,346.67,389.608,343.527,391.148z"/>
	<path style="fill:#FDFDFD;" d="M346.518,385.637c0.498-0.018,0.995-0.035,1.493-0.053c0.174,0.524,0.775,1.267,0.029,1.532
		C346.879,387.529,347.051,386.128,346.518,385.637z"/>
	<path style="fill:#FDFDFD;" d="M349.361,385.451c0.909-0.487,1.249-1.2,0.877-2.198c0.646,0.4,1.154,1.033,0.94,1.726
		C350.906,385.86,349.999,385.371,349.361,385.451z"/>
	<path style="fill:#FDFDFD;" d="M159.085,389.983c0.432,2.25,0.865,4.501,1.297,6.751
		C158.373,394.787,157.188,392.681,159.085,389.983z"/>
	<path style="fill:#FDFDFD;" d="M159.76,386.254c-0.021,1.142-0.048,2.283-0.677,3.302c-0.179-0.901-0.381-1.799-0.532-2.705
		C158.303,385.37,159.237,386.214,159.76,386.254z"/>
	<path style="fill:#FDFDFD;" d="M155.56,377.812c-0.358-0.254-0.753-0.535-1.148-0.815c0.257-0.135,0.599-0.447,0.754-0.372
		c0.409,0.199,0.737,0.565,1.097,0.865C156.058,377.584,155.852,377.678,155.56,377.812z"/>
	<path style="fill:#FDFDFD;" d="M149.461,375.193c-0.457,0.807-1.002,1.154-1.797,0.957c-0.034-0.008-0.055-0.464,0.055-0.59
		C148.176,375.039,148.749,374.982,149.461,375.193z"/>
	<path style="fill:#FDFDFD;" d="M178.38,373.867c0.78-0.533,1.539-0.464,2.564-0.032
		C179.966,374.391,179.211,374.426,178.38,373.867z"/>
	<path style="fill:#474747;" d="M313.484,390.647c0,3.729-0.069,7.46,0.03,11.186c0.046,1.722-0.437,2.414-2.28,2.412
		c-1.927-0.003-2.209-0.876-2.195-2.511c0.063-7.333,0.073-14.668-0.006-22.001c-0.019-1.747,0.489-2.393,2.297-2.423
		c1.969-0.032,2.214,0.913,2.179,2.522C313.431,383.436,313.484,387.042,313.484,390.647z"/>
	<path style="fill:#FBFBFB;" d="M422.257,398.519c-3.119,3.084-6.533,4.005-10.436,2.775c-3.154-0.993-4.652-3.973-3.763-7.139
		c0.963-3.428,3.505-4.279,6.257-2.072C416.929,394.179,419.523,396.302,422.257,398.519z"/>
	<path style="fill:#FBFBFB;" d="M418.006,383.048c-0.245,2.814-2.045,4.593-4.304,4.406c-2.233-0.185-4.566-1.739-4.392-4.669
		c0.17-2.857,2.299-3.618,4.748-3.51C416.472,379.38,418.001,380.574,418.006,383.048z"/>
	<path style="fill:#FDFDFD;" d="M428.925,391.235c0.391,2.529-0.416,4.813-1.443,7.053
		C426.357,395.608,428.7,393.639,428.925,391.235z"/>
	<path style="fill:#FEFEFE;" d="M407.252,378.751c-0.751-0.467-1.501-0.466-2.252-0.001c0.574-2.868,1.775-2.065,3.101-0.53
		C407.818,378.397,407.535,378.574,407.252,378.751z"/>
	<path style="fill:#FDFDFD;" d="M422.252,402.183c-0.371,2.459-1.938,2.609-3.891,2.016
		C419.658,403.527,420.955,402.855,422.252,402.183z"/>
	<path style="fill:#FEFEFE;" d="M416.264,377.129c0.122-0.774,0.244-1.548,0.387-2.457c1.285,0.579,1.059,1.68,1.062,2.684
		C417.23,377.28,416.747,377.204,416.264,377.129z"/>
	<path style="fill:#FEFEFE;" d="M533.025,402.035c-7.149,0.006-11.727-4.379-11.706-11.214c0.021-6.904,4.549-11.214,11.738-11.173
		c7.019,0.04,11.459,4.311,11.473,11.036C544.545,397.732,540.19,402.029,533.025,402.035z"/>
	<path style="fill:#FEFEFE;" d="M175.618,402.034c-7.206-0.025-11.629-4.321-11.594-11.261c0.035-6.828,4.346-11.056,11.347-11.129
		c7.173-0.075,11.782,4.249,11.832,11.099C187.253,397.672,182.752,402.059,175.618,402.034z"/>
	<path style="fill:#FCFCFC;" d="M287.785,389.85c-6.79,0.078-7.551-0.915-6.447-7.883c0.204-1.288,0.723-1.681,1.901-1.664
		c3.108,0.046,6.232-0.133,9.321,0.124c2.771,0.231,5.145,1.394,5.237,4.714c0.097,3.483-2.455,4.306-5.17,4.67
		C291.04,390.024,289.401,389.85,287.785,389.85z"/>
	<path style="fill:#FDFDFD;" d="M220.394,402.734c-1.025-2.987-1.032-5.974,0-8.962
		C220.395,396.759,220.394,399.747,220.394,402.734z"/>
	<path style="fill:#FCFCFC;" d="M497.121,389.829c-7.108,0.1-7.475-0.383-6.552-7.745c0.154-1.23,0.493-1.804,1.765-1.78
		c3.233,0.062,6.485-0.13,9.694,0.166c2.795,0.258,5.072,1.588,4.995,4.913c-0.075,3.223-2.471,4.07-5.058,4.408
		C500.375,389.999,498.737,389.829,497.121,389.829z"/>
	<path style="fill:#FDFDFD;" d="M274.737,342.125c0.651,1.117,0.602,2.286,0.294,3.619
		C273.946,344.518,274.864,343.292,274.737,342.125z"/>
	<path style="fill:#FBFBFB;" d="M463.892,401.134c-0.499,0-0.998,0.008-1.497-0.001c-6.079-0.11-5.057,0.976-5.441-5.323
		c-0.217-3.566,1.027-4.571,4.366-4.23c2.964,0.303,5.991-0.187,8.946,0.486c2.476,0.564,3.986,1.991,3.974,4.669
		c-0.011,2.644-1.734,3.787-4.012,4.115c-2.086,0.3-4.219,0.27-6.332,0.385C463.896,401.201,463.894,401.167,463.892,401.134z"/>
	<path style="fill:#FAFAFA;" d="M463.857,388.662c-0.622,0-1.244,0-1.866,0c-4.82,0.001-6.233-1.991-4.968-6.784
		c0.301-1.14,0.959-1.327,1.881-1.306c3.476,0.077,6.957,0.085,10.426,0.292c2.205,0.132,3.875,1.242,3.866,3.688
		c-0.01,2.604-1.801,3.713-4.12,3.94c-1.724,0.169-3.477,0.033-5.218,0.033C463.857,388.57,463.857,388.616,463.857,388.662z"/>
</g>
</svg>
