<?xml version="1.0" standalone="no"?>
<!DOCTYPE svg PUBLIC "-//W3C//DTD SVG 20010904//EN"
 "http://www.w3.org/TR/2001/REC-SVG-20010904/DTD/svg10.dtd">
<svg version="1.0" xmlns="http://www.w3.org/2000/svg"
 width="960.000000pt" height="960.000000pt" viewBox="0 0 960.000000 960.000000"
 preserveAspectRatio="xMidYMid meet">
<metadata>
Created by potrace 1.15, written by Peter Selinger 2001-2017
</metadata>
<g transform="translate(0.000000,960.000000) scale(0.100000,-0.100000)"
fill="#3f3f3f" stroke="none">
<path d="M2024 5439 c-16 -5 -41 -20 -55 -35 l-24 -26 -3 -564 c-3 -620 -4
-607 58 -639 43 -22 667 -22 714 0 85 41 88 170 6 219 -24 14 -65 16 -279 16
l-251 0 0 473 c0 450 -1 474 -20 504 -30 49 -87 70 -146 52z"/>
<path d="M2331 5437 c-19 -7 -44 -25 -55 -40 -20 -27 -21 -43 -24 -275 -4
-289 4 -354 54 -439 44 -75 103 -128 184 -167 60 -29 73 -31 170 -31 98 0 110
2 171 32 146 72 239 227 239 400 l0 44 61 -76 c42 -52 58 -79 52 -88 -5 -6
-87 -107 -181 -223 -198 -245 -211 -266 -194 -323 23 -77 104 -113 177 -79 14
6 101 104 192 217 91 113 170 207 176 208 7 2 26 -15 42 -36 165 -210 312
-384 332 -392 71 -27 145 4 173 71 23 56 8 86 -150 280 -82 102 -168 209 -191
238 l-41 52 163 203 c89 111 166 204 169 207 24 19 40 61 40 103 0 42 -5 54
-34 83 -29 29 -41 34 -81 34 -26 0 -59 -7 -73 -16 -15 -9 -72 -73 -127 -142
-55 -69 -127 -159 -160 -200 l-59 -74 -21 25 c-26 31 -27 32 -179 222 -144
180 -176 204 -244 185 -21 -5 -49 -21 -63 -36 -24 -25 -24 -27 -29 -292 -4
-228 -8 -272 -22 -299 -26 -47 -73 -76 -132 -81 -47 -4 -56 -1 -96 30 -27 20
-50 48 -57 68 -8 23 -12 118 -12 280 -1 224 -3 248 -21 277 -31 51 -90 71
-149 50z"/>
<path d="M4292 5440 c-220 -30 -411 -183 -506 -405 -29 -68 -30 -75 -31 -230
0 -144 2 -166 23 -220 91 -235 285 -393 522 -425 317 -43 609 142 711 452 30
90 30 286 0 376 -37 112 -81 182 -166 267 -62 63 -99 90 -165 122 -47 23 -105
46 -130 52 -72 15 -190 20 -258 11z m268 -284 c72 -36 151 -114 186 -185 27
-52 29 -64 29 -171 0 -106 -2 -119 -28 -170 -37 -73 -116 -151 -186 -186 -74
-37 -211 -46 -292 -19 -102 34 -182 104 -236 207 -26 49 -28 61 -28 168 0 111
1 117 33 176 42 77 102 138 167 172 76 38 92 42 200 39 86 -2 107 -7 155 -31z"/>
<path d="M4945 5442 c-76 -25 -108 -109 -70 -182 25 -48 61 -60 180 -60 l105
0 0 -465 c0 -507 0 -510 56 -554 24 -19 38 -22 83 -19 45 4 59 10 83 37 l28
31 0 485 0 485 75 0 75 0 0 -457 c0 -282 4 -472 10 -495 6 -20 25 -49 42 -63
28 -24 39 -27 86 -23 41 4 60 11 80 32 l27 26 5 488 5 487 125 5 c167 7 200
27 200 125 0 43 -5 56 -30 82 -16 17 -44 33 -61 37 -42 8 -1078 6 -1104 -2z"/>
<path d="M6683 5440 c-141 -19 -250 -76 -360 -186 -64 -64 -89 -98 -120 -162
-21 -45 -41 -82 -44 -82 -3 0 -10 15 -15 32 -19 65 -108 97 -174 63 -61 -31
-61 -35 -58 -480 l3 -405 28 -27 c24 -24 35 -28 86 -28 45 0 64 5 81 20 43 38
50 74 50 247 l0 163 41 -84 c32 -66 59 -102 123 -166 126 -126 257 -184 424
-188 129 -3 129 -2 307 253 39 55 90 129 115 165 25 35 88 126 140 201 l95
137 5 -339 c4 -270 8 -343 19 -360 49 -74 177 -70 216 6 14 26 15 102 13 594
l-3 564 -24 26 c-51 55 -152 52 -192 -4 -19 -27 -401 -573 -583 -833 l-111
-159 -43 6 c-101 13 -218 100 -273 202 -57 107 -57 265 1 371 33 59 119 141
180 171 50 25 65 27 170 27 106 0 120 -2 174 -28 74 -36 115 -31 163 20 38 39
44 92 18 143 -43 82 -275 144 -452 120z"/>
</g>
</svg>
