<?xml version="1.0" standalone="no"?>
<!DOCTYPE svg PUBLIC "-//W3C//DTD SVG 20010904//EN"
 "http://www.w3.org/TR/2001/REC-SVG-20010904/DTD/svg10.dtd">
<svg version="1.0" xmlns="http://www.w3.org/2000/svg"
 width="960.000000pt" height="960.000000pt" viewBox="0 0 960.000000 960.000000"
 preserveAspectRatio="xMidYMid meet">
<metadata>
Created by potrace 1.15, written by Peter Selinger 2001-2017
</metadata>
<g transform="translate(0.000000,960.000000) scale(0.100000,-0.100000)"
fill="#3f3f3f" stroke="none">
<path d="M3635 6125 c-270 -50 -605 -163 -893 -300 -176 -85 -192 -97 -192
-144 0 -87 64 -253 137 -355 129 -181 336 -347 582 -468 l103 -51 -118 -61
c-195 -101 -359 -219 -468 -337 -134 -144 -236 -353 -236 -481 0 -36 3 -39 71
-79 134 -78 466 -214 679 -278 112 -33 334 -85 413 -96 l47 -6 0 444 c0 379 2
451 16 498 19 64 63 152 96 193 l24 28 99 -21 c486 -106 1103 -108 1596 -5
l129 26 20 -23 c36 -43 90 -163 105 -234 12 -55 15 -159 15 -487 0 -328 3
-418 13 -418 37 1 273 54 396 89 318 91 801 301 801 348 0 8 -7 49 -16 91 -57
279 -313 554 -696 749 l-116 59 76 38 c251 123 457 282 582 448 92 122 143
240 165 385 l6 41 -83 47 c-278 156 -810 339 -1078 371 l-55 6 0 -448 c0 -445
0 -450 -23 -514 -24 -66 -81 -168 -105 -188 -9 -8 -37 -5 -98 8 -447 100
-1019 111 -1489 29 -63 -11 -144 -26 -180 -34 -75 -16 -72 -18 -125 70 -74
124 -75 133 -75 631 l0 444 -27 -1 c-16 -1 -59 -7 -98 -14z m1425 -1160 c52
-7 135 -26 185 -40 95 -28 247 -95 259 -114 10 -16 -154 -92 -266 -125 -153
-44 -291 -59 -488 -53 -236 8 -415 48 -570 128 -92 47 -91 43 -3 87 118 60
274 106 418 125 81 11 378 6 465 -8z"/>
</g>
</svg>
