<?xml version="1.0" standalone="no"?>
<!DOCTYPE svg PUBLIC "-//W3C//DTD SVG 20010904//EN"
 "http://www.w3.org/TR/2001/REC-SVG-20010904/DTD/svg10.dtd">
<svg version="1.0" xmlns="http://www.w3.org/2000/svg"
 width="960.000000pt" height="960.000000pt" viewBox="0 0 960.000000 960.000000"
 preserveAspectRatio="xMidYMid meet">
<metadata>
Created by potrace 1.15, written by Peter Selinger 2001-2017
</metadata>
<g transform="translate(0.000000,960.000000) scale(0.100000,-0.100000)"
fill="#3f3f3f" stroke="none">
<path d="M4555 7579 c-563 -53 -1079 -261 -1515 -612 -140 -113 -356 -335
-462 -477 -292 -390 -465 -804 -539 -1290 -33 -211 -33 -592 0 -800 94 -606
344 -1114 756 -1539 318 -327 663 -548 1086 -696 668 -232 1425 -200 2058 90
775 355 1297 1035 1466 1912 40 210 50 318 50 588 0 269 -8 354 -47 513 l-10
42 -1299 0 -1299 0 0 -540 0 -540 745 0 c410 0 745 -3 745 -6 0 -4 -14 -54
-30 -112 -153 -528 -600 -870 -1230 -943 -145 -16 -435 -6 -558 20 -221 47
-442 143 -625 271 -118 83 -303 268 -389 390 -125 176 -221 398 -270 623 -19
89 -22 131 -22 327 0 195 3 238 22 327 73 335 215 596 451 834 231 230 481
369 806 445 113 27 133 28 350 28 212 0 239 -2 345 -26 126 -28 277 -81 385
-136 75 -37 256 -154 275 -177 7 -8 16 -15 21 -15 17 0 810 803 805 816 -8 21
-160 138 -297 229 -522 348 -1161 511 -1774 454z"/>
</g>
</svg>
