<?xml version="1.0" standalone="no"?>
<!DOCTYPE svg PUBLIC "-//W3C//DTD SVG 20010904//EN"
 "http://www.w3.org/TR/2001/REC-SVG-20010904/DTD/svg10.dtd">
<svg version="1.0" xmlns="http://www.w3.org/2000/svg"
 width="960.000000pt" height="960.000000pt" viewBox="0 0 960.000000 960.000000"
 preserveAspectRatio="xMidYMid meet">
<metadata>
Created by potrace 1.15, written by Peter Selinger 2001-2017
</metadata>
<g transform="translate(0.000000,960.000000) scale(0.100000,-0.100000)"
fill="#3f3f3f" stroke="none">
<path d="M2192 5098 c-6 -6 -12 -17 -12 -22 0 -6 -6 -22 -13 -36 -7 -14 -21
-47 -31 -75 -10 -27 -30 -75 -43 -105 -14 -30 -40 -93 -58 -140 -18 -47 -47
-116 -64 -153 -35 -77 -33 -80 44 -75 l47 3 25 68 25 68 126 -3 c99 -2 126 -6
133 -18 4 -8 16 -37 27 -65 l20 -50 56 -3 c72 -4 72 -6 1 153 -17 38 -112 274
-135 337 -41 109 -52 123 -95 126 -23 2 -46 -3 -53 -10z m84 -233 c7 -16 22
-54 33 -82 l21 -53 -90 0 c-50 0 -90 3 -90 6 0 3 9 26 19 52 11 26 30 75 43
109 l23 62 14 -32 c8 -18 20 -45 27 -62z"/>
<path d="M2597 5104 c-4 -4 -7 -144 -7 -311 l0 -304 158 3 157 3 0 45 0 45
-102 3 -103 3 -2 257 -3 257 -45 3 c-25 2 -49 0 -53 -4z"/>
<path d="M2960 4800 l0 -310 173 2 172 3 0 45 0 45 -117 3 -116 3 -4 75 c-2
42 -1 78 1 80 2 2 55 4 118 4 l113 0 0 50 0 50 -115 0 -115 0 0 81 0 80 111
-2 c62 -1 115 3 120 8 6 6 9 28 7 49 l-3 39 -172 3 -173 2 0 -310z"/>
<path d="M3365 5100 c-3 -5 3 -22 13 -37 11 -16 27 -39 36 -53 9 -14 43 -65
76 -114 l60 -88 -29 -37 c-15 -20 -30 -40 -32 -46 -2 -5 -34 -56 -72 -111 -37
-56 -67 -107 -67 -113 0 -7 21 -11 55 -11 46 0 57 4 68 23 8 12 26 42 41 67
15 25 42 69 60 98 l34 53 23 -38 c12 -21 47 -75 76 -120 l54 -83 54 0 c30 0
56 3 58 8 3 4 -40 73 -94 155 -55 81 -99 151 -99 155 0 9 9 23 119 190 34 52
59 98 55 103 -3 5 -27 9 -55 9 -55 0 -57 -3 -144 -145 -22 -36 -42 -65 -45
-64 -5 0 -55 76 -106 162 -29 46 -29 47 -81 47 -28 0 -55 -4 -58 -10z"/>
<path d="M4332 5098 c-5 -7 -13 -24 -17 -38 -4 -14 -18 -47 -31 -74 -13 -28
-24 -54 -24 -59 0 -5 -6 -23 -14 -40 -8 -18 -24 -54 -36 -82 -11 -27 -25 -58
-30 -67 -6 -10 -10 -23 -10 -29 0 -6 -6 -25 -14 -42 -84 -186 -84 -179 -9
-175 l56 3 21 55 c32 84 24 80 157 80 l119 0 24 -52 c13 -29 26 -61 29 -70 5
-14 18 -18 56 -18 27 0 53 5 57 11 3 6 -19 72 -51 147 -31 75 -64 155 -73 177
-8 22 -24 60 -35 85 -11 25 -28 70 -39 99 -29 85 -42 101 -87 101 -21 0 -43
-6 -49 -12z m69 -186 c9 -26 28 -77 42 -114 l25 -68 -89 0 c-49 0 -89 3 -89 6
0 3 6 20 14 37 26 57 66 165 66 176 0 26 16 7 31 -37z"/>
<path d="M4732 5102 c-9 -7 -12 -75 -10 -308 l3 -299 53 -3 52 -3 0 221 0 222
71 -104 c39 -57 107 -156 151 -221 l80 -118 47 3 46 3 0 305 0 305 -47 3 c-34
2 -48 -1 -49 -10 -1 -7 0 -107 1 -223 1 -184 0 -208 -13 -195 -8 8 -57 78
-109 155 -195 288 -180 270 -224 273 -21 1 -45 -2 -52 -6z"/>
<path d="M5335 5097 c-3 -7 -4 -145 -3 -307 l3 -295 134 -3 c167 -3 213 9 288
81 61 58 83 116 83 224 0 158 -74 262 -211 299 -70 18 -288 19 -294 1z m297
-111 c70 -30 104 -104 95 -212 -7 -89 -29 -128 -90 -159 -41 -20 -66 -25 -124
-25 l-73 0 0 203 c0 112 3 207 8 211 11 13 143 -1 184 -18z"/>
<path d="M6277 4998 c-25 -62 -58 -142 -72 -178 -15 -36 -33 -79 -40 -95 -52
-114 -85 -201 -85 -222 0 -9 16 -13 49 -13 56 0 61 5 89 80 l20 55 127 0 127
0 20 -55 c12 -30 25 -61 31 -67 11 -15 103 -18 111 -4 3 5 -7 40 -23 77 -16
38 -41 101 -56 139 -16 39 -34 84 -41 100 -7 17 -22 55 -34 85 -11 30 -25 64
-30 75 -5 11 -20 46 -34 78 l-25 57 -44 0 -44 0 -46 -112z m111 -83 c5 -22 20
-65 32 -95 39 -98 43 -90 -54 -90 -47 0 -86 2 -86 4 0 1 12 34 26 72 14 38 32
91 41 117 18 53 25 51 41 -8z"/>
<path d="M6715 5097 c-3 -7 -4 -145 -3 -307 l3 -295 50 0 50 0 0 218 c0 119 1
217 2 217 1 0 30 -42 64 -92 62 -93 96 -142 186 -273 l48 -70 50 0 50 0 0 305
0 305 -50 0 -50 0 -3 -219 -2 -220 -33 50 c-19 27 -54 78 -78 114 -25 36 -78
113 -118 173 l-73 107 -44 0 c-27 0 -47 -5 -49 -13z"/>
<path d="M7325 5098 c-3 -7 -4 -146 -3 -308 l3 -295 50 0 50 0 0 305 0 305
-48 3 c-32 2 -49 -1 -52 -10z"/>
<path d="M7526 5085 c-33 -30 -35 -81 -6 -113 48 -51 140 -16 140 54 0 24 -8
39 -31 58 -38 33 -69 33 -103 1z"/>
</g>
</svg>
