<?xml version="1.0" encoding="iso-8859-1"?>
<!-- Generator: Adobe Illustrator 22.0.1, SVG Export Plug-In . SVG Version: 6.00 Build 0)  -->
<svg version="1.1" id="Layer_1" xmlns="http://www.w3.org/2000/svg" xmlns:xlink="http://www.w3.org/1999/xlink" x="0px" y="0px"
	 width="720px" height="720px" viewBox="0 0 720 720" style="enable-background:new 0 0 720 720;" xml:space="preserve">
<g>
	<path style="fill:#FDFDFD;" d="M360.75,720.75c-118.875,0-237.75-0.012-356.625,0.07c-2.812,0.002-3.446-0.634-3.445-3.445
		c0.076-237.75,0.076-475.5,0-713.25C0.679,1.313,1.313,0.679,4.125,0.68c237.75,0.076,475.5,0.076,713.25,0
		c2.812-0.001,3.446,0.633,3.445,3.445c-0.076,237.75-0.076,475.5,0,713.25c0.001,2.812-0.633,3.447-3.445,3.445
		C598.5,720.738,479.625,720.75,360.75,720.75z"/>
	<path style="fill:#707070;" d="M238.509,374.218c-6.474-5.831-7.984-16.545-3.946-24.347c3.159-6.103,14.424-9.858,21.798-2.215
		c1.47-0.646,0.019-3.316,2.253-3.353c2.738-0.045,5.491-0.066,8.212,0.187c1.039,0.097,0.751,1.423,0.752,2.243
		c0.013,8.614,0.191,17.235-0.071,25.841c-0.236,7.744-4.209,12.596-11.727,14.488c-6.306,1.587-12.65,1.648-18.495-1.824
		c-4.061-2.412-4.089-3.616-0.607-6.809c0.911-0.835,1.717-1.785,2.572-2.683c2.259-0.719,3.545,1.269,5.287,1.958
		c3.979,1.574,6.676,0.833,9.09-3.141C248.28,377.26,243.281,377.903,238.509,374.218z"/>
	<path style="fill:#707070;" d="M352.182,359.611c-1.192,4.379-2.494,8.733-3.536,13.148c-0.629,2.663-1.719,3.88-4.756,3.77
		c-6.918-0.251-6.928-0.065-8.973-6.576c-2.384-7.59-4.761-15.182-7.154-22.815c-0.354,0.194-0.655,0.277-0.659,0.374
		c-0.251,5.444-0.246,5.543-5.763,5.676c-1.953,0.047-2.666,0.6-2.555,2.573c0.14,2.49-0.002,4.995,0.036,7.493
		c0.065,4.246,1.34,5.714,5.414,4.974c2.902-0.527,3.137,0.988,3.424,2.868c0.31,2.029,1.725,4.324-1.834,5.273
		c-3.712,0.991-7.372,1.378-11.08,0.458c-5.013-1.243-7.819-4.41-7.922-9.57c-0.199-9.865-0.057-19.735-0.13-29.603
		c-0.013-1.754,0.537-2.571,2.352-2.363c0.616,0.071,1.248,0.002,1.872,0.011c2.371,0.032,5.195-0.722,6.998,0.308
		c2.172,1.242,0.728,4.337,0.836,6.6c0.1,2.096,1.24,2.051,2.7,2.043c4.622-0.026,9.249,0.131,13.863-0.062
		c2.363-0.099,3.278,0.769,3.785,2.983c1.021,4.459,2.326,8.854,4.161,13.295c1.322-4.431,2.774-8.829,3.912-13.306
		c0.568-2.236,1.602-2.934,3.879-2.916c6.275,0.05,6.279-0.059,8.038,5.82c1.031,3.446,2.05,6.897,3.808,10.414
		c1.116-4.434,2.323-8.847,3.307-13.31c0.477-2.165,1.383-3.162,3.735-2.973c2.574,0.207,5.177,0.047,8.17,0.047
		c-3.189,10.421-6.253,20.399-9.286,30.387c-0.441,1.451-1.371,1.762-2.793,1.843c-8.343,0.476-8.331,0.511-10.582-7.742
		c-0.831-3.049-1.723-6.081-2.587-9.121C352.635,359.611,352.409,359.611,352.182,359.611z"/>
	<path style="fill:#707070;" d="M150.466,360.484c1.312-4.407,2.735-8.785,3.889-13.232c0.556-2.142,1.409-3.326,3.798-2.976
		c1.1,0.161,2.269,0.181,3.361-0.003c2.567-0.434,3.453,0.928,4.048,3.13c1.195,4.417,2.597,8.779,4.578,13.142
		c1.104-4.393,2.302-8.764,3.275-13.186c0.504-2.29,1.441-3.21,3.977-3.183c8.024,0.085,8.032-0.039,5.623,7.779
		c-2.2,7.14-4.519,14.245-6.567,21.428c-0.658,2.308-1.63,3.146-4.086,3.118c-7.574-0.084-7.573,0.026-9.551-7.225
		c-0.874-3.203-1.758-6.403-3.322-9.712c-1.276,4.594-2.667,9.16-3.78,13.794c-0.552,2.301-1.471,3.197-4.004,3.158
		c-7.592-0.119-7.598,0.015-9.791-7.076c-2.355-7.614-4.643-15.25-7.091-22.834c-0.594-1.841-0.319-2.561,1.654-2.365
		c0.247,0.024,0.499-0.002,0.748-0.007c8.313-0.16,8.314-0.16,10.407,7.896c0.713,2.745,1.423,5.492,2.134,8.238
		C150,360.407,150.233,360.445,150.466,360.484z"/>
	<path style="fill:#707070;" d="M479.273,349.281c2.79-3.243,5.226-5.136,8.462-5.707c7.745-1.366,13.422,3.115,13.815,11.316
		c0.305,6.36,0.041,12.747,0.12,19.12c0.021,1.716-0.479,2.632-2.313,2.448c-0.124-0.012-0.25-0.002-0.375,0.004
		c-9.89,0.5-9.889,0.5-9.891-9.456c-0.001-2.5,0.004-5-0.024-7.499c-0.032-2.781-0.927-5.103-4.088-5.257
		c-3.27-0.159-5.245,1.843-5.509,4.944c-0.327,3.849-0.177,7.74-0.192,11.612c-0.022,5.62-0.006,5.62-5.432,5.63
		c-7.016,0.014-6.932,0.014-6.902-7.068c0.048-11.612,0.034-23.226-0.099-34.837c-0.026-2.244,0.471-2.995,2.861-3.029
		c9.554-0.133,9.554-0.225,9.567,9.448C479.276,343.4,479.273,345.85,479.273,349.281z"/>
	<path style="fill:#707070;" d="M282.097,348.405c1.548-0.009,1.807-1.197,2.507-1.796c3.869-3.312,8.22-4.052,12.951-2.419
		c4.641,1.602,6.538,5.448,6.762,9.891c0.34,6.732,0.092,13.493,0.186,20.24c0.023,1.675-0.657,2.266-2.209,2.138
		c-0.124-0.01-0.25,0.002-0.375,0.009c-9.968,0.532-9.961,0.532-9.972-9.398c-0.003-2.749-0.043-5.497-0.095-8.246
		c-0.045-2.394-1.016-4.188-3.563-4.517c-2.671-0.344-4.654,0.8-5.555,3.393c-1.267,3.644-0.549,7.438-0.603,11.161
		c-0.11,7.582-0.044,7.34-7.679,7.678c-3.862,0.171-4.778-0.977-4.702-4.725c0.25-12.243,0.198-24.495,0.04-36.741
		c-0.036-2.827,0.724-3.603,3.54-3.575c8.768,0.087,8.769-0.033,8.768,8.781C282.096,342.973,282.097,345.668,282.097,348.405z"/>
	<path style="fill:#707070;" d="M400.185,347.64c1.344-0.951,0.274-3.245,2.226-3.32c2.717-0.105,5.481-0.47,8.152,0.249
		c0.776,0.209,0.57,1.287,0.571,2.01c0.013,9.105-0.03,18.211,0.043,27.315c0.016,1.942-0.636,2.74-2.591,2.565
		c-1.237-0.111-2.5-0.107-3.739-0.003c-2.801,0.233-5.188,0.047-4.055-5.014c-4.837,5.663-9.823,6.958-15.595,5.162
		c-0.942-0.293-1.883-0.696-2.712-1.226c-8.794-5.622-8.436-24.859,0.541-30.187C388.286,342.068,395.022,343.024,400.185,347.64z"
		/>
	<path style="fill:#707070;" d="M524.463,363.724c-2.625,0-5.252,0.063-7.874-0.018c-2.47-0.077-2.484,0.967-1.403,2.686
		c1.971,3.133,7.242,3.719,10.718,1.18c1.638-1.197,7.965,1.04,8.054,2.972c0.076,1.651-1.442,2.537-2.587,3.439
		c-5.377,4.235-15.921,4.58-22.047,0.784c-5.329-3.301-7.914-10.397-6.523-17.909c1.787-9.653,9.091-14.597,19.656-13.304
		c8.099,0.991,13.272,7.924,12.837,17.022c-0.11,2.297-0.782,3.428-3.336,3.195C529.479,363.547,526.963,363.723,524.463,363.724z"
		/>
	<path style="fill:#707070;" d="M204.879,363.731c-2.619,0-5.24,0.07-7.856-0.02c-2.515-0.086-2.4,1.081-1.439,2.726
		c1.813,3.107,7.32,3.681,10.691,1.13c1.637-1.239,6.243-0.054,7.715,2.3c1.349,2.159-0.962,3.054-2.118,4.005
		c-6.329,5.204-18.96,4.589-24.619-1.065c-5.403-5.398-5.817-17.095-0.835-23.606c4.155-5.429,13.467-7.502,20.526-4.568
		c6,2.494,9.516,9.498,8.624,16.72c-0.242,1.962-1.012,2.482-2.833,2.396c-2.613-0.123-5.236-0.031-7.855-0.031
		C204.879,363.723,204.879,363.727,204.879,363.731z"/>
	<path style="fill:#707070;" d="M574.857,343.513c4.332-0.068,8.404,0.717,11.895,3.568c1.561,1.275,2.068,2.343,0.224,3.766
		c-0.781,0.603-1.458,1.374-2.071,2.156c-1.183,1.51-2.211,1.941-3.897,0.425c-1.832-1.646-4.28-1.923-6.709-1.767
		c-1.222,0.078-2.736-0.063-2.993,1.576c-0.262,1.666,1.197,1.97,2.386,2.307c2.516,0.713,5.096,1.229,7.56,2.083
		c4.98,1.725,7.109,4.691,7.009,9.376c-0.097,4.529-2.537,7.907-7.319,9.226c-6.966,1.921-13.85,1.872-20.083-2.447
		c-1.163-0.806-3.374-2.083-1.046-3.639c1.736-1.16,1.935-5.726,5.764-2.918c2.725,1.998,5.873,2.702,9.214,2.271
		c1.058-0.137,2.473-0.237,2.636-1.644c0.169-1.456-1.142-1.741-2.232-2.038c-1.923-0.525-3.876-0.952-5.778-1.545
		c-6.105-1.906-9.466-6.253-8.861-11.359c0.648-5.467,4.729-8.87,11.307-9.387C572.855,343.446,573.859,343.513,574.857,343.513z"/>
	<path style="fill:#707070;" d="M451.638,343.406c4.785-0.093,9.218,0.771,12.533,4.636c0.485,0.565,1.396,1.352,1.264,1.765
		c-0.954,2.964-4.129,3.588-6.137,5.483c-0.82,0.774-1.638,1.348-2.716-0.083c-1.832-2.434-4.56-2.573-7.146-1.611
		c-2.58,0.96-3.093,3.432-3.137,5.894c-0.054,3.001-0.308,6.3,2.875,7.953c3.152,1.637,6.1,0.85,8.239-2.078
		c0.712-0.974,1.254-0.404,1.864-0.088c0.775,0.401,1.517,0.869,2.273,1.307c5.186,3.001,5.248,4.346,0.359,7.839
		c-7.093,5.067-19.987,3.476-24.562-3.031c-5.273-7.499-3.422-20.808,3.538-25.381C444.156,343.863,447.834,343.368,451.638,343.406
		z"/>
	<path style="fill:#707070;" d="M413.466,351.515c0-4.491,0.088-8.984-0.039-13.472c-0.059-2.101,0.61-3.03,2.76-2.759
		c0.737,0.093,1.495,0.015,2.244,0.014c6.845-0.004,6.984-0.011,7.329,6.701c0.136,2.639,1.688,2.104,3.249,2.281
		c1.643,0.186,4.118-1.021,4.749,0.84c0.72,2.125,0.496,4.728,0.104,7.024c-0.318,1.862-2.359,1.136-3.496,0.963
		c-3.933-0.598-5.144,1.061-4.571,4.721c0.171,1.096,0.034,2.241,0.03,3.364c-0.023,6.656-0.025,6.749,6.671,6.842
		c1.835,0.025,1.709,1.114,1.771,2.149c0.113,1.887,2.243,3.986-0.555,5.616c-9.221,5.373-19.885-0.291-20.207-10.812
		c-0.137-4.487-0.023-8.981-0.023-13.472C413.476,351.515,413.471,351.515,413.466,351.515z"/>
	<path style="fill:#707070;" d="M548.024,349.697c2.54-3.257,5.075-5.368,8.552-6.122c1.726-0.374,2.987-0.159,2.789,2.108
		c-0.097,1.113-0.065,2.251,0.034,3.366c0.315,3.526,0.332,6.338-4.615,6.779c-3.186,0.284-4.611,3.45-5.133,6.633
		c-0.61,3.724-0.421,7.471-0.337,11.205c0.047,2.102-0.672,2.748-2.792,2.819c-9.593,0.324-9.59,0.391-9.589-9.009
		c0.001-6.488,0.19-12.985-0.083-19.462c-0.137-3.251,0.983-4.281,3.99-3.77c0.121,0.021,0.249,0.008,0.374,0.002
		C544.793,344.058,548.595,343.545,548.024,349.697z"/>
	<path style="fill:#707070;" d="M217.721,360.385c-0.002-4.362,0.133-8.729-0.053-13.082c-0.109-2.541,0.856-3.103,3.232-3.114
		c9.349-0.043,9.344-0.121,9.338,9.229c-0.004,6.604-0.071,13.21,0.049,19.813c0.041,2.253-0.334,3.279-2.986,3.299
		c-9.578,0.073-9.577,0.184-9.578-9.415C217.723,364.872,217.723,362.628,217.721,360.385z"/>
	<path style="fill:#717171;" d="M223.913,342.062c-4.581-0.036-6.877-2.046-6.85-5.996c0.026-3.828,2.562-6.026,6.937-6.013
		c4.354,0.013,6.902,2.284,6.835,6.094C230.767,340.095,228.424,342.097,223.913,342.062z"/>
	<path style="fill:#F9F9F9;" d="M238.509,374.218c5.763,2.369,11.281,2.697,16.344-2.37c0.351,3.071-0.432,5.361-2.78,6.626
		c-3.199,1.723-6.438,1.211-9.54-0.619c-1.124-0.664-1.605-2.328-3.283-2.107C239.002,375.238,238.756,374.728,238.509,374.218z"/>
	<path style="fill:#FDFDFD;" d="M244.285,359.818c-0.022-4.897,1.856-7.419,5.461-7.331c3.393,0.082,5.38,2.723,5.382,7.148
		c0.002,4.734-1.969,7.28-5.622,7.263C245.935,366.882,244.307,364.674,244.285,359.818z"/>
	<path style="fill:#707070;" d="M347.874,357.509c-0.351-0.524-1.837-1.911-1.57-2.485c1.3-2.804,0.952-6.056,2.484-8.687
		c0.766-1.316,5.509-0.726,6.31,0.681c1.795,3.152,4.274,6.058,3.829,10.075c-0.093,0.842,0.721,1.203,1.53,1.941
		c-1.536,0.184-2.669,0.319-3.802,0.454c2.244,0.809,4.835,0.707,5.192,3.956c0.107,0.974,1.263,0.741,1.91,0.587
		c1.146-0.274,0.276-0.883,0.067-1.351c-0.663-1.484,1.344-2.107,1.123-3.458c0.231,0.519,0.462,1.039,0.606,1.364
		c2.518-3.242,0.192-7.1,1.223-10.636c0.931-3.196,3.742-4.564,6.499-3.179c2.118,1.064,1.112,3.941,0.981,4.431
		c-1.232,4.604-1.779,9.492-4.695,13.584c-1.198,1.682-2.049,1.31-3.461,0.242c1.066,1.617,0.24,3.415,1.207,4.84
		c1.053,1.552,1.838,3.364-0.25,4.466c-2.024,1.068-4.548,1.52-6.464-0.125c-3.099-2.662-2.971-2.802-4.371-9.812
		c-0.434-2.175-2.395-3.706-2.377-6.202c0.007-0.966-2.172-0.091-3.095-1.303C348.998,354.592,349.471,358.338,347.874,357.509z"/>
	<path style="fill:#707070;" d="M330.215,348.695c1.875,0,3.591-0.126,5.278,0.04c1.361,0.134,3.096-0.07,3.169,2.195
		c0.059,1.818,0.897,3.968-2.046,4.166c-1.942,0.13-0.785,2.032-1.735,2.667c0.486,0.537,0.886,1.379,1.477,1.546
		c1.224,0.345,1.761-0.522,1.897-1.671c0.089-0.749,0.282-1.771,1.154-1.587c1.382,0.291,1.096,1.688,1.314,2.73
		c-0.997,0.291-0.828-0.973-1.214-0.944c-0.949,0.072-0.571,1.152-0.382,1.323c1.553,1.402,2.805,3.685,5.509,2.22
		c0.342,1.188-1.096,1.231-1.247,2.187c3.557,0.265,2.343-3.042,3.368-4.699c3.047,5.167,2.421,10.07-1.338,11.39
		c-0.349,1.022,2.718-0.113,1.044,1.566c-0.602,0.604-1.646,0.541-0.644,1.771c1.081,1.328-0.578,0.757-0.934,1.106
		c-1.198-2.656-3.203-0.653-4.467-0.398c-2.937,0.592-3.564-1.497-3.649-3.085c-0.21-3.957-2.971-6.935-3.542-10.691
		C332.625,356.549,330.184,353.051,330.215,348.695z"/>
	<path style="fill:#707070;" d="M331.615,346.634c1.403,0,2.806,0,4.209,0c0.009,0.123,0.017,0.246,0.026,0.369
		c-1.394,0-2.788,0-4.182,0C331.651,346.88,331.633,346.757,331.615,346.634z"/>
	<path style="fill:#FDFDFD;" d="M399.036,360.452c0.117,1.651-0.234,3.349-1.074,4.923c-1.129,2.115-2.99,2.989-5.298,2.723
		c-2.22-0.255-3.523-1.661-4.132-3.788c-0.78-2.725-0.7-5.456,0.076-8.132c0.639-2.205,2.025-3.683,4.551-3.727
		c2.551-0.045,4.261,1.055,5.177,3.462C398.88,357.343,399.071,358.806,399.036,360.452z"/>
	<path style="fill:#F9F9F9;" d="M519.111,357.24c-1.431-0.964-4.268,1.279-4.45-1.502c-0.155-2.376,2.024-3.827,4.571-3.872
		c2.647-0.047,4.647,1.511,4.383,3.944C523.329,358.445,520.591,356.331,519.111,357.24z"/>
	<path style="fill:#F9F9F9;" d="M199.523,357.238c-1.54-0.848-3.944,1.123-4.669-1.344c-0.544-1.852,2.475-4.192,4.877-4.033
		c2.354,0.156,4.395,1.383,4.191,3.781C203.671,358.608,200.897,356.233,199.523,357.238z"/>
</g>
</svg>
