<?xml version="1.0" standalone="no"?>
<!DOCTYPE svg PUBLIC "-//W3C//DTD SVG 20010904//EN"
 "http://www.w3.org/TR/2001/REC-SVG-20010904/DTD/svg10.dtd">
<svg version="1.0" xmlns="http://www.w3.org/2000/svg"
 width="960.000000pt" height="960.000000pt" viewBox="0 0 960.000000 960.000000"
 preserveAspectRatio="xMidYMid meet">
<metadata>
Created by potrace 1.15, written by Peter Selinger 2001-2017
</metadata>
<g transform="translate(0.000000,960.000000) scale(0.100000,-0.100000)"
fill="#3f3f3f" stroke="none">
<path d="M2109 7726 c-99 -26 -165 -82 -217 -180 l-27 -51 0 -2695 0 -2695 34
-63 c40 -74 84 -115 161 -151 l55 -26 1443 -3 1442 -2 0 1140 0 1140 -380 0
-380 0 0 440 0 440 380 0 380 0 0 378 c0 424 10 538 61 707 54 177 131 311
247 429 166 169 367 262 649 302 92 13 162 15 318 11 209 -6 511 -24 533 -32
9 -3 12 -92 12 -399 l0 -394 -312 -4 c-342 -4 -362 -7 -458 -68 -52 -33 -104
-111 -119 -180 -6 -26 -11 -194 -11 -397 l0 -353 434 0 433 0 -3 -32 c-2 -18
-9 -69 -15 -113 -5 -44 -16 -129 -24 -190 -8 -60 -19 -146 -24 -190 -16 -117
-19 -139 -32 -252 l-12 -103 -378 0 -379 0 0 -1140 0 -1141 783 3 782 3 67 33
c75 36 123 88 160 168 l23 49 0 2685 0 2685 -26 55 c-37 80 -81 125 -157 162
l-67 33 -2665 2 c-2091 1 -2675 -1 -2711 -11z"/>
</g>
</svg>
