<?xml version="1.0" standalone="no"?>
<!DOCTYPE svg PUBLIC "-//W3C//DTD SVG 20010904//EN"
 "http://www.w3.org/TR/2001/REC-SVG-20010904/DTD/svg10.dtd">
<svg version="1.0" xmlns="http://www.w3.org/2000/svg"
 width="960.000000pt" height="960.000000pt" viewBox="0 0 960.000000 960.000000"
 preserveAspectRatio="xMidYMid meet">
<metadata>
Created by potrace 1.15, written by Peter Selinger 2001-2017
</metadata>
<g transform="translate(0.000000,960.000000) scale(0.100000,-0.100000)"
fill="#3f3f3f" stroke="none">
<path d="M2167 5493 c-4 -3 -7 -42 -7 -85 l0 -78 40 0 c22 0 40 -3 40 -6 0 -3
-34 -91 -75 -194 -41 -103 -99 -250 -129 -327 -30 -76 -79 -202 -110 -280 -31
-78 -56 -146 -56 -153 0 -7 35 -10 112 -8 l112 3 55 148 54 147 217 0 216 0
44 -122 c24 -68 49 -135 57 -150 l14 -28 124 0 125 0 0 85 0 85 -43 0 -42 0
-64 163 c-36 89 -75 186 -88 215 -13 29 -23 55 -23 57 0 16 -205 521 -214 527
-14 10 -350 10 -359 1z m279 -318 l29 -75 95 0 95 -1 -40 -37 c-22 -20 -53
-48 -69 -60 l-30 -23 21 -67 c11 -37 24 -76 28 -86 7 -16 -1 -14 -46 13 -119
71 -107 69 -190 18 -41 -24 -75 -44 -77 -42 -1 1 23 71 54 156 31 85 65 182
75 217 11 34 21 62 23 62 2 0 16 -34 32 -75z"/>
<path d="M3602 5418 l3 -73 32 -3 33 -3 2 -487 3 -487 85 0 85 0 5 215 c3 127
10 225 17 240 38 84 147 116 199 59 17 -19 19 -44 24 -268 l5 -246 85 0 85 0
3 270 c2 165 -1 284 -7 305 -12 40 -59 93 -102 115 -40 21 -145 30 -195 16
-23 -6 -58 -22 -78 -36 l-36 -24 0 239 0 240 -125 0 -126 0 3 -72z"/>
<path d="M4424 5396 c-43 -19 -64 -53 -64 -102 0 -51 27 -88 75 -104 41 -13
64 -8 105 26 91 77 -6 228 -116 180z"/>
<path d="M3304 5076 c-81 -19 -130 -45 -180 -98 -163 -169 -144 -469 36 -583
64 -40 134 -55 254 -54 61 1 125 4 141 8 30 6 30 7 33 80 l3 73 -103 -7 c-149
-10 -227 18 -265 95 -26 52 -24 182 4 235 35 68 99 108 161 103 37 -3 37 -3
40 -53 2 -27 7 -52 12 -55 7 -4 69 -5 133 -1 15 1 17 14 17 121 l0 120 -27 11
c-46 17 -192 20 -259 5z"/>
<path d="M4863 5071 c-105 -36 -167 -97 -210 -209 -35 -91 -37 -218 -3 -307
30 -80 105 -154 186 -185 65 -25 237 -38 338 -26 l56 7 0 73 0 73 -114 -5
c-158 -7 -198 1 -246 47 -63 60 -57 69 58 73 79 2 107 8 152 29 102 48 149
119 150 225 0 78 -19 123 -70 167 -68 58 -193 74 -297 38z m169 -158 c28 -25
19 -90 -16 -120 -44 -38 -167 -58 -193 -32 -28 28 32 139 91 165 38 17 91 11
118 -13z"/>
<path d="M6237 5080 c-98 -25 -178 -99 -223 -209 -38 -91 -40 -226 -6 -317 40
-105 129 -177 250 -203 57 -12 261 -13 302 -2 23 6 25 12 28 77 l3 71 -128 -5
c-154 -5 -199 5 -242 53 -48 55 -43 63 46 64 127 2 207 32 265 101 98 114 70
288 -55 352 -47 24 -178 33 -240 18z m156 -171 c40 -50 4 -120 -74 -143 -58
-17 -117 -20 -137 -7 -19 12 1 81 35 122 51 61 138 74 176 28z"/>
<path d="M7005 5067 c-56 -22 -110 -55 -135 -82 l-25 -27 -5 54 -5 53 -79 3
c-57 2 -82 -1 -87 -10 -5 -7 -9 -162 -9 -344 0 -273 2 -334 14 -343 9 -7 42
-11 88 -9 l73 3 5 180 c4 149 8 186 24 215 30 57 65 99 96 115 50 26 59 21 62
-37 l3 -53 70 0 70 0 3 148 3 147 -68 -1 c-38 0 -81 -6 -98 -12z"/>
<path d="M7405 5069 c-107 -25 -194 -130 -182 -220 7 -53 47 -112 89 -132 19
-9 77 -28 129 -43 52 -15 106 -33 121 -41 55 -27 46 -103 -17 -129 -36 -15
-142 -19 -162 -6 -7 4 -13 38 -15 82 l-3 75 -78 3 -78 3 3 -147 3 -148 30 -9
c17 -5 95 -10 175 -11 164 -1 218 11 284 66 51 42 76 98 76 173 0 116 -61 176
-222 215 -118 29 -148 44 -148 74 0 44 32 60 123 60 45 1 109 -1 142 -4 l60
-5 0 70 c0 69 0 70 -30 76 -46 10 -255 8 -300 -2z"/>
<path d="M4322 5062 c-9 -6 -12 -29 -10 -78 3 -68 3 -69 33 -74 l30 -5 5 -270
5 -270 85 0 85 0 0 350 0 350 -110 3 c-60 1 -116 -2 -123 -6z"/>
<path d="M5284 5060 c-7 -7 -8 -29 -2 -63 5 -29 22 -140 38 -247 17 -107 37
-238 45 -290 8 -52 15 -99 15 -104 0 -4 49 -7 108 -5 102 4 113 7 185 42 91
45 153 110 201 212 49 103 60 162 61 320 l0 140 -125 0 -125 0 -3 -72 -3 -73
36 0 35 0 0 -62 c-1 -172 -79 -317 -184 -344 -30 -7 -28 -15 -55 181 -35 245
-51 350 -56 363 -5 15 -156 17 -171 2z"/>
<path d="M1870 4170 l0 -80 565 0 565 0 0 80 0 80 -565 0 -565 0 0 -80z"/>
</g>
</svg>
